<svg xmlns="http://www.w3.org/2000/svg" xmlns:xlink="http://www.w3.org/1999/xlink" viewBox="0 0 577.83 315.72"><defs><style>.cls-1{isolation:isolate;}.cls-2{fill:#ebf2f9;}.cls-3{fill:#283250;}.cls-4{fill:#69bff4;}.cls-5{fill:#20363d;}.cls-6{fill:#65b1c2;}.cls-7{fill:url(#Áåçûìÿííûé_ãðàäèåíò_20);}.cls-8{fill:#b5d6db;}.cls-19,.cls-8{mix-blend-mode:multiply;}.cls-11,.cls-13,.cls-15,.cls-17,.cls-22,.cls-24,.cls-26,.cls-28,.cls-30,.cls-9{mix-blend-mode:screen;}.cls-9{fill:url(#Áåçûìÿííûé_ãðàäèåíò_72);}.cls-10{fill:url(#Áåçûìÿííûé_ãðàäèåíò_20-2);}.cls-11{fill:url(#Áåçûìÿííûé_ãðàäèåíò_72-2);}.cls-12{fill:url(#Áåçûìÿííûé_ãðàäèåíò_20-3);}.cls-13{fill:url(#Áåçûìÿííûé_ãðàäèåíò_72-3);}.cls-14{fill:url(#Áåçûìÿííûé_ãðàäèåíò_20-4);}.cls-15{fill:url(#Áåçûìÿííûé_ãðàäèåíò_72-4);}.cls-16{fill:url(#Áåçûìÿííûé_ãðàäèåíò_20-5);}.cls-17{fill:url(#Áåçûìÿííûé_ãðàäèåíò_72-5);}.cls-18{fill:url(#Áåçûìÿííûé_ãðàäèåíò_20-6);}.cls-19{fill:#0092a1;}.cls-20{fill:url(#Áåçûìÿííûé_ãðàäèåíò_20-7);}.cls-21{fill:url(#Áåçûìÿííûé_ãðàäèåíò_20-8);}.cls-22{fill:url(#Áåçûìÿííûé_ãðàäèåíò_72-6);}.cls-23{fill:url(#Áåçûìÿííûé_ãðàäèåíò_20-9);}.cls-24{fill:url(#Áåçûìÿííûé_ãðàäèåíò_72-7);}.cls-25{fill:url(#Áåçûìÿííûé_ãðàäèåíò_20-10);}.cls-26{fill:url(#Áåçûìÿííûé_ãðàäèåíò_72-8);}.cls-27{fill:url(#Áåçûìÿííûé_ãðàäèåíò_20-11);}.cls-28{fill:url(#Áåçûìÿííûé_ãðàäèåíò_72-9);}.cls-29{fill:url(#Áåçûìÿííûé_ãðàäèåíò_20-12);}.cls-30{fill:url(#Áåçûìÿííûé_ãðàäèåíò_72-10);}.cls-31{fill:url(#Áåçûìÿííûé_ãðàäèåíò_20-13);}.cls-32{fill:url(#Áåçûìÿííûé_ãðàäèåíò_20-14);}.cls-33{fill:#233862;}.cls-34{fill:#d9935c;}.cls-35{fill:#cb7d45;}.cls-36{fill:#2b478b;}.cls-37{fill:#b64c41;}.cls-38{fill:#4f52ff;}.cls-39{fill:#ffa412;}.cls-40{fill:#e27f2b;}.cls-41{fill:#4149d8;}.cls-42{fill:#f1a34f;}.cls-43{fill:#e9f3fe;}.cls-44{fill:#bed4f4;}.cls-45{fill:#afcdfb;}</style><linearGradient id="Áåçûìÿííûé_ãðàäèåíò_20" x1="115.96" y1="141.19" x2="-0.75" y2="143.86" gradientUnits="userSpaceOnUse"><stop offset="0" stop-color="#c2dbd4"/><stop offset="0.25" stop-color="#9cbfbb"/><stop offset="0.5" stop-color="#7da9a7"/><stop offset="0.72" stop-color="#6b9b9a"/><stop offset="0.87" stop-color="#649696"/></linearGradient><linearGradient id="Áåçûìÿííûé_ãðàäèåíò_72" x1="86.28" y1="144.08" x2="64.9" y2="140.39" gradientUnits="userSpaceOnUse"><stop offset="0" stop-color="#c6bfaa"/><stop offset="0.1" stop-color="#bdb7a3"/><stop offset="0.27" stop-color="#a6a08e"/><stop offset="0.47" stop-color="#807b6e"/><stop offset="0.71" stop-color="#4b4840"/><stop offset="0.97" stop-color="#070706"/><stop offset="1"/></linearGradient><linearGradient id="Áåçûìÿííûé_ãðàäèåíò_20-2" x1="115.11" y1="96.44" x2="-1.59" y2="99.1" xlink:href="#Áåçûìÿííûé_ãðàäèåíò_20"/><linearGradient id="Áåçûìÿííûé_ãðàäèåíò_72-2" x1="85.43" y1="99.33" x2="64.05" y2="95.63" xlink:href="#Áåçûìÿííûé_ãðàäèåíò_72"/><linearGradient id="Áåçûìÿííûé_ãðàäèåíò_20-3" x1="114.42" y1="183.87" x2="-2.28" y2="186.53" xlink:href="#Áåçûìÿííûé_ãðàäèåíò_20"/><linearGradient id="Áåçûìÿííûé_ãðàäèåíò_72-3" x1="84.74" y1="186.76" x2="63.36" y2="183.07" xlink:href="#Áåçûìÿííûé_ãðàäèåíò_72"/><linearGradient id="Áåçûìÿííûé_ãðàäèåíò_20-4" x1="114.42" y1="227.66" x2="-2.28" y2="230.33" xlink:href="#Áåçûìÿííûé_ãðàäèåíò_20"/><linearGradient id="Áåçûìÿííûé_ãðàäèåíò_72-4" x1="84.74" y1="230.56" x2="63.36" y2="226.86" xlink:href="#Áåçûìÿííûé_ãðàäèåíò_72"/><linearGradient id="Áåçûìÿííûé_ãðàäèåíò_20-5" x1="114.42" y1="272.02" x2="-2.28" y2="274.68" xlink:href="#Áåçûìÿííûé_ãðàäèåíò_20"/><linearGradient id="Áåçûìÿííûé_ãðàäèåíò_72-5" x1="84.74" y1="274.91" x2="63.36" y2="271.22" xlink:href="#Áåçûìÿííûé_ãðàäèåíò_72"/><linearGradient id="Áåçûìÿííûé_ãðàäèåíò_20-6" x1="12.15" y1="69.14" x2="14.11" y2="323.14" xlink:href="#Áåçûìÿííûé_ãðàäèåíò_20"/><linearGradient id="Áåçûìÿííûé_ãðàäèåíò_20-7" x1="96.78" y1="68.82" x2="98.74" y2="322.82" xlink:href="#Áåçûìÿííûé_ãðàäèåíò_20"/><linearGradient id="Áåçûìÿííûé_ãðàäèåíò_20-8" x1="2206.01" y1="142.17" x2="2089.3" y2="144.83" gradientTransform="matrix(-1, 0, 0, 1, 2667.88, 0)" xlink:href="#Áåçûìÿííûé_ãðàäèåíò_20"/><linearGradient id="Áåçûìÿííûé_ãðàäèåíò_72-6" x1="2176.33" y1="145.06" x2="2154.95" y2="141.37" gradientTransform="matrix(-1, 0, 0, 1, 2667.88, 0)" xlink:href="#Áåçûìÿííûé_ãðàäèåíò_72"/><linearGradient id="Áåçûìÿííûé_ãðàäèåíò_20-9" x1="2205.16" y1="97.41" x2="2088.46" y2="100.08" gradientTransform="matrix(-1, 0, 0, 1, 2667.88, 0)" xlink:href="#Áåçûìÿííûé_ãðàäèåíò_20"/><linearGradient id="Áåçûìÿííûé_ãðàäèåíò_72-7" x1="2175.48" y1="100.31" x2="2154.1" y2="96.61" gradientTransform="matrix(-1, 0, 0, 1, 2667.88, 0)" xlink:href="#Áåçûìÿííûé_ãðàäèåíò_72"/><linearGradient id="Áåçûìÿííûé_ãðàäèåíò_20-10" x1="2204.47" y1="184.84" x2="2087.77" y2="187.51" gradientTransform="matrix(-1, 0, 0, 1, 2667.88, 0)" xlink:href="#Áåçûìÿííûé_ãðàäèåíò_20"/><linearGradient id="Áåçûìÿííûé_ãðàäèåíò_72-8" x1="2174.79" y1="187.74" x2="2153.41" y2="184.04" gradientTransform="matrix(-1, 0, 0, 1, 2667.88, 0)" xlink:href="#Áåçûìÿííûé_ãðàäèåíò_72"/><linearGradient id="Áåçûìÿííûé_ãðàäèåíò_20-11" x1="2204.47" y1="228.64" x2="2087.77" y2="231.31" gradientTransform="matrix(-1, 0, 0, 1, 2667.88, 0)" xlink:href="#Áåçûìÿííûé_ãðàäèåíò_20"/><linearGradient id="Áåçûìÿííûé_ãðàäèåíò_72-9" x1="2174.79" y1="231.53" x2="2153.41" y2="227.84" gradientTransform="matrix(-1, 0, 0, 1, 2667.88, 0)" xlink:href="#Áåçûìÿííûé_ãðàäèåíò_72"/><linearGradient id="Áåçûìÿííûé_ãðàäèåíò_20-12" x1="2204.47" y1="273" x2="2087.77" y2="275.66" gradientTransform="matrix(-1, 0, 0, 1, 2667.88, 0)" xlink:href="#Áåçûìÿííûé_ãðàäèåíò_20"/><linearGradient id="Áåçûìÿííûé_ãðàäèåíò_72-10" x1="2174.79" y1="275.89" x2="2153.41" y2="272.19" gradientTransform="matrix(-1, 0, 0, 1, 2667.88, 0)" xlink:href="#Áåçûìÿííûé_ãðàäèåíò_72"/><linearGradient id="Áåçûìÿííûé_ãðàäèåíò_20-13" x1="2102.2" y1="70.12" x2="2104.16" y2="324.12" gradientTransform="matrix(-1, 0, 0, 1, 2667.88, 0)" xlink:href="#Áåçûìÿííûé_ãðàäèåíò_20"/><linearGradient id="Áåçûìÿííûé_ãðàäèåíò_20-14" x1="2186.83" y1="69.8" x2="2188.79" y2="323.8" gradientTransform="matrix(-1, 0, 0, 1, 2667.88, 0)" xlink:href="#Áåçûìÿííûé_ãðàäèåíò_20"/></defs><title>Asset 29</title><g class="cls-1"><g id="Layer_2" data-name="Layer 2"><g id="Layer_1-2" data-name="Layer 1"><path class="cls-2" d="M440.75,314.36s50.52-1.25,72.1-33.12c39.11-57.72,21.49-108.33-48.13-104.57C386.83,180.89,396.44,2,261.58,88.11c-29.28,18.7-94.45-20.58-120.49,61.27C134.9,168.84,88.4,170.2,58.35,185.8c-47.14,24.49-33.83,129,10.7,129.38S440.75,314.36,440.75,314.36Z"/><path class="cls-3" d="M537,315.72H27.6a.51.51,0,0,1-.5-.52h0a.51.51,0,0,1,.5-.52H537a.52.52,0,0,1,.51.52h0A.51.51,0,0,1,537,315.72Z"/><path class="cls-4" d="M99,116.39h-.82s.34-4.54,1.92-4.7,2.19,4.7,2.19,4.7Z"/><path class="cls-4" d="M487,117.2h-.82s.34-4.55,1.92-4.7,2.19,4.7,2.19,4.7Z"/><polygon class="cls-4" points="63.07 249.09 60.28 175.19 61.68 175.19 64.46 249.09 63.07 249.09"/><polygon class="cls-4" points="92.31 249.09 89.53 175.19 90.92 175.19 93.7 249.09 92.31 249.09"/><polygon class="cls-4" points="122.94 249.09 120.16 175.19 121.55 175.19 124.34 249.09 122.94 249.09"/><polygon class="cls-4" points="154.97 249.09 152.18 175.19 153.58 175.19 156.36 249.09 154.97 249.09"/><polygon class="cls-4" points="50.49 186.06 156.36 186.06 156.36 187.51 49.84 187.51 50.49 186.06"/><polygon class="cls-4" points="50.49 200.55 156.36 200.55 156.36 202 49.84 202 50.49 200.55"/><polygon class="cls-4" points="50.49 214.32 157.1 214.32 157.1 215.76 49.84 215.76 50.49 214.32"/><polygon class="cls-4" points="51.14 228.81 157.75 228.81 157.75 230.25 50.49 230.25 51.14 228.81"/><rect class="cls-4" x="72.12" y="173.74" width="14.62" height="12.32"/><rect class="cls-4" x="93.01" y="172.29" width="12.53" height="13.77"/><rect class="cls-4" x="106.93" y="175.19" width="11.14" height="10.87"/><rect class="cls-4" x="94.4" y="200.55" width="12.53" height="13.77"/><rect class="cls-4" x="108.32" y="203.45" width="11.14" height="10.87"/><rect class="cls-4" x="64.46" y="200.55" width="12.53" height="13.77"/><rect class="cls-4" x="78.39" y="203.45" width="11.14" height="10.87"/><rect class="cls-4" x="93.7" y="215.04" width="12.53" height="13.77"/><rect class="cls-4" x="123.64" y="204.17" width="11.14" height="10.87"/><rect class="cls-4" x="78.39" y="217.94" width="11.14" height="10.87"/><rect class="cls-4" x="64.46" y="217.94" width="11.14" height="10.87"/><rect class="cls-4" x="79.78" y="236.05" width="11.14" height="10.87"/><rect class="cls-4" x="65.85" y="236.05" width="11.14" height="10.87"/><rect class="cls-4" x="109.02" y="235.33" width="11.14" height="10.87"/><rect class="cls-4" x="95.1" y="235.33" width="11.14" height="10.87"/><rect class="cls-4" x="123.64" y="170.85" width="16.71" height="15.21"/><polygon class="cls-4" points="244.78 254.16 241.99 180.26 243.39 180.26 246.17 254.16 244.78 254.16"/><polygon class="cls-4" points="274.02 254.16 271.23 180.26 272.63 180.26 275.41 254.16 274.02 254.16"/><polygon class="cls-4" points="302.93 254.16 303.59 180.2 304.98 180.27 304.32 254.23 302.93 254.16"/><polygon class="cls-4" points="331.56 254.16 332.04 180.2 333.43 180.27 332.96 254.22 331.56 254.16"/><polygon class="cls-4" points="240.49 191.13 336.09 191.13 336.09 192.58 239.91 192.58 240.49 191.13"/><polygon class="cls-4" points="240.49 205.62 336.09 205.62 336.09 207.07 239.91 207.07 240.49 205.62"/><polygon class="cls-4" points="240.49 219.39 336.09 219.39 336.09 220.84 239.91 220.84 240.49 219.39"/><polygon class="cls-4" points="241.07 233.88 336.68 233.88 336.68 235.33 240.49 235.33 241.07 233.88"/><rect class="cls-4" x="253.83" y="178.81" width="14.62" height="12.32"/><rect class="cls-4" x="274.71" y="177.37" width="12.53" height="13.77"/><rect class="cls-4" x="288.64" y="180.26" width="11.14" height="10.87"/><rect class="cls-4" x="276.11" y="205.62" width="12.53" height="13.77"/><rect class="cls-4" x="290.03" y="208.52" width="11.14" height="10.87"/><rect class="cls-4" x="246.17" y="205.62" width="12.53" height="13.77"/><rect class="cls-4" x="260.09" y="208.52" width="11.14" height="10.87"/><rect class="cls-4" x="275.41" y="220.11" width="12.53" height="13.77"/><rect class="cls-4" x="219.02" y="223.01" width="12.53" height="13.77"/><rect class="cls-4" x="200.92" y="212.14" width="12.53" height="13.77"/><rect class="cls-4" x="191.68" y="225.91" width="21.77" height="23.91"/><rect class="cls-4" x="382.63" y="211.42" width="12.53" height="13.77"/><rect class="cls-4" x="378.96" y="225.18" width="21.77" height="23.91"/><rect class="cls-4" x="360.16" y="231.7" width="15.83" height="17.39"/><rect class="cls-4" x="219.02" y="236.78" width="12.53" height="13.77"/><rect class="cls-4" x="305.35" y="209.24" width="11.14" height="10.87"/><rect class="cls-4" x="260.09" y="223.01" width="11.14" height="10.87"/><rect class="cls-4" x="246.17" y="223.01" width="11.14" height="10.87"/><rect class="cls-4" x="261.49" y="241.12" width="11.14" height="10.87"/><rect class="cls-4" x="247.56" y="241.12" width="11.14" height="10.87"/><rect class="cls-4" x="290.73" y="240.4" width="11.14" height="10.87"/><rect class="cls-4" x="304.65" y="236.05" width="15.59" height="15.21"/><rect class="cls-4" x="334.59" y="236.78" width="13.92" height="13.58"/><rect class="cls-4" x="276.8" y="240.4" width="11.14" height="10.87"/><rect class="cls-4" x="305.35" y="175.92" width="16.71" height="15.21"/><polygon class="cls-4" points="523.26 256.34 526.04 182.44 524.65 182.44 521.87 256.34 523.26 256.34"/><polygon class="cls-4" points="494.02 256.34 496.8 182.44 495.41 182.44 492.63 256.34 494.02 256.34"/><polygon class="cls-4" points="463.38 256.34 466.17 182.44 464.78 182.44 461.99 256.34 463.38 256.34"/><polygon class="cls-4" points="535.9 193.31 440.3 193.31 440.3 194.75 536.49 194.75 535.9 193.31"/><polygon class="cls-4" points="535.9 207.79 440.3 207.79 440.3 209.24 536.49 209.24 535.9 207.79"/><polygon class="cls-4" points="535.9 221.56 440.3 221.56 440.3 223.01 536.49 223.01 535.9 221.56"/><polygon class="cls-4" points="535.32 236.05 439.71 236.05 439.71 237.5 535.9 237.5 535.32 236.05"/><rect class="cls-4" x="499.59" y="180.99" width="14.62" height="12.32" transform="translate(1013.79 374.29) rotate(180)"/><rect class="cls-4" x="502.37" y="169.4" width="14.62" height="12.32" transform="translate(1019.36 351.11) rotate(180)"/><rect class="cls-4" x="480.79" y="179.54" width="12.53" height="13.77" transform="translate(974.11 372.84) rotate(180)"/><rect class="cls-4" x="468.26" y="182.44" width="11.14" height="10.87" transform="translate(947.65 375.74) rotate(180)"/><rect class="cls-4" x="479.4" y="207.8" width="12.53" height="13.77" transform="translate(971.33 429.36) rotate(180)"/><rect class="cls-4" x="464.08" y="225.18" width="11.14" height="10.87" transform="translate(939.3 461.23) rotate(180)"/><rect class="cls-4" x="477.31" y="225.18" width="11.14" height="10.87" transform="translate(965.76 461.23) rotate(180)"/><rect class="cls-4" x="451.55" y="225.18" width="11.14" height="10.87" transform="translate(914.24 461.23) rotate(180)"/><rect class="cls-4" x="509.33" y="207.8" width="12.53" height="13.77" transform="translate(1031.2 429.36) rotate(180)"/><rect class="cls-4" x="496.8" y="210.69" width="11.14" height="10.87" transform="translate(1004.74 432.25) rotate(180)"/><rect class="cls-4" x="423" y="238.95" width="12.53" height="13.77" transform="translate(858.54 491.66) rotate(180)"/><rect class="cls-4" x="451.55" y="211.42" width="11.14" height="10.87" transform="translate(914.24 433.7) rotate(180)"/><rect class="cls-4" x="496.8" y="225.18" width="11.14" height="10.87" transform="translate(1004.74 461.23) rotate(180)"/><rect class="cls-4" x="510.73" y="225.18" width="11.14" height="10.87" transform="translate(1032.59 461.23) rotate(180)"/><rect class="cls-4" x="495.41" y="243.3" width="11.14" height="10.87" transform="translate(1001.96 497.46) rotate(180)"/><rect class="cls-4" x="509.33" y="243.3" width="11.14" height="10.87" transform="translate(1029.81 497.46) rotate(180)"/><rect class="cls-4" x="466.17" y="242.57" width="11.14" height="10.87" transform="translate(943.48 496.01) rotate(180)"/><rect class="cls-4" x="480.09" y="242.57" width="11.14" height="10.87" transform="translate(971.33 496.01) rotate(180)"/><rect class="cls-4" x="445.98" y="178.09" width="16.71" height="15.21" transform="translate(908.67 371.4) rotate(180)"/><polygon class="cls-5" points="110.14 289.19 110.93 293.02 97.12 293.02 97.84 289.19 101.16 289.19 100.86 110.29 103.63 110.29 107.21 289.19 110.14 289.19"/><polygon class="cls-5" points="166.24 280.5 166.91 283.79 155.04 283.79 155.66 280.5 158.51 280.5 158.25 126.73 160.64 126.73 163.72 280.5 166.24 280.5"/><polygon class="cls-5" points="258.41 271 249.13 271 249.61 268.42 251.84 268.42 251.64 148.11 253.51 148.11 255.92 268.42 257.89 268.42 258.41 271"/><polygon class="cls-6" points="256.47 271 256.47 268.92 254.84 268.92 253.02 148.11 253.51 148.11 255.92 268.42 257.89 268.42 258.41 271 256.47 271"/><polygon class="cls-5" points="213.2 268.59 213.73 271.16 204.44 271.16 204.93 268.59 207.16 268.59 206.96 148.28 208.82 148.28 211.23 268.59 213.2 268.59"/><polygon class="cls-5" points="105.67 226.59 257.68 235.07 257.68 237.14 40.93 235.22 0.77 232.35 105.67 226.59"/><polygon class="cls-5" points="209.05 257.82 258.45 259.05 258.45 261.31 105.65 275.05 0 271.88 209.05 257.82"/><polygon class="cls-5" points="105.83 182.88 257.68 207.48 257.68 209.58 207.07 209 41.09 193.59 0.77 188.55 105.83 182.88"/><polygon class="cls-5" points="107.44 140.28 257.59 180.63 257.59 182.85 209.05 181.87 2.3 145.87 107.44 140.28"/><polygon class="cls-7" points="107.21 140.12 107.21 144.2 23.19 145.54 2.3 145.87 1.54 141 107.21 140.12"/><polygon class="cls-8" points="93.38 140.28 22.5 141.32 23.19 145.54 7.76 145.87 6.99 141 93.38 140.28"/><polygon class="cls-9" points="72.5 141 72.8 144.12 82.09 144.12 82.09 141 72.5 141"/><polygon class="cls-8" points="91.08 140.28 91.39 144.12 100.68 144.12 100.68 140.28 91.08 140.28"/><polygon class="cls-5" points="106.59 95.53 257.68 154.82 257.5 157.51 201.3 155.72 1.46 101.12 106.59 95.53"/><polygon class="cls-10" points="106.36 95.37 106.36 99.44 22.34 100.79 1.46 101.12 0.69 96.25 106.36 95.37"/><polygon class="cls-8" points="92.54 95.53 21.66 96.56 22.34 100.79 6.91 101.12 6.14 96.25 92.54 95.53"/><polygon class="cls-11" points="71.65 96.25 71.96 99.36 81.25 99.36 81.25 96.25 71.65 96.25"/><polygon class="cls-8" points="90.24 95.53 90.54 99.36 99.83 99.36 99.83 95.53 90.24 95.53"/><polygon class="cls-12" points="105.67 182.8 105.67 186.87 21.65 188.22 0.77 188.55 0 183.68 105.67 182.8"/><polygon class="cls-8" points="91.85 182.96 20.96 184 21.65 188.22 6.22 188.55 5.45 183.68 91.85 182.96"/><polygon class="cls-13" points="70.96 183.68 71.27 186.79 80.56 186.79 80.56 183.68 70.96 183.68"/><polygon class="cls-8" points="89.54 182.96 89.85 186.79 99.14 186.79 99.14 182.96 89.54 182.96"/><polygon class="cls-14" points="105.67 226.59 105.67 230.67 21.65 232.01 0.77 232.35 0 227.47 105.67 226.59"/><polygon class="cls-8" points="91.85 226.75 20.96 227.79 21.65 232.01 6.22 232.35 5.45 227.47 91.85 226.75"/><polygon class="cls-15" points="70.96 227.47 71.27 230.59 80.56 230.59 80.56 227.47 70.96 227.47"/><polygon class="cls-8" points="89.54 226.75 89.85 230.59 99.14 230.59 99.14 226.75 89.54 226.75"/><polygon class="cls-16" points="105.67 270.95 105.67 275.02 21.65 276.37 0.77 276.7 0 271.83 105.67 270.95"/><polygon class="cls-8" points="91.85 271.11 20.96 272.15 21.65 276.37 6.22 276.7 5.45 271.83 91.85 271.11"/><polygon class="cls-17" points="70.96 271.83 71.27 274.94 80.56 274.94 80.56 271.83 70.96 271.83"/><polygon class="cls-8" points="89.54 271.11 89.85 274.94 99.14 274.94 99.14 271.11 89.54 271.11"/><polygon class="cls-18" points="9.75 80.98 10.14 311.15 17.89 311.15 13.29 80.98 9.75 80.98"/><polygon class="cls-19" points="10.98 87.05 10.98 90.97 12.44 90.97 12.21 87.05 10.98 87.05"/><polygon class="cls-19" points="10.98 96.8 10.98 100.72 12.44 100.72 12.21 96.8 10.98 96.8"/><polygon class="cls-19" points="10.98 107.67 10.98 111.59 12.44 111.59 12.21 107.67 10.98 107.67"/><polygon class="cls-19" points="10.98 119.18 10.98 123.1 12.44 123.1 12.21 119.18 10.98 119.18"/><polygon class="cls-19" points="11.06 129.89 11.06 133.81 12.52 133.81 12.29 129.89 11.06 129.89"/><polygon class="cls-19" points="11.06 141.08 11.06 145 12.52 145 12.29 141.08 11.06 141.08"/><polygon class="cls-19" points="11.44 152.27 11.44 156.18 12.9 156.18 12.67 152.27 11.44 152.27"/><polygon class="cls-19" points="11.44 161.86 11.44 165.77 12.9 165.77 12.67 161.86 11.44 161.86"/><polygon class="cls-19" points="11.75 172.73 11.75 176.64 13.21 176.64 12.98 172.73 11.75 172.73"/><polygon class="cls-19" points="11.9 183.44 11.9 187.97 13.59 187.97 13.33 183.44 11.9 183.44"/><polygon class="cls-19" points="11.9 196.5 11.9 201.92 13.93 201.92 13.61 196.5 11.9 196.5"/><polygon class="cls-19" points="11.9 211.96 11.9 217.39 13.93 217.39 13.61 211.96 11.9 211.96"/><polygon class="cls-19" points="12.01 226.8 12.01 232.22 14.03 232.22 13.71 226.8 12.01 226.8"/><polygon class="cls-19" points="12.01 242.3 12.01 247.72 14.03 247.72 13.71 242.3 12.01 242.3"/><polygon class="cls-19" points="12.54 257.8 12.54 263.22 14.56 263.22 14.24 257.8 12.54 257.8"/><polygon class="cls-19" points="12.54 271.08 12.54 276.51 14.56 276.51 14.24 271.08 12.54 271.08"/><polygon class="cls-19" points="12.97 286.14 12.97 291.57 14.99 291.57 14.67 286.14 12.97 286.14"/><polygon class="cls-5" points="4.99 313.7 5.91 308.83 21.58 308.83 22.58 313.7 4.99 313.7"/><polygon class="cls-20" points="94.38 80.66 94.77 310.83 102.52 310.83 97.92 80.66 94.38 80.66"/><polygon class="cls-19" points="95.61 86.73 95.61 90.65 97.07 90.65 96.84 86.73 95.61 86.73"/><polygon class="cls-19" points="95.61 96.48 95.61 100.4 97.07 100.4 96.84 96.48 95.61 96.48"/><polygon class="cls-19" points="95.61 107.35 95.61 111.27 97.07 111.27 96.84 107.35 95.61 107.35"/><polygon class="cls-19" points="95.61 118.86 95.61 122.78 97.07 122.78 96.84 118.86 95.61 118.86"/><polygon class="cls-19" points="95.69 129.57 95.69 133.49 97.15 133.49 96.92 129.57 95.69 129.57"/><polygon class="cls-19" points="95.69 140.76 95.69 144.68 97.15 144.68 96.92 140.76 95.69 140.76"/><polygon class="cls-19" points="96.07 151.95 96.07 155.86 97.53 155.86 97.3 151.95 96.07 151.95"/><polygon class="cls-19" points="96.07 161.54 96.07 165.46 97.53 165.46 97.3 161.54 96.07 161.54"/><polygon class="cls-19" points="96.38 172.41 96.38 176.32 97.84 176.32 97.61 172.41 96.38 172.41"/><polygon class="cls-19" points="96.53 183.12 96.53 187.65 98.22 187.65 97.96 183.12 96.53 183.12"/><polygon class="cls-19" points="96.53 196.18 96.53 201.6 98.55 201.6 98.23 196.18 96.53 196.18"/><polygon class="cls-19" points="96.53 211.64 96.53 217.07 98.55 217.07 98.23 211.64 96.53 211.64"/><polygon class="cls-19" points="96.64 226.48 96.64 231.9 98.66 231.9 98.34 226.48 96.64 226.48"/><polygon class="cls-19" points="96.64 241.98 96.64 247.4 98.66 247.4 98.34 241.98 96.64 241.98"/><polygon class="cls-19" points="97.17 257.48 97.17 262.9 99.19 262.9 98.87 257.48 97.17 257.48"/><polygon class="cls-19" points="97.17 270.76 97.17 276.19 99.19 276.19 98.87 270.76 97.17 270.76"/><polygon class="cls-19" points="97.6 285.82 97.6 291.25 99.62 291.25 99.3 285.82 97.6 285.82"/><polygon class="cls-5" points="89.62 313.38 90.54 308.51 106.21 308.51 107.21 313.38 89.62 313.38"/><polygon class="cls-6" points="152.55 113.56 256.38 155.27 256.38 157.51 257.59 157.51 257.68 154.82 152.55 113.56"/><polygon class="cls-6" points="155 153.03 256.38 181.24 256.38 182.85 257.59 182.85 257.59 180.61 155 153.03"/><polygon class="cls-6" points="151.99 190.38 256.38 208.11 256.38 209.72 257.59 209.72 257.59 207.48 151.99 190.38"/><polygon class="cls-6" points="155 229.34 256.38 235.51 256.38 237.13 257.59 237.13 257.59 234.89 155 229.34"/><polygon class="cls-6" points="189.78 265.03 257.24 259.7 257.24 261.4 258.45 261.31 258.45 259.07 189.78 265.03"/><polygon class="cls-5" points="224.02 283.58 212.16 283.58 212.78 280.29 215.63 280.29 215.37 126.52 217.75 126.52 220.83 280.29 223.35 280.29 224.02 283.58"/><polygon class="cls-6" points="221.54 283.58 221.54 280.93 219.45 280.93 217.13 126.52 217.75 126.52 220.83 280.29 223.35 280.29 224.02 283.58 221.54 283.58"/><polygon class="cls-5" points="177.38 292.77 163.57 292.77 164.29 288.94 167.61 288.94 167.31 110.04 170.08 110.04 173.66 288.94 176.59 288.94 177.38 292.77"/><polygon class="cls-6" points="174.49 292.77 174.49 289.68 172.06 289.68 169.35 110.04 170.08 110.04 173.66 288.94 176.59 288.94 177.38 292.77 174.49 292.77"/><polygon class="cls-5" points="467.69 290.17 466.9 294 480.71 294 479.99 290.17 476.68 290.17 476.97 111.27 474.2 111.27 470.62 290.17 467.69 290.17"/><polygon class="cls-5" points="411.6 281.48 410.92 284.77 422.79 284.77 422.17 281.48 419.32 281.48 419.58 127.71 417.19 127.71 414.11 281.48 411.6 281.48"/><polygon class="cls-5" points="319.42 271.97 328.7 271.97 328.22 269.4 325.99 269.4 326.19 149.09 324.32 149.09 321.92 269.4 319.94 269.4 319.42 271.97"/><polygon class="cls-6" points="321.36 271.97 321.36 269.9 323 269.9 324.82 149.09 324.32 149.09 321.92 269.4 319.94 269.4 319.42 271.97 321.36 271.97"/><polygon class="cls-5" points="364.63 269.57 364.1 272.14 373.39 272.14 372.9 269.57 370.68 269.57 370.88 149.26 369.01 149.26 366.6 269.57 364.63 269.57"/><polygon class="cls-5" points="472.16 227.57 320.16 236.04 320.16 238.12 536.9 236.2 577.06 233.32 472.16 227.57"/><polygon class="cls-5" points="368.78 258.79 319.38 260.03 319.38 262.28 472.18 276.03 577.83 272.86 368.78 258.79"/><polygon class="cls-5" points="472.01 183.85 320.16 208.46 320.16 210.56 370.76 209.98 536.75 194.56 577.06 189.53 472.01 183.85"/><polygon class="cls-5" points="470.39 141.26 320.24 181.61 320.24 183.83 368.78 182.84 575.53 146.85 470.39 141.26"/><polygon class="cls-21" points="470.62 141.1 470.62 145.17 554.64 146.52 575.53 146.85 576.3 141.98 470.62 141.1"/><polygon class="cls-8" points="484.45 141.26 555.33 142.3 554.64 146.52 570.08 146.85 570.84 141.98 484.45 141.26"/><polygon class="cls-22" points="505.34 141.98 505.03 145.09 495.74 145.09 495.74 141.98 505.34 141.98"/><polygon class="cls-8" points="486.75 141.26 486.44 145.09 477.15 145.09 477.15 141.26 486.75 141.26"/><polygon class="cls-5" points="471.24 96.5 320.16 155.8 320.33 158.48 376.53 156.69 576.37 102.1 471.24 96.5"/><polygon class="cls-23" points="471.47 96.34 471.47 100.42 555.49 101.76 576.37 102.1 577.14 97.22 471.47 96.34"/><polygon class="cls-8" points="485.29 96.5 556.17 97.54 555.49 101.76 570.92 102.1 571.69 97.22 485.29 96.5"/><polygon class="cls-24" points="506.18 97.22 505.87 100.34 496.58 100.34 496.58 97.22 506.18 97.22"/><polygon class="cls-8" points="487.6 96.5 487.29 100.34 478 100.34 478 96.5 487.6 96.5"/><polygon class="cls-25" points="472.16 183.77 472.16 187.85 556.18 189.19 577.06 189.53 577.83 184.65 472.16 183.77"/><polygon class="cls-8" points="485.98 183.93 556.87 184.97 556.18 189.19 571.61 189.53 572.38 184.65 485.98 183.93"/><polygon class="cls-26" points="506.87 184.65 506.56 187.77 497.27 187.77 497.27 184.65 506.87 184.65"/><polygon class="cls-8" points="488.29 183.93 487.98 187.77 478.69 187.77 478.69 183.93 488.29 183.93"/><polygon class="cls-27" points="472.16 227.57 472.16 231.65 556.18 232.99 577.06 233.32 577.83 228.45 472.16 227.57"/><polygon class="cls-8" points="485.98 227.73 556.87 228.77 556.18 232.99 571.61 233.32 572.38 228.45 485.98 227.73"/><polygon class="cls-28" points="506.87 228.45 506.56 231.57 497.27 231.57 497.27 228.45 506.87 228.45"/><polygon class="cls-8" points="488.29 227.73 487.98 231.57 478.69 231.57 478.69 227.73 488.29 227.73"/><polygon class="cls-29" points="472.16 271.93 472.16 276 556.18 277.35 577.06 277.68 577.83 272.8 472.16 271.93"/><polygon class="cls-8" points="485.98 272.08 556.87 273.12 556.18 277.35 571.61 277.68 572.38 272.8 485.98 272.08"/><polygon class="cls-30" points="506.87 272.8 506.56 275.92 497.27 275.92 497.27 272.8 506.87 272.8"/><polygon class="cls-8" points="488.29 272.08 487.98 275.92 478.69 275.92 478.69 272.08 488.29 272.08"/><polygon class="cls-31" points="568.08 81.96 567.7 312.12 559.94 312.12 564.55 81.96 568.08 81.96"/><polygon class="cls-19" points="566.85 88.03 566.85 91.95 565.39 91.95 565.62 88.03 566.85 88.03"/><polygon class="cls-19" points="566.85 97.78 566.85 101.7 565.39 101.7 565.62 97.78 566.85 97.78"/><polygon class="cls-19" points="566.85 108.65 566.85 112.57 565.39 112.57 565.62 108.65 566.85 108.65"/><polygon class="cls-19" points="566.85 120.16 566.85 124.08 565.39 124.08 565.62 120.16 566.85 120.16"/><polygon class="cls-19" points="566.77 130.87 566.77 134.78 565.31 134.78 565.54 130.87 566.77 130.87"/><polygon class="cls-19" points="566.77 142.06 566.77 145.97 565.31 145.97 565.54 142.06 566.77 142.06"/><polygon class="cls-19" points="566.39 153.25 566.39 157.16 564.93 157.16 565.16 153.25 566.39 153.25"/><polygon class="cls-19" points="566.39 162.84 566.39 166.75 564.93 166.75 565.16 162.84 566.39 162.84"/><polygon class="cls-19" points="566.08 173.7 566.08 177.62 564.62 177.62 564.85 173.7 566.08 173.7"/><polygon class="cls-19" points="565.93 184.41 565.93 188.95 564.24 188.95 564.51 184.41 565.93 184.41"/><polygon class="cls-19" points="565.93 197.47 565.93 202.9 563.91 202.9 564.23 197.47 565.93 197.47"/><polygon class="cls-19" points="565.93 212.94 565.93 218.36 563.91 218.36 564.23 212.94 565.93 212.94"/><polygon class="cls-19" points="565.82 227.77 565.82 233.2 563.8 233.2 564.12 227.77 565.82 227.77"/><polygon class="cls-19" points="565.82 243.28 565.82 248.7 563.8 248.7 564.12 243.28 565.82 243.28"/><polygon class="cls-19" points="565.29 258.77 565.29 264.2 563.27 264.2 563.59 258.77 565.29 258.77"/><polygon class="cls-19" points="565.29 272.06 565.29 277.49 563.27 277.49 563.59 272.06 565.29 272.06"/><polygon class="cls-19" points="564.86 287.12 564.86 292.54 562.84 292.54 563.16 287.12 564.86 287.12"/><polygon class="cls-5" points="572.84 314.68 571.92 309.81 556.25 309.81 555.25 314.68 572.84 314.68"/><polygon class="cls-32" points="483.45 81.64 483.06 311.8 475.31 311.8 479.92 81.64 483.45 81.64"/><polygon class="cls-19" points="482.22 87.71 482.22 91.63 480.76 91.63 480.99 87.71 482.22 87.71"/><polygon class="cls-19" points="482.22 97.46 482.22 101.38 480.76 101.38 480.99 97.46 482.22 97.46"/><polygon class="cls-19" points="482.22 108.33 482.22 112.25 480.76 112.25 480.99 108.33 482.22 108.33"/><polygon class="cls-19" points="482.22 119.84 482.22 123.75 480.76 123.75 480.99 119.84 482.22 119.84"/><polygon class="cls-19" points="482.14 130.55 482.14 134.46 480.68 134.46 480.92 130.55 482.14 130.55"/><polygon class="cls-19" points="482.14 141.74 482.14 145.65 480.68 145.65 480.92 141.74 482.14 141.74"/><polygon class="cls-19" points="481.76 152.93 481.76 156.84 480.3 156.84 480.53 152.93 481.76 152.93"/><polygon class="cls-19" points="481.76 162.52 481.76 166.43 480.3 166.43 480.53 162.52 481.76 162.52"/><polygon class="cls-19" points="481.45 173.38 481.45 177.3 479.99 177.3 480.22 173.38 481.45 173.38"/><polygon class="cls-19" points="481.3 184.09 481.3 188.63 479.61 188.63 479.88 184.09 481.3 184.09"/><polygon class="cls-19" points="481.3 197.16 481.3 202.58 479.28 202.58 479.6 197.16 481.3 197.16"/><polygon class="cls-19" points="481.3 212.62 481.3 218.04 479.28 218.04 479.6 212.62 481.3 212.62"/><polygon class="cls-19" points="481.19 227.46 481.19 232.88 479.17 232.88 479.49 227.46 481.19 227.46"/><polygon class="cls-19" points="481.19 242.96 481.19 248.38 479.17 248.38 479.49 242.96 481.19 242.96"/><polygon class="cls-19" points="480.66 258.45 480.66 263.88 478.64 263.88 478.96 258.45 480.66 258.45"/><polygon class="cls-19" points="480.66 271.74 480.66 277.17 478.64 277.17 478.96 271.74 480.66 271.74"/><polygon class="cls-19" points="480.24 286.8 480.24 292.22 478.21 292.22 478.53 286.8 480.24 286.8"/><polygon class="cls-5" points="488.21 314.36 487.29 309.49 471.62 309.49 470.62 314.36 488.21 314.36"/><polygon class="cls-6" points="425.28 114.54 321.45 156.24 321.45 158.48 320.24 158.48 320.16 155.8 425.28 114.54"/><polygon class="cls-6" points="422.83 154 321.45 182.22 321.45 183.83 320.24 183.83 320.24 181.59 422.83 154"/><polygon class="cls-6" points="425.84 191.35 321.45 209.09 321.45 210.7 320.24 210.7 320.24 208.46 425.84 191.35"/><polygon class="cls-6" points="422.83 230.31 321.45 236.49 321.45 238.1 320.24 238.1 320.24 235.87 422.83 230.31"/><polygon class="cls-6" points="390.98 265.76 320.59 260.68 320.59 262.38 319.38 262.29 319.38 260.05 390.98 265.76"/><polygon class="cls-5" points="353.81 284.55 365.68 284.55 365.05 281.26 362.21 281.26 362.46 127.49 360.08 127.49 357 281.26 354.48 281.26 353.81 284.55"/><polygon class="cls-6" points="356.29 284.55 356.29 281.9 358.38 281.9 360.71 127.49 360.08 127.49 357 281.26 354.48 281.26 353.81 284.55 356.29 284.55"/><polygon class="cls-5" points="400.45 293.74 414.26 293.74 413.54 289.92 410.23 289.92 410.52 111.01 407.75 111.01 404.17 289.92 401.24 289.92 400.45 293.74"/><polygon class="cls-6" points="403.34 293.74 403.34 290.66 405.78 290.66 408.48 111.01 407.75 111.01 404.17 289.92 401.24 289.92 400.45 293.74 403.34 293.74"/><path class="cls-33" d="M386.45,314.69s.2-4.49,1.36-6.9,10.41-.75,10.41-.75,2.13,4,1.84,7.63Z"/><path class="cls-33" d="M361.62,314.69s.2-4.49,1.36-6.9,10.41-.75,10.41-.75,2.13,4,1.84,7.63Z"/><path class="cls-34" d="M392.45,124.2c-1.15.87-11.62,6.56-11.62,6.56l-11-8.19,3.44-.53c1-.29.95-3.07,1.07-6,0-.46.05-.92.08-1.37l10.8-.41v.14q0,.21,0,.45l0,.32c0,.11,0,.22,0,.33.19,2.6.61,6.28,1.41,6.7C387.14,122.42,390.22,122.38,392.45,124.2Z"/><path class="cls-35" d="M385.28,115.47c-.89,1.86-2.88,5.09-5.82,5s-4.41-2.76-5.15-4.44c0-.46.05-.92.08-1.37l10.8-.41v.14l0,.45,0,.32C385.26,115.25,385.27,115.36,385.28,115.47Z"/><path class="cls-36" d="M373.11,89.57s5.21-5.4,11.35.11C384.46,89.68,380.81,88.89,373.11,89.57Z"/><path class="cls-37" d="M371.17,109.44a47.88,47.88,0,0,1-2.67-7.7c-.72-3-.06-14.18,10.78-13.41a14.07,14.07,0,0,1,6.21,1.9c2.45,1.46,6.07,4.73,3,14.71l-.74,3.35Z"/><path class="cls-34" d="M386.33,114.15c-2.79,2.78-6.27,6.49-13.76-.37-1.47-1.34-1.37-3.41-1.45-6.37-.11-3.51-.92-5.66-.54-7.68.45-2.42,2.43-3.51,6.56-3.88,7.58-.69,11.41,1.09,10.9,5C386.9,109.58,389.18,111.32,386.33,114.15Z"/><path class="cls-37" d="M380.16,95.7s4.49-.1,5.52,1.47,1.16,3.31,1.68,4.19a3.47,3.47,0,0,1,.43,1.87l1-7L382.71,95Z"/><path class="cls-38" d="M406.35,134.18s-1.91,5.88-9.69,7l-.64.08H364.35l-.17-.06c-1.23-.4-8.8-3.1-9.59-8.14,0,0,4-8.5,7-9.56a18.31,18.31,0,0,1,3.4-.71c1.32-.18,2.7-.3,3.87-.37,1.6-.11,2.77-.13,2.77-.13a9.55,9.55,0,0,0,8.47,5.12,7.48,7.48,0,0,0,7.39-5.05s1.69.05,3.93.31c1.23.13,2.63.33,4,.62a14.26,14.26,0,0,1,5.93,2.32C404.84,128.5,406.35,134.18,406.35,134.18Z"/><path class="cls-36" d="M398.82,179.68c-.33-2-.84-4.92-1.23-7.53,0,0,1.17-14.72,1.61-17.2s-2.52-16-2.52-16c-.68-2.07-1.84-2.7-2.74-2.7l1.5-13c-1.38-.29-2.78-.49-4-.62l-.72,13.63v.19c-1.65.1-3.69.21-5.6.3s-3.67.16-4.76.16c-2.21,0-7.28-.27-10.65-.46v-.19l-.81-13.88c-1.17.07-2.55.19-3.87.37l1.43,13.51h0c-.94,0-2,1.74-2.17,2.71l-.15,4.23a50,50,0,0,0-2.44,10.17c-.32,4.38,1.44,19.64,1.45,19.75-.06,1.82-.19,4.14-.42,6.39a129.91,129.91,0,0,0-6.4,44.41c.54,21.78.86,59,3.32,77.06a51.54,51.54,0,0,0,1.38,7.14,2.36,2.36,0,0,0,1.9,1.67c2.83.41,9.21,1.16,12,.12,1.31-.49,2.25-8.09,2.92-17.88.64-9.39,1-20.8,1.23-29.9h0c.17-7.26.23-13.05.23-15.19,0-4.86,1.1-19.09,1.47-27.47a.18.18,0,1,1,.36,0h0c.55,9.94,2.48,25,2.51,28.37.07,8.12-.38,60.33,3,62.08,2.61,1.34,8.76.33,11.7-.08a2.74,2.74,0,0,0,2.23-2c3.67-13.14,4-58.78,4.62-83.9A130.52,130.52,0,0,0,398.82,179.68Z"/><path class="cls-34" d="M370.06,189.07c-1.08.9-4.62.53-6-.68s-4.12-.83-4.77-1.28c0,0-12.83-15.8-14.22-22.44s7.45-25.12,10-30.15c1.85,4.08,8,6.28,9.13,6.64l.17.06h.34c-2.08,5.86-8.31,16.42-10.71,20.4a3.53,3.53,0,0,0-.2,3.28c3.08,6.88,6.1,12.69,7.42,16.71.26.45.83,1.25,1.51,1.14.94-.15,4-.83,5.49,1.5S371.15,188.17,370.06,189.07Z"/><path class="cls-39" d="M389.53,89.73a16.66,16.66,0,0,0-2.33-2.5c-.23-.21-.49-.42-.76-.64-2.75-2.17-7.14-4.29-12.44-2a11.78,11.78,0,0,0-3.62,2.45c-.23.23-.45.46-.66.71-4.6,5.3-4.21,13.62-4.21,13.62l26.51-.3C392.1,93.38,389.53,89.73,389.53,89.73Z"/><path class="cls-40" d="M384.57,101.17c-.07-1.16-.58-10.68,2.63-13.93a3.51,3.51,0,0,0-.45-.39c-3.42,3.74-3.64,13.11-3.63,14.33l-8.47.1c-.25-6.76-3.84-13.48-4.27-14.23a6,6,0,0,0-.49.52,41.21,41.21,0,0,1,3.19,13.72l-7.57.09s7.06,1.9,12.38,1.83S392,101.08,392,101.08Z"/><path class="cls-37" d="M371.06,137.68c-2.71,5.42-10.41,6.43-10.41,6.43,2.5-6.32-2.53-8.31-5.64-14.78s2.39-10.76,2.39-10.76c-3.4.68-4,5.42-4,5.42-.29-3.16,2.24-8.5,10.27-9.56,5.87-.77,7.29-2.83,7.63-3.88a4.65,4.65,0,0,0,1.33,3.23c.62.57,1.21,1.06,1.78,1.49,0,.25,0,.5,0,.74,0,.83-.05,1.65-.09,2.4a4.2,4.2,0,0,0-.84,3.56,3.87,3.87,0,0,0,.28.89,7.61,7.61,0,0,1,1.39,3.61C375.43,130.05,373.1,133.62,371.06,137.68Z"/><path class="cls-33" d="M398.76,179.32l-1.17-7.17a51.48,51.48,0,0,1-15.85,3.43,3.87,3.87,0,0,0-2.83-2.05l-4.2-.63a3.79,3.79,0,0,0-3.95,2.11,40.08,40.08,0,0,1-7.63-1.93v0l-.42,6.29v0c2.43.67,4.76,1.19,7,1.59l-.12.88a4,4,0,0,0,3.22,4.53l4.66.72a3.88,3.88,0,0,0,4.4-3.69l.08-1.35A48.18,48.18,0,0,0,398.76,179.32Z"/><path class="cls-34" d="M415.8,164.67c-1.38,6.64-14.17,22.41-14.22,22.44a1.26,1.26,0,0,1-.5.17h0c-1.06.19-3.12.11-4.25,1.1-1.37,1.21-4.92,1.58-6,.68s.36-2.48,1.88-4.82,4.55-1.65,5.49-1.5c.56.09,1.05-.44,1.34-.87l0,0a2.29,2.29,0,0,0,.15-.24c1.29-3.93,4.21-9.57,7.22-16.25a4.53,4.53,0,0,0-.24-4.16c-2-3.34-6.09-10.28-8.72-15.86-.31-1.61-.61-3.12-.85-4.27A11.71,11.71,0,0,0,406,134.9C408.76,140.4,417.17,158.13,415.8,164.67Z"/><g id="P297LW"><path class="cls-38" d="M502.37,193.28c-1.94.47-10.68.58-16.82-.86a17.73,17.73,0,0,1-3.41-1.11,5.34,5.34,0,0,1-2.48-1.94c-.69-1.2-2-5.32-3.45-10.72-4.11-14.87-9.9-39.45-9.9-39.45s11.62,2.47,14.08,4.58,4.63,35.51,6.94,36.41c.34.13.93.41,1.68.8l.11.06c.45.23.95.49,1.5.79,4.8,2.56,12.73,7.18,13.55,8.21C505.26,191.4,505.19,192.6,502.37,193.28Z"/><path class="cls-38" d="M480.08,158.22a9.88,9.88,0,0,0-.15-1.71c-1.5-8.55-13.38-17.31-13.62-17.31v.18c0,1.31-2,3.72-5,3.93-3.62.24-8.08-1.9-8.08-4.07,0,0-2,.28-2.71.36-2.9.34-8.69,2-11.17,3.92s1,13.54,3,21.82c.87,3.5,1.51,6.39,1.41,7.67,0,.62-.59,9.11-1.08,16.8-.39,6.34-.75,12.12-.77,12.48,0,.72,3.42,3.25,9.19,5.15a45.82,45.82,0,0,0,4.59,1.24,47.26,47.26,0,0,0,10,1q1.79,0,3.39-.18C477.3,208.69,480.13,198.9,480.08,158.22Z"/><path class="cls-34" d="M453.2,139.14a75.92,75.92,0,0,1,.42-10.64l12.74,2.16s0,4.05-.05,8.54c0,0,.35,4.17-4.58,4.78S453.07,142.35,453.2,139.14Z"/><path class="cls-33" d="M463.86,314.69c-1.6-1-.66-8.63-.66-8.63s7.5-6.2,8.51-1.43,7.09,6.94,10.54,7.54c2.39.41,3.27,1.7,3.5,2.51Z"/><path class="cls-41" d="M452.19,184c0,12.72-5.92,9.29-9.5,5.86.49-7.69.82-34.9.82-34.9S452.19,165.74,452.19,184Z"/><path class="cls-41" d="M490.62,181.84c-.24,1.78-2.94,7-5.07,10.58a17.73,17.73,0,0,1-3.41-1.11,5.34,5.34,0,0,1-2.48-1.94c-.69-1.2-2-5.32-3.45-10.72,1.1-6.64,2.15-13.21,2.15-13.21l.33-4.4c0,.34,4.95,19.68,7.19,20.13A7.77,7.77,0,0,0,489,181l.11.06C489.57,181.28,490.07,181.54,490.62,181.84Z"/><path class="cls-33" d="M440.87,314.69c-1.6-1-.66-8.63-.66-8.63s7.5-6.2,8.51-1.43,7.09,6.94,10.54,7.54c2.39.41,3.26,1.7,3.48,2.51Z"/><path class="cls-33" d="M452,124.67s-8.51-14,7.82-14.87c0,0,6.13.75,7.52-.7,0,0,4.75,7.52.31,15.57S452,124.67,452,124.67Z"/><path class="cls-34" d="M466,132c-1.24,1-4.87,2-5.92,2.13,0,0-5.38-1.24-6.36-1.86-1.51-.95-1.42-2.89-1.49-5.58-.1-3.18-.41-5.68-.06-7.52.4-2.19,1.74-3.44,5.48-3.78,6.88-.62,9.74,1.17,9.86,3.57,0,.64.06,1.25.08,1.84C467.85,128.24,467.28,130.89,466,132Z"/><path class="cls-33" d="M467.64,123.21c-.07,4.33-1.19,6.9-2,7.22a16.42,16.42,0,0,1-3.19.89c-.38.05-.75,0-.75-.2,0-.68.89-1.52.24-2.13s-4.36-.85-4.65.54c-.15.67,1,1.87.22,1.89-.24,0-.48-.09-.71-.15A10.28,10.28,0,0,1,454,130c-1.52-1-1.42-2.42-1.75-5.09-.22-1.73-.22-.79,0,1.77s-.22,4.4,1.49,5.58c.95.66,6.44,3.22,6.44,3.22-.08-1.36,4.6-2.48,5.84-3.49S467.7,128.84,467.64,123.21Z"/><path class="cls-36" d="M441.93,202.29c0,.72,3.41,3.24,9.19,5.15l1.44.45a0,0,0,0,1,0,0c.54,6.58,2,15.87,3.31,24.84h0c.34,2.33.67,4.63,1,6.86a141,141,0,0,1,1.46,15.13v0c0,1.78-1.4,6.2-1.51,7.23-.07.62-.12,1.28-.16,2a81.44,81.44,0,0,0,.12,9.53c.94,15.25,4.81,34.76,6.19,35.59,2.75,1.66,7.75,0,10.29-.38a2.17,2.17,0,0,0,1.84-2.2c-1.24-25.31,2.32-60.56,5-82.22.07-.57.14-1.12.21-1.66.32-2.56.53-4.94.66-7.09.12-1.89.18-3.6.21-5.09,0-.46,0-.91,0-1.32,0-1.36-1-10.24-1.08-50.92h0a1.68,1.68,0,0,0-1.64-1.71H454.53a4.23,4.23,0,0,0-4.14,4.37,72.46,72.46,0,0,1-.71,11.57c-.89,5.65-2.78,10.93-6.68,12.2h0s-.12.29-.29.7h0c0,1-.08,2.06-.13,3.12,0,.22,0,.43,0,.65s0,.25,0,.37l0,.65c0,.36,0,.72-.05,1.08s0,.57-.05.85l-.09,1.67c0,.19,0,.36,0,.55,0,.72-.09,1.46-.14,2.2,0,.23,0,.46-.05.69l0,.33c0,.29,0,.58-.07.88s-.05.62-.07.93C441.81,200.47,442,201.49,441.93,202.29Z"/><path class="cls-33" d="M456.77,273.51c.94,15.25,4.81,34.76,6.19,35.59,2.75,1.66,7.75,0,10.29-.38a2.17,2.17,0,0,0,1.84-2.2c-1.24-25.31,2.32-60.56,5-82.22.07-.57.14-1.12.21-1.66.32-2.56.53-4.94.66-7.09-1.27-8.6-8.42-9.06-14.9,8.71C466.84,230.16,456.55,270,456.77,273.51Z"/><path class="cls-36" d="M441.66,254c-.2,1.76-2.18,6-2.42,7-3.28,13.72-1.47,46.24.16,47.54,2.51,2,7.68,1.06,10.24,1a2.13,2.13,0,0,0,2.1-1.93c2-25.91,10.37-61.5,15.74-82.44a102.63,102.63,0,0,0,3.09-18.3s-25.1-16-27.82-7.26C440.35,207.33,443.17,240.48,441.66,254Z"/><path class="cls-39" d="M467.22,105.89c-.17-.2-.36-.39-.55-.59a10,10,0,0,0-3-2,9.72,9.72,0,0,0-10.27,1.65c-.23.18-.44.35-.63.53a13.08,13.08,0,0,0-1.92,2.06s-2.13,3-2.06,9.38l21.89.24S471,110.27,467.22,105.89Z"/><path class="cls-40" d="M454.94,117h1.21c0-.36,0-8.63-3-11.84a2.94,2.94,0,0,0-.37.32C455.59,108.29,455,116.88,454.94,117Z"/><path class="cls-40" d="M464.46,117.08a36.22,36.22,0,0,1,2.61-11.33,5.6,5.6,0,0,0-.4-.45,31.67,31.67,0,0,0-3.51,11.76l-14.36-.16a72.16,72.16,0,0,0,11.67,1.76,46.27,46.27,0,0,0,10.22-1.52Z"/><path class="cls-36" d="M449.63,139.72s7.39,9,7.83,16.79l-3.77.21a38.63,38.63,0,0,0-6.52-16.46l1.16-.28Z"/><path class="cls-36" d="M468.07,139.6a40.21,40.21,0,0,1,5.86,17.08l3.81-.07c-.31-6.15-4-12.91-6.08-16.12C471.66,140.49,469,139.8,468.07,139.6Z"/><path class="cls-39" d="M459.81,225.66h-3.06c-1.42-.67-9.06-4.12-16.42-4.16-5.3,0-11.34,4.09-11.71,4.13-.92.12,3.07.15,3.07.15s6-2.75,8.68-2.82,8.26,1.88,10.53,2.7H433.78a2.66,2.66,0,0,0-2.6,2.7v20.32a2.66,2.66,0,0,0,2.6,2.71h26a2.66,2.66,0,0,0,2.6-2.71V228.36A2.66,2.66,0,0,0,459.81,225.66Z"/><path class="cls-40" d="M451.35,225.66h-26a2.66,2.66,0,0,0-2.6,2.7v20.32a2.66,2.66,0,0,0,2.6,2.71h26a2.66,2.66,0,0,0,2.6-2.71V228.36A2.66,2.66,0,0,0,451.35,225.66Z"/><path class="cls-38" d="M443.71,187.86c.18,9.18-.92,27.47-.92,27.47h-5.2c-2.46-12.87-3.33-21.15-3.33-25.66,0-.89,0-1.72,0-2.48,0-3.86.13-6.1.13-6.1-1-23.36,3.51-35.85,4.92-37.57s7.85-3.26,7.85-3.26a95.08,95.08,0,0,1,3,11.64c.86,5.19-6.83,27-6.51,34.46C443.68,186.83,443.69,187.33,443.71,187.86Z"/><path class="cls-42" d="M511.27,194.11h-4.21a.78.78,0,0,0-.76.79V314.2a.78.78,0,0,0,.76.79h4.21a.78.78,0,0,0,.76-.79V194.9A.78.78,0,0,0,511.27,194.11Z"/><path class="cls-36" d="M511.27,194.11h-4.21a.78.78,0,0,0-.76.79v3.7H512v-3.7A.78.78,0,0,0,511.27,194.11Z"/><path class="cls-36" d="M506.3,314.2a.78.78,0,0,0,.76.79h4.21a.78.78,0,0,0,.76-.79V311H506.3Z"/><path class="cls-40" d="M509.2,201.93a.45.45,0,0,0-.44.45v105a.45.45,0,0,0,.44.46.45.45,0,0,0,.43-.46v-105A.44.44,0,0,0,509.2,201.93Z"/><path class="cls-34" d="M442.79,215.33s1.1-18.29.92-27.47a17.72,17.72,0,0,0-9.44-.67c0,.76,0,1.59,0,2.48,0,4.51.87,12.79,3.33,25.66-1.09,4.74-1,9.85.86,10.76s8.1-2.49,8-4S442.79,215.33,442.79,215.33Z"/><path class="cls-34" d="M514,194.18c-.51-1.93-.89-3-2.17-4-1.86-1.36-4.07-1-5.72-.69a6.1,6.1,0,0,1-3.13-.43c-2.91-2-10.24-6.19-13.88-8.06-2.49,1.5-5.55,4.47-7,10.26,5.61,2.58,17.89,2.53,20.23,2a9.76,9.76,0,0,0,3.81,1.79,5.38,5.38,0,0,0,2.14-.39,2.85,2.85,0,0,1,3.23,1.07,4,4,0,0,0,2.28,1.59C514.5,197.34,514.33,195.4,514,194.18Z"/></g><path class="cls-39" d="M72.11,217.68h-26a2.66,2.66,0,0,0-2.6,2.71v20.32a2.66,2.66,0,0,0,2.6,2.7h26a2.66,2.66,0,0,0,2.6-2.7V220.39A2.66,2.66,0,0,0,72.11,217.68Z"/><path class="cls-40" d="M80.57,217.68h-26a2.66,2.66,0,0,0-2.6,2.71v20.32a2.66,2.66,0,0,0,2.6,2.7h26a2.66,2.66,0,0,0,2.6-2.7V220.39A2.66,2.66,0,0,0,80.57,217.68Z"/><path class="cls-39" d="M48.9,217.8s6.18-4.74,7.1-4.63,2.39.45,2.39.45L52.86,218Z"/><path class="cls-38" d="M97.69,142.92c-2.48-1.95-8.27-3.58-11.17-3.92-.68-.08-2.71-.09-2.73-.09,0,2.17-4.44,4-8.06,3.8-3-.21-5-2.62-5-3.93h0c-.24,0-12.12,8.58-13.62,17.13a9.88,9.88,0,0,0-.15,1.71c0,40.68-2.42,46.92-1.67,46.91,0,0,4.45,3.56,12.7,4.4q1.61.16,3.39.18a47.26,47.26,0,0,0,10-1,45.82,45.82,0,0,0,4.59-1.24c5.77-1.91,9.21-4.43,9.19-5.15s.11-1.82,0-3c-.36-4.31-.55-8.07-.71-11.86a40.62,40.62,0,0,0,9.89-.07C109.41,175.3,101,145.56,97.69,142.92ZM96.23,176c-.39.11-.8.21-1.24.31l-1,.2c0-.16,0-.32,0-.47-.09-2.13-.18-4.16-.32-6.09-.11-1.62-.25-3.16-.43-4.64C95.43,171.28,96.94,175.84,96.23,176Z"/><path class="cls-34" d="M70.7,138.78s-9.18,1.45-13.14,4.87-4.35,25.26-5.67,31.43a50,50,0,0,0-.69,5.55A125.21,125.21,0,0,0,52,204.91,9.38,9.38,0,0,1,51.5,209c-1,2.64-1.23,3.39.58,4.89s3.76,3.62,5.13,3c1.06-.46.88-7.77.73-11.09,1.59-7.1,4.16-20.41,6.58-33.32C67.74,155.25,70.7,138.78,70.7,138.78Z"/><path class="cls-38" d="M70.7,138.78s-1.71,9.49-3.94,21.59c-.71,3.84-1.47,7.94-2.24,12.08-3.16,6.45-5.88,10.83-6.71,10-1.71-1.68-4.71-1.89-6.61-1.83a50,50,0,0,1,.69-5.55c.11-.49.2-1.07.3-1.74,1.11-7.76,1.73-26.53,5.37-29.68,1.92-1.66,5.06-2.86,7.79-3.65h0c1.4-.41,2.68-.71,3.65-.91S70.7,138.78,70.7,138.78Z"/><path class="cls-41" d="M57.81,182.46c-1.71-1.68-4.71-1.89-6.61-1.83a50,50,0,0,1,.69-5.55q.16-.74.3-1.74l9.47-23.79S58.65,183.28,57.81,182.46Z"/><path class="cls-34" d="M83.81,138.54a74.38,74.38,0,0,0-.42-10.64l-12.74,2.16s0,4.05.06,8.54h0s-.35,4.17,4.58,4.78S83.94,141.75,83.81,138.54Z"/><path class="cls-33" d="M73.15,314.68c1.6-1,.66-8.68.66-8.68s-7.5-6.2-8.51-1.43-7.09,6.94-10.54,7.54c-2.39.41-3.12,1.79-3.35,2.6Z"/><path class="cls-41" d="M95,176.35s-2.39,3.36-2.87,3.36-6.51-2.43-4.78-7.86,5.93-6.51,5.93-6.51c.18,1.48.32,3,.43,4.64.14,1.93.23,4,.32,6.09,0,.15,0,.31,0,.47l1-.2Z"/><path class="cls-33" d="M96.14,314.68c1.6-1,.66-8.68.66-8.68s-7.5-6.2-8.51-1.43-7.08,6.94-10.54,7.54c-2.39.41-3.12,1.79-3.35,2.6Z"/><path class="cls-37" d="M85,124.07s8.51-13.95-7.82-14.87c0,0-6.13.75-7.52-.7,0,0-4.75,7.52-.31,15.57S85,124.07,85,124.07Z"/><path class="cls-34" d="M71,131.36c1.24,1,4.87,2,5.92,2.13,0,0,5.38-1.24,6.36-1.86,1.52-.95,1.42-2.89,1.5-5.58.09-3.18.4-5.68.06-7.52-.41-2.2-1.75-3.44-5.49-3.78-6.88-.62-9.74,1.17-9.86,3.57,0,.64-.06,1.25-.08,1.84C69.16,127.64,69.73,130.29,71,131.36Z"/><path class="cls-37" d="M69.37,122.61c.07,4.33,1.19,6.9,2,7.22a17.38,17.38,0,0,0,3.19.89c.38.05.76,0,.75-.2,0-.68-.89-1.52-.24-2.13s4.36-.85,4.66.54c.14.67-1,1.87-.23,1.89q.36-.06.72-.15a10.33,10.33,0,0,0,2.82-1.3c1.52-1,1.42-2.42,1.76-5.09.21-1.73.21-.79,0,1.77s.21,4.4-1.5,5.58c-1,.66-6.44,3.22-6.44,3.22.08-1.36-4.6-2.48-5.84-3.49S69.31,128.24,69.37,122.61Z"/><path class="cls-36" d="M95.09,201.69c0,.72-3.42,3.24-9.19,5.15l-1.45.45a0,0,0,0,0,0,0c-.54,6.58-2,15.87-3.31,24.84h0c-.34,2.33-.67,4.63-1,6.86a140.79,140.79,0,0,0-1.46,15.13v0c0,1.78,1.41,6.2,1.51,7.23.07.62.13,1.28.16,2a81.44,81.44,0,0,1-.12,9.53c-.94,15.25-4.81,34.76-6.19,35.59-2.75,1.65-7.75,0-10.29-.39a2.16,2.16,0,0,1-1.84-2.19c1.24-25.31-2.32-60.56-5-82.22-.07-.57-.14-1.12-.21-1.66-.32-2.56-.53-4.94-.66-7.1-.12-1.88-.18-3.6-.21-5.08,0-.46,0-.91,0-1.32,0-1.36,1-10.24,1.08-50.92h0a1.68,1.68,0,0,1,1.64-1.71H82.48a4.23,4.23,0,0,1,4.14,4.37,71.42,71.42,0,0,0,.72,11.57c.88,5.65,2.77,10.93,6.67,12.2h0s.12.29.29.7h0c0,1,.08,2.06.13,3.12,0,.22,0,.43,0,.64s0,.26,0,.38l0,.65c0,.36,0,.71,0,1.08s0,.57,0,.85c0,.55.06,1.11.1,1.67,0,.18,0,.36,0,.55,0,.72.09,1.46.15,2.2,0,.23,0,.46,0,.69s0,.22,0,.33c0,.29,0,.58.07.88s0,.62.07.93C95.2,199.87,95.06,200.89,95.09,201.69Z"/><path class="cls-33" d="M80.24,272.91c-.94,15.25-4.81,34.76-6.19,35.59-2.75,1.65-7.75,0-10.29-.39a2.16,2.16,0,0,1-1.84-2.19c1.24-25.31-2.32-60.56-5-82.22-.07-.57-.14-1.12-.21-1.66-.32-2.56-.53-4.94-.66-7.1,1.27-8.59,8.42-9.05,14.9,8.72C73.75,230.55,80.46,269.42,80.24,272.91Z"/><path class="cls-36" d="M95.35,253.42c.2,1.76,2.18,6,2.42,7,3.28,13.72,1.47,46.24-.16,47.54-2.51,2-7.68,1.06-10.24,1a2.13,2.13,0,0,1-2.1-1.93c-2-25.91-10.37-61.5-15.74-82.44a102,102,0,0,1-3.08-18.3s25.09-16,27.81-7.26C96.66,206.73,93.84,239.88,95.35,253.42Z"/><path class="cls-39" d="M86.16,106.92a13.51,13.51,0,0,0-1.93-2.06c-.19-.18-.4-.35-.63-.53a9.72,9.72,0,0,0-10.27-1.65,9.9,9.9,0,0,0-3,2c-.19.19-.38.39-.55.59-3.79,4.38-3.47,11.25-3.47,11.25l21.89-.24C88.28,109.94,86.16,106.92,86.16,106.92Z"/><path class="cls-40" d="M82.07,116.37c0-.09-.65-8.68,2.16-11.51a2.94,2.94,0,0,0-.37-.32c-3,3.21-3,11.48-3,11.84Z"/><path class="cls-40" d="M73.86,116.46c-.2-5.58-3.16-11.14-3.52-11.76a4.18,4.18,0,0,0-.4.44,34.49,34.49,0,0,1,2.63,11.33l-6.25.07a46.27,46.27,0,0,0,10.22,1.52,72.16,72.16,0,0,0,11.67-1.76Z"/><path class="cls-36" d="M87.38,139.12s-7.39,9-7.83,16.79h3.76a38.38,38.38,0,0,1,6.53-16.25Z"/><path class="cls-36" d="M69,139.1a40.39,40.39,0,0,0-5.93,16.81H59.31c.31-6.15,4-12.7,6-15.9h0C66.75,139.6,68,139.3,69,139.1Z"/><path class="cls-39" d="M107.18,187.57a84.15,84.15,0,0,0-1.28-10.74,36.16,36.16,0,0,1-.41,5.69c.93,7.71.57,13.61-1.08,16.95a11.34,11.34,0,0,1-4.16,4.72,13.46,13.46,0,0,0,2.3-3.16c1.27-2.36,2.44-6.77,2-14.9-.08.23-.18.45-.27.67,0,0-.32.06-.94.12.25,6-.36,10.5-1.82,13.22a10.92,10.92,0,0,1-4.4,4.59,12.93,12.93,0,0,0,1.57-2c1.51-2.3,3.08-6.83,3.14-15.72l-1.25.06c-.06,6.81-1,11.88-2.85,14.65-.08.13-.17.26-.26.38,1.38-2.46,2.7-6.92,2.77-15H99c-.06,6.81-1,11.87-2.85,14.64a10.37,10.37,0,0,1-4.2,3.79,14.53,14.53,0,0,1-1.53-.34l-.21-.06h0l-.2-.06c-.63-.19-1.24-.41-1.83-.65-7.23-3-11.38-9.72-11.79-15.25A92.69,92.69,0,0,1,77.14,173c1.5-12.54,4.77-27.08,8.75-32.86l.2-.28h0l.25-.33c.15-.18.3-.36.45-.51h0a5,5,0,0,1,.93-.79l.27.2a5.4,5.4,0,0,1,.92,1h0c.42.09.85.2,1.29.32l.63.17h0L91,140l.78.23.44.14.52.18.57.2.59.22v0c-2.34-3.84-4-4.74-5.09-4.68a3,3,0,0,0-.51.07,2.21,2.21,0,0,0-.54-.08,3,3,0,0,0-1.09.21,5.86,5.86,0,0,0-3.5,2.19l-.24.28a21.17,21.17,0,0,0-2,2.86v0c-6.41,10.54-12.39,34-12.75,44.92-.28,8.67,6.14,16.43,12.63,19.6a20.1,20.1,0,0,0,1.88.81c.35.13.7.24,1,.34h0a14,14,0,0,0,3.9.59c.27,0,.53,0,.8,0s.53,0,.8,0a11.11,11.11,0,0,0,3.38-.52l.51,0,.42-.05c.28,0,.55-.07.82-.12a13.27,13.27,0,0,0,2.29-.19,11.32,11.32,0,0,0,6.08-3.08,13.56,13.56,0,0,0,2.72-3.78C106.54,198.12,107.5,194.27,107.18,187.57Zm-37.77-.78c.31-9.7,5.41-30.31,11-41.43-.2.49-.4,1-.59,1.52-5.33,11.74-9.8,30.41-10.11,39.85a19.43,19.43,0,0,0,3.15,10.92A18.85,18.85,0,0,1,69.41,186.79Zm13.42,18.07c-8-3.93-12-12.06-11.82-18.07.17-5.33,1.79-13.95,4.14-22.49-1.83,9.23-2.86,18.58-2.61,24.33.32,7.28,5.29,13.33,10.84,16.48C83.19,205,83,205,82.83,204.86Zm-9-16.31c-.36-8.33,2.16-25.08,5.9-37.1.42-1.35.86-2.63,1.3-3.84l.5-1.08c-2.87,8.2-5,19.92-6,29.77a82.91,82.91,0,0,0-.4,13c.44,6,4,11,8.46,14.21C77.41,200,74,193.68,73.78,188.55Z"/><path class="cls-34" d="M95,176.35l-4.26.79c-6.4,1-15,1.41-15.91,1.45-.08-.08-3.14-3-4.33-3s-4.69,1.32-5,2.33-.49,2.85.5,3.26a44.23,44.23,0,0,0,6.18,1.52,3.08,3.08,0,0,0,.52,0,103.24,103.24,0,0,0,19.32,4,45.39,45.39,0,0,0,5.4.38A30.43,30.43,0,0,0,95,176.35Z"/><g id="P297LW-2" data-name="P297LW"><path class="cls-39" d="M206,143.54c-2.56,8.17-16.55,22.3-18.48,23.71,0,0-3.25-5.64-2.6-8.8.53-2.58,6-11.78,7.84-16.3l.26-.66a4.37,4.37,0,0,0,.36-1.55c-.1-1-3.06-3.37-6.51-6.2-4.48-3.69-9.77-8.12-10.63-11.18-1.52-5.42-6.78-26.87-6.78-26.87s13.07,2.94,16.76,6.33,19.52,31.6,20.17,38.82A7,7,0,0,1,206,143.54Z"/><path class="cls-34" d="M206,143.54c-2.56,8.17-16.55,22.3-18.48,23.71,0,0-3.25-5.64-2.6-8.8.56-2.72,6.55-12.75,8.1-17A19.58,19.58,0,0,1,206,143.54Z"/><path class="cls-34" d="M169.42,93.81v1.66s.44,5.21-5.73,6-10.8-1.56-10.64-5.58a53.2,53.2,0,0,0,1.18-8.29,18.43,18.43,0,0,0-.22-3.12L166,84.2l3.51.6Z"/><path class="cls-35" d="M169.46,84.8l0,9a9.84,9.84,0,0,1-4.31,1c-5.49,0-9-4.19-10.89-7.23a18.43,18.43,0,0,0-.22-3.12L166,84.2Z"/><path class="cls-33" d="M158.89,314.7a30.35,30.35,0,0,0-1.92-7.5c-1.35-2.79-9.89-1-9.89-1s-1.71,1.52-2.07,8.63Z"/><path class="cls-33" d="M188,314.68c-2-1.27-.87-10.79-.87-10.79s9.36-7.79,10.65-1.82,8.88,8.64,13.21,9.37c3,.5,3.91,2.22,4.2,3.24Z"/><path class="cls-36" d="M168.62,244.43a46.08,46.08,0,0,1,.69,5.26c.87,17.65,14.28,58,16.68,59,3.71,1.45,9.55-1.64,12.61-2.66a2.74,2.74,0,0,0,1.84-3.1c-6.64-31.77-9.08-77.51-10-104.6a127.6,127.6,0,0,0-2.7-23.06s-32.7-9.08-32.9,2.4C154.7,187.8,165.71,227.66,168.62,244.43Z"/><path class="cls-33" d="M168.62,244.43l21.85-46.14a127.6,127.6,0,0,0-2.7-23.06s-32.7-9.08-32.9,2.4C154.7,187.8,165.71,227.66,168.62,244.43Z"/><path class="cls-36" d="M175.9,177.67l-17.29,130.4s-7.59,1.91-13.5.39c0,0-5.06-69.36-4.64-86.12s-3.63-44.87.93-48S175.9,177.67,175.9,177.67Z"/><path class="cls-39" d="M188.71,177.91a44,44,0,0,1-21.63,5.21,91.21,91.21,0,0,1-13-1c-10.26-1.59-15.44-4.57-15.4-5.68s.1-4.33.22-5.76c1.63-19.58.79-34.8,3-46.24,0-.14.06-.27.08-.41,2.91-14.54,7.46-22.89,9.72-26.32A13.87,13.87,0,0,1,153,95.86c0,2.71,5.55,5,10.08,4.75,3.81-.26,6.29-3.28,6.29-4.91h0c.32,0,17.2,12.22,17.22,23.57C186.69,170.13,189.65,177.93,188.71,177.91Z"/><path class="cls-40" d="M154.09,181.94a1,1,0,0,1,0,.17c-10.26-1.59-15.44-4.57-15.4-5.68s.1-4.33.22-5.76c1.63-19.58.79-34.8,3-46.24C147.26,131.93,158.34,151.55,154.09,181.94Z"/><path class="cls-43" d="M182.21,157.61l-1.38,4.77-1.37,4.74-59.54-18.63a.93.93,0,0,1-.24,0,.84.84,0,0,1-.23-.12c-.75-.55-.89-2.58-.31-4.86,0-.13.06-.25.1-.38.69-2.45,2-4.27,2.93-4.28a.45.45,0,0,1,.23,0,.65.65,0,0,1,.22.11Z"/><path class="cls-44" d="M180.83,162.38l-1.37,4.74-59.54-18.63a.93.93,0,0,1-.24,0,.84.84,0,0,1-.23-.12c-.75-.55-.89-2.58-.31-4.86,2.43,1.9,14,10.31,33.89,14.4C173.54,162.11,179.89,162.37,180.83,162.38Z"/><path class="cls-45" d="M182.32,157.58c-1-.31-2.41,1.6-3.16,4.25s-.56,5.06.43,5.36,2.42-1.59,3.17-4.25S183.32,157.89,182.32,157.58Z"/><path class="cls-43" d="M123.05,137.21,116,136a1,1,0,0,0-.24-.08h-.23c-1,.15-2,2.12-2.37,4.65,0,.13,0,.26,0,.39a10.57,10.57,0,0,0,0,3,2.58,2.58,0,0,0,.87,1.77l0,0a.62.62,0,0,0,.24.08.7.7,0,0,0,.25,0l61.37,10.36.76-4.88.76-4.93Z"/><path class="cls-44" d="M148.56,150.64c-13.12-.88-20.08-8.1-25.51-13.43L116,136a1,1,0,0,0-.24-.08h-.23c-1,.15-2,2.12-2.37,4.65,0,.13,0,.26,0,.39a10.57,10.57,0,0,0,0,3,4.77,4.77,0,0,0,.87,1.77l0,0a.62.62,0,0,0,.24.08.7.7,0,0,0,.25,0l61.37,10.36.76-4.88C175.75,151.43,169.43,152,148.56,150.64Z"/><path class="cls-45" d="M177.56,146.35c-1-.17-2.19,1.91-2.6,4.65s.08,5.08,1.11,5.25,2.19-1.91,2.6-4.65S178.59,146.52,177.56,146.35Z"/><path class="cls-34" d="M155.73,165.14a61.68,61.68,0,0,1-27.5-11.56c-1.32-1-2-1.68-2-1.68-7.29-16,5.91-43.94,8.32-48.68,2.6-5.11,18.49-7.36,18.49-7.36a93,93,0,0,0-3.53,17.9c-1,10.12-11.56,29.86-11.13,31.52.11.42,1.39,1.29,3.25,2.4,5.52,3.27,16.2,8.55,16.85,9.79C159.35,159.12,155.73,165.14,155.73,165.14Z"/><path class="cls-34" d="M158.48,157.47s8-3.31,9.9-2,5.21,3.39,5.21,4.74-4.12,5-7.59,6.1-10.27-1.21-10.27-1.21Z"/><path class="cls-39" d="M149.51,113.76c-1,10.12-11.56,29.86-11.13,31.52.11.42,1.39,1.29,3.25,2.4h-.36c-8.32-.38-12.08,4.41-13,5.89-1.32-1-2-1.68-2-1.68-7.29-16,5.91-43.94,8.32-48.68,2.6-5.11,18.49-7.36,18.49-7.36A93,93,0,0,0,149.51,113.76Z"/><path class="cls-34" d="M170.16,89.17s-15.3,3.22-17.07-6.72-5-16.23,4.74-18.71,12.27,1,13.64,4.13S174.09,88.08,170.16,89.17Z"/><path class="cls-33" d="M153.39,85.31s-3-6.57-5.42-9.48-1.12-17.5,9.53-17,14.46,8.4,14.57,9.92-8.52.35-10.87,2.33-.12,5.25-2.81,6.42-4.82,1.17-4.37,3.73A5.8,5.8,0,0,1,153.39,85.31Z"/><path class="cls-39" d="M156.68,52a16.5,16.5,0,0,0-7,3.61c-.17.15-.34.3-.5.46h0c-6.31,6.27-3.79,16.25-3.79,16.25a26.76,26.76,0,0,0,1.42,3.5c.57,1,9-.15,9.39-2a11.14,11.14,0,0,1,2.1-3.83l9.44-.68c2-.15,7.69-2.21,7.69-2.21C175.33,66.49,172.12,48,156.68,52Z"/><path class="cls-40" d="M180.63,65.12a28.7,28.7,0,0,0-5.85-.68,23.72,23.72,0,0,1-7.47,3.8c-2.34-3.07-9-10.45-17.67-12.61l-.08,0c-.18.25-.29.33-.42.49h0a1.4,1.4,0,0,0-.12.18c7.06,1.28,13.77,9.53,16.07,12.62A38.84,38.84,0,0,1,158.26,70s15.45.3,22.51-3.57A.7.7,0,0,0,180.63,65.12Z"/><path class="cls-40" d="M196.36,138.13a4.52,4.52,0,0,1-3.65,4l.26-.66a4.37,4.37,0,0,0,.36-1.55c-.1-1-3.06-3.37-6.51-6.2-.28-1.61-1-6.38,0-10.17C188,119,196.69,136.21,196.36,138.13Z"/><path class="cls-40" d="M140,146.54s-10.63-.9-14.1,5.53a1.75,1.75,0,0,0,2.36,1.51s9-6.4,13.4-5.9C141.63,147.68,141,146.56,140,146.54Z"/><path class="cls-40" d="M192.71,142.15a37.25,37.25,0,0,1,12.45,3.39s1.54-1.58.93-2.48S195.7,138.91,192.71,142.15Z"/></g><path class="cls-34" d="M269.24,104.58c4.78-25.49,9.16-49.89,9.16-49.89s-13.6,2.15-19.46,7.23-6.45,37.41-8.4,46.55a74.14,74.14,0,0,0-1,8.23c-1.11,13.14.27,32.83,1.31,38.35-.06.53-.5,3.14-2.8,8.14,0,0-1.2,3.83,6.61,9.59C259.62,176.45,264.05,132.28,269.24,104.58Z"/><path class="cls-38" d="M278.4,54.69s-2.52,14.06-5.83,32c-1.05,5.69-2.18,11.76-3.33,17.9-4.68,9.55-8.69,16-9.94,14.82-2.53-2.49-7-2.8-9.78-2.7a74.14,74.14,0,0,1,1-8.23c.16-.72.3-1.59.44-2.57,1.64-11.5,2.57-39.31,8-44C264.8,56.84,278.4,54.69,278.4,54.69Z"/><path class="cls-41" d="M272.57,86.68c-1.05,5.69-2.18,11.76-3.33,17.9-4.68,9.55-8.69,16-9.94,14.82-2.53-2.49-7-2.8-9.78-2.7a74.14,74.14,0,0,1,1-8.23c.16-.72.3-1.59.44-2.57l14-35.26Z"/><path class="cls-34" d="M297.82,54.33a111.06,111.06,0,0,0-.61-15.76l-18.87,3.21s0,6,.08,12.65h0s-.51,6.17,6.79,7.07S298,59.1,297.82,54.33Z"/><path class="cls-35" d="M278.28,43s4.45,9.48,9.55,9.48,9.87-8.91,9.87-8.91Z"/><path class="cls-33" d="M290.86,314.72s.69-5.57,2.28-8.88,11.71-1.21,11.71-1.21,2,1.81,2.46,10.24Z"/><path class="cls-33" d="M256.38,314.64c2.38-1.51,1-12.78,1-12.78s-11.08-9.23-12.6-2.16-10.53,10.23-15.66,11.1c-3.54.6-4.63,2.63-5,3.84Z"/><path class="cls-33" d="M299.62,32.91s12.6-20.67-11.59-22c0,0-9.08,1.11-11.13-1,0,0-7,11.13-.47,23.07S299.62,32.91,299.62,32.91Z"/><path class="cls-34" d="M278.9,43.7c1.83,1.5,7.21,3,8.76,3.16,0,0,8-1.85,9.43-2.76,2.24-1.41,2.1-4.28,2.21-8.26.14-4.72.6-8.42.09-11.14-.6-3.26-2.58-5.11-8.13-5.61-10.19-.92-14.43,1.73-14.61,5.29,0,.95-.09,1.86-.12,2.72C276.13,38.19,277,42.12,278.9,43.7Z"/><path class="cls-36" d="M279.33,230.89a56.5,56.5,0,0,0-.81,6.23c-1,20.92-16.92,68.73-19.76,69.85-4.39,1.72-11.32-2-14.94-3.15a3.25,3.25,0,0,1-2.18-3.67c7.87-37.64,10.76-91.83,11.81-123.91a150.78,150.78,0,0,1,3.2-27.33s38.74-10.76,39,2.85C295.83,163.8,282.79,211,279.33,230.89Z"/><path class="cls-33" d="M279.33,230.89l-25.88-54.65a150.78,150.78,0,0,1,3.2-27.33s38.74-10.76,39,2.85C295.83,163.8,282.79,211,279.33,230.89Z"/><path class="cls-36" d="M270.71,151.81l20.48,154.48s9,2.26,16,.45c0,0,6-82.16,5.5-102s4.3-53.15-1.1-56.82S270.71,151.81,270.71,151.81Z"/><path class="cls-39" d="M314.53,147.9a3.14,3.14,0,0,1-3,3.31l-32.28.51-23.71.38c-1.11,0,2.4-9.23,2.47-69.49,0-13.45,20-27.92,20.4-27.92h0c0,1.94,2.93,5.51,7.45,5.82,5.36.37,11.94-2.41,11.94-5.62a14.61,14.61,0,0,1,1.63,2.18c2.67,4.06,8.06,13.95,11.51,31.18,2.71,13.6,1.67,31.79,3.62,55.26C314.7,145.2,314.49,146.71,314.53,147.9Z"/><path class="cls-38" d="M313.34,151.39A63.78,63.78,0,0,1,301,155.12a116.33,116.33,0,0,1-23.86,2.5c-15.69.1-21.63-5.52-21.63-5.52-1.11,0,2.4-9.23,2.47-69.49,0-13.45,20-27.92,20.4-27.92h0s-.51,17.91,4.69,23.18c0,0,7.3-5.87,16.77-22.57,2.68,4.05,7.62,15.72,11.07,33a97.3,97.3,0,0,1,1.46,11.44c.92,11.88.71,26.4,2.16,43.82.15,1.69-.06,3.2,0,4.39C314.6,149.69,315.06,151.37,313.34,151.39Z"/><path class="cls-41" d="M313.34,151.39A63.78,63.78,0,0,1,301,155.12c-2.52-4-5.7-11.23-6.14-22.63-.75-19.27,16.84-44.09,16.84-44.09l.67,11.29c.92,11.88.71,26.4,2.16,43.82.15,1.69-.06,3.2,0,4.39C314.6,149.69,315.06,151.37,313.34,151.39Z"/><polygon class="cls-36" points="298.1 86.14 268.12 104.15 291.86 146.96 321.85 128.94 298.1 86.14"/><path class="cls-34" d="M316.78,61.16c-3.67-2.88-12.3-4.93-16.54-5.81-1.5-.3-2.45-.46-2.45-.46.44,2.12,1.44,5.45,2.74,9.45,5.45,16.77,16.26,45.27,14.08,45.88a59,59,0,0,1-6.53,1.31c-9.48,1.44-22.24,2.08-23.57,2.15-.11-.11-4.65-4.51-6.42-4.51s-6.95,2-7.47,3.46-.74,4.21.73,4.81a64.47,64.47,0,0,0,9.16,2.26,3.91,3.91,0,0,0,.76,0,154.24,154.24,0,0,0,28.63,6,89.27,89.27,0,0,0,16.64.5C334.15,109.14,321.75,65.07,316.78,61.16Z"/><path class="cls-38" d="M326.54,126.17a89.27,89.27,0,0,1-16.64-.5c.58-3,1.12-8.76-1.82-14.14a59,59,0,0,0,6.53-1.31c2.18-.61-8.63-29.11-14.08-45.88-.44-5.42-.67-9-.67-9l.38.05c4.24.88,12.87,2.93,16.54,5.81C321.75,65.07,334.15,109.14,326.54,126.17Z"/><path class="cls-41" d="M283.09,77.87s14.61-6.7,14.82-7.23-.72-4.59-1.73-5.79c0,0,7,.68,7.44-.22s.76-8.34.76-8.34-2.92-3.14-6.53-3.44c0,0-3.18,8.21-4.35,10.65C290.39,70,283.09,77.87,283.09,77.87Z"/><path class="cls-41" d="M279.62,64.63s.94,7.82,3.47,13.24c0,0-7.63-5.53-8.28-7.34s1.85-5.3,1.85-5.3-4.56-.12-4.67-1.7,1.41-7.78,1.41-7.78,3.92-3,5-2.87Z"/><path class="cls-39" d="M304.34,21.39l-32.43.36s-.47-10.17,5.15-16.66c.25-.3.52-.59.81-.88a14.39,14.39,0,0,1,4.43-3c6.48-2.82,11.86-.22,15.22,2.44q.5.39.93.78A20.14,20.14,0,0,1,301.3,7.5S304.45,12,304.34,21.39Z"/><path class="cls-40" d="M295.23,21.49c-.08-1.37-.66-13,3.28-17A5.17,5.17,0,0,0,298,4c-4.2,4.55-4.53,16-4.51,17.48l-10.37.12c-.31-8.27-4.69-16.5-5.22-17.42-.29.29-.34.34-.6.64a50.72,50.72,0,0,1,3.9,16.8l-9.26.1s8.64,2.33,15.15,2.24,17.28-2.6,17.28-2.6Z"/></g></g></g></svg>