<svg xmlns="http://www.w3.org/2000/svg" viewBox="0 0 246.7 180.96"><defs><style>.cls-1{fill:#0072bc;}.cls-2{fill:#1187c9;}.cls-3{fill:#dd642f;}.cls-4{fill:#ba4f2a;}.cls-5{fill:#686868;}.cls-6{fill:#c67239;}.cls-7{fill:#e5b376;}.cls-8{fill:#d78346;}.cls-9{fill:#edd70a;}</style></defs><title>Asset 23</title><g id="Layer_2" data-name="Layer 2"><g id="Layer_1-2" data-name="Layer 1"><rect class="cls-1" x="67.31" y="104.83" width="92.55" height="3.88" transform="translate(266.73 135.8) rotate(147.5)"/><rect class="cls-1" x="153.31" y="3.88" width="8.73" height="177.02"/><rect class="cls-1" x="237.96" y="3.88" width="8.73" height="177.02"/><rect class="cls-1" x="68.65" y="3.88" width="8.73" height="177.02"/><rect class="cls-2" x="149.18" y="3.88" width="8.73" height="177.02"/><rect class="cls-2" x="233.84" y="3.88" width="8.73" height="177.02"/><rect class="cls-2" x="64.52" y="3.88" width="8.73" height="177.02"/><rect class="cls-1" x="74.71" y="80.05" width="162.52" height="3.88"/><rect class="cls-1" x="69.25" y="104.83" width="92.55" height="3.88" transform="translate(68.86 -43.46) rotate(30)"/><rect class="cls-2" x="65.18" y="105.81" width="95.86" height="1.94" transform="translate(68.54 -42.25) rotate(30)"/><rect class="cls-1" x="152.21" y="104.83" width="92.55" height="3.88" transform="translate(423.24 90.19) rotate(147.5)"/><rect class="cls-1" x="154.15" y="104.83" width="92.55" height="3.88" transform="translate(80.24 -85.91) rotate(30)"/><rect class="cls-2" x="150.09" y="105.81" width="95.86" height="1.94" transform="translate(79.92 -84.7) rotate(30)"/><rect class="cls-1" x="73.74" y="128.56" width="162.52" height="3.88"/><rect class="cls-3" x="87.08" y="27.65" width="70.83" height="7.76"/><rect class="cls-4" x="87.08" y="27.65" width="70.83" height="3.88"/><rect class="cls-3" x="171.74" y="27.65" width="70.83" height="7.76"/><rect class="cls-4" x="171.74" y="27.65" width="70.83" height="3.88"/><rect class="cls-3" x="233.84" y="22.8" width="8.73" height="11.64"/><circle class="cls-5" cx="241.12" cy="24.26" r="0.97"/><circle class="cls-5" cx="235.78" cy="24.26" r="0.97"/><rect class="cls-3" x="2.91" y="27.65" width="70.83" height="7.76"/><rect class="cls-4" x="2.91" y="27.65" width="70.83" height="3.88"/><rect class="cls-3" x="171.74" y="73.74" width="70.83" height="10.19"/><rect class="cls-3" x="233.84" y="69.38" width="8.73" height="11.64"/><circle class="cls-5" cx="241.12" cy="70.83" r="0.97"/><rect class="cls-4" x="171.74" y="74.05" width="70.83" height="3.28"/><circle class="cls-5" cx="235.78" cy="70.83" r="0.97"/><circle class="cls-5" cx="156.46" cy="70.83" r="0.97"/><rect class="cls-3" x="87.08" y="73.74" width="70.83" height="10.19"/><rect class="cls-3" x="149.18" y="69.38" width="8.73" height="11.64"/><rect class="cls-4" x="87.08" y="74.05" width="70.83" height="3.28"/><circle class="cls-5" cx="151.12" cy="70.83" r="0.97"/><circle class="cls-5" cx="156.22" cy="70.83" r="0.97"/><rect class="cls-3" x="2.43" y="73.74" width="70.83" height="10.19"/><rect class="cls-3" x="64.52" y="69.38" width="8.73" height="11.64"/><circle class="cls-5" cx="71.8" cy="70.83" r="0.97"/><rect class="cls-4" x="2.91" y="73.74" width="70.35" height="3.88"/><circle class="cls-5" cx="66.47" cy="70.83" r="0.97"/><rect class="cls-6" x="161.9" y="18.78" width="76.31" height="9.09"/><rect class="cls-6" x="44.17" y="18.78" width="117.73" height="9.09"/><rect class="cls-7" x="161.9" y="18.44" width="76.31" height="9.09"/><rect class="cls-8" x="44.17" y="18.44" width="179.77" height="9.09"/><rect class="cls-6" x="147.17" y="18.78" width="76.31" height="9.09"/><rect class="cls-6" x="29.45" y="18.78" width="117.73" height="9.09"/><rect class="cls-7" x="147.17" y="18.44" width="76.31" height="9.09"/><rect class="cls-8" x="29.45" y="18.44" width="179.77" height="9.09"/><rect class="cls-6" x="132.45" y="18.78" width="76.31" height="9.09"/><rect class="cls-6" x="14.72" y="18.78" width="117.73" height="9.09"/><rect class="cls-7" x="132.45" y="18.44" width="76.31" height="9.09"/><rect class="cls-8" x="14.72" y="18.44" width="179.77" height="9.09"/><rect class="cls-6" x="117.73" y="18.78" width="76.31" height="9.09"/><rect class="cls-6" y="18.78" width="117.73" height="9.09"/><rect class="cls-7" x="117.73" y="18.44" width="76.31" height="9.09"/><rect class="cls-8" y="18.44" width="179.77" height="9.09"/><rect class="cls-6" x="161.9" y="9.56" width="76.31" height="9.09"/><rect class="cls-6" x="44.17" y="9.56" width="117.73" height="9.09"/><rect class="cls-7" x="161.9" y="9.22" width="76.31" height="9.09"/><rect class="cls-8" x="44.17" y="9.22" width="179.77" height="9.09"/><rect class="cls-6" x="147.17" y="9.56" width="76.31" height="9.09"/><rect class="cls-6" x="29.45" y="9.56" width="117.73" height="9.09"/><rect class="cls-7" x="147.17" y="9.22" width="76.31" height="9.09"/><rect class="cls-8" x="29.45" y="9.22" width="179.77" height="9.09"/><rect class="cls-6" x="132.45" y="9.56" width="76.31" height="9.09"/><rect class="cls-6" x="14.72" y="9.56" width="117.73" height="9.09"/><rect class="cls-7" x="132.45" y="9.22" width="76.31" height="9.09"/><rect class="cls-8" x="14.72" y="9.22" width="179.77" height="9.09"/><rect class="cls-6" x="117.73" y="9.56" width="76.31" height="9.09"/><rect class="cls-6" y="9.56" width="117.73" height="9.09"/><rect class="cls-7" x="117.73" y="9.22" width="76.31" height="9.09"/><rect class="cls-8" y="9.22" width="179.77" height="9.09"/><rect class="cls-6" x="161.9" y="0.34" width="76.31" height="9.09"/><rect class="cls-6" x="44.17" y="0.34" width="117.73" height="9.09"/><rect class="cls-7" x="161.9" width="76.31" height="9.09"/><rect class="cls-8" x="44.17" width="179.77" height="9.09"/><rect class="cls-6" x="147.17" y="0.34" width="76.31" height="9.09"/><rect class="cls-6" x="29.45" y="0.34" width="117.73" height="9.09"/><rect class="cls-7" x="147.17" width="76.31" height="9.09"/><rect class="cls-8" x="29.45" width="179.77" height="9.09"/><rect class="cls-6" x="132.45" y="0.34" width="76.31" height="9.09"/><rect class="cls-6" x="14.72" y="0.34" width="117.73" height="9.09"/><rect class="cls-7" x="132.45" width="76.31" height="9.09"/><rect class="cls-8" x="14.72" width="179.77" height="9.09"/><rect class="cls-6" x="117.73" y="0.34" width="76.31" height="9.09"/><rect class="cls-6" y="0.34" width="117.73" height="9.09"/><rect class="cls-7" x="117.73" width="76.31" height="9.09"/><rect class="cls-8" width="179.77" height="9.09"/><rect class="cls-3" x="171.74" y="122.26" width="70.83" height="10.19"/><rect class="cls-3" x="233.84" y="117.89" width="8.73" height="11.64"/><circle class="cls-5" cx="241.12" cy="119.35" r="0.97"/><rect class="cls-4" x="171.74" y="122.56" width="70.83" height="3.28"/><circle class="cls-5" cx="235.78" cy="119.35" r="0.97"/><circle class="cls-5" cx="156.46" cy="119.35" r="0.97"/><rect class="cls-3" x="87.08" y="122.26" width="70.83" height="10.19"/><rect class="cls-3" x="149.18" y="117.89" width="8.73" height="11.64"/><rect class="cls-4" x="87.08" y="122.56" width="70.83" height="3.28"/><circle class="cls-5" cx="151.12" cy="119.35" r="0.97"/><circle class="cls-5" cx="156.22" cy="119.35" r="0.97"/><rect class="cls-3" x="2.43" y="122.26" width="70.83" height="10.19"/><rect class="cls-3" x="64.52" y="117.89" width="8.73" height="11.64"/><circle class="cls-5" cx="71.8" cy="119.35" r="0.97"/><rect class="cls-4" x="2.91" y="122.26" width="70.35" height="3.88"/><circle class="cls-5" cx="66.47" cy="119.35" r="0.97"/><rect class="cls-3" x="171.74" y="170.77" width="70.83" height="10.19"/><rect class="cls-3" x="233.84" y="166.41" width="8.73" height="11.64"/><circle class="cls-5" cx="241.12" cy="167.86" r="0.97"/><rect class="cls-4" x="171.74" y="171.07" width="70.83" height="3.28"/><circle class="cls-5" cx="235.78" cy="167.86" r="0.97"/><rect class="cls-3" x="2.43" y="170.77" width="70.83" height="10.19"/><rect class="cls-3" x="64.52" y="166.41" width="8.73" height="11.64"/><circle class="cls-5" cx="71.8" cy="167.86" r="0.97"/><rect class="cls-4" x="2.91" y="170.77" width="70.35" height="3.88"/><circle class="cls-5" cx="66.47" cy="167.86" r="0.97"/><circle class="cls-5" cx="156.46" cy="167.86" r="0.97"/><rect class="cls-3" x="87.08" y="170.77" width="70.83" height="10.19"/><rect class="cls-3" x="149.18" y="166.41" width="8.73" height="11.64"/><rect class="cls-4" x="87.08" y="171.07" width="70.83" height="3.28"/><circle class="cls-5" cx="151.12" cy="167.86" r="0.97"/><circle class="cls-5" cx="156.22" cy="167.86" r="0.97"/><rect class="cls-9" x="86.84" y="167.86" width="0.97" height="13.1"/><rect class="cls-9" x="171.74" y="167.86" width="0.97" height="13.1"/><rect class="cls-9" x="2.43" y="167.86" width="0.97" height="13.1"/></g></g></svg>