<svg xmlns="http://www.w3.org/2000/svg" xmlns:xlink="http://www.w3.org/1999/xlink" viewBox="0 0 496.67 411.62"><defs><style>.cls-1{isolation:isolate;}.cls-2{opacity:0.41;}.cls-3,.cls-5{fill:#c5d9ff;}.cls-4{opacity:0.88;}.cls-5{opacity:0.31;}.cls-6{fill:url(#linear-gradient);}.cls-7{fill:#bdd0fb;}.cls-8{fill:#92d0ff;}.cls-9{fill:#fff;}.cls-10{fill:#91b3fa;}.cls-11,.cls-12,.cls-33,.cls-56{fill:none;stroke-miterlimit:10;}.cls-11,.cls-12{stroke:#b3d3f4;}.cls-11,.cls-12,.cls-56{stroke-width:1.17px;}.cls-12{stroke-dasharray:4.65 4.65;}.cls-13{fill:#f3faff;}.cls-14{fill:#b3d3f4;}.cls-15{fill:#cfe0f5;}.cls-16{fill:#fff4e1;}.cls-17,.cls-18{fill:#e6f1fc;}.cls-18,.cls-24,.cls-26,.cls-35,.cls-41,.cls-47,.cls-49,.cls-52,.cls-53{mix-blend-mode:multiply;}.cls-19{fill:url(#linear-gradient-2);}.cls-20{fill:url(#linear-gradient-3);}.cls-21,.cls-22{font-size:6.99px;}.cls-21,.cls-22,.cls-23{fill:#eac38f;font-family:OpenSans-Bold, Open Sans;font-weight:700;}.cls-21{letter-spacing:0.1em;}.cls-22{letter-spacing:0.1em;}.cls-23{font-size:10.49px;}.cls-24,.cls-26{fill:#c9d3f4;}.cls-24{opacity:0.55;}.cls-25{fill:url(#linear-gradient-4);}.cls-26,.cls-47,.cls-49{opacity:0.35;}.cls-27{fill:url(#linear-gradient-5);}.cls-28{fill:#fc8975;}.cls-29{fill:#352e72;}.cls-30{fill:url(#linear-gradient-6);}.cls-31{fill:#75a1e9;}.cls-32{fill:url(#linear-gradient-7);}.cls-33{stroke:#4a578e;stroke-width:0.58px;}.cls-34{fill:url(#linear-gradient-8);}.cls-35,.cls-41,.cls-52,.cls-53{opacity:0.75;}.cls-36{fill:url(#linear-gradient-9);}.cls-37{fill:#081466;}.cls-38{fill:#a2c0ed;}.cls-39{fill:url(#linear-gradient-10);}.cls-40{fill:#abd1ff;}.cls-41{fill:url(#linear-gradient-11);}.cls-42{fill:url(#linear-gradient-12);}.cls-43{fill:url(#linear-gradient-13);}.cls-44{fill:url(#linear-gradient-14);}.cls-45{fill:#352e73;}.cls-46{fill:url(#linear-gradient-15);}.cls-47{fill:url(#linear-gradient-16);}.cls-48{fill:url(#linear-gradient-17);}.cls-49{fill:url(#linear-gradient-18);}.cls-50{fill:#cc6658;}.cls-51{fill:url(#linear-gradient-19);}.cls-52{fill:url(#linear-gradient-20);}.cls-53{fill:url(#linear-gradient-21);}.cls-54{fill:#f42a73;}.cls-55{fill:#2d4cba;}.cls-56{stroke:#cfe0f5;}</style><linearGradient id="linear-gradient" x1="248.09" y1="411.62" x2="248.09" y2="373.19" gradientUnits="userSpaceOnUse"><stop offset="0.01" stop-color="#fcf5f1"/><stop offset="0.48" stop-color="#fcefed"/><stop offset="1" stop-color="#fce1e3"/></linearGradient><linearGradient id="linear-gradient-2" x1="333.03" y1="416.4" x2="189.34" y2="167.53" gradientUnits="userSpaceOnUse"><stop offset="0" stop-color="#b3d3f4"/><stop offset="1" stop-color="#d3dced"/></linearGradient><linearGradient id="linear-gradient-3" x1="269.25" y1="365.6" x2="269.25" y2="159.86" gradientUnits="userSpaceOnUse"><stop offset="0" stop-color="#ffd5a7"/><stop offset="0.37" stop-color="#ffd7aa"/><stop offset="0.65" stop-color="#ffdeb4"/><stop offset="0.91" stop-color="#ffe9c4"/><stop offset="1" stop-color="#fec"/></linearGradient><linearGradient id="linear-gradient-4" x1="333.03" y1="416.4" x2="205.47" y2="195.47" gradientUnits="userSpaceOnUse"><stop offset="0" stop-color="#cde8ff"/><stop offset="1" stop-color="#eee7e9"/></linearGradient><linearGradient id="linear-gradient-5" x1="331.69" y1="443.56" x2="206.81" y2="318.68" xlink:href="#linear-gradient-4"/><linearGradient id="linear-gradient-6" x1="400.54" y1="387.73" x2="400.54" y2="273.54" gradientUnits="userSpaceOnUse"><stop offset="0" stop-color="#29225e"/><stop offset="1" stop-color="#3f368c"/></linearGradient><linearGradient id="linear-gradient-7" x1="415.52" y1="387.73" x2="415.52" y2="273.54" xlink:href="#linear-gradient-6"/><linearGradient id="linear-gradient-8" x1="389.45" y1="234.2" x2="389.45" y2="278.34" gradientUnits="userSpaceOnUse"><stop offset="0" stop-color="#fcc73c"/><stop offset="1" stop-color="#fc7a3c"/></linearGradient><linearGradient id="linear-gradient-9" x1="387.67" y1="228.35" x2="388.69" y2="228.35" xlink:href="#linear-gradient-8"/><linearGradient id="linear-gradient-10" x1="398.77" y1="272.77" x2="366.22" y2="240.22" gradientUnits="userSpaceOnUse"><stop offset="0" stop-color="#5789ee"/><stop offset="1" stop-color="#78bfff"/></linearGradient><linearGradient id="linear-gradient-11" x1="391.58" y1="244.7" x2="429.04" y2="244.7" xlink:href="#linear-gradient-8"/><linearGradient id="linear-gradient-12" x1="415.02" y1="234.2" x2="415.02" y2="271.94" xlink:href="#linear-gradient-8"/><linearGradient id="linear-gradient-13" x1="407.76" y1="221.18" x2="407.76" y2="214.19" gradientUnits="userSpaceOnUse"><stop offset="0" stop-color="#fcae3c"/><stop offset="1" stop-color="#fc7a3c"/></linearGradient><linearGradient id="linear-gradient-14" x1="402.72" y1="220.63" x2="402.72" y2="214" xlink:href="#linear-gradient-13"/><linearGradient id="linear-gradient-15" x1="88.38" y1="386.63" x2="88.38" y2="239.8" xlink:href="#linear-gradient-6"/><linearGradient id="linear-gradient-16" x1="96.2" y1="318.1" x2="96.2" y2="285.08" xlink:href="#linear-gradient-6"/><linearGradient id="linear-gradient-17" x1="109.26" y1="386.63" x2="109.26" y2="239.8" xlink:href="#linear-gradient-6"/><linearGradient id="linear-gradient-18" x1="98.95" y1="255.76" x2="98.95" y2="241.57" xlink:href="#linear-gradient-6"/><linearGradient id="linear-gradient-19" x1="96.62" y1="211.7" x2="96.62" y2="252.79" xlink:href="#linear-gradient-8"/><linearGradient id="linear-gradient-20" x1="112.48" y1="236" x2="112.48" y2="241.48" xlink:href="#linear-gradient-8"/><linearGradient id="linear-gradient-21" x1="79.1" y1="224.88" x2="82.64" y2="224.88" xlink:href="#linear-gradient-8"/></defs><title>Asset 31</title><g class="cls-1"><g id="Layer_2" data-name="Layer 2"><g id="Layer_1-2" data-name="Layer 1"><g class="cls-2"><path class="cls-3" d="M496.42,275.3C494.6,306.48,483.1,337.12,463,361a152.38,152.38,0,0,1-34.78,30.24l-9.33-5.53L361,384.26,117.1,378.12l-16.91-.43s-33.6.59-52.43,4.5a123.38,123.38,0,0,1-10.58-9.11c-30-29-42.7-74-35-115.06,12-63.83,68.28-114.21,133.63-115.75a31.06,31.06,0,0,0,30.43-33.06c0-.57-.06-1-.1-1.31C157.26,22.56,256.42-17.4,327.24,7.14A122.2,122.2,0,0,1,386.52,52c14.43,20.54,13.56,44.43,25.19,65.22,6.91,12.35,19,20.72,29.59,30.08,29.76,26.21,50,63.36,54.43,102.76A148.38,148.38,0,0,1,496.42,275.3Z"/></g><g class="cls-4"><path class="cls-3" d="M442.68,279.32c-1.42,24.42-10.44,48.43-26.17,67.15C401.78,364,382.41,376,361,384.26L117.1,378.12c-12.58-5.55-24.33-12.67-34.19-22.2-23.51-22.75-33.44-58-27.37-90.14,9.42-50,53.49-89.46,104.68-90.68a24.34,24.34,0,0,0,23.84-25.89c0-.44-.06-.79-.08-1C177,81.32,254.66,50,310.14,69.25a95.68,95.68,0,0,1,46.44,35.1c11.32,16.08,10.62,34.8,19.74,51.09,5.41,9.67,14.87,16.23,23.18,23.57,23.31,20.53,39.14,49.64,42.64,80.51A116.91,116.91,0,0,1,442.68,279.32Z"/></g><circle class="cls-5" cx="466.41" cy="63.66" r="15.98" transform="translate(296.86 502.8) rotate(-76.66)"/><circle class="cls-5" cx="115.4" cy="45.12" r="18.53" transform="translate(1.89 94.81) rotate(-45)"/><path class="cls-6" d="M191.4,411.62c-24.7-3.68-30.7-20.52-49.36-21.89-28.66-2.09-43,0-69.1-1.31C50.53,387.32,6.17,373.19,42,373.19H463.57c13.74,0-10.84,7.17-18.9,15.23s-7.58,11.4-27.62,17.5"/><path class="cls-7" d="M363.89,373.19c-1.35-46.4,9.14-102.71,45.7-134.68,5.86-5.13,13-11.74,21.36-11.14,3.88.28,5.8,4.72,6.38,8,1,5.87,0,11.91-1.4,17.7C428,285,401.92,341,395.24,373.19"/><path class="cls-8" d="M425.46,239.71C401,271.25,387.58,311,384.07,350.47a143.29,143.29,0,0,0-.49,21.92c0,.41.65.42.64,0a223.36,223.36,0,0,1,21.86-99.71A195.67,195.67,0,0,1,425.82,240c.16-.21-.2-.49-.36-.28Z"/><path class="cls-7" d="M395.24,373.19c4.9-30,10-54.55,27.25-79.64,7.08-10.32,20.72-23.08,31.57-22,11.64,1.13,3.38,18.73-3.53,31.86a185.07,185.07,0,0,0-19.1,56.11c1-5.89,5-22.65,17.11-30.09,3.54-2.19,12.26-3.47,12.26,3.79,0,12.74-12.39,28-15.49,40"/><path class="cls-9" d="M450.31,280.6c-6.92,8.78-11.87,19.3-16.52,29.39a280.51,280.51,0,0,0-15.52,41.2,109.37,109.37,0,0,0-4.15,21.11c0,.3.43.29.46,0,1.65-13.39,5.74-26.44,10.38-39.06A297.77,297.77,0,0,1,442.05,295a99.39,99.39,0,0,1,8.64-14c.2-.27-.17-.65-.38-.38Z"/><path class="cls-9" d="M453.89,334.08c-10,10-14.43,25.5-16.93,39-.06.35.47.51.56.15,3.08-13.52,6.83-28.53,16.71-38.85.21-.22-.12-.56-.34-.34Z"/><path class="cls-10" d="M120,373.19c-7.08-58.54-1.94-84.05,4.73-100.27,3.1-7.56,7.57-15,13.88-20.37,25.28-21.34,24.51,20.14,23.33,32.71-2.71,28.64-9.89,59.25-10.54,87.93"/><path class="cls-7" d="M97.22,373.19c-.81-18.42-9-36.38-19.5-51.25s-25-26.87-34.49-42.57C38.15,271,30.11,257.73,42,250.83c13.18-7.64,32.54.37,43.14,9.12,11.52,9.51,19.1,23,25.42,36.29,11.17,23.5,13.41,50.93,13.58,76.95"/><path class="cls-7" d="M99.73,373.19c0-18.74-9.5-38.53-24.58-53.18-9.86-9.56-21.65-18.53-35.09-22.48-7-2-26.48-5.29-28.44,6.31-.74,4.39,3.23,12.65,12.73,20.18,13.21,10.46,49.7,26.72,54.1,49.17"/><path class="cls-9" d="M20.56,304.6c24,6.65,46.56,23,58.67,44.93a79.42,79.42,0,0,1,8.37,23.28c.06.31.53.18.48-.14C83.53,345.12,62.81,323.2,38.45,311a97,97,0,0,0-17.77-6.85.21.21,0,0,0-.12.41Z"/><path class="cls-9" d="M48.29,258.31c12.15,6.54,22.08,17,30.09,28.06a154,154,0,0,1,23.2,49.49,195.84,195.84,0,0,1,6.1,36.88c0,.52.85.54.82,0-1.66-36.91-15.7-76.26-42.87-102.18a77,77,0,0,0-17.12-12.62c-.25-.13-.47.24-.22.37Z"/><path class="cls-9" d="M148,252.13c-6.09,14.5-9.62,30-12,45.48A386.45,386.45,0,0,0,132,346.25c-.22,8.83-.28,17.67.07,26.49a.36.36,0,0,0,.72,0c-.09-32.1.72-64.41,8.15-95.79a176.91,176.91,0,0,1,7.65-24.67c.13-.33-.39-.47-.53-.15Z"/><path class="cls-10" d="M81.86,373.19c-2.26-10.11-4.25-20.65-10.28-29.36-3.94-5.7-12-13.64-19.13-13.52-5.32.1-6.53,5.21-5.91,9.82,1.62,12.07,8.31,15.76,10.91,28.81-1.29-4.94-9.27-22.07-16.28-15.52-7.71,7.2,3.78,19.77,3.78,19.77"/><path class="cls-9" d="M44,356.76a58,58,0,0,1,10.17,16.5.25.25,0,0,0,.49-.14c-1.6-6.37-6-11.88-10.37-16.66-.18-.2-.46.09-.29.3Z"/><path class="cls-9" d="M55.1,337.87c9.29,9.67,13.54,23.12,18.15,35.39a.26.26,0,0,0,.49-.14A124.46,124.46,0,0,0,67.65,357C64.52,350,60.82,343,55.4,337.58a.21.21,0,0,0-.3.29Z"/><line class="cls-11" x1="287.29" y1="277.74" x2="289.62" y2="277.74"/><path class="cls-12" d="M294.27,277.74H419A36.89,36.89,0,1,0,419,204H137.79a19.57,19.57,0,1,1,0-39.13h236.3a17.33,17.33,0,1,0,0-34.66H157.86a9.53,9.53,0,1,1,0-19.06h58.21"/><line class="cls-11" x1="218.4" y1="111.11" x2="220.73" y2="111.11"/><path class="cls-13" d="M235.61,80.3a20.06,20.06,0,0,0-17.36,34.14l-2.71,5.5,6.08-2.84a20.07,20.07,0,1,0,14-36.8"/><path class="cls-14" d="M223.33,109.5,221.25,107a2.25,2.25,0,0,1,.29-3.18l2.39-2a2.26,2.26,0,0,1,3.18.29s1.1,1.65,2.4,1.36c1.47-.34,4.67-2.68,6.39-4.49,1.22-1.27-.82-3.52-.82-3.52a2.27,2.27,0,0,1,.28-3.19l2.39-2a2.25,2.25,0,0,1,3.18.29L243,93.08C247.68,98.68,227.4,114.38,223.33,109.5Z"/><path class="cls-13" d="M323.06,110.72c3-2.85,4.21-5.79,8.3-6.7a8,8,0,0,0,2.45-.74c2-1.24,1.59-4.07,2-6.31.89-4.41,6.65-7.2,10.87-5.26,1.77.82,3.37,2.31,5.33,2.18,3.91-.27,3.44-5.09,6.11-7.84,2.52-2.6,7.67-2.94,11-1.29a16.83,16.83,0,0,1,5.76,4.68c1.59,2.06,1.52,5.24,2.69,7.51s3.8,3.15,5,5.31a6.53,6.53,0,0,1,.5,5.84c-1.67,4-6.57,6.9-11,6.9H312S319.75,113.9,323.06,110.72Z"/><path class="cls-13" d="M128.66,80c1.41,3.39,5.55,5.83,9.3,5.83h50.72s-6.55-.93-9.35-3.62c-2.52-2.41-3.56-4.89-7-5.66"/><polygon class="cls-15" points="413.28 137 378.03 118.13 387.31 90.58 430.22 112.79 413.28 137"/><polygon class="cls-15" points="430.22 112.79 387.31 90.58 417.9 84.05 430.22 112.79"/><rect class="cls-16" x="382.92" y="97.63" width="38.68" height="32.67" transform="translate(97.44 -172.19) rotate(27.37)"/><polygon class="cls-17" points="387.31 90.58 372.87 118.47 401.03 116.62 387.31 90.58"/><polygon class="cls-17" points="430.22 112.79 415.78 140.69 401.04 116.62 430.22 112.79"/><polygon class="cls-18" points="415.78 140.69 372.87 118.47 405.5 108.14 415.78 140.69"/><polygon class="cls-17" points="415.78 140.69 372.87 118.47 403.45 111.94 415.78 140.69"/><polygon class="cls-15" points="130.36 148.66 101.64 155.85 93.02 136.12 127.61 126.96 130.36 148.66"/><polygon class="cls-15" points="127.61 126.96 93.02 136.12 106.55 117.32 127.61 126.96"/><rect class="cls-16" x="98.53" y="129.41" width="28.64" height="24.2" transform="translate(-32.47 33.61) rotate(-14.84)"/><polygon class="cls-17" points="93.02 136.12 98.97 158.61 113.5 143.58 93.02 136.12"/><polygon class="cls-17" points="127.61 126.96 133.56 149.44 113.5 143.58 127.61 126.96"/><polygon class="cls-18" points="133.56 149.44 98.97 158.61 111.73 136.7 133.56 149.44"/><polygon class="cls-17" points="133.56 149.44 98.97 158.61 112.5 139.81 133.56 149.44"/><polygon class="cls-19" points="269.25 121.4 144.37 230.75 144.37 381.12 394.13 381.12 394.13 230.75 269.25 121.4"/><rect class="cls-20" x="156.99" y="159.86" width="224.52" height="205.74"/><rect class="cls-9" x="169.85" y="186.6" width="198.81" height="17.57"/><rect class="cls-9" x="169.85" y="212.39" width="198.81" height="17.57"/><rect class="cls-9" x="169.85" y="238.19" width="198.81" height="104.46"/><text class="cls-21" transform="translate(176.28 197.35)">NAME</text><text class="cls-22" transform="translate(176.28 223.76)">EMAIL</text><text class="cls-22" transform="translate(176.28 249.53)">MESAGE</text><text class="cls-23" transform="translate(268.9 178.31)">CONTACT US</text><polygon class="cls-24" points="269.25 326.21 144.37 230.75 144.37 365.6 394.13 365.6 394.13 230.75 269.25 326.21"/><polygon class="cls-25" points="269.25 341.75 144.37 230.75 144.37 381.12 394.13 381.12 394.13 230.75 269.25 341.75"/><polygon class="cls-26" points="269.25 263.38 144.37 381.12 394.13 381.12 269.25 263.38"/><polygon class="cls-27" points="269.25 274.86 144.37 381.12 394.13 381.12 269.25 274.86"/><path class="cls-10" d="M350.94,388.42c-2.53-13.18.11-26.7,5.37-38,3.44-7.37,11.38-17.64,20.22-17.47,6.58.12,9.34,6.73,9.72,12.68,1,15.61-6.34,20.38-6.3,37.25.37-6.39,6.55-27.14,16.21-20.06,9.46,6.93.24,25.56.24,25.56"/><path class="cls-9" d="M393.43,366.87c-4,6.45-7.67,13.83-7.95,21.55,0,.28.46.35.51.06a60.11,60.11,0,0,1,7.8-21.4.21.21,0,0,0-.36-.21Z"/><path class="cls-9" d="M375.81,342.46c-5.18,7.31-7.61,16.44-9.46,25.09a158,158,0,0,0-3.11,20.87c0,.28.46.35.5.06,1-6.83,1.79-13.66,3.19-20.43,1.81-8.71,4.15-17.94,9.24-25.38.16-.22-.2-.43-.36-.21Z"/><path class="cls-28" d="M349.23,200.88c-2.44-1-5.92-4-5.52-5.68.17-.72,1.89,1.24,2.38.76.31-.32.05-1.77-.83-2.47s-2.71-2-2.26-2.46,4.93.55,5.93,2.07a17.16,17.16,0,0,1,1.76,5.39l1.85,2.39"/><path class="cls-29" d="M396.11,391s-7.63,2.31-7.62,4.05c0,1,11.2.73,11.88.06,1.07-1.08-1-4-1-4Z"/><path class="cls-28" d="M396.11,386.15v5a1.53,1.53,0,0,0,1.41.9,2.37,2.37,0,0,0,1.89-.9l.12-6.26"/><path class="cls-30" d="M387,274.89s-3.52,19.51-.13,56.74c2.31,25.42,7.87,56.1,9.52,56.1a27.72,27.72,0,0,0,3.13-.19s9.22-37.1,9.22-57.89c0-32,10.8-39.58,5.44-56.11"/><polygon class="cls-31" points="395.25 385.72 395.64 387.92 400.24 387.92 400.38 385.72 395.25 385.72"/><path class="cls-29" d="M419.87,391s-7.63,2.31-7.62,4.05c0,1,11.2.73,11.87.06,1.08-1.08-1-4-1-4Z"/><path class="cls-28" d="M419.87,386.15v5a1.53,1.53,0,0,0,1.41.9,2.34,2.34,0,0,0,1.88-.9l.12-6.26"/><path class="cls-32" d="M400.6,274.89s2.82,24.66,6.29,53.13c1.37,11.24,11.46,58.17,12.71,59.71h4.19s5-40.9,5-61.69c0-32,4.37-36-1-52.5"/><polygon class="cls-31" points="418.9 385.72 419.29 387.92 423.89 387.92 424.03 385.72 418.9 385.72"/><path class="cls-33" d="M402.05,287.36s2.71,31.54,6.37,50"/><path class="cls-34" d="M428.85,270.79c0-2,1.59-37.2-4.52-45.15-1.73-3.71-8.12-7.9-13.21-9.72-4.49-1.6-7.31-.35-9.35-.06-8.59-2.46-28.22-.81-33.67-3.61-3-1.54-17-13.69-17-13.69l-2.62,2s8.37,17.5,17.79,23.62c6.62,4.3,16.45,6.69,21.7,7.73-.08,1-.14,2-.19,3.2a355.88,355.88,0,0,0-.28,35.65c.07,1.74-1.82,4-1.82,5.14s2.27,4.85,21.15,4.85c16,0,23.62-2.35,23.62-5S428.85,272.83,428.85,270.79Z"/><g class="cls-35"><path class="cls-36" d="M388.4,224.75a15.87,15.87,0,0,1,.11,1.82c0,.6,0,1.2,0,1.8s-.09,1.2-.18,1.8A13.9,13.9,0,0,1,388,232a15.87,15.87,0,0,1-.12-1.81c0-.61,0-1.21.05-1.81s.08-1.2.17-1.79A15.68,15.68,0,0,1,388.4,224.75Z"/></g><path class="cls-28" d="M400.6,194.33c-.71,2.82-2.46,10.58-.86,13s5.06,3.09,7.71,2a10,10,0,0,0,5.33-6.43,23.6,23.6,0,0,0,.64-8.55"/><path class="cls-28" d="M403.68,204.59,402.57,214s.4,2.63,1.84,3.63c3.54-.07,5.25-3.44,5.25-3.44l-1.06-12.11"/><path class="cls-29" d="M409.87,196.94c-1.82-.66-4.32-.42-6.6-.81a19.78,19.78,0,0,1-4.78-1c-2.72-1.19-2.47-5.3-.26-6.86a2.89,2.89,0,0,1,2.13-.67c.8.18,1.1,1,1.8,1.34a2.38,2.38,0,0,0,1.21.16,1.49,1.49,0,0,0,.84-.31c.38-.34.54-.87.92-1.23a2.86,2.86,0,0,1,1.32-.67,4,4,0,0,1,3.17.48,3.61,3.61,0,0,0,.95.62,10,10,0,0,1,1.81.47,6.21,6.21,0,0,1,2.64,4.66c0,.27.45.52.61.71,1.51,1.77,1.62,4.24,1.21,6.43a9.09,9.09,0,0,1-2.95,5.71,7.87,7.87,0,0,1-2.32,1c-3.15,1.11-1.55-7.57-1.7-10.07"/><path class="cls-28" d="M410.3,201.76a1,1,0,0,1,1.56-.73,1.3,1.3,0,0,1,.64,1,2.35,2.35,0,0,1-1.61,2.4c-.41.07-.85-.45-.87-.84"/><path class="cls-37" d="M407,207.39a5.88,5.88,0,0,0,.92-.15,4,4,0,0,0,2.32-1.48,1.76,1.76,0,0,0,.37-.95.15.15,0,0,0-.14-.15.14.14,0,0,0-.14.14,1.41,1.41,0,0,1-.32.79,3.71,3.71,0,0,1-2.16,1.38,9.16,9.16,0,0,1-2.59.14.14.14,0,1,0,0,.28A12.91,12.91,0,0,0,407,207.39Z"/><path class="cls-37" d="M404.6,206.9a1,1,0,0,1,.79,0c.9.28-.07,1.41-.88.83a.85.85,0,0,1-.16-.17A.48.48,0,0,1,404.6,206.9Z"/><path class="cls-31" d="M413,198a11.57,11.57,0,0,0-2.16-5.71c-1.58-2-3.68-3.58-5.69-3.58a6.53,6.53,0,0,0-2.53.39,11,11,0,0,1,5.5,3.18,9.55,9.55,0,0,1,2.65,6.4"/><path class="cls-31" d="M407.85,201.24a3.73,3.73,0,1,0,4.12-3.61A3.87,3.87,0,0,0,407.85,201.24Z"/><path class="cls-38" d="M409.61,201.59a2.45,2.45,0,1,0,2.7-2.49A2.6,2.6,0,0,0,409.61,201.59Z"/><path class="cls-38" d="M404.41,268.22H366.72L363,245.44a1.6,1.6,0,0,1,1.58-1.85h33.6a2.6,2.6,0,0,1,2.57,2.19Z"/><path class="cls-39" d="M403.32,268.22h-37.7l-3.69-22.78a1.59,1.59,0,0,1,1.58-1.85h33.6a2.6,2.6,0,0,1,2.57,2.19Z"/><path class="cls-40" d="M384.57,255.3c-.42-1.92-1.88-3.28-3.27-3s-2.18,2-1.77,3.92,1.88,3.28,3.27,3S385,257.22,384.57,255.3Z"/><path class="cls-41" d="M424.33,225.64c-1.73-3.71-6.29-5.27-11.38-7.09l-1.4,17.2c.63,7.84,3.47,19.17,3.47,19.17l-15.77,11.93,0,0a2.49,2.49,0,0,1-.64.34c-.21,0-1.74-.87-2.55-.73s-1.74.2-1.74.49,1.24.32,1.24.6-.84.83-1.22.83a14.94,14.94,0,0,0-2.77,0c-.14.16.48,1.18,1.1,1.73a4.1,4.1,0,0,0,2,.68,13.29,13.29,0,0,0,4.26-.79c.27-.19.92-.55,1.55-.89l.54,1s21.47-1.71,27.94-4.66C429.18,254.89,429.13,231.88,424.33,225.64Z"/><path class="cls-28" d="M400.6,266a15.87,15.87,0,0,1-2,1,8.71,8.71,0,0,0-2.55-.62c-.81.12-1.74.17-1.74.42s1.24.27,1.24.51-.84.71-1.22.71a18.11,18.11,0,0,0-2.77,0c-.14.14.48,1,1.1,1.48a4.6,4.6,0,0,0,2,.58,15.22,15.22,0,0,0,4.26-.68c.58-.35,3-1.43,3-1.43"/><path class="cls-42" d="M411.12,215.92s11,.7,16.28,10.89,3.6,31.92.4,35.12-27.61,7.16-27.61,7.16l-.94-2.24,17.19-10.74s-5.35-17.94-5.35-25.22"/><path class="cls-43" d="M404.4,217.63c.8.8,1.14,1.93,1.9,3.55,3.66-1.21,4.81-5.26,4.81-5.26l-1.46-1.73S406.77,217.17,404.4,217.63Z"/><path class="cls-44" d="M404.41,217.63a8.49,8.49,0,0,0-1.84,3c-.93-.93-1.62-4.3-1.53-4.71a22.7,22.7,0,0,1,1.53-1.92A6.85,6.85,0,0,0,404.41,217.63Z"/><path class="cls-45" d="M83.46,390s-7.62,2.31-7.61,4c0,1,11.2.73,11.87.06,1.08-1.08-.84-4.35-.84-4.35Z"/><path class="cls-28" d="M83.46,385.11v5a1.53,1.53,0,0,0,1.41.9,2.37,2.37,0,0,0,1.89-.9l.12-6.27"/><path class="cls-46" d="M86,247.48c-5.12,6.62-11.14,25.36-11.14,60.94,0,25.15,8.16,77.82,8.16,77.82l4.66.39c14.9-94.14,9.87-93.16,13.59-109.9,2.33-10.49-2.4-36.93-2.4-36.93"/><path class="cls-47" d="M98.33,306.59s-3.21-17.86-3.21-21.51a66.09,66.09,0,0,0,0,23.39c1,4.87,2.08,9.63,2.08,9.63Z"/><path class="cls-31" d="M82.81,384.93v2s4.87.82,4.87.52.22-2.29.22-2.29Z"/><path class="cls-45" d="M124.12,390s7.62,2.31,7.62,4c0,1-11.2.73-11.88.06-1.08-1.08.84-4.35.84-4.35Z"/><path class="cls-28" d="M123.27,385.11l.85,5a1.53,1.53,0,0,1-1.41.9,2.37,2.37,0,0,1-1.89-.9l-1-6.27"/><path class="cls-48" d="M110.78,244.49c5,8.49,14,26,14,61.58,0,25.15-.66,80.15-.66,80.15l-4,.41C107.25,350.69,96.53,304.89,94,278.21c-1-10.69.92-38.41.92-38.41"/><path class="cls-49" d="M111.38,245.5a145,145,0,0,0-16.56-3.93c0,.21,0,.43,0,.67L86,247.48a27.09,27.09,0,0,0-3.18,5.6,40.06,40.06,0,0,0,11.26,2.52c7.27.65,16.35-.77,21-2.95C113.78,249.79,112.5,247.44,111.38,245.5Z"/><path class="cls-31" d="M124.78,384.56v2s-5.11.82-5.11.52-.23-2.29-.23-2.29Z"/><path class="cls-28" d="M150.8,225.76l1.65-.9a11.12,11.12,0,0,1,.94-2.37c.29-.56,1.27-1.93,1.56-1.93s-.33,1.42-.21,1.42,2.29-2.29,2.68-2c.2.13-1.9,2.35-1.9,2.35s2.21-2.45,2.48-2.17-1.94,2.54-1.94,2.54,2-2.19,2.27-2-1.81,2.34-1.81,2.34,1.86-1.86,1.94-1.65-1,1.7-2.76,3.51c-.31.31-1.52,1.25-1.6,1.33l-1.9,2"/><path class="cls-50" d="M154.63,222.31a6,6,0,0,1-.08,1.64,3.33,3.33,0,0,1-1,1.39c-.07.07,0,.19.1.14,1.17-.75,1.25-1.92,1.07-3.19,0-.08-.15-.06-.14,0Z"/><path class="cls-28" d="M42.93,194.33l-1.15-1.48a11,11,0,0,0,.08-2.55,5.86,5.86,0,0,0-.66-2.39c-.27-.12-.26,1.43-.38,1.38s-1.18-3-1.64-2.93c-.24,0,.81,2.91.81,2.91s-1.05-3.12-1.41-3,.76,3.11.76,3.11-1-2.83-1.3-2.71.73,2.87.73,2.87-1-2.44-1.12-2.29.19,1.94,1.12,4.32c.17.41.9,1.76.94,1.87s.95,2.57.95,2.57"/><path class="cls-50" d="M40.67,189.57c-.67,1.09-1.06,2.18-.29,3.34,0,.07.19,0,.15-.07a3.31,3.31,0,0,1-.31-1.61,5.25,5.25,0,0,1,.57-1.58.07.07,0,1,0-.12-.08Z"/><path class="cls-51" d="M152,225.06s-16.7,6.15-20.49,6.15c-3.13,0-8.46-8.46-15.84-14.22a42,42,0,0,0-9.8-5.54l-13.94-.29a111.43,111.43,0,0,0-12.66,1c-6.94.94-13.44.63-16.46-.72-5.86-2.62-20.5-18.36-20.5-18.36a3.07,3.07,0,0,0-2.66,1c0,.78,7.54,22.29,17.48,28.74,7.31,4.74,18,5.51,24.61,5.47v4.43c0,2.18-2.61,13,.47,16,2.84,2.84,13.65,3.19,17.88,3.19,6.26,0,12.67-1,14.27-3.19.8-1.1.68-6,.43-10.49,5,3.16,9.54,6.3,15.32,6.3,10.82,0,23.56-16.93,23.56-16.93Z"/><polygon class="cls-52" points="114.89 241.37 114.75 238.24 110.08 233.51 114.89 241.37"/><path class="cls-53" d="M81.7,228.27c0-.56.94-5.92.94-6.77-1.41,3-3.54,6.74-3.54,6.74Z"/><path class="cls-54" d="M103.44,186.38c3.94,2.45,3.27,7.47,4.86,10.6,1.15,2.27,3,4.19,3.12,6.88.18,2.94-3.63,4.31-5.68,4-4-.62-7.45,1.42-11.48.93-2.75-.33-1.72-1.71-3.51-3.82a8.21,8.21,0,0,1-1.76-4.6,19.85,19.85,0,0,1,.36-5"/><path class="cls-28" d="M96.17,203.4l-.78,7.21-3.5.55s2.44,4.4,6.32,4.4,7.62-4.11,7.62-4.11l-3.8-1.18-1.44-10.13"/><path class="cls-28" d="M90.43,191.64a23.36,23.36,0,0,0,.08,7.23,7.84,7.84,0,0,0,4.16,5.63,9,9,0,0,0,3.21.63,8,8,0,0,0,5.27-1.25,6.7,6.7,0,0,0,2.25-5.78,19.81,19.81,0,0,0-1.8-6.16c-.77-1.86-1.53-3.71-2.3-5.56"/><path class="cls-54" d="M81.45,201.24a6.43,6.43,0,0,0-1.82,3.1,2.93,2.93,0,0,0,1.74,2.88,5.6,5.6,0,0,0,2.9.22,13,13,0,0,1,3.36.14c1,.18,1.85.52,2.77.79a9.53,9.53,0,0,0,4.2.36.82.82,0,0,0,.62-.33c.13-.24,0-.53-.12-.77a11.57,11.57,0,0,1-.71-5.93,15,15,0,0,1,.49-3.06,17.44,17.44,0,0,1,.94-2.43c.69-1.5,1.54-3,2.19-4.47s1-3.85,3.15-3.54c1.37.2,1.94,2.4,2.85,3.74,1.35-1.54,2.86-2.47,0-6.12-1.43-1.82-3.88-1.72-6-1.32-1.22-.09-1.13-.56-2.35-.65a11,11,0,0,0-10,6.09C83.65,194,84.1,198,81.45,201.24Z"/><path class="cls-37" d="M95.11,202.53a7.19,7.19,0,0,1-.91-.15,4,4,0,0,1-2.32-1.48,1.76,1.76,0,0,1-.37-1,.13.13,0,0,1,.13-.14.15.15,0,0,1,.15.13,1.41,1.41,0,0,0,.32.8,3.71,3.71,0,0,0,2.16,1.38,9.16,9.16,0,0,0,2.59.14.14.14,0,0,1,.15.13.14.14,0,0,1-.13.15A13.06,13.06,0,0,1,95.11,202.53Z"/><path class="cls-37" d="M97.5,202a1,1,0,0,0-.79,0c-.89.28.08,1.41.88.83a.69.69,0,0,0,.17-.17A.48.48,0,0,0,97.5,202Z"/><path class="cls-37" d="M89.16,193.14a11.57,11.57,0,0,1,2.16-5.71c1.57-2,3.67-3.58,5.69-3.58a6.59,6.59,0,0,1,2.53.39,10.84,10.84,0,0,0-5.5,3.18,9.6,9.6,0,0,0-2.66,6.39"/><path class="cls-37" d="M94.25,196.38a3.73,3.73,0,1,1-4.11-3.61A3.87,3.87,0,0,1,94.25,196.38Z"/><path class="cls-55" d="M92.5,196.73a2.45,2.45,0,1,1-2.7-2.49A2.61,2.61,0,0,1,92.5,196.73Z"/><path class="cls-56" d="M322.76,100.59,316.91,103a.94.94,0,0,0-.25,1.59l4.19,3.61a1,1,0,0,0,1.53-.47l1.66-6.06A.94.94,0,0,0,322.76,100.59Z"/><path class="cls-56" d="M71.15,177l1.72,6.11a.94.94,0,0,0,1.55.44l4.09-3.72a1,1,0,0,0-.27-1.58l-5.82-2.38A1,1,0,0,0,71.15,177Z"/><path class="cls-56" d="M443.47,250.34l4.49-4.48a.94.94,0,0,0-.36-1.56l-5.25-1.77a.94.94,0,0,0-1.24,1l.75,6.24A1,1,0,0,0,443.47,250.34Z"/><path class="cls-56" d="M422.4,181l1.66,6.12a.94.94,0,0,0,1.54.46l4.14-3.68a1,1,0,0,0-.27-1.58l-5.78-2.44A1,1,0,0,0,422.4,181Z"/><rect class="cls-15" x="400.91" y="169.18" width="3.63" height="3.63" transform="translate(-21.08 279.69) rotate(-37.39)"/><rect class="cls-15" x="373.38" y="143.64" width="3.63" height="3.63" transform="translate(-6.1 16.84) rotate(-2.55)"/><rect class="cls-15" x="141.18" y="191.05" width="3.63" height="3.63" transform="translate(-60.28 65.09) rotate(-21.29)"/><rect class="cls-15" x="175.89" y="102.71" width="3.63" height="3.63" transform="translate(49.18 -56.68) rotate(20.97)"/><rect class="cls-15" x="33.92" y="283.26" width="3.63" height="3.63" transform="matrix(1, -0.04, 0.04, 1, -12.65, 1.87)"/></g></g></g></svg>