<svg xmlns="http://www.w3.org/2000/svg" viewBox="0 0 223.9 180.57"><defs><style>.cls-1{fill:#ffd731;}.cls-2{fill:#eac52d;}.cls-3{fill:#0072bc;}.cls-4{fill:#1187c9;}.cls-5{fill:#c67239;}.cls-6{fill:#fccf8c;}.cls-7{fill:#d78346;}.cls-8{fill:#e8e8e8;}.cls-9{fill:#aeb1cc;}.cls-10{fill:#c3903d;}.cls-11{fill:#f3b863;}.cls-12{fill:#848484;}.cls-13{fill:#999;}.cls-14{fill:#fcfcfc;}.cls-15{fill:none;}</style></defs><title>Asset 24</title><g id="Layer_2" data-name="Layer 2"><g id="Layer_1-2" data-name="Layer 1"><rect class="cls-1" x="10.35" y="177.13" width="210.66" height="3.43"/><rect class="cls-2" x="221.01" y="177.13" width="2.89" height="3.43"/><rect class="cls-3" x="218.3" y="3.15" width="5.6" height="175.43"/><rect class="cls-4" x="215.5" y="3.15" width="5.6" height="175.43"/><rect class="cls-5" x="193.57" y="95.2" width="24.68" height="35.9"/><rect class="cls-5" x="155.5" y="95.2" width="38.07" height="35.9"/><rect class="cls-6" x="193.57" y="93.84" width="24.68" height="35.9"/><rect class="cls-7" x="155.5" y="93.84" width="38.07" height="35.9"/><rect class="cls-8" x="201.32" y="99.26" width="11.99" height="9.48"/><rect class="cls-9" x="201.32" y="112.81" width="5.64" height="6.1"/><rect class="cls-10" x="185.5" y="135.82" width="32.68" height="1.18"/><rect class="cls-10" x="202.14" y="132.27" width="3.33" height="4.72"/><rect class="cls-11" x="205.46" y="132.27" width="3.32" height="4.72"/><rect class="cls-10" x="211.59" y="132.27" width="3.33" height="4.72"/><rect class="cls-11" x="214.92" y="132.27" width="3.32" height="4.72"/><rect class="cls-11" x="193.58" y="131.09" width="24.66" height="1.18"/><rect class="cls-10" x="155.44" y="131.09" width="38.14" height="1.18"/><rect class="cls-10" x="155.44" y="135.82" width="38.14" height="1.18"/><rect class="cls-11" x="193.58" y="132.27" width="3.32" height="4.72"/><rect class="cls-10" x="190.25" y="132.27" width="3.33" height="4.72"/><rect class="cls-10" x="155.44" y="132.13" width="3.32" height="4.72"/><rect class="cls-10" x="173.73" y="132.13" width="3.32" height="4.72"/><rect class="cls-5" x="193.57" y="140.06" width="24.68" height="34.59"/><rect class="cls-5" x="155.5" y="140.06" width="38.07" height="34.59"/><rect class="cls-6" x="193.57" y="138.76" width="24.68" height="34.59"/><rect class="cls-7" x="155.5" y="138.76" width="38.07" height="34.59"/><rect class="cls-8" x="201.32" y="143.98" width="11.99" height="9.14"/><rect class="cls-9" x="201.32" y="157.03" width="5.64" height="5.87"/><rect class="cls-10" x="186.12" y="179.38" width="32.07" height="1.18"/><rect class="cls-10" x="202.44" y="175.83" width="3.26" height="4.72"/><rect class="cls-11" x="205.7" y="175.83" width="3.26" height="4.72"/><rect class="cls-10" x="211.71" y="175.83" width="3.26" height="4.72"/><rect class="cls-11" x="214.98" y="175.83" width="3.26" height="4.72"/><rect class="cls-11" x="194.04" y="174.65" width="24.2" height="1.18"/><rect class="cls-10" x="156.61" y="174.65" width="37.43" height="1.18"/><rect class="cls-10" x="156.61" y="179.38" width="37.43" height="1.18"/><rect class="cls-11" x="194.04" y="175.83" width="3.26" height="4.72"/><rect class="cls-10" x="190.78" y="175.83" width="3.26" height="4.72"/><rect class="cls-10" x="156.61" y="175.69" width="3.26" height="4.72"/><rect class="cls-10" x="174.56" y="175.69" width="3.26" height="4.72"/><rect class="cls-5" x="193.62" y="49.86" width="24.68" height="35.9"/><rect class="cls-5" x="155.55" y="49.86" width="38.07" height="35.9"/><rect class="cls-6" x="193.62" y="48.51" width="24.68" height="35.9"/><rect class="cls-7" x="155.55" y="48.51" width="38.07" height="35.9"/><rect class="cls-8" x="201.38" y="53.93" width="11.99" height="9.48"/><rect class="cls-9" x="201.38" y="67.47" width="5.64" height="6.1"/><rect class="cls-10" x="185.56" y="90.48" width="32.68" height="1.18"/><rect class="cls-10" x="202.19" y="86.94" width="3.33" height="4.72"/><rect class="cls-11" x="205.52" y="86.94" width="3.32" height="4.72"/><rect class="cls-10" x="211.54" y="86.94" width="3.33" height="4.72"/><rect class="cls-11" x="214.87" y="86.94" width="3.32" height="4.72"/><rect class="cls-11" x="193.64" y="85.76" width="24.6" height="1.18"/><rect class="cls-10" x="155.55" y="85.76" width="38.08" height="1.18"/><rect class="cls-10" x="155.55" y="90.48" width="38.08" height="1.18"/><rect class="cls-11" x="193.64" y="86.94" width="3.32" height="4.72"/><rect class="cls-10" x="190.31" y="86.94" width="3.33" height="4.72"/><rect class="cls-10" x="155.55" y="86.79" width="3.27" height="4.72"/><rect class="cls-10" x="173.79" y="86.79" width="3.32" height="4.72"/><rect class="cls-5" x="193.62" y="1.67" width="24.68" height="38.76"/><rect class="cls-5" x="155.55" y="1.67" width="38.07" height="38.76"/><rect class="cls-6" x="193.62" y="0.21" width="24.68" height="38.76"/><rect class="cls-7" x="155.55" y="0.21" width="38.07" height="38.76"/><rect class="cls-8" x="201.38" y="6.06" width="11.99" height="10.24"/><rect class="cls-9" x="201.38" y="20.68" width="5.64" height="6.58"/><rect class="cls-10" x="185.56" y="45.15" width="32.68" height="1.18"/><rect class="cls-10" x="202.19" y="41.61" width="3.33" height="4.72"/><rect class="cls-11" x="205.52" y="41.61" width="3.32" height="4.72"/><rect class="cls-10" x="211.54" y="41.61" width="3.33" height="4.72"/><rect class="cls-11" x="214.87" y="41.61" width="3.32" height="4.72"/><rect class="cls-11" x="193.64" y="40.43" width="24.6" height="1.18"/><rect class="cls-10" x="155.5" y="40.43" width="38.14" height="1.18"/><rect class="cls-10" x="155.5" y="45.15" width="38.14" height="1.18"/><rect class="cls-11" x="193.64" y="41.61" width="3.32" height="4.72"/><rect class="cls-10" x="190.31" y="41.61" width="3.33" height="4.72"/><rect class="cls-10" x="155.5" y="41.46" width="3.32" height="4.72"/><rect class="cls-10" x="173.79" y="41.46" width="3.32" height="4.72"/><rect class="cls-3" x="61.24" y="1.74" width="8.8" height="178.77"/><rect class="cls-3" x="20.06" y="1.74" width="8.8" height="178.83"/><rect class="cls-3" x="103.69" y="1.74" width="8.8" height="178.83"/><rect class="cls-3" x="144.87" y="1.74" width="8.8" height="178.83"/><rect class="cls-3" x="186.08" y="1.74" width="8.8" height="178.83"/><polygon class="cls-12" points="184.89 40.7 184.89 37.37 150.21 1.74 150.21 7.92 184.89 43.55 187.26 43.55 187.26 40.7 184.89 40.7"/><polygon class="cls-13" points="187.26 37.37 187.26 43.55 153.64 9.01 152.58 7.92 150.19 5.53 150.19 1.74 152.58 1.74 153.64 2.83 187.26 37.37"/><polygon class="cls-12" points="151.33 86.03 151.33 82.7 186.01 47.08 186.01 53.25 151.33 88.88 148.96 88.88 148.96 86.03 151.33 86.03"/><polygon class="cls-13" points="148.97 82.49 148.97 88.67 182.59 54.13 183.65 53.04 186.03 50.66 186.03 46.87 183.65 46.87 182.59 47.95 148.97 82.49"/><polygon class="cls-12" points="183.65 131.43 183.65 128.1 148.98 92.48 148.98 98.65 183.65 134.28 186.03 134.28 186.03 131.43 183.65 131.43"/><polygon class="cls-13" points="186.03 128.1 186.03 134.28 152.41 99.74 151.35 98.65 148.96 96.26 148.96 92.47 151.35 92.47 152.41 93.56 186.03 128.1"/><polygon class="cls-12" points="151.34 176.76 151.34 173.44 186.01 137.81 186.01 143.98 151.34 179.61 148.96 179.61 148.96 176.76 151.34 176.76"/><polygon class="cls-13" points="148.96 173.37 148.96 179.54 182.57 145 183.63 143.92 186.02 141.53 186.02 137.74 183.63 137.74 182.57 138.83 148.96 173.37"/><polygon class="cls-12" points="101.26 40.76 101.26 37.44 66.58 1.81 66.58 7.98 101.26 43.61 103.63 43.61 103.63 40.76 101.26 40.76"/><polygon class="cls-13" points="103.63 37.43 103.63 43.61 70.02 9.07 68.95 7.98 66.56 5.6 66.56 1.81 68.95 1.81 70.02 2.9 103.63 37.43"/><polygon class="cls-12" points="68.95 86.03 68.95 82.7 103.62 47.08 103.62 53.25 68.95 88.88 66.57 88.88 66.57 86.03 68.95 86.03"/><polygon class="cls-13" points="66.57 82.66 66.57 88.83 100.19 54.29 101.25 53.21 103.64 50.82 103.64 47.03 101.25 47.03 100.19 48.12 66.57 82.66"/><polygon class="cls-12" points="101.26 131.36 101.26 128.04 66.59 92.41 66.59 98.58 101.26 134.21 103.64 134.21 103.64 131.36 101.26 131.36"/><polygon class="cls-12" points="68.95 176.7 68.95 173.37 103.62 137.74 103.62 143.92 68.95 179.55 66.57 179.55 66.57 176.7 68.95 176.7"/><polygon class="cls-13" points="66.57 173.37 66.57 179.54 100.19 145 101.25 143.92 103.64 141.53 103.64 137.74 101.25 137.74 100.19 138.83 66.57 173.37"/><polygon class="cls-13" points="103.64 128.04 103.64 134.21 70.02 99.67 68.96 98.58 66.57 96.2 66.57 92.41 68.96 92.41 70.02 93.5 103.64 128.04"/><polygon class="cls-12" points="21.26 47.07 21.26 53.25 20.64 53.88 20.06 54.48 20.02 54.52 11.41 63.37 8.99 65.85 8.53 66.33 5.56 69.38 3.31 71.69 0.2 74.89 0.16 74.92 0.16 68.75 0.2 68.71 3.31 65.52 5.56 63.2 8.53 60.16 8.99 59.68 11.07 57.55 14.63 53.88 18.58 49.82 19.91 48.47 20.02 48.34 20.06 48.3 21.26 47.07"/><polygon class="cls-13" points="21.27 47.03 21.27 50.82 21.26 50.84 20.06 52.03 18.88 53.21 18.27 53.84 17.82 54.3 11.07 61.24 8.99 63.37 8.53 63.85 5.56 66.89 3.31 69.2 0.2 72.41 0.16 72.44 0.16 66.27 0.2 66.23 3.31 63.03 5.56 60.72 8.53 57.67 8.99 57.19 11.07 55.06 12.26 53.84 16.21 49.78 17.53 48.42 17.82 48.12 18.88 47.03 21.27 47.03"/><polygon class="cls-12" points="21.27 131.36 21.27 134.21 18.9 134.21 18.86 134.17 18.48 133.78 16.97 132.23 15.82 131.05 14.51 129.7 8.99 124.04 8.47 123.5 5.56 120.51 3.25 118.14 0.2 115 0.2 108.82 3.25 111.96 5.56 114.33 8.47 117.32 8.99 117.86 18.9 128.03 18.9 131.36 21.27 131.36"/><polygon class="cls-13" points="21.27 128.03 21.27 134.21 21.23 134.17 20.06 132.97 20.02 132.93 19.35 132.23 18.2 131.05 16.88 129.7 8.99 121.6 8.47 121.06 5.56 118.07 3.25 115.7 0.2 112.56 0.2 106.38 3.25 109.52 5.56 111.89 8.47 114.88 8.99 115.42 11.01 117.49 12.34 118.86 20.02 126.75 20.06 126.79 21.27 128.03"/><polygon class="cls-12" points="21.26 137.74 21.26 143.92 21.24 143.93 20.06 145.14 20.02 145.19 12.35 153.07 8.99 156.52 8.47 157.06 5.56 160.04 3.25 162.41 0.2 165.56 0.16 165.59 0.16 159.41 0.2 159.38 3.25 156.24 5.56 153.87 8.47 150.88 8.99 150.34 11.01 148.27 15.23 143.93 19.04 140.02 20.02 139.01 20.06 138.97 20.32 138.71 21.26 137.74"/><polygon class="cls-13" points="21.27 137.74 21.27 141.53 21.26 141.54 20.06 142.74 20.02 142.78 18.88 143.92 18.87 143.93 17.82 145 11.01 152.01 8.99 154.07 8.47 154.61 5.56 157.6 3.25 159.97 0.2 163.12 0.16 163.15 0.16 156.97 0.2 156.94 3.25 153.8 5.56 151.43 8.47 148.44 8.99 147.9 11.01 145.83 12.85 143.93 16.66 140.02 17.82 138.83 17.93 138.71 18.88 137.74 21.27 137.74"/><polygon class="cls-12" points="21.26 40.69 21.26 43.54 18.89 43.54 18.85 43.5 18.53 43.18 16.96 41.56 15.81 40.38 14.39 38.92 8.99 33.38 8.53 32.9 5.56 29.85 3.31 27.54 0.2 24.34 0.16 24.3 0.16 18.13 0.2 18.16 3.31 21.36 5.56 23.68 8.53 26.72 8.99 27.2 18.89 37.37 18.89 40.69 21.26 40.69"/><polygon class="cls-13" points="21.27 37.37 21.27 43.54 21.23 43.51 21.23 43.5 21.23 43.5 20.06 42.31 20.02 42.27 19.34 41.56 18.19 40.38 16.77 38.92 8.99 30.93 8.53 30.45 5.56 27.41 3.31 25.09 0.2 21.89 0.16 21.86 0.16 15.69 0.2 15.72 3.31 18.92 5.56 21.23 8.53 24.27 8.99 24.76 11.07 26.89 11.39 27.22 20.02 36.09 20.06 36.13 21.27 37.37"/><rect class="cls-12" x="194.88" y="43.34" width="26.21" height="3.01" transform="translate(415.98 89.68) rotate(180)"/><rect class="cls-13" x="194.88" y="45.85" width="26.21" height="1.01" transform="translate(415.98 92.72) rotate(180)"/><rect class="cls-12" x="194.88" y="88.67" width="26.21" height="3.01"/><rect class="cls-13" x="194.88" y="91.19" width="26.21" height="1.01"/><rect class="cls-12" x="194.89" y="134" width="26.21" height="3.01" transform="translate(415.98 271.02) rotate(180)"/><rect class="cls-13" x="194.89" y="136.52" width="26.21" height="1.01" transform="translate(415.98 274.05) rotate(180)"/><rect class="cls-4" x="61.24" y="1.74" width="5.37" height="178.77"/><rect class="cls-4" x="20.02" y="1.74" width="5.37" height="178.83"/><rect class="cls-4" x="103.65" y="1.74" width="5.37" height="178.63"/><rect class="cls-4" x="144.83" y="1.74" width="5.37" height="178.83"/><rect class="cls-4" x="186.04" y="1.74" width="5.6" height="178.7"/><rect class="cls-1" x="0.16" y="177.13" width="191.48" height="3.43"/><rect class="cls-2" x="191.64" y="177.13" width="3.28" height="3.43"/><rect class="cls-5" x="162.88" y="94.99" width="24.68" height="35.9"/><rect class="cls-5" x="124.81" y="94.99" width="38.07" height="35.9"/><rect class="cls-6" x="162.88" y="93.63" width="24.68" height="35.9"/><rect class="cls-7" x="124.81" y="93.63" width="38.07" height="35.9"/><rect class="cls-8" x="170.64" y="99.05" width="11.99" height="9.48"/><rect class="cls-9" x="170.64" y="112.6" width="5.64" height="6.1"/><rect class="cls-10" x="154.82" y="135.61" width="32.68" height="1.18"/><rect class="cls-10" x="171.45" y="132.07" width="3.33" height="4.72"/><rect class="cls-11" x="174.78" y="132.07" width="3.32" height="4.72"/><rect class="cls-10" x="180.91" y="132.07" width="3.33" height="4.72"/><rect class="cls-11" x="184.23" y="132.07" width="3.32" height="4.72"/><rect class="cls-11" x="162.9" y="130.89" width="24.66" height="1.18"/><rect class="cls-10" x="124.76" y="130.89" width="38.14" height="1.18"/><rect class="cls-10" x="124.76" y="135.61" width="38.14" height="1.18"/><rect class="cls-11" x="162.9" y="132.07" width="3.32" height="4.72"/><rect class="cls-10" x="159.57" y="132.07" width="3.33" height="4.72"/><rect class="cls-10" x="124.76" y="131.92" width="3.32" height="4.72"/><rect class="cls-10" x="143.05" y="131.92" width="3.32" height="4.72"/><rect class="cls-5" x="162.88" y="139.85" width="24.68" height="34.59"/><rect class="cls-5" x="124.81" y="139.85" width="38.07" height="34.59"/><rect class="cls-6" x="162.88" y="138.55" width="24.68" height="34.59"/><rect class="cls-7" x="124.81" y="138.55" width="38.07" height="34.59"/><rect class="cls-8" x="170.64" y="143.77" width="11.99" height="9.14"/><rect class="cls-9" x="170.64" y="156.82" width="5.64" height="5.87"/><rect class="cls-10" x="155.43" y="179.17" width="32.07" height="1.18"/><rect class="cls-10" x="171.75" y="175.63" width="3.26" height="4.72"/><rect class="cls-11" x="175.02" y="175.63" width="3.26" height="4.72"/><rect class="cls-10" x="181.03" y="175.63" width="3.26" height="4.72"/><rect class="cls-11" x="184.29" y="175.63" width="3.26" height="4.72"/><rect class="cls-11" x="163.36" y="174.45" width="24.2" height="1.18"/><rect class="cls-10" x="125.93" y="174.45" width="37.43" height="1.18"/><rect class="cls-10" x="125.93" y="179.17" width="37.43" height="1.18"/><rect class="cls-11" x="163.36" y="175.63" width="3.26" height="4.72"/><rect class="cls-10" x="160.09" y="175.63" width="3.26" height="4.72"/><rect class="cls-10" x="125.93" y="175.48" width="3.26" height="4.72"/><rect class="cls-10" x="143.88" y="175.48" width="3.26" height="4.72"/><rect class="cls-5" x="162.94" y="49.65" width="24.68" height="35.9"/><rect class="cls-5" x="124.87" y="49.65" width="38.07" height="35.9"/><rect class="cls-6" x="162.94" y="48.3" width="24.68" height="35.9"/><rect class="cls-7" x="124.87" y="48.3" width="38.07" height="35.9"/><rect class="cls-8" x="170.69" y="53.72" width="11.99" height="9.48"/><rect class="cls-9" x="170.69" y="67.26" width="5.64" height="6.1"/><rect class="cls-10" x="154.88" y="90.28" width="32.68" height="1.18"/><rect class="cls-10" x="171.51" y="86.73" width="3.33" height="4.72"/><rect class="cls-11" x="174.83" y="86.73" width="3.32" height="4.72"/><rect class="cls-10" x="180.86" y="86.73" width="3.33" height="4.72"/><rect class="cls-11" x="184.18" y="86.73" width="3.32" height="4.72"/><rect class="cls-11" x="162.95" y="85.55" width="24.6" height="1.18"/><rect class="cls-10" x="124.87" y="85.55" width="38.08" height="1.18"/><rect class="cls-10" x="124.87" y="90.28" width="38.08" height="1.18"/><rect class="cls-11" x="162.95" y="86.73" width="3.32" height="4.72"/><rect class="cls-10" x="159.63" y="86.73" width="3.33" height="4.72"/><rect class="cls-10" x="124.87" y="86.59" width="3.27" height="4.72"/><rect class="cls-10" x="143.1" y="86.59" width="3.32" height="4.72"/><rect class="cls-5" x="162.94" y="1.46" width="24.68" height="38.76"/><rect class="cls-5" x="124.87" y="1.46" width="38.07" height="38.76"/><rect class="cls-6" x="162.94" width="24.68" height="38.76"/><rect class="cls-7" x="124.87" width="38.07" height="38.76"/><rect class="cls-8" x="170.69" y="5.85" width="11.99" height="10.24"/><rect class="cls-9" x="170.69" y="20.47" width="5.64" height="6.58"/><rect class="cls-10" x="154.88" y="44.94" width="32.68" height="1.18"/><rect class="cls-10" x="171.51" y="41.4" width="3.33" height="4.72"/><rect class="cls-11" x="174.83" y="41.4" width="3.32" height="4.72"/><rect class="cls-10" x="180.86" y="41.4" width="3.33" height="4.72"/><rect class="cls-11" x="184.18" y="41.4" width="3.32" height="4.72"/><rect class="cls-11" x="162.95" y="40.22" width="24.6" height="1.18"/><rect class="cls-10" x="124.81" y="40.22" width="38.14" height="1.18"/><rect class="cls-10" x="124.81" y="44.94" width="38.14" height="1.18"/><rect class="cls-11" x="162.95" y="41.4" width="3.32" height="4.72"/><rect class="cls-10" x="159.63" y="41.4" width="3.33" height="4.72"/><rect class="cls-10" x="124.81" y="41.25" width="3.32" height="4.72"/><rect class="cls-10" x="143.1" y="41.25" width="3.32" height="4.72"/><rect class="cls-3" x="30.56" y="1.54" width="8.8" height="178.77"/><rect class="cls-3" x="73.01" y="1.54" width="8.8" height="178.83"/><rect class="cls-3" x="114.18" y="1.54" width="8.8" height="178.83"/><rect class="cls-3" x="155.4" y="1.54" width="8.8" height="178.83"/><polygon class="cls-12" points="154.2 40.49 154.2 37.16 119.52 1.54 119.52 7.71 154.2 43.34 156.58 43.34 156.58 40.49 154.2 40.49"/><polygon class="cls-13" points="156.58 37.16 156.58 43.34 122.96 8.8 121.9 7.71 119.51 5.33 119.51 1.53 121.9 1.53 122.96 2.62 156.58 37.16"/><polygon class="cls-12" points="120.67 85.98 120.67 82.66 155.34 47.03 155.34 53.21 120.67 88.83 118.29 88.83 118.29 85.98 120.67 85.98"/><polygon class="cls-13" points="118.27 82.49 118.27 88.67 151.89 54.13 152.95 53.04 155.34 50.66 155.34 46.87 152.95 46.87 151.89 47.95 118.27 82.49"/><polygon class="cls-12" points="152.97 131.22 152.97 127.89 118.29 92.27 118.29 98.44 152.97 134.07 155.34 134.07 155.34 131.22 152.97 131.22"/><polygon class="cls-13" points="155.34 127.89 155.34 134.07 121.73 99.53 120.67 98.44 118.28 96.06 118.28 92.27 120.67 92.27 121.73 93.35 155.34 127.89"/><polygon class="cls-12" points="120.65 176.55 120.65 173.23 155.33 137.6 155.33 143.78 120.65 179.4 118.28 179.4 118.28 176.55 120.65 176.55"/><polygon class="cls-13" points="118.27 173.16 118.27 179.34 151.89 144.8 152.95 143.71 155.34 141.32 155.34 137.53 152.95 137.53 151.89 138.62 118.27 173.16"/><polygon class="cls-12" points="70.57 40.55 70.57 37.23 35.9 1.6 35.9 7.78 70.57 43.4 72.95 43.4 72.95 40.55 70.57 40.55"/><polygon class="cls-13" points="72.95 37.23 72.95 43.4 39.33 8.86 38.27 7.78 35.88 5.39 35.88 1.6 38.27 1.6 39.33 2.69 72.95 37.23"/><polygon class="cls-12" points="38.26 85.99 38.26 82.66 72.94 47.03 72.94 53.21 38.26 88.84 35.89 88.84 35.89 85.99 38.26 85.99"/><polygon class="cls-13" points="35.89 82.5 35.89 88.67 69.5 54.13 70.56 53.04 72.95 50.66 72.95 46.87 70.56 46.87 69.5 47.96 35.89 82.5"/><polygon class="cls-12" points="70.58 131.16 70.58 127.83 35.9 92.2 35.9 98.38 70.58 134 72.95 134 72.95 131.16 70.58 131.16"/><polygon class="cls-12" points="38.26 176.49 38.26 173.16 72.94 137.54 72.94 143.71 38.26 179.34 35.89 179.34 35.89 176.49 38.26 176.49"/><polygon class="cls-13" points="35.89 173.16 35.89 179.34 69.5 144.8 70.56 143.71 72.95 141.32 72.95 137.53 70.56 137.53 69.5 138.62 35.89 173.16"/><polygon class="cls-13" points="72.95 127.83 72.95 134 39.34 99.47 38.28 98.38 35.89 95.99 35.89 92.2 38.28 92.2 39.34 93.29 72.95 127.83"/><rect class="cls-12" x="164.2" y="43.34" width="27.44" height="3.01" transform="translate(355.84 89.68) rotate(180)"/><rect class="cls-13" x="164.2" y="45.85" width="27.44" height="1.01" transform="translate(355.84 92.72) rotate(180)"/><rect class="cls-12" x="164.2" y="88.67" width="27.44" height="3.01"/><rect class="cls-13" x="164.2" y="91.19" width="27.44" height="1.01"/><rect class="cls-12" x="164.2" y="134" width="27.44" height="3.01" transform="translate(355.84 271.02) rotate(180)"/><rect class="cls-13" x="164.2" y="136.52" width="27.44" height="1.01" transform="translate(355.85 274.05) rotate(180)"/><rect class="cls-4" x="30.56" y="1.54" width="5.37" height="178.77"/><rect class="cls-4" x="72.97" y="1.54" width="5.37" height="178.63"/><rect class="cls-4" x="114.14" y="1.54" width="5.37" height="178.83"/><rect class="cls-4" x="155.36" y="1.54" width="5.6" height="178.7"/><polygon class="cls-1" points="0.16 177.13 0.16 179.33 0.16 180.51 0.16 180.53 10.35 180.53 20.02 180.53 20.06 180.53 25.39 180.53 28.86 180.53 42.65 180.53 51.45 180.53 83.78 180.53 83.83 180.53 89.15 180.53 92.63 180.53 103.69 180.53 112.49 180.53 125.04 180.53 130.56 180.53 130.6 180.53 133.84 180.53 144.83 180.53 144.87 180.53 150.19 180.53 153.67 180.53 156.61 180.53 161.08 180.53 161.08 180.37 161.08 180.35 161.08 179.38 161.08 179.17 161.08 177.13 161.08 177.1 160.96 177.1 160.09 177.1 159.88 177.1 157.2 177.1 156.61 177.1 155.4 177.1 155.36 177.1 153.93 177.1 153.78 177.1 153.67 177.1 151.34 177.1 150.67 177.1 150.19 177.1 148.96 177.1 148.96 177.1 147.92 177.1 147.14 177.1 144.87 177.1 144.83 177.1 144.66 177.1 143.88 177.1 141.39 177.1 136.26 177.1 133.84 177.1 133 177.1 130.6 177.1 130.56 177.1 129.73 177.1 129.19 177.1 125.93 177.1 125.04 177.1 125 177.1 122.98 177.1 122.9 177.1 120.45 177.1 119.51 177.1 118.28 177.1 118.27 177.1 116.78 177.1 115.03 177.1 114.18 177.1 114.15 177.1 113.52 177.1 112.49 177.1 111.71 177.1 109.02 177.1 108.38 177.1 105.58 177.1 103.69 177.1 103.65 177.1 102.25 177.1 98.93 177.1 98.83 177.1 95.57 177.1 93.69 177.1 92.7 177.1 92.63 177.1 90.37 177.1 90.25 177.1 89.15 177.1 87.92 177.1 87.91 177.1 87.05 177.1 83.83 177.1 83.78 177.1 81.81 177.1 78.34 177.1 73.85 177.1 73.01 177.1 72.97 177.1 71.33 177.1 71.21 177.1 70.52 177.1 70.04 177.1 68.95 177.1 67.89 177.1 66.61 177.1 66.57 177.1 66.57 177.1 64.56 177.1 61.76 177.1 61.24 177.1 58.44 177.1 55.56 177.1 55.11 177.1 52.23 177.1 51.45 177.1 49.88 177.1 47.98 177.1 46.55 177.1 43.23 177.1 42.65 177.1 42.61 177.1 40.44 177.1 39.35 177.1 38.07 177.1 35.92 177.1 35.89 177.1 30.56 177.1 30.03 177.1 28.86 177.1 27.93 177.1 26.7 177.1 25.39 177.1 24.61 177.1 21.28 177.1 20.06 177.1 20.02 177.1 18.48 177.1 15.15 177.1 11.82 177.1 11.74 177.1 10.25 177.1 8.99 177.1 8.41 177.1 7.87 177.1 6.59 177.1 5.56 177.1 5.53 177.1 5.53 177.1 3.27 177.1 0.2 177.1 0.16 177.1 0.16 177.13"/><rect class="cls-2" x="161.08" y="177.1" width="3.28" height="3.43"/><rect class="cls-5" x="3.25" y="95.15" width="24.68" height="35.9"/><rect class="cls-5" x="0.2" y="95.15" width="3.06" height="35.9"/><rect class="cls-6" x="3.25" y="93.8" width="24.68" height="35.9"/><rect class="cls-7" x="0.2" y="93.8" width="3.06" height="35.9"/><rect class="cls-8" x="11.01" y="99.22" width="11.99" height="9.48"/><rect class="cls-9" x="11.01" y="112.76" width="5.64" height="6.1"/><rect class="cls-10" x="0.16" y="135.77" width="27.71" height="1.18"/><rect class="cls-10" x="11.82" y="132.23" width="3.33" height="4.72"/><rect class="cls-11" x="15.15" y="132.23" width="3.32" height="4.72"/><rect class="cls-10" x="21.28" y="132.23" width="3.33" height="4.72"/><rect class="cls-11" x="24.61" y="132.23" width="3.32" height="4.72"/><rect class="cls-11" x="3.27" y="131.05" width="24.66" height="1.18"/><rect class="cls-10" x="0.2" y="131.05" width="3.07" height="1.18"/><rect class="cls-10" x="0.16" y="135.77" width="3.1" height="1.18"/><rect class="cls-11" x="3.27" y="132.23" width="3.32" height="4.72"/><polygon class="cls-10" points="3.27 132.23 3.27 136.96 0.16 136.96 0.16 135.77 0.2 135.77 0.2 132.23 3.27 132.23"/><rect class="cls-5" x="3.25" y="140.02" width="24.68" height="34.59"/><rect class="cls-5" x="0.16" y="140.02" width="3.09" height="34.59"/><rect class="cls-6" x="3.25" y="138.71" width="24.68" height="34.59"/><rect class="cls-7" x="0.16" y="138.71" width="3.09" height="34.59"/><rect class="cls-8" x="11.01" y="143.93" width="11.99" height="9.14"/><rect class="cls-9" x="11.01" y="156.99" width="5.64" height="5.87"/><rect class="cls-10" x="0.16" y="179.33" width="27.71" height="1.18"/><rect class="cls-10" x="11.82" y="175.79" width="3.33" height="4.72"/><rect class="cls-11" x="15.15" y="175.79" width="3.32" height="4.72"/><rect class="cls-10" x="21.28" y="175.79" width="3.33" height="4.72"/><rect class="cls-11" x="24.61" y="175.79" width="3.32" height="4.72"/><rect class="cls-11" x="3.27" y="174.61" width="24.66" height="1.18"/><rect class="cls-10" x="0.16" y="174.61" width="3.1" height="1.18"/><rect class="cls-10" x="0.16" y="179.33" width="3.1" height="1.18"/><rect class="cls-11" x="3.27" y="175.79" width="3.32" height="4.72"/><polygon class="cls-10" points="0.16 177.13 0.16 179.33 0.16 180.51 3.27 180.51 3.27 180.47 3.27 180.47 3.27 179.33 3.27 177.13 3.27 177.1 3.27 175.79 0.2 175.79 0.16 175.79 0.16 177.1 0.16 177.13"/><rect class="cls-5" x="3.31" y="49.82" width="24.68" height="35.9"/><rect class="cls-6" x="3.31" y="48.46" width="24.68" height="35.9"/><rect class="cls-8" x="11.07" y="53.88" width="11.99" height="9.48"/><rect class="cls-9" x="11.07" y="67.43" width="5.64" height="6.1"/><rect class="cls-10" x="0.2" y="90.44" width="27.73" height="1.18"/><rect class="cls-10" x="11.88" y="86.9" width="3.33" height="4.72"/><rect class="cls-11" x="15.21" y="86.9" width="3.32" height="4.72"/><rect class="cls-10" x="21.23" y="86.9" width="3.33" height="4.72"/><rect class="cls-11" x="24.56" y="86.9" width="3.32" height="4.72"/><rect class="cls-11" x="3.33" y="85.72" width="24.6" height="1.18"/><rect class="cls-10" x="0.2" y="85.72" width="3.13" height="1.18"/><rect class="cls-10" x="0.2" y="90.44" width="3.13" height="1.18"/><rect class="cls-11" x="3.33" y="86.9" width="3.32" height="4.72"/><rect class="cls-10" x="0.2" y="86.9" width="3.13" height="4.72"/><rect class="cls-5" x="3.31" y="1.63" width="24.68" height="38.76"/><rect class="cls-5" x="0.16" y="1.63" width="3.15" height="38.76"/><rect class="cls-6" x="3.31" y="0.16" width="24.68" height="38.76"/><polyline class="cls-7" points="0.16 0.16 3.31 0.16 3.31 38.92 0.16 38.92 0.16 0.16"/><rect class="cls-8" x="11.07" y="6.02" width="11.99" height="10.24"/><rect class="cls-9" x="11.07" y="20.64" width="5.64" height="6.58"/><rect class="cls-10" y="45.11" width="27.93" height="1.18"/><rect class="cls-10" x="11.88" y="41.56" width="3.33" height="4.72"/><rect class="cls-11" x="15.21" y="41.56" width="3.32" height="4.72"/><rect class="cls-10" x="21.23" y="41.56" width="3.33" height="4.72"/><rect class="cls-11" x="24.56" y="41.56" width="3.32" height="4.72"/><rect class="cls-11" x="3.33" y="40.38" width="24.6" height="1.18"/><rect class="cls-10" x="0.16" y="40.38" width="3.16" height="1.18"/><rect class="cls-10" y="45.11" width="3.33" height="1.18"/><rect class="cls-11" x="3.33" y="41.56" width="3.32" height="4.72"/><rect class="cls-10" y="41.56" width="3.33" height="4.72"/><rect class="cls-5" x="46.54" y="95.15" width="24.68" height="35.9"/><rect class="cls-5" x="8.47" y="95.15" width="38.07" height="35.9"/><rect class="cls-6" x="46.54" y="93.8" width="24.68" height="35.9"/><rect class="cls-7" x="8.47" y="93.8" width="38.07" height="35.9"/><rect class="cls-8" x="54.29" y="99.22" width="11.99" height="9.48"/><rect class="cls-9" x="54.29" y="112.76" width="5.64" height="6.1"/><rect class="cls-10" x="38.48" y="135.77" width="32.68" height="1.18"/><rect class="cls-10" x="55.11" y="132.23" width="3.33" height="4.72"/><rect class="cls-11" x="58.43" y="132.23" width="3.32" height="4.72"/><rect class="cls-10" x="64.56" y="132.23" width="3.33" height="4.72"/><rect class="cls-11" x="67.89" y="132.23" width="3.32" height="4.72"/><rect class="cls-11" x="46.55" y="131.05" width="24.66" height="1.18"/><rect class="cls-10" x="8.41" y="131.05" width="38.14" height="1.18"/><rect class="cls-10" x="8.41" y="135.77" width="38.14" height="1.18"/><rect class="cls-11" x="46.55" y="132.23" width="3.32" height="4.72"/><rect class="cls-10" x="43.23" y="132.23" width="3.33" height="4.72"/><rect class="cls-10" x="8.41" y="132.08" width="3.32" height="4.72"/><rect class="cls-10" x="26.7" y="132.08" width="3.32" height="4.72"/><rect class="cls-5" x="46.54" y="140.02" width="24.68" height="34.59"/><rect class="cls-5" x="8.47" y="140.02" width="38.07" height="34.59"/><rect class="cls-6" x="46.54" y="138.71" width="24.68" height="34.59"/><rect class="cls-7" x="8.47" y="138.71" width="38.07" height="34.59"/><rect class="cls-8" x="54.29" y="143.93" width="11.99" height="9.14"/><rect class="cls-9" x="54.29" y="156.99" width="5.64" height="5.87"/><rect class="cls-10" x="38.48" y="179.33" width="32.68" height="1.18"/><rect class="cls-10" x="55.11" y="175.79" width="3.33" height="4.72"/><rect class="cls-11" x="58.43" y="175.79" width="3.32" height="4.72"/><rect class="cls-10" x="64.56" y="175.79" width="3.33" height="4.72"/><rect class="cls-11" x="67.89" y="175.79" width="3.32" height="4.72"/><rect class="cls-11" x="46.55" y="174.61" width="24.66" height="1.18"/><rect class="cls-10" x="8.41" y="174.61" width="38.14" height="1.18"/><rect class="cls-10" x="8.41" y="179.33" width="38.14" height="1.18"/><rect class="cls-11" x="46.55" y="175.79" width="3.32" height="4.72"/><rect class="cls-10" x="43.23" y="175.79" width="3.33" height="4.72"/><rect class="cls-10" x="8.41" y="175.64" width="3.32" height="4.72"/><rect class="cls-10" x="26.7" y="175.64" width="3.32" height="4.72"/><rect class="cls-5" x="46.59" y="49.82" width="24.68" height="35.9"/><rect class="cls-5" x="8.53" y="49.82" width="38.07" height="35.9"/><rect class="cls-6" x="46.59" y="48.46" width="24.68" height="35.9"/><rect class="cls-7" x="8.53" y="48.46" width="38.07" height="35.9"/><rect class="cls-8" x="54.35" y="53.88" width="11.99" height="9.48"/><rect class="cls-9" x="54.35" y="67.43" width="5.64" height="6.1"/><rect class="cls-10" x="38.53" y="90.44" width="32.68" height="1.18"/><rect class="cls-10" x="55.17" y="86.9" width="3.33" height="4.72"/><rect class="cls-11" x="58.49" y="86.9" width="3.32" height="4.72"/><rect class="cls-10" x="64.51" y="86.9" width="3.33" height="4.72"/><rect class="cls-11" x="67.84" y="86.9" width="3.32" height="4.72"/><rect class="cls-11" x="46.61" y="85.72" width="24.6" height="1.18"/><rect class="cls-10" x="8.53" y="85.72" width="38.08" height="1.18"/><rect class="cls-10" x="8.53" y="90.44" width="38.08" height="1.18"/><rect class="cls-11" x="46.61" y="86.9" width="3.32" height="4.72"/><rect class="cls-10" x="43.28" y="86.9" width="3.33" height="4.72"/><rect class="cls-10" x="8.53" y="86.75" width="3.27" height="4.72"/><rect class="cls-10" x="26.76" y="86.75" width="3.32" height="4.72"/><rect class="cls-5" x="46.59" y="1.63" width="24.68" height="38.76"/><rect class="cls-5" x="8.53" y="1.63" width="38.07" height="38.76"/><rect class="cls-6" x="46.59" y="0.16" width="24.68" height="38.76"/><rect class="cls-7" x="8.53" y="0.16" width="38.07" height="38.76"/><rect class="cls-8" x="54.35" y="6.02" width="11.99" height="10.24"/><rect class="cls-9" x="54.35" y="20.64" width="5.64" height="6.58"/><rect class="cls-10" x="38.53" y="45.11" width="32.68" height="1.18"/><rect class="cls-10" x="55.17" y="41.56" width="3.33" height="4.72"/><rect class="cls-11" x="58.49" y="41.56" width="3.32" height="4.72"/><rect class="cls-10" x="64.51" y="41.56" width="3.33" height="4.72"/><rect class="cls-11" x="67.84" y="41.56" width="3.32" height="4.72"/><rect class="cls-11" x="46.61" y="40.38" width="24.6" height="1.18"/><rect class="cls-10" x="8.47" y="40.38" width="38.14" height="1.18"/><rect class="cls-10" x="8.47" y="45.11" width="38.14" height="1.18"/><rect class="cls-11" x="46.61" y="41.56" width="3.32" height="4.72"/><rect class="cls-10" x="43.28" y="41.56" width="3.33" height="4.72"/><rect class="cls-10" x="8.47" y="41.42" width="3.32" height="4.72"/><rect class="cls-10" x="26.76" y="41.42" width="3.32" height="4.72"/><rect class="cls-5" x="90.36" y="95.15" width="24.68" height="35.9"/><rect class="cls-5" x="52.29" y="95.15" width="38.07" height="35.9"/><rect class="cls-6" x="90.36" y="93.8" width="24.68" height="35.9"/><rect class="cls-7" x="52.29" y="93.8" width="38.07" height="35.9"/><rect class="cls-8" x="98.11" y="99.22" width="11.99" height="9.48"/><rect class="cls-9" x="98.11" y="112.76" width="5.64" height="6.1"/><rect class="cls-10" x="82.3" y="135.77" width="32.68" height="1.18"/><rect class="cls-10" x="98.93" y="132.23" width="3.33" height="4.72"/><rect class="cls-11" x="102.25" y="132.23" width="3.32" height="4.72"/><rect class="cls-10" x="108.38" y="132.23" width="3.33" height="4.72"/><rect class="cls-11" x="111.71" y="132.23" width="3.32" height="4.72"/><rect class="cls-11" x="90.37" y="131.05" width="24.66" height="1.18"/><rect class="cls-10" x="52.23" y="131.05" width="38.14" height="1.18"/><rect class="cls-10" x="52.23" y="135.77" width="38.14" height="1.18"/><rect class="cls-11" x="90.37" y="132.23" width="3.32" height="4.72"/><rect class="cls-10" x="87.05" y="132.23" width="3.33" height="4.72"/><rect class="cls-10" x="52.23" y="132.08" width="3.32" height="4.72"/><rect class="cls-10" x="70.52" y="132.08" width="3.32" height="4.72"/><rect class="cls-5" x="90.36" y="140.02" width="24.68" height="34.59"/><rect class="cls-5" x="52.29" y="140.02" width="38.07" height="34.59"/><rect class="cls-6" x="90.36" y="138.71" width="24.68" height="34.59"/><rect class="cls-7" x="52.29" y="138.71" width="38.07" height="34.59"/><rect class="cls-8" x="98.11" y="143.93" width="11.99" height="9.14"/><rect class="cls-9" x="98.11" y="156.99" width="5.64" height="5.87"/><rect class="cls-10" x="82.3" y="179.33" width="32.68" height="1.18"/><rect class="cls-10" x="98.93" y="175.79" width="3.33" height="4.72"/><rect class="cls-11" x="102.25" y="175.79" width="3.32" height="4.72"/><rect class="cls-10" x="108.38" y="175.79" width="3.33" height="4.72"/><rect class="cls-11" x="111.71" y="175.79" width="3.32" height="4.72"/><rect class="cls-11" x="90.37" y="174.61" width="24.66" height="1.18"/><rect class="cls-10" x="52.23" y="174.61" width="38.14" height="1.18"/><rect class="cls-10" x="52.23" y="179.33" width="38.14" height="1.18"/><rect class="cls-11" x="90.37" y="175.79" width="3.32" height="4.72"/><rect class="cls-10" x="87.05" y="175.79" width="3.33" height="4.72"/><rect class="cls-10" x="52.23" y="175.64" width="3.32" height="4.72"/><rect class="cls-10" x="70.52" y="175.64" width="3.32" height="4.72"/><rect class="cls-5" x="90.41" y="49.82" width="24.68" height="35.9"/><rect class="cls-5" x="52.35" y="49.82" width="38.07" height="35.9"/><rect class="cls-6" x="90.41" y="48.46" width="24.68" height="35.9"/><rect class="cls-7" x="52.35" y="48.46" width="38.07" height="35.9"/><rect class="cls-8" x="98.17" y="53.88" width="11.99" height="9.48"/><rect class="cls-9" x="98.17" y="67.43" width="5.64" height="6.1"/><rect class="cls-10" x="82.35" y="90.44" width="32.68" height="1.18"/><rect class="cls-10" x="98.98" y="86.9" width="3.33" height="4.72"/><rect class="cls-11" x="102.31" y="86.9" width="3.32" height="4.72"/><rect class="cls-10" x="108.33" y="86.9" width="3.33" height="4.72"/><rect class="cls-11" x="111.66" y="86.9" width="3.32" height="4.72"/><rect class="cls-11" x="90.43" y="85.72" width="24.6" height="1.18"/><rect class="cls-10" x="52.35" y="85.72" width="38.08" height="1.18"/><rect class="cls-10" x="52.35" y="90.44" width="38.08" height="1.18"/><rect class="cls-11" x="90.43" y="86.9" width="3.32" height="4.72"/><rect class="cls-10" x="87.1" y="86.9" width="3.33" height="4.72"/><rect class="cls-10" x="52.35" y="86.75" width="3.27" height="4.72"/><rect class="cls-10" x="70.58" y="86.75" width="3.32" height="4.72"/><rect class="cls-5" x="90.41" y="1.63" width="24.68" height="38.76"/><rect class="cls-5" x="52.35" y="1.63" width="38.07" height="38.76"/><rect class="cls-6" x="90.41" y="0.16" width="24.68" height="38.76"/><rect class="cls-7" x="52.35" y="0.16" width="38.07" height="38.76"/><rect class="cls-8" x="98.17" y="6.02" width="11.99" height="10.24"/><rect class="cls-9" x="98.17" y="20.64" width="5.64" height="6.58"/><rect class="cls-10" x="82.35" y="45.11" width="32.68" height="1.18"/><rect class="cls-10" x="98.98" y="41.56" width="3.33" height="4.72"/><rect class="cls-11" x="102.31" y="41.56" width="3.32" height="4.72"/><rect class="cls-10" x="108.33" y="41.56" width="3.33" height="4.72"/><rect class="cls-11" x="111.66" y="41.56" width="3.32" height="4.72"/><rect class="cls-11" x="90.43" y="40.38" width="24.6" height="1.18"/><rect class="cls-10" x="52.29" y="40.38" width="38.14" height="1.18"/><rect class="cls-10" x="52.29" y="45.11" width="38.14" height="1.18"/><rect class="cls-11" x="90.43" y="41.56" width="3.32" height="4.72"/><rect class="cls-10" x="87.1" y="41.56" width="3.33" height="4.72"/><rect class="cls-10" x="52.29" y="41.42" width="3.32" height="4.72"/><rect class="cls-10" x="70.58" y="41.42" width="3.32" height="4.72"/><rect class="cls-5" x="132.52" y="95.15" width="24.68" height="35.9"/><rect class="cls-5" x="94.45" y="95.15" width="38.07" height="35.9"/><rect class="cls-6" x="132.52" y="93.8" width="24.68" height="35.9"/><rect class="cls-7" x="94.45" y="93.8" width="38.07" height="35.9"/><rect class="cls-8" x="140.28" y="99.22" width="11.99" height="9.48"/><rect class="cls-9" x="140.28" y="112.76" width="5.64" height="6.1"/><rect class="cls-10" x="124.46" y="135.77" width="32.68" height="1.18"/><rect class="cls-10" x="141.09" y="132.23" width="3.33" height="4.72"/><rect class="cls-11" x="144.42" y="132.23" width="3.32" height="4.72"/><rect class="cls-10" x="150.55" y="132.23" width="3.33" height="4.72"/><rect class="cls-11" x="153.87" y="132.23" width="3.32" height="4.72"/><rect class="cls-11" x="132.54" y="131.05" width="24.66" height="1.18"/><rect class="cls-10" x="94.4" y="131.05" width="38.14" height="1.18"/><rect class="cls-10" x="94.4" y="135.77" width="38.14" height="1.18"/><rect class="cls-11" x="132.54" y="132.23" width="3.32" height="4.72"/><rect class="cls-10" x="129.21" y="132.23" width="3.33" height="4.72"/><rect class="cls-10" x="94.4" y="132.08" width="3.32" height="4.72"/><rect class="cls-10" x="112.69" y="132.08" width="3.32" height="4.72"/><rect class="cls-5" x="132.52" y="140.02" width="24.68" height="34.59"/><rect class="cls-5" x="94.45" y="140.02" width="38.07" height="34.59"/><rect class="cls-6" x="132.52" y="138.71" width="24.68" height="34.59"/><rect class="cls-7" x="94.45" y="138.71" width="38.07" height="34.59"/><rect class="cls-8" x="140.28" y="143.93" width="11.99" height="9.14"/><rect class="cls-9" x="140.28" y="156.99" width="5.64" height="5.87"/><rect class="cls-10" x="125.07" y="179.33" width="32.07" height="1.18"/><rect class="cls-10" x="141.39" y="175.79" width="3.26" height="4.72"/><rect class="cls-11" x="144.66" y="175.79" width="3.26" height="4.72"/><rect class="cls-10" x="150.67" y="175.79" width="3.26" height="4.72"/><rect class="cls-11" x="153.94" y="175.79" width="3.26" height="4.72"/><rect class="cls-11" x="133" y="174.61" width="24.2" height="1.18"/><rect class="cls-10" x="95.57" y="174.61" width="37.43" height="1.18"/><rect class="cls-10" x="95.57" y="179.33" width="37.43" height="1.18"/><rect class="cls-11" x="133" y="175.79" width="3.26" height="4.72"/><rect class="cls-10" x="129.73" y="175.79" width="3.26" height="4.72"/><rect class="cls-10" x="95.57" y="175.64" width="3.26" height="4.72"/><rect class="cls-10" x="113.52" y="175.64" width="3.26" height="4.72"/><rect class="cls-5" x="132.58" y="49.82" width="24.68" height="35.9"/><rect class="cls-5" x="94.51" y="49.82" width="38.07" height="35.9"/><rect class="cls-6" x="132.58" y="48.46" width="24.68" height="35.9"/><rect class="cls-7" x="94.51" y="48.46" width="38.07" height="35.9"/><rect class="cls-8" x="140.33" y="53.88" width="11.99" height="9.48"/><rect class="cls-9" x="140.33" y="67.43" width="5.64" height="6.1"/><rect class="cls-10" x="124.52" y="90.44" width="32.68" height="1.18"/><rect class="cls-10" x="141.15" y="86.9" width="3.33" height="4.72"/><rect class="cls-11" x="144.48" y="86.9" width="3.32" height="4.72"/><rect class="cls-10" x="150.5" y="86.9" width="3.33" height="4.72"/><rect class="cls-11" x="153.82" y="86.9" width="3.32" height="4.72"/><rect class="cls-11" x="132.59" y="85.72" width="24.6" height="1.18"/><rect class="cls-10" x="94.51" y="85.72" width="38.08" height="1.18"/><rect class="cls-10" x="94.51" y="90.44" width="38.08" height="1.18"/><rect class="cls-11" x="132.59" y="86.9" width="3.32" height="4.72"/><rect class="cls-10" x="129.27" y="86.9" width="3.33" height="4.72"/><rect class="cls-10" x="94.51" y="86.75" width="3.27" height="4.72"/><rect class="cls-10" x="112.74" y="86.75" width="3.32" height="4.72"/><rect class="cls-5" x="132.58" y="1.63" width="24.68" height="38.76"/><rect class="cls-5" x="94.51" y="1.63" width="38.07" height="38.76"/><rect class="cls-6" x="132.58" y="0.16" width="24.68" height="38.76"/><rect class="cls-7" x="94.51" y="0.16" width="38.07" height="38.76"/><rect class="cls-8" x="140.33" y="6.02" width="11.99" height="10.24"/><rect class="cls-9" x="140.33" y="20.64" width="5.64" height="6.58"/><rect class="cls-10" x="124.52" y="45.11" width="32.68" height="1.18"/><rect class="cls-10" x="141.15" y="41.56" width="3.33" height="4.72"/><rect class="cls-11" x="144.48" y="41.56" width="3.32" height="4.72"/><rect class="cls-10" x="150.5" y="41.56" width="3.33" height="4.72"/><rect class="cls-11" x="153.82" y="41.56" width="3.32" height="4.72"/><rect class="cls-11" x="132.59" y="40.38" width="24.6" height="1.18"/><rect class="cls-10" x="94.45" y="40.38" width="38.14" height="1.18"/><rect class="cls-10" x="94.45" y="45.11" width="38.14" height="1.18"/><rect class="cls-11" x="132.59" y="41.56" width="3.32" height="4.72"/><rect class="cls-10" x="129.27" y="41.56" width="3.33" height="4.72"/><rect class="cls-10" x="94.45" y="41.42" width="3.32" height="4.72"/><rect class="cls-10" x="112.74" y="41.42" width="3.32" height="4.72"/><rect class="cls-3" x="0.2" y="1.7" width="8.8" height="178.77"/><rect class="cls-3" x="42.65" y="1.7" width="8.8" height="178.83"/><rect class="cls-3" x="83.83" y="1.7" width="8.8" height="178.83"/><rect class="cls-3" x="125.04" y="1.7" width="8.8" height="178.83"/><polygon class="cls-12" points="123.84 40.65 123.84 37.33 89.17 1.7 89.17 7.88 123.84 43.5 126.22 43.5 126.22 40.65 123.84 40.65"/><polygon class="cls-13" points="126.22 37.33 126.22 43.5 92.6 8.96 91.54 7.88 89.15 5.49 89.15 1.7 91.54 1.7 92.6 2.79 126.22 37.33"/><polygon class="cls-12" points="90.29 85.98 90.29 82.66 124.97 47.03 124.97 53.21 90.29 88.83 87.91 88.83 87.91 85.98 90.29 85.98"/><polygon class="cls-13" points="87.91 82.66 87.91 88.83 121.53 54.3 122.59 53.21 124.98 50.82 124.98 47.03 122.59 47.03 121.53 48.12 87.91 82.66"/><polygon class="cls-12" points="122.61 131.38 122.61 128.06 87.93 92.43 87.93 98.61 122.61 134.24 124.98 134.24 124.98 131.38 122.61 131.38"/><polygon class="cls-13" points="124.99 128.06 124.99 134.24 91.37 99.69 90.31 98.61 87.92 96.22 87.92 92.43 90.31 92.43 91.37 93.52 124.99 128.06"/><polygon class="cls-12" points="90.3 176.72 90.3 173.39 124.97 137.77 124.97 143.94 90.3 179.57 87.92 179.57 87.92 176.72 90.3 176.72"/><polygon class="cls-13" points="87.91 173.33 87.91 179.5 121.53 144.96 122.59 143.88 124.98 141.49 124.98 137.7 122.59 137.7 121.53 138.79 87.91 173.33"/><polygon class="cls-12" points="40.21 40.72 40.21 37.39 5.54 1.77 5.54 7.94 40.21 43.57 42.59 43.57 42.59 40.72 40.21 40.72"/><polygon class="cls-13" points="42.59 37.39 42.59 43.57 8.97 9.03 7.91 7.94 5.52 5.55 5.52 1.76 7.91 1.76 8.97 2.85 42.59 37.39"/><polygon class="cls-12" points="7.9 85.99 7.9 82.66 42.58 47.03 42.58 53.21 7.9 88.84 5.53 88.84 5.53 85.99 7.9 85.99"/><polygon class="cls-13" points="5.53 82.66 5.53 88.84 39.15 54.3 40.2 53.21 42.59 50.82 42.59 47.03 40.2 47.03 39.15 48.12 5.53 82.66"/><polygon class="cls-12" points="40.22 131.32 40.22 128 5.54 92.37 5.54 98.54 40.22 134.17 42.59 134.17 42.59 131.32 40.22 131.32"/><polygon class="cls-12" points="7.9 176.65 7.9 173.33 42.58 137.7 42.58 143.88 7.9 179.5 5.53 179.5 5.53 176.65 7.9 176.65"/><polygon class="cls-13" points="5.53 173.33 5.53 179.5 39.15 144.96 40.2 143.88 42.59 141.49 42.59 137.7 40.2 137.7 39.15 138.79 5.53 173.33"/><polygon class="cls-13" points="42.59 127.99 42.59 134.17 8.98 99.63 7.92 98.54 5.53 96.16 5.53 92.37 7.92 92.37 8.98 93.45 42.59 127.99"/><polygon class="cls-12" points="161.07 43.5 161.07 46.51 0.16 46.51 0.16 46.29 0 46.29 0 43.5 161.07 43.5"/><polygon class="cls-13" points="161.08 46.02 161.08 47.03 0.16 47.03 0.16 46.29 0 46.29 0 46.02 161.08 46.02"/><rect class="cls-12" x="0.2" y="88.84" width="160.88" height="3.01"/><rect class="cls-13" x="0.2" y="91.35" width="160.88" height="1.01"/><polygon class="cls-12" points="161.07 134.17 161.07 137.18 0.16 137.18 0.16 135.77 0.2 135.77 0.2 134.17 161.07 134.17"/><rect class="cls-13" x="0.16" y="136.69" width="160.92" height="1.01"/><rect class="cls-4" x="0.2" y="1.7" width="5.37" height="178.77"/><rect class="cls-4" x="42.61" y="1.7" width="5.37" height="178.63"/><rect class="cls-4" x="83.79" y="1.7" width="5.37" height="178.83"/><rect class="cls-4" x="125" y="1.7" width="5.6" height="178.7"/><polygon class="cls-1" points="0.16 177.13 0.16 179.33 0.16 180.51 0.16 180.53 10.35 180.53 20.02 180.53 20.06 180.53 25.39 180.53 28.86 180.53 42.65 180.53 51.45 180.53 83.78 180.53 83.83 180.53 89.15 180.53 92.63 180.53 103.69 180.53 112.49 180.53 125.04 180.53 130.56 180.53 130.6 180.53 130.6 180.51 130.6 180.4 130.6 180.35 130.6 179.33 130.6 179.17 130.6 177.13 130.6 177.1 130.56 177.1 129.73 177.1 129.19 177.1 125.93 177.1 125.04 177.1 125 177.1 122.98 177.1 122.9 177.1 120.45 177.1 119.51 177.1 118.28 177.1 118.27 177.1 116.78 177.1 115.03 177.1 114.18 177.1 114.15 177.1 113.52 177.1 112.49 177.1 111.71 177.1 109.02 177.1 108.38 177.1 105.58 177.1 103.69 177.1 103.65 177.1 102.25 177.1 98.93 177.1 98.83 177.1 95.57 177.1 93.69 177.1 92.7 177.1 92.63 177.1 90.37 177.1 90.25 177.1 89.15 177.1 87.92 177.1 87.91 177.1 87.05 177.1 83.83 177.1 83.78 177.1 81.81 177.1 78.34 177.1 73.85 177.1 73.01 177.1 72.97 177.1 71.33 177.1 71.21 177.1 70.52 177.1 70.04 177.1 68.95 177.1 67.89 177.1 66.61 177.1 66.57 177.1 66.57 177.1 64.56 177.1 61.76 177.1 61.24 177.1 58.44 177.1 55.56 177.1 55.11 177.1 52.23 177.1 51.45 177.1 49.88 177.1 47.98 177.1 46.55 177.1 43.23 177.1 42.65 177.1 42.61 177.1 40.44 177.1 39.35 177.1 38.07 177.1 35.92 177.1 35.89 177.1 30.56 177.1 30.03 177.1 28.86 177.1 27.93 177.1 26.7 177.1 25.39 177.1 24.61 177.1 21.28 177.1 20.06 177.1 20.02 177.1 18.48 177.1 15.15 177.1 11.82 177.1 11.74 177.1 10.25 177.1 8.99 177.1 8.41 177.1 7.87 177.1 6.59 177.1 5.56 177.1 5.53 177.1 5.53 177.1 3.27 177.1 0.2 177.1 0.16 177.1 0.16 177.13"/><rect class="cls-2" x="130.56" y="177.1" width="3.28" height="3.43"/><rect class="cls-14" y="41.56" width="0.16" height="4.72"/><line class="cls-15" x1="0.16" y1="177.13" x2="0.16" y2="177.1"/></g></g></svg>