<svg xmlns="http://www.w3.org/2000/svg" viewBox="0 0 190.63 187.23"><defs><style>.cls-1{fill:#c3903d;}.cls-2{fill:#f3b863;}.cls-3{fill:#c67239;}.cls-4{fill:#fccf8c;}.cls-5{fill:#d78346;}.cls-6{fill:#e8e8e8;}.cls-7{fill:#aeb1cc;}.cls-8{fill:#263c8c;}.cls-9{fill:#03110e;}.cls-10{fill:#006e9e;}.cls-11{fill:#29443f;}.cls-12{fill:#ffcc3e;}.cls-13{fill:#e8b32e;}.cls-14{fill:#127abc;}.cls-15{fill:#fed8a7;}.cls-16{fill:#fec894;}.cls-17{fill:#a46700;}.cls-18{fill:#e28b00;}.cls-19{fill:#ffac1a;}.cls-20{fill:#4d3daa;}.cls-21{fill:#6c62cc;}.cls-22{fill:#ffcd50;}.cls-23{fill:#000332;}</style></defs><title>Asset 15</title><g id="Layer_2" data-name="Layer 2"><g id="Layer_1-2" data-name="Layer 1"><rect class="cls-1" x="88.58" y="184.1" width="52.07" height="3.12"/><rect class="cls-1" x="105.64" y="174.73" width="7.29" height="12.5"/><rect class="cls-2" x="98.35" y="174.73" width="7.29" height="12.5"/><rect class="cls-1" x="88.58" y="174.73" width="7.29" height="12.5"/><rect class="cls-2" x="81.29" y="174.73" width="7.29" height="12.5"/><rect class="cls-2" x="81.29" y="171.6" width="41.66" height="3.12"/><rect class="cls-1" x="122.94" y="171.6" width="67.69" height="3.12"/><rect class="cls-1" x="122.94" y="184.1" width="67.69" height="3.12"/><rect class="cls-2" x="115.65" y="174.73" width="7.29" height="12.5"/><rect class="cls-1" x="122.94" y="174.73" width="7.29" height="12.5"/><rect class="cls-1" x="183.34" y="174.73" width="7.29" height="12.5"/><rect class="cls-1" x="154.19" y="174.73" width="7.29" height="12.5"/><rect class="cls-3" x="92.74" y="116.41" width="36.45" height="55.19"/><rect class="cls-3" x="129.19" y="116.41" width="56.24" height="55.19"/><rect class="cls-4" x="92.74" y="114.33" width="36.45" height="55.19"/><rect class="cls-5" x="129.19" y="114.33" width="56.24" height="55.19"/><rect class="cls-6" x="100.03" y="122.66" width="17.7" height="14.58"/><rect class="cls-7" x="109.4" y="143.49" width="8.33" height="9.37"/><rect class="cls-3" x="92.74" y="59.36" width="36.45" height="55.19"/><rect class="cls-3" x="129.19" y="59.36" width="56.24" height="55.19"/><rect class="cls-4" x="92.74" y="57.28" width="36.45" height="55.19"/><rect class="cls-5" x="129.19" y="57.28" width="56.24" height="55.19"/><rect class="cls-6" x="100.03" y="65.61" width="17.7" height="14.58"/><rect class="cls-7" x="109.4" y="86.44" width="8.33" height="9.37"/><rect class="cls-3" x="92.74" y="2.08" width="36.45" height="55.19"/><rect class="cls-3" x="129.19" y="2.08" width="56.24" height="55.19"/><rect class="cls-4" x="92.74" width="36.45" height="55.19"/><rect class="cls-5" x="129.19" width="56.24" height="55.19"/><rect class="cls-6" x="100.03" y="8.33" width="17.7" height="14.58"/><rect class="cls-7" x="109.4" y="29.16" width="8.33" height="9.37"/><polygon class="cls-8" points="34.77 45.94 30.6 45.94 30.46 44.38 34.77 43.85 34.77 45.94"/><path class="cls-9" d="M40,186.22a1.63,1.63,0,0,0,1.6-2c-1.22-5.55-12.17-6.95-18.2-6.95-5.39,0-5.32,3.92-6.18,6.84a1.64,1.64,0,0,0,1.58,2.1Z"/><path class="cls-10" d="M13.69,116s8.6,58.54,5.83,62.35c0,0,8.34-.27,9.17-.69s2.78-54.53-.05-61.66Z"/><path class="cls-11" d="M22.85,186.22a1.64,1.64,0,0,0,1.6-2c-1.23-5.55-12.17-6.95-18.2-6.95-5.4,0-5.32,3.92-6.18,6.84a1.64,1.64,0,0,0,1.57,2.1Z"/><path class="cls-12" d="M10.28,69.17s7-8.2,17.41.81c7.4,6.38,9.16,10.1,9,10.11,0,0,7.52-10.34,9.62-11.62S53.4,72.73,52,74.31s-13.5,24.34-21.11,18.2C22.42,85.71,6.56,76.45,10.28,69.17Z"/><path class="cls-13" d="M46.29,68.47s-.38.6.4,1.84c.67,1.07,1.76,3.89,5.48,3.51C52.55,71.83,48.21,67.31,46.29,68.47Z"/><path class="cls-13" d="M52,74.31c.49-.53.23-1.51-.38-2.53-1.74,2.42-6.46,9-7.7,10.28-1.51,1.61-5.54,7.42-6.3,7.31S31,76.18,26.2,70.88c-3.09-3.42-8.49,9.24-8.49,10.28A12.91,12.91,0,0,0,18,82.71c4.23,3.49,9.24,6.87,12.86,9.8C38.45,98.65,50.49,75.89,52,74.31Z"/><path class="cls-12" d="M1.75,72.3c1-9.88,14.92-8.41,14.92-8.41s3.44,0,8.91,4C29.2,70.49,30,76,31.7,83.66c0,0-8.82,14.46-4.63,21a77.66,77.66,0,0,1,.16,11.1c-.67,5.68-8.67,3.77-16.44,1S.7,82.17,1.75,72.3Z"/><path class="cls-13" d="M16,86.92c-.55-5.15-1.79-19.77-6-19.14s2.33,29.3,2.33,29.3l9.81-3.51S16.32,89.71,16,86.92Z"/><path class="cls-14" d="M29.46,76.42S22.69,61,12.37,64.15h0c-.36.3,5.71-4,15.55,12.74Z"/><path class="cls-15" d="M31.48,40.07c-2.29-9.79-20.43-5.63-22.1,0-.73,2.47-.25,7.47.51,12.3h0a21.44,21.44,0,0,0,1.42,4.44c.69,1.08,1.49,6.27.85,7,4.09,1.33,8.69,5.78,8.69,5.78.24-.43-1.46-4.13-1.46-4.13-.42-5,4.38-4,9-6.25S31.48,40.07,31.48,40.07Z"/><path class="cls-16" d="M28.35,59.25a2.89,2.89,0,0,0,.8-.61c-1.59.76-3.07.81-6,.47-2.2-.26-6.86-2.36-8.34-4.87-1.11-1.89-1.62-7.43-1.62-7.43L9.6,50.43c.09.65.19,1.3.29,1.94h0a21.44,21.44,0,0,0,1.42,4.44c.69,1.08,1.49,6.27.85,7,4.09,1.33,8.69,5.78,8.69,5.78.24-.43-1.46-4.13-1.46-4.13C19,60.5,23.77,61.54,28.35,59.25Z"/><path class="cls-17" d="M29.83,32.7s3.9,4.9,1.87,10.16h0c-.14-2.45-.59-5.19-1.87-5.74h0c-.72-.46-2-.8-4-.06-3.86,1.37-4.26-.14-6.69-.43s-5,4.56-5.19,9.6c-.08,2.61-4,6.14-4,6.14S9,50,8.52,43.93,10.29,24,29.83,32.7Z"/><path class="cls-18" d="M7.23,38.65a14,14,0,0,1,.19-1.74A13.49,13.49,0,0,1,20.92,25.8c7.19,0,13.08,4.74,13.63,12.85h.94c.41,0,.77-.11.77.3v0c0,.41-.36.59-.77.59H8.33C8.76,39.56,7.13,39.81,7.23,38.65Z"/><path class="cls-19" d="M36,39v0c0-.41-.09-.68-.5-.68h-.94a13.56,13.56,0,0,0-11-12.44,13.49,13.49,0,0,0-11,11,13,13,0,0,0-.19,1.66.72.72,0,0,0,.79.84H35.49C35.9,39.31,36,39.38,36,39Z"/><path class="cls-12" d="M35.49,39.56H8.33c.43,0-1.2.38-1.1-.78,0-.11,0-.13,0-.13H35.49c.41,0,.77-.11.77.3v0C36.26,39.38,35.9,39.56,35.49,39.56Z"/><path class="cls-12" d="M26.8,39.56h0a.68.68,0,0,0,.67-.68c0-6.26-3.37-9.16-3.52-9.28a.67.67,0,0,0-.87,1h0s3,2.66,3.05,8.26A.68.68,0,0,0,26.8,39.56Z"/><path class="cls-12" d="M29.61,38.65a11.94,11.94,0,0,0-1.82-6.5.55.55,0,0,1,.08-.84c.28-.24.7-.36.94-.08A11.84,11.84,0,0,1,31,38.65Z"/><path class="cls-12" d="M20.48,31.41c.28-.24.7-.41.94-.13a11.59,11.59,0,0,1,2.15,7.37H22.23a12.1,12.1,0,0,0-1.83-6.5C20.16,31.87,20.2,31.65,20.48,31.41Z"/><path class="cls-16" d="M11.25,50.55h0a2.34,2.34,0,0,0,2.23-2.45V46.4A2.34,2.34,0,0,0,11.29,44h0A2.35,2.35,0,0,0,9,46.4l.29,2.27C9.65,50.22,10,50.55,11.25,50.55Z"/><path class="cls-14" d="M31.86,84.84s-.72-8-2.4-8H22s1.27,8.79.52,11.71c-1.59,6.19-10.07,19.13-20,5.08.42,3.35,1.85,10.61,1.83,14.12,0,3.06-.29,5.54-.42,7.62H3.7v-.17a19.17,19.17,0,0,0,.16,3.25c.26,12.49,1.06,56.69-1.31,60,0,0,9.8-.28,10.63-.7s6.32-41,5.83-56c5.51-.23,10.19-.86,10.19-.86C29.34,119.63,31.86,84.84,31.86,84.84Z"/><path class="cls-10" d="M3.7,115.33h0v0Z"/><path class="cls-10" d="M4.61,178.3a1,1,0,0,0,0-.39c-.47-4.42,3.78-25.39,3-26.8s2.47-29.17,2.47-29.17c-2-1-3.22-6.94-2.47-8.82S7.3,103,7.3,103l-4.79-9c.46,3.47,1.8,10.38,1.78,13.78,0,3.06-.29,5.54-.42,7.62H3.7a17.26,17.26,0,0,0,.16,3.08c.26,12.49,1.06,56.69-1.31,60Z"/><rect class="cls-20" x="36.24" y="85.01" width="41.72" height="2.08" transform="translate(-44.67 68.48) rotate(-46.64)"/><polygon class="cls-20" points="43.54 101.94 33.1 101.94 60.23 70.17 70.66 70.17 43.54 101.94"/><rect class="cls-21" x="25.83" y="85.01" width="41.72" height="2.08" transform="translate(-47.93 60.91) rotate(-46.64)"/><polygon class="cls-21" points="72.18 71.6 61.77 71.6 60.23 70.17 70.67 70.17 72.18 71.6"/><path class="cls-15" d="M37.58,89.77c-.23.63,3.83,1.81,5.54,2.45s2.87.49,3.1-.14-.11-1.5-1.83-2.14S37.82,89.13,37.58,89.77Z"/><path class="cls-22" d="M2.59,69.3s.87-2,2-2.5a4.71,4.71,0,0,1,5.48,1,5.68,5.68,0,0,1,1.28,2.42C13.87,79.64,12,88,14.57,91.65c0,0,16.56-2.64,18.88-3.48s6.1,5.78,4.37,7S12,110.85,5.7,103.34C-1.23,95,.62,73.34,2.59,69.3Z"/><path class="cls-13" d="M35.77,88.5c-.59-.57-1.27-.38-1.84-.4a2.47,2.47,0,0,0-.57,2.43c.37,2.46-.29,4.77,3.82,5.1l.64-.42a1.32,1.32,0,0,0,.43-1.14Z"/><path class="cls-13" d="M37.82,95.21c.52-.38.54-1.24.25-2.23,0-.06,0-.13,0-.19-8,5.29-25,12.56-32,6.3S3.47,67.85,3.49,67.76a8.87,8.87,0,0,0-.9,1.54c-2,4-3.82,25.72,3.11,34C12,110.85,36.08,96.47,37.82,95.21Z"/><path class="cls-13" d="M14.15,90.91c-1.27-.06-3.46.09-4.09,1.72,0,0,2.08-1.53,2.94-.86,0,0-4,2.11-3.73,4.34,0,0,3.19-3.74,5.08-4.84C14.28,91.15,14.21,91,14.15,90.91Z"/><path class="cls-16" d="M52,62.26c-.24.6,3.62,1.83,5.25,2.49s2.73.53,3-.07-.07-1.43-1.7-2.09S52.2,61.66,52,62.26Z"/><path class="cls-16" d="M50.65,64c-.24.6,3.62,1.84,5.25,2.49s2.73.54,3-.06-.07-1.44-1.7-2.09S50.89,63.38,50.65,64Z"/><path class="cls-16" d="M48.6,65.54c-.24.6,3.63,1.84,5.25,2.49s2.74.54,3-.06-.08-1.44-1.7-2.09S48.84,64.94,48.6,65.54Z"/><path class="cls-15" d="M49.94,72.36a4.93,4.93,0,0,1-2.33-2.19,8.31,8.31,0,0,1-.28-7.2s3.39-2.92,4.49-3.24a14,14,0,0,1,4.29,0c.91.23,3.21.38,3.44,1.66.18,1.09.18,1.09-1.73,2.4-.5.34-3.47,4-2.9,4.73S52.76,74.21,49.94,72.36Z"/><path class="cls-23" d="M62.54,62.1v0a1,1,0,0,1-.92,1.06l-15,1a1,1,0,0,1-1-.92v0a1,1,0,0,1,.92-1.05l15-1A1,1,0,0,1,62.54,62.1Z"/><path class="cls-15" d="M52.85,66.84c.3.58,3.75-1.55,5.3-2.36s2.19-1.73,1.89-2.31-1.14-.87-2.69-.06S52.55,66.27,52.85,66.84Z"/><path class="cls-15" d="M51.82,59.73c-.18.63,4,1.26,5.71,1.72s2.78.22,2.95-.4-.24-1.42-1.93-1.88S51.82,59.73,51.82,59.73Z"/><path class="cls-8" d="M22.64,42.86H16.52a1.34,1.34,0,0,0-1.34,1.34v3.48A1.35,1.35,0,0,0,16.52,49h6.12A1.35,1.35,0,0,0,24,47.68V44.2A1.34,1.34,0,0,0,22.64,42.86Zm.46,4.27a1,1,0,0,1-1,1h-5a1,1,0,0,1-1-1V44.74a1,1,0,0,1,1-1h5a1,1,0,0,1,1,1Z"/><polygon class="cls-8" points="16.02 45.56 11.85 45.56 11.71 44 16.02 43.48 16.02 45.56"/><path class="cls-8" d="M34.53,44.2a1.33,1.33,0,0,0-1.34-1.34H27.08a1.34,1.34,0,0,0-1.34,1.34v3.48A1.35,1.35,0,0,0,27.08,49h6.11a1.34,1.34,0,0,0,1.34-1.34Zm-.87,2.93a1,1,0,0,1-1,1h-5a1,1,0,0,1-1-1V44.74a1,1,0,0,1,1-1h5a1,1,0,0,1,1,1Z"/><rect class="cls-8" x="23.49" y="43.48" width="3.13" height="2.08"/><path class="cls-14" d="M23.49,42.86H17.38A1.34,1.34,0,0,0,16,44.2v3.48A1.35,1.35,0,0,0,17.38,49h6.11a1.35,1.35,0,0,0,1.35-1.34V44.2A1.34,1.34,0,0,0,23.49,42.86ZM24,47.13a1,1,0,0,1-1,1h-5a1,1,0,0,1-1-1V44.74a1,1,0,0,1,1-1h5a1,1,0,0,1,1,1Z"/><polygon class="cls-14" points="16.88 45.56 12.71 45.56 11.27 44.27 16.88 43.48 16.88 45.56"/><path class="cls-14" d="M35.39,44.2a1.34,1.34,0,0,0-1.34-1.34H27.94a1.34,1.34,0,0,0-1.35,1.34v3.48A1.35,1.35,0,0,0,27.94,49h6.11a1.35,1.35,0,0,0,1.34-1.34Zm-.88,2.93a1,1,0,0,1-1,1h-5a1,1,0,0,1-1-1V44.74a1,1,0,0,1,1-1h5a1,1,0,0,1,1,1Z"/><rect class="cls-14" x="24.34" y="43.48" width="3.13" height="2.08"/><path class="cls-15" d="M46.56,84.46c-.59.33.39,2.65,1.26,4.25s1.86,2.24,2.45,1.91.89-1.21,0-2.81S47.15,84.14,46.56,84.46Z"/><path class="cls-15" d="M45.41,86.68c-.59.32.38,2.64,1.26,4.24s1.86,2.24,2.45,1.91.88-1.2,0-2.81S46,86.35,45.41,86.68Z"/><path class="cls-15" d="M44,87.43c-.59.32.38,2.64,1.26,4.24s1.85,2.24,2.44,1.92.89-1.21,0-2.81S44.58,87.11,44,87.43Z"/><path class="cls-15" d="M42.11,88.53c-.51.28.33,2.28,1.09,3.67s1.6,1.94,2.11,1.65.77-1,0-2.43S42.62,88.25,42.11,88.53Z"/><path class="cls-15" d="M47,86.91c.7,0,1.15-.17,1.29-.54.24-.64-.12-1.5-1.83-2.14a7.21,7.21,0,0,0-3.37-.63,5.5,5.5,0,0,0-2.1,0c-2.49.47-6.75,5.63-6.79,5.76a5,5,0,0,0,2.58,5.32c1.93.79,4.88-1,6.9-1.78.62.85,1.24,1.17,1.66.94s.72-.94.14-2.15c0-.12,0-.23,0-.36,1.07.21,1.78,0,2-.47s0-1-.66-1.52c.82.07,1.36-.13,1.51-.53C48.48,88.26,48.22,87.52,47,86.91Z"/><path class="cls-16" d="M43.66,92.91c.56.77,1.12,1.08,1.53,1-.59-.54-1.8-1.71-1.68-2s-1.27.87-5.55,1.8c-1,.21-1.34.54-1.35.94l.15.08C38.69,95.48,41.64,93.64,43.66,92.91Z"/><path class="cls-16" d="M11.25,50.55h0a2.34,2.34,0,0,0,2.23-2.45V46.4A2.34,2.34,0,0,0,11.29,44h0A2.35,2.35,0,0,0,9,46.4l.29,2.27C9.65,50.22,10,50.55,11.25,50.55Z"/><path class="cls-14" d="M24.6,77S17.82,61.54,7.51,64.71c0,0-1.9,1-2.27,1.32s8-5.3,17.82,11.42Z"/><path d="M29.18,78.92H30.3a.48.48,0,0,0,.48-.48l-1.35-2.69a.47.47,0,0,0-.48-.47H27.83a.47.47,0,0,0-.48.47l1.35,2.69A.48.48,0,0,0,29.18,78.92Z"/><path d="M23.71,78.92h1.13a.48.48,0,0,0,.47-.48L24,75.75a.48.48,0,0,0-.48-.47H22.36a.48.48,0,0,0-.48.47l1.35,2.69A.49.49,0,0,0,23.71,78.92Z"/></g></g></svg>