<svg xmlns="http://www.w3.org/2000/svg" viewBox="0 0 698.32 766.28"><defs><style>.cls-1{fill:#599dad;}.cls-2{fill:#86d1cd;}.cls-3{fill:#6bb7bf;}.cls-4{fill:#739af0;}.cls-5{fill:#ddebfd;}.cls-6{fill:#a8c3f7;}.cls-7{fill:#f99746;}.cls-8{fill:#ed7d2b;}.cls-9{fill:#ffb27d;}.cls-10{fill:#4a75cb;}.cls-11{fill:#c65447;}.cls-12{fill:#233862;}.cls-13{fill:#2b478b;}.cls-14{fill:#699dee;}.cls-15{fill:#ed985f;}.cls-16{fill:#2c3a64;}</style></defs><title>free-quote-img</title><g id="Layer_2" data-name="Layer 2"><g id="Layer_1-2" data-name="Layer 1"><path class="cls-1" d="M540.37,206.36s-25.85-28-3.3-47.19c0,0,16.59-10.92,30.46-10.6,0,0-18.38,33.62-11.91,36.65s17.78-38.94,17.78-38.94,38.48-5.2,51.13.31c0,0-32,28.27-25,29.61s41.69-26.51,41.69-26.51,36.18,4.77,35.09,26.77-13.23,29.24-18.7,28.86-37.77-11.34-38.29-6.85S638.52,216.82,652,217c0,0-24.3,28.91-41.45,21.47s-19.06-20.16-29.74-24.57-19.65-4-15.13.68,23.7,8.77,30.11,19.17,12.06,17.35-5.47,15.39S544,235.47,542.16,220.91Z"/><path class="cls-1" d="M658.68,177.72s-97.8-.1-118.31,28.64c0,0-4.23,14.46-18.42,28l-2.06,6.32s16.26-18.48,22.27-19.79C542.16,220.91,531.39,186.67,658.68,177.72Z"/><path class="cls-1" d="M522,234.38s-20.38,16.28-20.79,44l3.81.19s5.62-28.89,17.3-40.54S522,234.38,522,234.38Z"/><path class="cls-2" d="M481.94,173s-58.1-13.11-46.1-57.87c0,0,11.7-28.77,29.85-40.67,0,0,6.14,59.62,17.16,57.79s-11.63-65.93-11.63-65.93,45-40.83,66.17-44.95c0,0-16.18,64.8-5.95,60.32s30.21-71.13,30.21-71.13S612.49-15.35,630.59,14s8.89,49.4,1.51,53.76-58.72,18.88-55.42,25.13,41,6.62,58.48-5.07c0,0-5.67,58.78-34.36,64.41s-42.45-9.08-60.12-5.28-28.9,12.19-18.89,14.28,38.32-9.72,55.79-2,30.93,11.67,6.6,24.68-71.81,23.49-87,6.32Z"/><path class="cls-3" d="M609,31.23s-126.09,86.59-127,141.8c0,0,7.37,22.39,1.11,52.44l3,10s4.55-38.21,11.14-45.23C497.15,190.2,452.92,155.63,609,31.23Z"/><path class="cls-3" d="M483.05,225.47s-11.81,39,12.26,75.18l5.09-3.13S482,255.31,486.74,229.94,483.05,225.47,483.05,225.47Z"/><path class="cls-2" d="M159.17,506.42s58.11-13.1,46.1-57.87c0,0-11.7-28.77-29.85-40.67,0,0-6.14,59.62-17.16,57.79s11.63-65.93,11.63-65.93-45-40.83-66.17-44.95c0,0,16.18,64.8,6,60.32S79.46,344,79.46,344,28.62,318,10.52,347.36,1.63,396.76,9,401.12,67.73,420,64.43,426.25s-41,6.62-58.48-5.07c0,0,5.67,58.78,34.36,64.41s42.45-9.08,60.12-5.28,28.9,12.19,18.89,14.28-38.32-9.72-55.79-2-30.93,11.67-6.6,24.68,71.81,23.49,87,6.32Z"/><path class="cls-3" d="M32.14,364.62s126.08,86.59,127,141.8c0,0-7.37,22.39-1.11,52.44l-3,10s-4.55-38.21-11.14-45.23C144,523.59,188.19,489,32.14,364.62Z"/><path class="cls-3" d="M158.06,558.86s11.81,39-12.26,75.18l-5.09-3.13s18.38-42.21,13.66-67.58S158.06,558.86,158.06,558.86Z"/><rect class="cls-4" x="81.7" y="101.4" width="473.47" height="664.88"/><rect class="cls-5" x="98.34" y="119.81" width="440.19" height="634.16"/><rect class="cls-6" x="143.67" y="197.63" width="359.37" height="20.55"/><rect class="cls-6" x="143.67" y="323.06" width="359.37" height="9.43"/><rect class="cls-6" x="143.67" y="345.25" width="359.37" height="9.43"/><rect class="cls-6" x="143.67" y="367.43" width="359.37" height="9.43"/><rect class="cls-6" x="143.67" y="389.61" width="359.37" height="9.43"/><rect class="cls-6" x="143.67" y="411.8" width="359.37" height="9.43"/><rect class="cls-6" x="143.67" y="433.98" width="359.37" height="9.43"/><path class="cls-6" d="M248.9,562.81a27.73,27.73,0,1,1-27.73-27.72A27.72,27.72,0,0,1,248.9,562.81Z"/><path class="cls-6" d="M365,589.47l-.24,0a1.38,1.38,0,0,1-1.13-1.6c.26-1.52,6.56-37.39,26.46-49.6,1.42-.87,2.31-.42,2.71-.07,1.75,1.49.42,5.3-5.57,19.66-2.39,5.73-5.22,12.52-6.38,16.64,2.12-2.77,5.29-7.53,7.81-11.31,7.87-11.82,9.4-13.74,10.94-13.74a1.7,1.7,0,0,1,1.4.72c.83,1.2.2,3.21-2,9.09a66,66,0,0,0-2.47,7.57,40.1,40.1,0,0,0,3.79-4.48c2.72-3.55,4.11-5.24,5.73-5a2,2,0,0,1,1.57,1.4,8.14,8.14,0,0,1,.32,1.52c.22,1.42.46,3,2.17,4,3.46,2,13.41,1.84,41.21-9.76a1.4,1.4,0,0,1,1.82.75,1.38,1.38,0,0,1-.75,1.81c-23.48,9.79-37.75,12.93-43.64,9.62-2.87-1.62-3.29-4.32-3.54-6-.79.83-1.89,2.26-2.69,3.31-3,3.92-5,6.28-7,6.11a1.89,1.89,0,0,1-1.47-.89c-1-1.52,0-4.51,2.36-11,.38-1,.82-2.21,1.2-3.31-1.92,2.63-4.54,6.55-6.65,9.73-8.82,13.23-10.41,15.15-12.19,14.67a1.72,1.72,0,0,1-1.24-1.7c-.18-3.1,2.71-10.28,7.13-20.89,2.25-5.4,5.19-12.46,5.92-15.56-18.1,12.16-24.17,46.74-24.23,47.1A1.38,1.38,0,0,1,365,589.47Z"/><path class="cls-7" d="M422.14,90.62H366.31a30,30,0,1,0-56.19,0H254.29a8.14,8.14,0,0,0-8.14,8.14v22.55a8.14,8.14,0,0,0,8.14,8.13H422.14a8.13,8.13,0,0,0,8.13-8.13V98.76A8.13,8.13,0,0,0,422.14,90.62Zm-83.93.47A11.1,11.1,0,1,1,349.31,80,11.1,11.1,0,0,1,338.21,91.09Z"/><path class="cls-8" d="M254.29,129.44H422.14a8.13,8.13,0,0,0,8.13-8.13V98.76Z"/><path class="cls-9" d="M662.79,469.17s-1.31,12.7-2.74,15.11-7.53,10.07-10.13,11.58,1.58-10.11,1.05-12.38-2.14,4.13-3.28,4.28-.85-5.6-.89-7.69,5.57-7.26,7.55-11.71S662.79,469.17,662.79,469.17Z"/><path class="cls-9" d="M506.77,352.05l-2.92-5.51s1.45-9.81-10.85-16c0,0-4.49-1.83-7,1.83-2.34,3.38,4.45,2.77,4.09,8.55s2.38,9.16,6.19,11l3.16,3.65Z"/><path class="cls-10" d="M623,338.88s-10.56,51.83-68.67,68.76C536.16,412.93,495,353.21,495,353.21s1.44-5.51,10.52-4.24c0,0,40.12,26.56,45.18,29.45,4.48,2.56,34-32.92,47.39-38.64A34.32,34.32,0,0,1,623,338.88Z"/><rect class="cls-11" x="489.08" y="310.9" width="10.85" height="54.59" transform="translate(85.16 775.63) rotate(-81.27)"/><polygon class="cls-9" points="454.98 332.13 466.7 339.42 468.35 328.69 454.98 332.13"/><path class="cls-9" d="M528,341.5l-.53,3.39a3.82,3.82,0,0,1-4.35,3.2l-2.5-.38L522.31,337l2.71.41A3.61,3.61,0,0,1,528,341.5Z"/><path class="cls-12" d="M692.34,664.67s7.21,6.58,5.8,11.26-7.91,7.79-8.79,13.5-4.39,8.83-7.56,8.83H666.7s-2.33-4,3.3-5.23,7.75-7.93,7.4-14.16a108.85,108.85,0,0,1,.52-14.54l12-2.77Z"/><path class="cls-12" d="M603.9,681.69s1.3,15-1.87,16.53l-40.5-.08s0-4.68,6.51-5.72,17.93-4.84,19.86-13.33S603.9,681.69,603.9,681.69Z"/><path class="cls-13" d="M569.71,470.21s2.14,26.24,4.65,57.78c3.41,42.86,7.51,95.49,7.92,105.46.7,17.32,3.52,45,3.52,45s6.68,6.58,20,3.81c0,0,11.91-39.54,15.31-81.38.06-.68.11-1.37.16-2.07,3.17-42.58,8.09-132.26,8.09-132.26Z"/><path class="cls-12" d="M569.71,470.21s2.14,26.24,4.65,57.78l46.79,72.91c.06-.68.11-1.37.16-2.07,3.17-42.58,8.09-132.26,8.09-132.26Z"/><path class="cls-13" d="M579.47,473.32s38.5,95,63.82,139.71,33.23,57.13,33.23,57.13,14.5-5.71,15.82-9.61c0,0-9.68-86.23-26.64-107.25-9.58-11.87-20.83-47.52-21.36-60s-3.43-37.14-3.43-37.14Z"/><path class="cls-9" d="M630.13,326.85s-26.06,12.57-41.08,7.91a35.5,35.5,0,0,1,10.17-8.13c-.52-3-.92-5.63-1.15-7.85a72,72,0,0,1-.64-8l10.05-7.91,9.53-7.56C616.26,316.56,630.13,326.85,630.13,326.85Z"/><path class="cls-14" d="M643.86,461.05c0,1.59-3.36,3.41-4.86,4.1-11.15,4.89-21.54,8.3-33.33,9.44-13.92,1.42-30.38-1.71-36-1.59a2.35,2.35,0,0,1-1.56-.63c-.41-.28-.7-17.06-.41-38.17,0-.85,0-1.7.06-2.56v-.28c.12-8.25.4-16.89.81-25.54.81-19,2.31-37.31,4.85-47.44,3.06-11.94,10-19.85,16.29-25.59l5.2-4.55A24.94,24.94,0,0,0,611,326.3c6-2.9,12.48-6,13.52-5.23,7.86,5.75,13.17,18.66,16,35.15a182.46,182.46,0,0,1,2.37,31.29c0,4.09-.11,8.3-.35,12.45-1.38,22.53,0,42.09.81,53.41C643.62,456.67,643.8,459.23,643.86,461.05Z"/><path class="cls-10" d="M643.39,460c-91.23-.19-16.82-99-16.82-99l14.78-4.8a287.39,287.39,0,0,1,1.71,33.43c0,4.37-.08,8.87-.25,13.3C641.81,427,642.81,447.92,643.39,460Z"/><path class="cls-15" d="M617.19,303.42s-6.59,12-19.12,15.36a72,72,0,0,1-.64-8l10.05-7.91Z"/><path class="cls-9" d="M592.85,310.41S617.7,314.48,620,299.2s7.12-25.05-8.65-28.29-19.75,2.13-21.79,7S586.44,309,592.85,310.41Z"/><path class="cls-16" d="M629.07,269.08c.22-.26.74-.47,1.9-.53a4.65,4.65,0,0,0-2.16-.61c-.25-1.61-1.1-4.46-3.87-5.15a3.45,3.45,0,0,1,1.68,2.5c-3.21-3.29-10.09-5.69-29.13-4.19-25.11,2-16.83,18-13.58,20s11.43-3.34,17.48-2.86,7.21,9.23,9.26,10.43,1.25-.92,4-2.17,3,3.35,2.24,6.34,3,6.94,3,6.94l3.86-4.15c3.86-4.16,7.5-21.76,5.74-25.51C629.38,269.75,629.22,269.42,629.07,269.08Z"/><path class="cls-14" d="M624.55,320.94s15.73,7.45,23.26,18.9c11.7,17.75,25.26,82.47,25.51,88.46s-9.9,48.3-9.9,48.3-10.29-.68-12.94-5.87c0,0,2-43.47.75-46.26S608.34,366.16,613,354.31,624.55,320.94,624.55,320.94Z"/><path class="cls-9" d="M503.8,346.28s.85-3.38-1.49-4.9-4.5-5.64-5.49-5.09c-2,1.16,1.12,4.77.54,9.26C497.16,347.12,500.82,351.25,503.8,346.28Z"/></g></g></svg>