<svg xmlns="http://www.w3.org/2000/svg" viewBox="0 0 150.93 106.65"><defs><style>.cls-1{isolation:isolate;}.cls-2,.cls-7{fill:#c78b5b;}.cls-3{fill:#e5be84;}.cls-4{fill:#ead1b7;}.cls-5{fill:#f7eee5;}.cls-6{fill:#444248;}.cls-7{opacity:0.32;}.cls-10,.cls-7,.cls-9{mix-blend-mode:multiply;}.cls-10,.cls-8,.cls-9{fill:#64739a;}.cls-9{opacity:0.55;}.cls-10{opacity:0.75;}</style></defs><title>Asset 35</title><g class="cls-1"><g id="Layer_2" data-name="Layer 2"><g id="Layer_1-2" data-name="Layer 1"><rect class="cls-2" x="48.47" width="39.13" height="56.85"/><rect class="cls-3" x="35.57" width="38.72" height="56.85"/><rect class="cls-4" x="48.3" width="9.08" height="11.72"/><rect class="cls-4" x="48.3" y="45.13" width="9.08" height="11.72"/><rect class="cls-5" x="60.08" y="47.51" width="11.99" height="7.24"/><rect class="cls-6" x="70.25" y="48.53" width="1.27" height="5.21"/><rect class="cls-6" x="69.03" y="48.53" width="0.45" height="5.21"/><rect class="cls-6" x="66.16" y="48.53" width="1.04" height="5.21"/><rect class="cls-6" x="67.88" y="48.53" width="0.64" height="5.21"/><rect class="cls-6" x="64.95" y="48.53" width="0.43" height="5.21"/><rect class="cls-6" x="62.48" y="48.53" width="0.86" height="5.21"/><rect class="cls-6" x="61.76" y="48.53" width="0.43" height="5.21"/><rect class="cls-6" x="63.73" y="48.53" width="0.59" height="5.21"/><rect class="cls-6" x="60.66" y="48.53" width="0.64" height="5.21"/><rect class="cls-7" x="35.57" y="20.23" width="34.15" height="36.62"/><rect class="cls-2" x="88.53" y="22.41" width="37.44" height="36.58"/><rect class="cls-3" x="78.16" y="22.41" width="37.11" height="36.58"/><rect class="cls-4" x="91.74" y="22.41" width="9.96" height="9.41"/><rect class="cls-4" x="91.74" y="49.59" width="9.96" height="9.41"/><rect class="cls-5" x="103.87" y="51.5" width="9.63" height="5.82"/><rect class="cls-6" x="112.03" y="52.31" width="1.02" height="4.19"/><rect class="cls-6" x="111.06" y="52.31" width="0.36" height="4.19"/><rect class="cls-6" x="108.75" y="52.31" width="0.84" height="4.19"/><rect class="cls-6" x="110.13" y="52.31" width="0.51" height="4.19"/><rect class="cls-6" x="107.78" y="52.31" width="0.35" height="4.19"/><rect class="cls-6" x="105.8" y="52.31" width="0.69" height="4.19"/><rect class="cls-6" x="105.21" y="52.31" width="0.34" height="4.19"/><rect class="cls-6" x="106.8" y="52.31" width="0.47" height="4.19"/><rect class="cls-6" x="104.33" y="52.31" width="0.51" height="4.19"/><rect class="cls-7" x="78.16" y="31.39" width="34.54" height="27.61"/><rect class="cls-2" x="28.75" y="23.12" width="31.6" height="30.88"/><rect class="cls-3" x="19.99" y="23.12" width="31.33" height="30.88"/><rect class="cls-4" x="33.16" y="23.12" width="4.99" height="7.95"/><rect class="cls-4" x="33.16" y="46.05" width="4.99" height="7.95"/><rect class="cls-5" x="22.21" y="47.67" width="8.13" height="4.91"/><rect class="cls-6" x="29.1" y="48.36" width="0.86" height="3.53"/><rect class="cls-6" x="28.28" y="48.36" width="0.3" height="3.53"/><rect class="cls-6" x="26.33" y="48.36" width="0.71" height="3.53"/><rect class="cls-6" x="27.5" y="48.36" width="0.43" height="3.53"/><rect class="cls-6" x="25.51" y="48.36" width="0.29" height="3.53"/><rect class="cls-6" x="23.84" y="48.36" width="0.58" height="3.53"/><rect class="cls-6" x="23.35" y="48.36" width="0.29" height="3.53"/><rect class="cls-6" x="24.68" y="48.36" width="0.4" height="3.53"/><rect class="cls-6" x="22.6" y="48.36" width="0.43" height="3.53"/><rect class="cls-2" x="18.5" y="53.64" width="31.6" height="30.88"/><rect class="cls-3" x="9.75" y="53.64" width="31.33" height="30.88"/><rect class="cls-4" x="21.21" y="53.64" width="8.41" height="7.95"/><rect class="cls-4" x="21.21" y="76.57" width="8.41" height="7.95"/><rect class="cls-5" x="31.44" y="78.19" width="8.13" height="4.91"/><rect class="cls-6" x="38.34" y="78.87" width="0.86" height="3.53"/><rect class="cls-6" x="37.51" y="78.87" width="0.3" height="3.53"/><rect class="cls-6" x="35.57" y="78.87" width="0.71" height="3.53"/><rect class="cls-6" x="36.73" y="78.87" width="0.43" height="3.53"/><rect class="cls-6" x="34.74" y="78.87" width="0.29" height="3.53"/><rect class="cls-6" x="33.07" y="78.87" width="0.58" height="3.53"/><rect class="cls-6" x="32.58" y="78.87" width="0.29" height="3.53"/><rect class="cls-6" x="33.92" y="78.87" width="0.4" height="3.53"/><rect class="cls-6" x="31.84" y="78.87" width="0.43" height="3.53"/><rect class="cls-2" x="57.59" y="36.47" width="49.17" height="48.05"/><rect class="cls-3" x="43.97" y="36.47" width="48.74" height="48.05"/><rect class="cls-4" x="61.8" y="36.47" width="13.08" height="12.36"/><rect class="cls-4" x="61.8" y="72.15" width="13.08" height="12.36"/><rect class="cls-5" x="77.73" y="74.67" width="12.64" height="7.64"/><rect class="cls-6" x="88.46" y="75.74" width="1.34" height="5.5"/><rect class="cls-6" x="87.17" y="75.74" width="0.47" height="5.5"/><rect class="cls-6" x="84.14" y="75.74" width="1.1" height="5.5"/><rect class="cls-6" x="85.96" y="75.74" width="0.67" height="5.5"/><rect class="cls-6" x="82.87" y="75.74" width="0.45" height="5.5"/><rect class="cls-6" x="80.26" y="75.74" width="0.91" height="5.5"/><rect class="cls-6" x="79.5" y="75.74" width="0.45" height="5.5"/><rect class="cls-6" x="81.58" y="75.74" width="0.62" height="5.5"/><rect class="cls-6" x="78.34" y="75.74" width="0.67" height="5.5"/><rect class="cls-2" x="109.43" y="53.64" width="31.6" height="30.88"/><rect class="cls-3" x="100.68" y="53.64" width="31.33" height="30.88"/><rect class="cls-4" x="112.14" y="53.64" width="8.41" height="7.95"/><rect class="cls-4" x="112.14" y="76.57" width="8.41" height="7.95"/><rect class="cls-5" x="122.38" y="78.19" width="8.13" height="4.91"/><rect class="cls-6" x="129.27" y="78.87" width="0.86" height="3.53"/><rect class="cls-6" x="128.45" y="78.87" width="0.3" height="3.53"/><rect class="cls-6" x="126.5" y="78.87" width="0.71" height="3.53"/><rect class="cls-6" x="127.67" y="78.87" width="0.43" height="3.53"/><rect class="cls-6" x="125.68" y="78.87" width="0.29" height="3.53"/><rect class="cls-6" x="124.01" y="78.87" width="0.58" height="3.53"/><rect class="cls-6" x="123.52" y="78.87" width="0.29" height="3.53"/><rect class="cls-6" x="124.85" y="78.87" width="0.4" height="3.53"/><rect class="cls-6" x="122.77" y="78.87" width="0.43" height="3.53"/><rect class="cls-7" x="100.68" y="53.64" width="8.6" height="30.88"/><rect class="cls-8" x="127.67" y="87.27" width="11.77" height="16.64"/><rect class="cls-8" x="103.7" y="87.27" width="11.77" height="16.64"/><rect class="cls-8" x="79.74" y="87.27" width="11.77" height="16.64"/><rect class="cls-8" x="55.77" y="87.27" width="11.77" height="16.64"/><rect class="cls-8" x="31.8" y="87.27" width="11.77" height="16.64"/><rect class="cls-8" x="7.84" y="87.27" width="11.77" height="16.64"/><rect class="cls-9" x="127.67" y="87.27" width="11.77" height="16.64"/><rect class="cls-10" x="103.7" y="87.27" width="11.77" height="16.64"/><rect class="cls-10" x="79.74" y="87.27" width="11.77" height="16.64"/><rect class="cls-10" x="55.77" y="87.27" width="11.77" height="16.64"/><rect class="cls-10" x="31.8" y="87.27" width="11.77" height="16.64"/><rect class="cls-10" x="7.84" y="87.27" width="11.77" height="16.64"/><rect class="cls-8" y="84.52" width="150.93" height="5.5"/><rect class="cls-8" y="101.16" width="150.93" height="5.5"/><polygon class="cls-10" points="127.67 90.02 131.62 90.02 131.62 84.52 150.93 84.52 150.93 90.02 139.44 90.02 139.44 101.16 150.93 101.16 150.93 106.65 131.62 106.65 131.62 101.16 127.67 101.16 127.67 90.02"/></g></g></g></svg>