<svg xmlns="http://www.w3.org/2000/svg" xmlns:xlink="http://www.w3.org/1999/xlink" viewBox="0 0 131.22 180.48"><defs><style>.cls-1{fill:#1187c9;}.cls-2{fill:#0072bc;}.cls-3{fill:#ba4f2a;}.cls-4{fill:#c3903d;}.cls-5{fill:#f3b863;}.cls-6{fill:#c67239;}.cls-7{fill:#fccf8c;}.cls-8{fill:#d78346;}.cls-9{fill:#f4f4f4;}.cls-10{fill:none;stroke:gray;stroke-miterlimit:10;}.cls-11{fill:#c7b299;}.cls-12{fill:#dd642f;}.cls-13{fill:url(#linear-gradient);}</style><linearGradient id="linear-gradient" x1="40.98" y1="92.88" x2="125.34" y2="92.88" gradientTransform="matrix(1, 0, 0, -1, -35.11, 185.75)" gradientUnits="userSpaceOnUse"><stop offset="0" stop-color="#dd642f"/><stop offset="1" stop-color="#ba4f2a"/></linearGradient></defs><title>Asset 27</title><g id="Layer_2" data-name="Layer 2"><g id="Layer_1-2" data-name="Layer 1"><rect class="cls-1" x="37.29" width="3.68" height="180.48"/><rect class="cls-2" x="39.6" width="3.68" height="180.48"/><polygon class="cls-1" points="37.29 42.36 37.29 39.13 3.68 4.6 3.68 10.59 37.29 45.12 39.6 45.12 39.6 42.36 37.29 42.36"/><polygon class="cls-2" points="39.6 45.12 5.99 10.59 5.99 4.6 39.6 39.13 39.6 45.12"/><polygon class="cls-1" points="5.99 174.5 39.6 139.97 37.29 139.97 3.68 174.5 5.99 174.5"/><polygon class="cls-2" points="3.68 173.98 5.99 174.5 39.6 139.97 39.6 145.95 5.99 180.48 3.68 180.48 3.68 177.72 3.68 173.98"/><polygon class="cls-1" points="5.99 86.1 39.6 51.57 37.29 51.57 3.68 86.1 5.99 86.1"/><polygon class="cls-2" points="3.68 85.58 5.99 86.1 39.6 51.57 39.6 57.55 5.99 92.08 3.68 92.08 3.68 89.32 3.68 85.58"/><polygon class="cls-1" points="37.29 132.6 37.29 129.38 3.68 94.85 3.68 100.83 37.29 135.36 39.6 135.36 39.6 132.6 37.29 132.6"/><rect class="cls-3" x="2.3" y="175.21" width="37.29" height="5.27"/><polygon class="cls-2" points="39.6 135.36 5.99 100.83 5.99 94.85 39.6 129.38 39.6 135.36"/><rect class="cls-1" width="3.68" height="180.48"/><rect class="cls-2" x="2.3" width="3.68" height="180.48"/><rect class="cls-4" x="8.45" y="174.96" width="3.22" height="5.52"/><rect class="cls-4" x="39.56" y="174.96" width="3.22" height="5.52"/><rect class="cls-4" x="19.16" y="174.96" width="3.22" height="5.52"/><rect class="cls-4" x="9.14" y="179.1" width="23.02" height="1.38"/><rect class="cls-4" x="16.69" y="174.96" width="3.22" height="5.52"/><rect class="cls-5" x="16.31" y="174.96" width="3.22" height="5.52"/><rect class="cls-5" x="5.21" y="174.96" width="3.22" height="5.52"/><rect class="cls-5" x="5.21" y="173.58" width="28.59" height="1.38"/><rect class="cls-4" x="33.8" y="173.58" width="24.82" height="1.38"/><rect class="cls-4" x="33.8" y="179.1" width="24.82" height="1.38"/><rect class="cls-5" x="30.58" y="174.96" width="3.22" height="5.52"/><rect class="cls-4" x="33.8" y="174.96" width="3.22" height="5.52"/><rect class="cls-4" x="55.95" y="174.96" width="3.46" height="5.52"/><rect class="cls-4" x="48.77" y="174.96" width="3.22" height="5.52"/><rect class="cls-6" x="5.21" y="102.78" width="16.12" height="70.8"/><rect class="cls-6" x="21.33" y="102.78" width="37.29" height="70.8"/><rect class="cls-7" x="5.21" y="100.11" width="28.55" height="70.8"/><rect class="cls-8" x="33.76" y="100.11" width="24.86" height="70.8"/><rect class="cls-9" x="9.14" y="105.42" width="18.35" height="34.88" transform="translate(36.63 245.71) rotate(180)"/><line class="cls-10" x1="25.86" y1="146.92" x2="10.69" y2="146.92"/><line class="cls-10" x1="28.67" y1="154.42" x2="7.87" y2="154.42"/><rect class="cls-11" x="6.82" y="163.42" width="4.85" height="4.85" transform="translate(18.5 331.68) rotate(180)"/><rect class="cls-4" x="41.04" y="174.96" width="3.22" height="5.52"/><rect class="cls-4" x="72.15" y="174.96" width="3.22" height="5.52"/><rect class="cls-4" x="51.75" y="174.96" width="3.22" height="5.52"/><rect class="cls-4" x="41.73" y="179.1" width="23.02" height="1.38"/><rect class="cls-4" x="49.28" y="174.96" width="3.22" height="5.52"/><rect class="cls-5" x="48.9" y="174.96" width="3.22" height="5.52"/><rect class="cls-5" x="37.8" y="174.96" width="3.22" height="5.52"/><rect class="cls-5" x="37.8" y="173.58" width="28.59" height="1.38"/><rect class="cls-4" x="66.39" y="173.58" width="24.82" height="1.38"/><rect class="cls-4" x="66.39" y="179.1" width="24.82" height="1.38"/><rect class="cls-5" x="63.17" y="174.96" width="3.22" height="5.52"/><rect class="cls-4" x="66.39" y="174.96" width="3.22" height="5.52"/><rect class="cls-4" x="88.54" y="174.96" width="2.67" height="5.52"/><rect class="cls-4" x="81.36" y="174.96" width="3.22" height="5.52"/><rect class="cls-6" x="37.8" y="113.44" width="16.12" height="60.14"/><rect class="cls-6" x="53.92" y="113.44" width="37.29" height="60.14"/><rect class="cls-7" x="37.8" y="111.17" width="28.55" height="60.14"/><rect class="cls-8" x="66.35" y="111.17" width="24.86" height="60.14"/><rect class="cls-9" x="41.73" y="115.43" width="18.35" height="24.86" transform="translate(101.81 255.73) rotate(180)"/><line class="cls-10" x1="58.45" y1="146.92" x2="43.28" y2="146.92"/><line class="cls-10" x1="61.26" y1="154.42" x2="40.46" y2="154.42"/><rect class="cls-11" x="39.41" y="163.42" width="4.85" height="4.85" transform="translate(83.68 331.68) rotate(180)"/><rect class="cls-4" x="72.86" y="174.96" width="3.22" height="5.52"/><rect class="cls-4" x="103.97" y="174.96" width="3.22" height="5.52"/><rect class="cls-4" x="83.56" y="174.96" width="3.22" height="5.52"/><rect class="cls-4" x="73.55" y="179.1" width="23.02" height="1.38"/><rect class="cls-4" x="81.09" y="174.96" width="3.22" height="5.52"/><rect class="cls-5" x="80.71" y="174.96" width="3.22" height="5.52"/><rect class="cls-5" x="69.62" y="174.96" width="3.22" height="5.52"/><rect class="cls-5" x="69.62" y="173.58" width="28.59" height="1.38"/><rect class="cls-4" x="98.21" y="173.58" width="24.82" height="1.38"/><rect class="cls-4" x="98.21" y="179.1" width="24.82" height="1.38"/><rect class="cls-5" x="94.99" y="174.96" width="3.22" height="5.52"/><rect class="cls-4" x="98.21" y="174.96" width="3.22" height="5.52"/><rect class="cls-4" x="120.35" y="174.96" width="2.67" height="5.52"/><rect class="cls-4" x="113.17" y="174.96" width="3.22" height="5.52"/><rect class="cls-6" x="69.62" y="105.35" width="16.12" height="68.22"/><rect class="cls-6" x="85.73" y="105.35" width="37.29" height="68.22"/><rect class="cls-7" x="69.62" y="102.78" width="28.55" height="68.22"/><rect class="cls-8" x="98.16" y="102.78" width="24.86" height="68.22"/><rect class="cls-9" x="73.55" y="105.42" width="18.35" height="34.88" transform="translate(165.44 245.71) rotate(180)"/><line class="cls-10" x1="90.27" y1="146.92" x2="75.09" y2="146.92"/><line class="cls-10" x1="93.08" y1="154.42" x2="72.28" y2="154.42"/><rect class="cls-11" x="71.23" y="163.42" width="4.85" height="4.85" transform="translate(147.31 331.68) rotate(180)"/><rect class="cls-4" x="9.12" y="84.72" width="3.22" height="5.52"/><rect class="cls-4" x="40.22" y="84.72" width="3.22" height="5.52"/><rect class="cls-4" x="19.82" y="84.72" width="3.22" height="5.52"/><rect class="cls-4" x="9.81" y="88.86" width="23.02" height="1.38"/><rect class="cls-4" x="17.35" y="84.72" width="3.22" height="5.52"/><rect class="cls-5" x="16.97" y="84.72" width="3.22" height="5.52"/><rect class="cls-5" x="5.88" y="84.72" width="3.22" height="5.52"/><rect class="cls-5" x="5.88" y="83.34" width="28.59" height="1.38"/><rect class="cls-4" x="34.47" y="83.34" width="24.82" height="1.38"/><rect class="cls-4" x="34.47" y="88.86" width="24.82" height="1.38"/><rect class="cls-5" x="31.25" y="84.72" width="3.22" height="5.52"/><rect class="cls-4" x="34.47" y="84.72" width="3.22" height="5.52"/><rect class="cls-4" x="56.61" y="84.72" width="3.47" height="5.52"/><rect class="cls-4" x="49.43" y="84.72" width="3.22" height="5.52"/><rect class="cls-6" x="5.88" y="21.14" width="16.12" height="62.19"/><rect class="cls-6" x="21.99" y="21.14" width="37.29" height="62.19"/><rect class="cls-7" x="5.88" y="18.8" width="28.55" height="62.19"/><rect class="cls-8" x="34.42" y="18.8" width="24.86" height="62.19"/><rect class="cls-9" x="10.06" y="38.55" width="19.53" height="10.25" transform="translate(39.64 87.36) rotate(180)"/><line class="cls-10" x1="28.16" y1="24.2" x2="12.99" y2="24.2"/><line class="cls-10" x1="30.97" y1="31.7" x2="10.17" y2="31.7"/><rect class="cls-11" x="7.49" y="73.17" width="4.85" height="4.85" transform="translate(19.83 151.2) rotate(180)"/><rect class="cls-11" x="26.4" y="73.17" width="4.85" height="4.85" transform="translate(57.64 151.2) rotate(180)"/><rect class="cls-4" x="41.71" y="84.72" width="3.22" height="5.52"/><rect class="cls-4" x="72.81" y="84.72" width="3.22" height="5.52"/><rect class="cls-4" x="52.41" y="84.72" width="3.22" height="5.52"/><rect class="cls-4" x="42.4" y="88.86" width="23.02" height="1.38"/><rect class="cls-4" x="49.94" y="84.72" width="3.22" height="5.52"/><rect class="cls-5" x="49.56" y="84.72" width="3.22" height="5.52"/><rect class="cls-5" x="38.47" y="84.72" width="3.22" height="5.52"/><rect class="cls-5" x="38.47" y="83.34" width="28.59" height="1.38"/><rect class="cls-4" x="67.06" y="83.34" width="24.82" height="1.38"/><rect class="cls-4" x="67.06" y="88.86" width="24.82" height="1.38"/><rect class="cls-5" x="63.84" y="84.72" width="3.22" height="5.52"/><rect class="cls-4" x="67.06" y="84.72" width="3.22" height="5.52"/><rect class="cls-4" x="89.2" y="84.72" width="2.67" height="5.52"/><rect class="cls-4" x="82.02" y="84.72" width="3.22" height="5.52"/><rect class="cls-6" x="38.47" y="12.54" width="16.12" height="70.8"/><rect class="cls-6" x="54.58" y="12.54" width="37.29" height="70.8"/><rect class="cls-7" x="38.47" y="9.87" width="28.55" height="70.8"/><rect class="cls-8" x="67.01" y="9.87" width="24.86" height="70.8"/><rect class="cls-9" x="41.84" y="13.86" width="22.39" height="9.88" transform="translate(106.06 37.59) rotate(180)"/><line class="cls-10" x1="64.38" y1="29.34" x2="54.19" y2="29.34"/><line class="cls-10" x1="64.59" y1="33.71" x2="43.79" y2="33.71"/><rect class="cls-11" x="43.81" y="73.17" width="17.9" height="4.85" transform="translate(105.52 151.2) rotate(180)"/><rect class="cls-4" x="73.52" y="84.72" width="3.22" height="5.52"/><rect class="cls-4" x="104.63" y="84.72" width="3.22" height="5.52"/><rect class="cls-4" x="84.23" y="84.72" width="3.22" height="5.52"/><rect class="cls-4" x="74.21" y="88.86" width="23.02" height="1.38"/><rect class="cls-4" x="81.76" y="84.72" width="3.22" height="5.52"/><rect class="cls-5" x="81.38" y="84.72" width="3.22" height="5.52"/><rect class="cls-5" x="70.28" y="84.72" width="3.22" height="5.52"/><rect class="cls-5" x="70.28" y="83.34" width="28.59" height="1.38"/><rect class="cls-4" x="98.87" y="83.34" width="24.82" height="1.38"/><rect class="cls-4" x="98.87" y="88.86" width="24.82" height="1.38"/><rect class="cls-5" x="95.65" y="84.72" width="3.22" height="5.52"/><rect class="cls-4" x="98.87" y="84.72" width="3.22" height="5.52"/><rect class="cls-4" x="121.02" y="84.72" width="2.67" height="5.52"/><rect class="cls-4" x="113.84" y="84.72" width="3.22" height="5.52"/><rect class="cls-6" x="70.28" y="15.11" width="16.12" height="68.22"/><rect class="cls-6" x="86.4" y="15.11" width="37.29" height="68.22"/><rect class="cls-7" x="70.28" y="12.54" width="28.55" height="68.22"/><rect class="cls-8" x="98.83" y="12.54" width="24.86" height="68.22"/><rect class="cls-9" x="74.21" y="15.17" width="18.35" height="34.88" transform="translate(166.77 65.23) rotate(180)"/><line class="cls-10" x1="90.93" y1="56.67" x2="75.76" y2="56.67"/><line class="cls-10" x1="93.75" y1="64.17" x2="72.94" y2="64.17"/><rect class="cls-11" x="71.89" y="73.17" width="4.85" height="4.85" transform="translate(148.64 151.2) rotate(180)"/><rect class="cls-1" x="125.23" width="3.68" height="180.48"/><rect class="cls-2" x="127.53" width="3.68" height="180.48"/><rect class="cls-5" x="88.09" y="39.62" width="3.22" height="5.52"/><polygon class="cls-1" points="93.92 84.26 127.53 49.73 125.23 49.73 91.62 84.26 93.92 84.26"/><polygon class="cls-2" points="91.62 83.74 93.92 84.26 127.53 49.73 127.53 55.71 93.92 90.24 91.62 90.24 91.62 87.48 91.62 83.74"/><polygon class="cls-1" points="125.23 42.36 125.23 39.13 91.62 4.6 91.62 10.59 125.23 45.12 127.53 45.12 127.53 42.36 125.23 42.36"/><polygon class="cls-2" points="127.53 45.12 93.92 10.59 93.92 4.6 127.53 39.13 127.53 45.12"/><polygon class="cls-1" points="93.92 174.5 127.53 139.97 125.23 139.97 91.62 174.5 93.92 174.5"/><polygon class="cls-2" points="91.62 173.98 93.92 174.5 127.53 139.97 127.53 145.95 93.92 180.48 91.62 180.48 91.62 177.72 91.62 173.98"/><polygon class="cls-1" points="125.23 132.6 125.23 129.38 91.62 94.85 91.62 100.83 125.23 135.36 127.53 135.36 127.53 132.6 125.23 132.6"/><rect class="cls-12" x="125.25" y="87.28" width="2.28" height="8.23" transform="translate(252.79 182.79) rotate(180)"/><polygon class="cls-2" points="127.53 135.36 93.92 100.83 93.92 94.85 127.53 129.38 127.53 135.36"/><rect class="cls-1" x="87.94" width="3.68" height="180.48"/><rect class="cls-2" x="90.24" width="3.68" height="180.48"/><rect class="cls-3" x="2.3" y="90.24" width="128.92" height="5.27"/><rect class="cls-12" x="125.23" y="172.25" width="2.37" height="8.23" transform="translate(252.83 352.73) rotate(180)"/><rect class="cls-3" x="90.27" y="175.21" width="40.95" height="5.27"/><rect class="cls-3" x="127.6" y="172.25" width="3.55" height="8.23" transform="translate(258.75 352.73) rotate(180)"/><rect class="cls-3" x="90.31" y="172.25" width="3.55" height="8.23" transform="translate(184.17 352.73) rotate(180)"/><rect class="cls-12" x="87.94" y="172.25" width="2.37" height="8.23" transform="translate(178.25 352.73) rotate(180)"/><rect class="cls-12" y="172.67" width="2.3" height="7.81" transform="translate(2.3 353.15) rotate(180)"/><rect class="cls-3" x="2.32" y="87.28" width="3.55" height="8.23" transform="translate(8.2 182.79) rotate(180)"/><rect class="cls-12" y="87.28" width="2.32" height="8.23" transform="translate(2.32 182.79) rotate(180)"/><rect class="cls-13" x="5.88" y="90.24" width="84.36" height="5.27" transform="translate(96.11 185.75) rotate(180)"/><rect class="cls-3" x="2.3" y="172.67" width="2.91" height="7.81" transform="translate(7.51 353.15) rotate(180)"/><rect class="cls-3" x="90.24" y="87.28" width="3.31" height="8.23" transform="translate(183.79 182.79) rotate(180)"/><rect class="cls-3" x="127.53" y="87.28" width="3.68" height="8.23" transform="translate(258.75 182.79) rotate(180)"/><rect class="cls-12" x="87.94" y="87.28" width="2.29" height="8.23" transform="translate(178.17 182.79) rotate(180)"/></g></g></svg>