<svg xmlns="http://www.w3.org/2000/svg" viewBox="0 0 34.67 39.71"><defs><style>.cls-1{fill:#f4d242;}.cls-2{fill:#59595b;}.cls-3{fill:#808183;}.cls-4{fill:#fff;}</style></defs><title>idea</title><g id="Layer_2" data-name="Layer 2"><g id="Layer_1-2" data-name="Layer 1"><path class="cls-1" d="M28.82,18.53a11.4,11.4,0,1,0-19.47,8,12.84,12.84,0,0,1,3.35,5.75l.92,3.4h7.47L22,32.51a12.94,12.94,0,0,1,3.46-5.85A11.38,11.38,0,0,0,28.82,18.53Z"/><path class="cls-2" d="M19.15,39.71H15.51a1.93,1.93,0,0,1-2-1.73l-.31-3.73,8.26-.06L21.12,38A1.93,1.93,0,0,1,19.15,39.71Z"/><path class="cls-3" d="M20.73,35.82c-2.3.1-4.61,0-6.92.08a.16.16,0,0,0,0,.32c2.31.07,4.62-.07,6.93,0C21,36.23,21,35.81,20.73,35.82Z"/><path class="cls-3" d="M20.73,36.82c-2.3.1-4.61,0-6.92.08a.16.16,0,0,0,0,.32c2.31.08,4.62-.07,6.93,0C21,37.23,21,36.81,20.73,36.82Z"/><path class="cls-1" d="M18.35,1.33c0,.73-.39,3.38-.87,3.38s-.87-2.65-.87-3.38S17,0,17.48,0,18.35.6,18.35,1.33Z"/><path class="cls-1" d="M29.22,5.39c-.55.48-2.3,2.49-2,2.86s2.57-1.06,3.13-1.54.76-1.16.44-1.53S29.78,4.91,29.22,5.39Z"/><path class="cls-1" d="M33.46,17.17c-.73.09-3.4,0-3.46-.44s2.51-1.2,3.24-1.29,1.37.22,1.43.7S34.19,17.08,33.46,17.17Z"/><path class="cls-1" d="M6.73,4.51C7.31,5,9.15,6.9,8.85,7.28s-2.61-.94-3.19-1.4-.81-1.12-.51-1.5S6.16,4.06,6.73,4.51Z"/><path class="cls-1" d="M1.21,15.28c.73.1,3.4,0,3.46-.44s-2.51-1.19-3.24-1.29-1.36.22-1.43.7S.49,15.19,1.21,15.28Z"/><path class="cls-4" d="M22.34,24.33a3,3,0,0,1-.85-1,3.67,3.67,0,0,0,.67-1.84,11.46,11.46,0,0,0,.06-1.17,1,1,0,0,0-.36-.94c-.29-.21-.67,0-.89.19a2.14,2.14,0,0,0-.47.94,4.23,4.23,0,0,0-.07,2,3.93,3.93,0,0,0,.19.67,1.83,1.83,0,0,1-.55.3,1.15,1.15,0,0,1-1.38-.69c-.05-.09-.09-.18-.14-.28s.1-.26.14-.39a8.1,8.1,0,0,0,.38-2,1.51,1.51,0,0,0-.46-1.53.36.36,0,0,0-.47.13,4.06,4.06,0,0,0-.31,3.7,8.24,8.24,0,0,1-.47.94c-.19.33-.56.85-1,.78s-.75-.58-1-.91a3.45,3.45,0,0,1-.36-.75c.05-.14.1-.28.14-.42a8,8,0,0,0,.33-1.74c0-.49.05-1.17-.48-1.41-.16-.06-.39-.06-.47.13a4.87,4.87,0,0,0-.26,3.3l0,.11a7.41,7.41,0,0,1-1.42,2.24c-.27.29.16.72.44.43a7.42,7.42,0,0,0,1.32-1.83,5.14,5.14,0,0,0,.35.55,1.93,1.93,0,0,0,1.42,1A1.78,1.78,0,0,0,17.81,24a4.83,4.83,0,0,0,.4-.66,1.8,1.8,0,0,0,1.27.9,2.13,2.13,0,0,0,1.45-.37,4.42,4.42,0,0,0,.95,1.12A.38.38,0,1,0,22.34,24.33Zm-3.92-4.75a4.07,4.07,0,0,1-.06.77,5.64,5.64,0,0,1-.15.9A3.11,3.11,0,0,1,18.42,19.58Zm2.66,1.71a3.44,3.44,0,0,1,.19-.83,1.54,1.54,0,0,1,.17-.34s0,0,0-.07,0,.05,0,.09a5.87,5.87,0,0,1-.23,2.09,1.33,1.33,0,0,1-.1.24A3.9,3.9,0,0,1,21.08,21.29Z"/><path class="cls-4" d="M23,22.65c-1.21,3.7-2.49,7.39-3.86,11-.16.44.51.7.67.27,1.37-3.65,2.64-7.34,3.78-11.06C23.69,22.5,23.12,22.27,23,22.65Z"/><path class="cls-4" d="M12,22.42c1,3.77,1.87,7.56,2.67,11.37.1.46.81.32.71-.13-.81-3.82-1.72-7.6-2.76-11.36C12.48,21.92,11.87,22,12,22.42Z"/></g></g></svg>