<svg xmlns="http://www.w3.org/2000/svg" viewBox="0 0 22.44 22.44"><defs><style>.cls-1{fill:#f2f2f2;}</style></defs><title>Asset 36</title><g id="Layer_2" data-name="Layer 2"><g id="Layer_1-2" data-name="Layer 1"><path class="cls-1" d="M15,4.53H7.48a3,3,0,0,0-2.95,3V15a3,3,0,0,0,3,2.95H15A3,3,0,0,0,17.91,15V7.48A3,3,0,0,0,15,4.53ZM11.22,14.91a3.69,3.69,0,1,1,3.69-3.69A3.7,3.7,0,0,1,11.22,14.91ZM15.45,8A1,1,0,1,1,16.5,7,1,1,0,0,1,15.45,8Z"/><path class="cls-1" d="M19.82,0H2.62A2.62,2.62,0,0,0,0,2.62v17.2a2.62,2.62,0,0,0,2.62,2.62h17.2a2.62,2.62,0,0,0,2.62-2.62V2.62A2.62,2.62,0,0,0,19.82,0Zm.29,15.29a4.84,4.84,0,0,1-4.82,4.82H7.15a4.84,4.84,0,0,1-4.82-4.82V7.15A4.84,4.84,0,0,1,7.15,2.33h8.14a4.84,4.84,0,0,1,4.82,4.82Z"/></g></g></svg>