<svg xmlns="http://www.w3.org/2000/svg" viewBox="0 0 22.44 22.44"><defs><style>.cls-1{fill:#f2f2f2;}</style></defs><title>Asset 37</title><g id="Layer_2" data-name="Layer 2"><g id="Layer_1-2" data-name="Layer 1"><g id="post-linkedin"><path class="cls-1" d="M20.2,0h-18A2.25,2.25,0,0,0,0,2.24v18a2.25,2.25,0,0,0,2.24,2.24h18a2.25,2.25,0,0,0,2.24-2.24v-18A2.25,2.25,0,0,0,20.2,0ZM6.73,19.07H3.37V9H6.73Zm-1.68-12a2,2,0,1,1,2-2A2,2,0,0,1,5.05,7.07Zm14,12H15.71V13.13a1.69,1.69,0,1,0-3.37,0v5.94H9V9h3.36v1.34a3.62,3.62,0,0,1,2.81-1.57,4,4,0,0,1,3.92,3.93Z"/></g></g></g></svg>