<svg xmlns="http://www.w3.org/2000/svg" xmlns:xlink="http://www.w3.org/1999/xlink" viewBox="0 0 588.55 578.59"><defs><style>.cls-1{isolation:isolate;}.cls-2,.cls-9,.cls-95,.cls-96,.cls-97{fill:none;}.cls-2{stroke:#000;stroke-width:2.19px;}.cls-2,.cls-9,.cls-95,.cls-96{stroke-miterlimit:10;}.cls-3{fill:url(#linear-gradient);}.cls-4{fill:#7d97f4;}.cls-5,.cls-8{fill:#fff;}.cls-5{mix-blend-mode:soft-light;}.cls-6{fill:#bdd0fb;}.cls-7{fill:#91b3fa;}.cls-9,.cls-95,.cls-96,.cls-97{stroke:#fff;}.cls-9,.cls-95{stroke-width:0.73px;}.cls-10{fill:url(#linear-gradient-2);}.cls-11{fill:#b64c41;}.cls-12{fill:url(#linear-gradient-3);}.cls-13{fill:url(#linear-gradient-4);}.cls-14{fill:url(#linear-gradient-5);}.cls-15{fill:url(#linear-gradient-6);}.cls-16{fill:url(#linear-gradient-7);}.cls-17{fill:url(#linear-gradient-8);}.cls-18{fill:url(#linear-gradient-9);}.cls-19{fill:url(#linear-gradient-10);}.cls-20{fill:url(#linear-gradient-11);}.cls-21{fill:url(#linear-gradient-12);}.cls-22{fill:url(#dark_);}.cls-23{fill:url(#linear-gradient-13);}.cls-24{fill:url(#linear-gradient-14);}.cls-25{fill:url(#linear-gradient-15);}.cls-26{fill:url(#linear-gradient-16);}.cls-27{fill:url(#linear-gradient-17);}.cls-28{fill:url(#linear-gradient-18);}.cls-29{fill:url(#linear-gradient-19);}.cls-30{fill:url(#linear-gradient-20);}.cls-31{fill:url(#linear-gradient-21);}.cls-32{fill:url(#linear-gradient-22);}.cls-33{fill:url(#linear-gradient-23);}.cls-34{fill:url(#linear-gradient-24);}.cls-35{fill:url(#linear-gradient-25);}.cls-36{fill:url(#linear-gradient-26);}.cls-37{fill:url(#linear-gradient-27);}.cls-38{fill:url(#linear-gradient-28);}.cls-39{fill:url(#linear-gradient-29);}.cls-40{fill:url(#linear-gradient-30);}.cls-41{fill:url(#linear-gradient-31);}.cls-42{fill:url(#linear-gradient-32);}.cls-43{fill:url(#linear-gradient-33);}.cls-44{fill:url(#linear-gradient-34);}.cls-45{fill:url(#linear-gradient-35);}.cls-46{fill:url(#linear-gradient-36);}.cls-47{fill:url(#linear-gradient-37);}.cls-48{fill:url(#linear-gradient-38);}.cls-49{fill:url(#linear-gradient-39);}.cls-50{fill:url(#linear-gradient-40);}.cls-51{fill:url(#linear-gradient-41);}.cls-52{fill:url(#linear-gradient-42);}.cls-53{fill:url(#linear-gradient-43);}.cls-54{fill:url(#linear-gradient-44);}.cls-55{fill:url(#linear-gradient-45);}.cls-56{fill:url(#linear-gradient-46);}.cls-57{fill:url(#linear-gradient-47);}.cls-58{fill:url(#linear-gradient-48);}.cls-59{fill:url(#linear-gradient-49);}.cls-60{fill:url(#linear-gradient-50);}.cls-61{fill:url(#linear-gradient-51);}.cls-62{fill:url(#linear-gradient-52);}.cls-63{fill:url(#linear-gradient-53);}.cls-64{fill:url(#linear-gradient-54);}.cls-65{fill:url(#linear-gradient-55);}.cls-66{fill:url(#linear-gradient-56);}.cls-67{fill:url(#linear-gradient-57);}.cls-68{fill:url(#linear-gradient-58);}.cls-69{fill:url(#linear-gradient-59);}.cls-70{fill:url(#linear-gradient-60);}.cls-71{fill:url(#linear-gradient-61);}.cls-72{fill:url(#linear-gradient-62);}.cls-73{fill:url(#linear-gradient-63);}.cls-74{fill:url(#_13);}.cls-75{fill:url(#linear-gradient-64);}.cls-76{fill:url(#linear-gradient-65);}.cls-77{fill:url(#linear-gradient-66);}.cls-78{fill:url(#linear-gradient-67);}.cls-79{fill:url(#linear-gradient-68);}.cls-80{fill:url(#linear-gradient-69);}.cls-81{fill:url(#linear-gradient-70);}.cls-82{fill:url(#linear-gradient-71);}.cls-83{fill:url(#dark_2);}.cls-84{fill:url(#dark_3);}.cls-85{fill:url(#dark_4);}.cls-86{fill:url(#dark_5);}.cls-87{fill:url(#dark_6);}.cls-88{fill:url(#dark_7);}.cls-89{fill:url(#dark_8);}.cls-90{fill:url(#linear-gradient-72);}.cls-91{fill:url(#linear-gradient-73);}.cls-92{fill:url(#linear-gradient-74);}.cls-93{fill:url(#linear-gradient-75);}.cls-94{fill:url(#linear-gradient-76);}.cls-101,.cls-102,.cls-105,.cls-106,.cls-110,.cls-111,.cls-112,.cls-113,.cls-95{fill-rule:evenodd;}.cls-96,.cls-97{stroke-width:0.55px;}.cls-97{stroke-linecap:round;stroke-linejoin:round;}.cls-98{fill:#d34340;}.cls-99{fill:#c64a4a;}.cls-100,.cls-110{fill:#dedede;}.cls-101{fill:#e9605a;}.cls-102,.cls-114{fill:#154d57;mix-blend-mode:multiply;}.cls-102,.cls-106,.cls-114{opacity:0.3;}.cls-103,.cls-113{fill:#cc3e3e;}.cls-104{fill:#441818;}.cls-105,.cls-109{fill:#f4f4f4;}.cls-107{fill:#bcbcbc;}.cls-108,.cls-112{fill:#cfcfcf;}.cls-111{opacity:0.15;}.cls-115{fill:#847c58;}.cls-116{fill:#a49360;}.cls-117{fill:#c6b579;}.cls-118{fill:#b0b0b0;}.cls-119{fill:url(#linear-gradient-77);}.cls-120{fill:url(#linear-gradient-78);}.cls-121{fill:url(#linear-gradient-79);}.cls-122{fill:url(#linear-gradient-80);}.cls-123{fill:url(#linear-gradient-81);}.cls-124{fill:url(#linear-gradient-82);}.cls-125{fill:url(#linear-gradient-83);}.cls-126{fill:url(#linear-gradient-84);}.cls-127{fill:url(#linear-gradient-85);}.cls-128{fill:url(#linear-gradient-86);}.cls-129{fill:url(#linear-gradient-87);}.cls-130{fill:url(#linear-gradient-88);}.cls-131{fill:url(#linear-gradient-89);}.cls-132{fill:#f3fafd;}.cls-133{fill:url(#linear-gradient-90);}.cls-134{fill:url(#linear-gradient-91);}.cls-135{fill:url(#linear-gradient-92);}.cls-136{fill:url(#linear-gradient-93);}.cls-137{fill:#233862;}.cls-138{fill:url(#linear-gradient-94);}.cls-139{fill:#ffc74a;}.cls-140{fill:#f9b723;}</style><linearGradient id="linear-gradient" x1="615.62" y1="632.68" x2="204.06" y2="188.46" gradientUnits="userSpaceOnUse"><stop offset="0" stop-color="#dae3fe"/><stop offset="1" stop-color="#e9effd"/></linearGradient><linearGradient id="linear-gradient-2" x1="4630.01" y1="330.23" x2="4568.92" y2="405.34" gradientTransform="matrix(-0.99, -0.12, -0.12, 0.99, 5072.7, 515.64)" gradientUnits="userSpaceOnUse"><stop offset="0" stop-color="#febbba"/><stop offset="1" stop-color="#ff928e"/></linearGradient><linearGradient id="linear-gradient-3" x1="505.92" y1="391.17" x2="505.92" y2="310.8" gradientUnits="userSpaceOnUse"><stop offset="0" stop-color="#fcc73c"/><stop offset="1" stop-color="#fc7a3c"/></linearGradient><linearGradient id="linear-gradient-4" x1="-7836.64" y1="1409.94" x2="-7833.38" y2="1386.76" gradientTransform="translate(8419.43 1158.48) rotate(16.22)" xlink:href="#linear-gradient-2"/><linearGradient id="linear-gradient-5" x1="-7851.6" y1="1360.28" x2="-7821.08" y2="1395.37" gradientTransform="translate(8419.43 1158.48) rotate(16.22)" xlink:href="#linear-gradient-2"/><linearGradient id="linear-gradient-6" x1="-7843.98" y1="1353.65" x2="-7813.46" y2="1388.74" gradientTransform="translate(8419.43 1158.48) rotate(16.22)" xlink:href="#linear-gradient-2"/><linearGradient id="linear-gradient-7" x1="4419.2" y1="587.86" x2="4492.02" y2="459.33" gradientTransform="matrix(-1, -0.01, -0.01, 1, 4979.46, 42.63)" xlink:href="#linear-gradient-2"/><linearGradient id="linear-gradient-8" x1="517.82" y1="542.79" x2="539.21" y2="542.79" gradientUnits="userSpaceOnUse"><stop offset="0" stop-color="#29225e"/><stop offset="1" stop-color="#3f368c"/></linearGradient><linearGradient id="linear-gradient-9" x1="539.54" y1="519.11" x2="608.08" y2="551.69" gradientTransform="matrix(1, 0, 0, 1, 0, 0)" xlink:href="#linear-gradient-2"/><linearGradient id="linear-gradient-10" x1="493.98" y1="546.53" x2="519.55" y2="546.53" xlink:href="#linear-gradient-8"/><linearGradient id="linear-gradient-11" x1="478.64" y1="419.52" x2="537.79" y2="419.52" xlink:href="#linear-gradient-8"/><linearGradient id="linear-gradient-12" x1="4505.34" y1="438.74" x2="4626.13" y2="300.58" xlink:href="#linear-gradient-2"/><linearGradient id="dark_" x1="-83.81" y1="760.73" x2="41.17" y2="-63.31" gradientTransform="matrix(-1, 0, 0, 1, 165.64, 0)" gradientUnits="userSpaceOnUse"><stop offset="0" stop-color="#4f52ff"/><stop offset="1" stop-color="#4042e2"/></linearGradient><linearGradient id="linear-gradient-13" x1="-13.06" y1="771.46" x2="111.91" y2="-52.58" xlink:href="#dark_"/><linearGradient id="linear-gradient-14" x1="-11.58" y1="772.17" x2="113.49" y2="-52.47" xlink:href="#dark_"/><linearGradient id="linear-gradient-15" x1="-13.52" y1="771.89" x2="111.55" y2="-52.76" xlink:href="#dark_"/><linearGradient id="linear-gradient-16" x1="9.9" y1="774.95" x2="134.87" y2="-49.1" gradientTransform="matrix(1, 0, 0, -1, -63.11, 172.06)" xlink:href="#dark_"/><linearGradient id="linear-gradient-17" x1="-20.79" y1="770.29" x2="104.19" y2="-53.75" gradientTransform="matrix(1, 0, 0, -1, 65.11, 603.6)" xlink:href="#dark_"/><linearGradient id="linear-gradient-18" x1="-12.73" y1="771.52" x2="112.25" y2="-52.53" gradientTransform="matrix(1, 0, 0, -1, 65.06, 711.95)" xlink:href="#dark_"/><linearGradient id="linear-gradient-19" x1="-16.83" y1="770.89" x2="108.15" y2="-53.15" gradientTransform="matrix(1, 0, 0, -1, 65.06, 656.66)" xlink:href="#dark_"/><linearGradient id="linear-gradient-20" x1="-8.69" y1="772.13" x2="116.28" y2="-51.92" gradientTransform="matrix(1, 0, 0, -1, 65.06, 766.35)" xlink:href="#dark_"/><linearGradient id="linear-gradient-21" x1="-4.66" y1="772.74" x2="120.31" y2="-51.31" gradientTransform="matrix(1, 0, 0, -1, 65.06, 820.75)" xlink:href="#dark_"/><linearGradient id="linear-gradient-22" x1="-0.75" y1="773.33" x2="124.22" y2="-50.71" gradientTransform="matrix(1, 0, 0, -1, 65.06, 873.47)" xlink:href="#dark_"/><linearGradient id="linear-gradient-23" x1="3.28" y1="773.94" x2="128.25" y2="-50.1" gradientTransform="matrix(1, 0, 0, -1, 65.06, 927.87)" xlink:href="#dark_"/><linearGradient id="linear-gradient-24" x1="-18.29" y1="770.67" x2="106.68" y2="-53.37" gradientTransform="matrix(0.56, 0.83, 0.83, -0.56, -174.33, 448.93)" xlink:href="#dark_"/><linearGradient id="linear-gradient-25" x1="-9.76" y1="771.97" x2="115.22" y2="-52.08" gradientTransform="matrix(0.56, 0.83, 0.83, -0.56, -220.3, 533.89)" xlink:href="#dark_"/><linearGradient id="linear-gradient-26" x1="-2.08" y1="773.13" x2="122.89" y2="-50.91" gradientTransform="matrix(0.56, 0.83, 0.83, -0.56, -264.89, 619.58)" xlink:href="#dark_"/><linearGradient id="linear-gradient-27" x1="1.29" y1="773.64" x2="126.27" y2="-50.4" gradientTransform="matrix(-0.64, 0.77, 0.77, 0.64, -199.02, 123.9)" xlink:href="#dark_"/><linearGradient id="linear-gradient-28" x1="-6.37" y1="772.48" x2="118.6" y2="-51.57" gradientTransform="matrix(-0.64, 0.77, 0.77, 0.64, -156.55, 103.44)" xlink:href="#dark_"/><linearGradient id="linear-gradient-29" x1="-14.44" y1="771.25" x2="110.54" y2="-52.79" gradientTransform="matrix(-0.64, 0.77, 0.77, 0.64, -114.72, 83.81)" xlink:href="#dark_"/><linearGradient id="linear-gradient-30" x1="5.75" y1="774.32" x2="130.73" y2="-49.73" gradientTransform="matrix(0.56, 0.83, 0.83, -0.56, -308.65, 702.03)" xlink:href="#dark_"/><linearGradient id="linear-gradient-31" x1="-23.78" y1="769.84" x2="101.19" y2="-54.2" gradientTransform="matrix(1, 0, 0, -1, 99.06, 787.05)" xlink:href="#dark_"/><linearGradient id="linear-gradient-32" x1="11.47" y1="775.18" x2="136.44" y2="-48.86" gradientTransform="matrix(1, 0, 0, -1, 27, 787.4)" xlink:href="#dark_"/><linearGradient id="linear-gradient-33" x1="-54.54" y1="765.17" x2="70.43" y2="-58.87" gradientTransform="matrix(1, 0, 0, -1, 65.71, 152.16)" xlink:href="#dark_"/><linearGradient id="linear-gradient-34" x1="-50.45" y1="765.79" x2="74.52" y2="-58.25" gradientTransform="matrix(1, 0, 0, -1, 65.71, 207.32)" xlink:href="#dark_"/><linearGradient id="linear-gradient-35" x1="-46.42" y1="766.4" x2="78.55" y2="-57.64" gradientTransform="matrix(1, 0, 0, -1, 65.71, 261.72)" xlink:href="#dark_"/><linearGradient id="linear-gradient-36" x1="-42.51" y1="767" x2="82.46" y2="-57.05" gradientTransform="matrix(1, 0, 0, -1, 65.71, 314.44)" xlink:href="#dark_"/><linearGradient id="linear-gradient-37" x1="-38.48" y1="767.61" x2="86.49" y2="-56.44" gradientTransform="matrix(1, 0, 0, -1, 65.71, 368.84)" xlink:href="#dark_"/><linearGradient id="linear-gradient-38" x1="-51.51" y1="765.63" x2="73.46" y2="-58.41" gradientTransform="matrix(0.56, 0.83, 0.83, -0.56, 11.69, 97.97)" xlink:href="#dark_"/><linearGradient id="linear-gradient-39" x1="-43.84" y1="766.8" x2="81.14" y2="-57.25" gradientTransform="matrix(0.56, 0.83, 0.83, -0.56, -32.9, 183.66)" xlink:href="#dark_"/><linearGradient id="linear-gradient-40" x1="-40.46" y1="767.31" x2="84.51" y2="-56.74" gradientTransform="matrix(-0.64, 0.77, 0.77, 0.64, 16.07, 23.29)" xlink:href="#dark_"/><linearGradient id="linear-gradient-41" x1="-48.13" y1="766.15" x2="76.84" y2="-57.9" gradientTransform="matrix(-0.64, 0.77, 0.77, 0.64, 58.53, 2.83)" xlink:href="#dark_"/><linearGradient id="linear-gradient-42" x1="-36" y1="767.98" x2="88.97" y2="-56.06" gradientTransform="matrix(0.56, 0.83, 0.83, -0.56, -76.66, 266.11)" xlink:href="#dark_"/><linearGradient id="linear-gradient-43" x1="-61.51" y1="764.12" x2="63.46" y2="-59.93" gradientTransform="matrix(1, 0, 0, -1, 99.72, 282.32)" xlink:href="#dark_"/><linearGradient id="linear-gradient-44" x1="-26.27" y1="769.46" x2="98.7" y2="-54.58" gradientTransform="matrix(1, 0, 0, -1, 27.65, 282.56)" xlink:href="#dark_"/><linearGradient id="linear-gradient-45" x1="-220.04" y1="740.07" x2="-95.07" y2="-83.97" xlink:href="#dark_"/><linearGradient id="linear-gradient-46" x1="-209.81" y1="741.63" x2="-84.83" y2="-82.42" xlink:href="#dark_"/><linearGradient id="linear-gradient-47" x1="-166.14" y1="748.25" x2="-41.17" y2="-75.8" xlink:href="#dark_"/><linearGradient id="linear-gradient-48" x1="-122.4" y1="754.88" x2="2.58" y2="-69.16" xlink:href="#dark_"/><linearGradient id="linear-gradient-49" x1="-101.14" y1="758.11" x2="23.83" y2="-65.94" xlink:href="#dark_"/><linearGradient id="linear-gradient-50" x1="-145.22" y1="751.42" x2="-20.25" y2="-72.62" xlink:href="#dark_"/><linearGradient id="linear-gradient-51" x1="-188.51" y1="744.86" x2="-63.54" y2="-79.19" xlink:href="#dark_"/><linearGradient id="linear-gradient-52" x1="-80.16" y1="761.29" x2="44.81" y2="-62.76" xlink:href="#dark_"/><linearGradient id="linear-gradient-53" x1="-145.13" y1="751.43" x2="-20.16" y2="-72.61" xlink:href="#dark_"/><linearGradient id="linear-gradient-54" x1="-147.91" y1="751.01" x2="-22.94" y2="-73.03" xlink:href="#dark_"/><linearGradient id="linear-gradient-55" x1="-34.66" y1="768.19" x2="90.31" y2="-55.86" gradientTransform="matrix(1, 0, 0, -1, 65.06, 416.02)" xlink:href="#dark_"/><linearGradient id="linear-gradient-56" x1="-31.19" y1="768.71" x2="93.78" y2="-55.33" gradientTransform="matrix(1, 0, 0, -1, 67.36, 478)" xlink:href="#dark_"/><linearGradient id="linear-gradient-57" x1="-26.74" y1="769.39" x2="98.23" y2="-54.66" gradientTransform="matrix(1, 0, 0, -1, 67.36, 538.06)" xlink:href="#dark_"/><linearGradient id="linear-gradient-58" x1="-22.15" y1="770.09" x2="102.82" y2="-53.96" gradientTransform="matrix(1, 0, 0, -1, 67.36, 600.04)" xlink:href="#dark_"/><linearGradient id="linear-gradient-59" x1="-28.25" y1="769.16" x2="96.72" y2="-54.89" gradientTransform="matrix(0.56, 0.83, 0.83, -0.56, -122.87, 356)" xlink:href="#dark_"/><linearGradient id="linear-gradient-60" x1="-24.41" y1="769.74" x2="100.56" y2="-54.3" xlink:href="#dark_"/><linearGradient id="linear-gradient-61" x1="-31.12" y1="768.73" x2="93.86" y2="-55.32" gradientTransform="matrix(-0.64, 0.77, 0.77, 0.64, -24.57, 40.79)" xlink:href="#dark_"/><linearGradient id="linear-gradient-62" x1="-47.91" y1="766.18" x2="77.06" y2="-57.87" gradientTransform="matrix(1, 0, 0, -1, 106.11, 507.94)" xlink:href="#dark_"/><linearGradient id="linear-gradient-63" x1="-7.77" y1="772.27" x2="117.2" y2="-51.78" gradientTransform="matrix(1, 0, 0, -1, 24, 508.12)" xlink:href="#dark_"/><linearGradient id="_13" x1="2672.4" y1="438.64" x2="2670.15" y2="493.57" gradientTransform="matrix(1, 0, 0, -1, -2556.23, 975.02)" gradientUnits="userSpaceOnUse"><stop offset="0" stop-color="#fdf53f"/><stop offset="0.45" stop-color="#eda150"/><stop offset="0.82" stop-color="#e05e5e"/><stop offset="1" stop-color="#d93c65"/></linearGradient><linearGradient id="linear-gradient-64" x1="8.91" y1="774.8" x2="133.89" y2="-49.25" gradientTransform="matrix(1, 0, 0, -1, 62.09, 984.29)" xlink:href="#dark_"/><linearGradient id="linear-gradient-65" x1="10.46" y1="775.03" x2="135.43" y2="-49.01" gradientTransform="matrix(1, 0, 0, -1, 61.79, 1003.15)" xlink:href="#dark_"/><linearGradient id="linear-gradient-66" x1="2616.54" y1="516.24" x2="2657.13" y2="516.24" gradientTransform="matrix(-0.92, -0.38, -0.38, 0.92, 2781.41, 1048.37)" gradientUnits="userSpaceOnUse"><stop offset="0" stop-color="#09005d"/><stop offset="1" stop-color="#1a0f91"/></linearGradient><linearGradient id="linear-gradient-67" x1="2636.83" y1="490.44" x2="2636.83" y2="560.13" gradientTransform="matrix(-0.8, -0.6, -0.6, 0.8, 2563.72, 1691.99)" gradientUnits="userSpaceOnUse"><stop offset="0" stop-color="#5ab6ff"/><stop offset="1" stop-color="#2f68e3"/></linearGradient><linearGradient id="linear-gradient-68" x1="2644.13" y1="504.04" x2="2623.5" y2="537.84" gradientTransform="matrix(-1, 0, 0, 1, 2784.57, 0)" xlink:href="#linear-gradient-66"/><linearGradient id="linear-gradient-69" x1="2684.56" y1="516.51" x2="2725.15" y2="516.51" gradientTransform="matrix(-0.93, -0.37, -0.37, 0.93, 2785.19, 1029.73)" xlink:href="#linear-gradient-66"/><linearGradient id="linear-gradient-70" x1="2704.85" y1="490.7" x2="2704.85" y2="560.4" gradientTransform="matrix(-0.71, -0.71, -0.71, 0.71, 2357.56, 2063.9)" xlink:href="#linear-gradient-67"/><linearGradient id="linear-gradient-71" x1="2712.14" y1="504.3" x2="2691.52" y2="538.1" gradientTransform="matrix(-1, 0, 0, 1, 2784.57, 0)" xlink:href="#linear-gradient-66"/><linearGradient id="dark_2" x1="-58.36" y1="764.59" x2="66.61" y2="-59.45" gradientTransform="matrix(0.56, 0.83, 0.83, -0.56, 37.41, 61.66)" xlink:href="#dark_"/><linearGradient id="dark_3" x1="-60.09" y1="764.33" x2="64.89" y2="-59.71" gradientTransform="matrix(0.56, 0.83, 0.83, -0.56, 51.29, 31.38)" xlink:href="#dark_"/><linearGradient id="dark_4" x1="-60.82" y1="764.22" x2="64.16" y2="-59.82" gradientTransform="matrix(0.56, 0.83, 0.83, -0.56, 59.9, 10.76)" xlink:href="#dark_"/><linearGradient id="dark_5" x1="-52.86" y1="765.43" x2="72.12" y2="-58.62" gradientTransform="matrix(-0.64, 0.77, 0.77, 0.64, 98.48, -18.75)" xlink:href="#dark_"/><linearGradient id="dark_6" x1="-54.8" y1="765.13" x2="70.17" y2="-58.91" gradientTransform="matrix(-0.71, 0.71, 0.71, 0.71, 116.7, -24.58)" xlink:href="#dark_"/><linearGradient id="dark_7" x1="-59.91" y1="764.36" x2="65.06" y2="-59.69" gradientTransform="matrix(-0.71, 0.71, 0.71, 0.71, 131.45, -28.87)" xlink:href="#dark_"/><linearGradient id="dark_8" x1="-53.73" y1="765.29" x2="71.24" y2="-58.75" xlink:href="#dark_"/><linearGradient id="linear-gradient-72" x1="-2911.43" y1="127.97" x2="-2909.79" y2="127.97" gradientTransform="translate(3123.8)" xlink:href="#dark_"/><linearGradient id="linear-gradient-73" x1="-2901.88" y1="127.68" x2="-2900.06" y2="127.68" gradientTransform="translate(361.92 3028.13) rotate(89.77)" xlink:href="#dark_"/><linearGradient id="linear-gradient-74" x1="-2890.64" y1="146.97" x2="-2915.21" y2="216.86" gradientTransform="translate(3123.8)" xlink:href="#dark_"/><linearGradient id="linear-gradient-75" x1="211.99" y1="152.21" x2="223.71" y2="152.21" gradientTransform="translate(275.11 -107.31) rotate(67.5)" xlink:href="#dark_"/><linearGradient id="linear-gradient-76" x1="211.83" y1="98.14" x2="224.47" y2="98.14" gradientTransform="translate(133.29 -125.51) rotate(45)" xlink:href="#dark_"/><linearGradient id="linear-gradient-77" x1="331.58" y1="550.88" x2="368.91" y2="550.88" xlink:href="#linear-gradient-8"/><linearGradient id="linear-gradient-78" x1="5907.65" y1="541.99" x2="5917.06" y2="541.99" gradientTransform="translate(-5575.32)" xlink:href="#linear-gradient-2"/><linearGradient id="linear-gradient-79" x1="310.04" y1="470.1" x2="341.12" y2="470.1" xlink:href="#linear-gradient-8"/><linearGradient id="linear-gradient-80" x1="296.49" y1="552.82" x2="311.57" y2="552.82" xlink:href="#linear-gradient-8"/><linearGradient id="linear-gradient-81" x1="5873.77" y1="541.51" x2="5881.89" y2="541.51" gradientTransform="translate(-5575.32)" xlink:href="#linear-gradient-2"/><linearGradient id="linear-gradient-82" x1="289.7" y1="469.08" x2="333.83" y2="469.08" xlink:href="#linear-gradient-8"/><linearGradient id="linear-gradient-83" x1="289.79" y1="355.53" x2="381.54" y2="355.53" xlink:href="#linear-gradient-3"/><linearGradient id="linear-gradient-84" x1="5946.34" y1="296.71" x2="5994.37" y2="296.71" gradientTransform="translate(-5575.32)" xlink:href="#linear-gradient-2"/><linearGradient id="linear-gradient-85" x1="1449.55" y1="288.66" x2="1481.78" y2="361.99" gradientTransform="matrix(-1, 0, 0, 1, 1857.89, 0)" xlink:href="#linear-gradient-2"/><linearGradient id="linear-gradient-86" x1="5994.14" y1="264.24" x2="6007.59" y2="243.56" gradientTransform="translate(-5575.32)" xlink:href="#linear-gradient-2"/><linearGradient id="linear-gradient-87" x1="303.04" y1="334.29" x2="266.71" y2="333.65" xlink:href="#linear-gradient-3"/><linearGradient id="linear-gradient-88" x1="5841.24" y1="364.75" x2="5902.02" y2="364.75" gradientTransform="translate(-5575.32)" xlink:href="#linear-gradient-2"/><linearGradient id="linear-gradient-89" x1="380.44" y1="320.4" x2="398.79" y2="320.4" xlink:href="#linear-gradient"/><linearGradient id="linear-gradient-90" x1="360.27" y1="362.14" x2="395.58" y2="362.14" xlink:href="#linear-gradient"/><linearGradient id="linear-gradient-91" x1="5897.51" y1="358.37" x2="5916.45" y2="358.37" gradientTransform="translate(-5575.32)" xlink:href="#linear-gradient-2"/><linearGradient id="linear-gradient-92" x1="5887.91" y1="299.76" x2="5911.94" y2="299.76" gradientTransform="translate(-5575.32)" xlink:href="#linear-gradient-2"/><linearGradient id="linear-gradient-93" x1="-1526.15" y1="1957.23" x2="-1535.13" y2="1927.61" gradientTransform="matrix(0.75, -0.67, 0.67, 0.75, 177.52, -2191.88)" xlink:href="#linear-gradient-2"/><linearGradient id="linear-gradient-94" x1="-1535.33" y1="1957.09" x2="-1543.41" y2="1930.44" gradientTransform="matrix(0.75, -0.67, 0.67, 0.75, 177.52, -2191.88)" xlink:href="#linear-gradient-2"/></defs><title>main-page-img</title><g class="cls-1"><g id="Layer_2" data-name="Layer 2"><g id="Layer_1-2" data-name="Layer 1"><line class="cls-2" x1="51.48" y1="571.29" x2="537.07" y2="571.29"/><line class="cls-2" y1="577.49" x2="588.55" y2="577.49"/><path class="cls-3" d="M558.65,379.4c-56.64,132-206.15,188.71-323.29,179-32-2.64-96.34-8-146.58-55.33-96.5-91-81.64-281.2,10.74-393.18C111.41,95.51,193.75-1.11,322.07.18,416,1.13,482,54.05,490,60.64a258.15,258.15,0,0,1,52.6,59.51C589.88,193.92,594,296.9,558.65,379.4Z"/><path class="cls-4" d="M541.71,3.88a3.49,3.49,0,0,0-6.06-2.72c-23,25.48-77.3,100.56-52.35,222,31.31,152.38,3.82,211.15-33.29,248.67,0,0,53.49-20.58,83.33-80.38C606.59,244.65,534.59,63.61,541.71,3.88Z"/><path class="cls-5" d="M526.64,53.5c-1.73,17.39-3.11,34.8-3.85,52.24s-1.14,34.88-.9,52.32.93,34.85,2.31,52.22,3.33,34.68,5.44,52,4.13,34.85,4.47,52.6-1.4,35.76-6.4,52.94c-1.25,4.29-2.58,8.57-4.16,12.72s-3.17,8.31-4.93,12.4a183.89,183.89,0,0,1-46.52,64.54,3.38,3.38,0,0,1-4.61-4.94h0c3.11-3,6.19-6,9.12-9.14,1.49-1.55,2.91-3.16,4.36-4.74s2.84-3.22,4.17-4.9A178.32,178.32,0,0,0,500,412.85a195.4,195.4,0,0,0,20.54-47,170.63,170.63,0,0,0,5.06-25.12A193,193,0,0,0,527,315c-.2-17.24-2.16-34.56-4-51.94s-3.62-34.86-4.65-52.39q-.79-13.14-1.14-26.3c-.14-4.39-.19-8.78-.25-13.16s0-8.78,0-13.16q.3-26.31,2.23-52.55c1.37-17.48,3.2-34.91,5.71-52.24a.91.91,0,0,1,1.8.22Z"/><path class="cls-6" d="M486.38,482.41a8.79,8.79,0,0,0,14.23,3.16c25-23.67,89.51-96.95,80.48-215.35-7.63-100-2.27-154.93,1.9-179.7a5.5,5.5,0,0,0-9.26-4.86C531.59,126.38,404.93,271.71,486.38,482.41Z"/><path class="cls-5" d="M494.82,482.28a4.11,4.11,0,0,0,.42.21,2.44,2.44,0,0,0,3.16-1.38c.55-1.42,55.27-143.58,51-283.09a2.44,2.44,0,0,0-4.87.16c4.29,138.48-50.07,279.75-50.62,281.16A2.44,2.44,0,0,0,494.82,482.28Z"/><path class="cls-7" d="M521.34,530.37H198.71a8,8,0,0,1-8-8V90.14c0-9.9-2.17-19.3,4.9-19.2L520.79,59.88a8,8,0,0,1,8.58,8V522.35A8,8,0,0,1,521.34,530.37Z"/><path class="cls-8" d="M507.22,517.41H212.48a8.09,8.09,0,0,1-8-8.16v-403c0-1.88-.07-3.72-.14-5.51-.22-5.15-.4-9.6,1.69-11.75a4.69,4.69,0,0,1,3.5-1.31h.11L506.7,77.39a7.81,7.81,0,0,1,5.93,2.12,8.26,8.26,0,0,1,2.61,6V509.25A8.1,8.1,0,0,1,507.22,517.41ZM209.55,89.06A3.36,3.36,0,0,0,207,90c-1.68,1.73-1.51,5.9-1.31,10.74.08,1.81.16,3.67.15,5.58v403a6.74,6.74,0,0,0,6.65,6.81H507.22a6.74,6.74,0,0,0,6.66-6.81V85.54a6.88,6.88,0,0,0-2.17-5,6.5,6.5,0,0,0-4.94-1.76L209.65,89.06Z"/><polygon class="cls-9" points="231.84 231.01 231.84 376.81 231.84 459.57 487.41 459.57 487.41 231.01 231.84 231.01"/><polygon class="cls-9" points="256.64 239.78 265.07 239.78 265.07 353.32 256.3 353.32 256.64 239.78"/><polygon class="cls-9" points="266.87 239.78 275.29 239.78 275.29 353.32 266.53 353.32 266.87 239.78"/><line class="cls-9" x1="256.67" y1="246.71" x2="265.43" y2="246.71"/><line class="cls-9" x1="266.89" y1="246.71" x2="275.65" y2="246.71"/><line class="cls-9" x1="266.89" y1="254.01" x2="275.65" y2="254.01"/><line class="cls-9" x1="266.89" y1="261.31" x2="275.65" y2="261.31"/><line class="cls-9" x1="266.89" y1="268.62" x2="275.65" y2="268.62"/><line class="cls-9" x1="266.89" y1="275.92" x2="275.65" y2="275.92"/><line class="cls-9" x1="266.89" y1="283.22" x2="275.65" y2="283.22"/><line class="cls-9" x1="266.89" y1="290.52" x2="275.65" y2="290.52"/><line class="cls-9" x1="266.89" y1="297.82" x2="275.65" y2="297.82"/><line class="cls-9" x1="266.89" y1="305.13" x2="275.65" y2="305.13"/><line class="cls-9" x1="266.89" y1="312.43" x2="275.65" y2="312.43"/><line class="cls-9" x1="266.89" y1="319.73" x2="275.65" y2="319.73"/><line class="cls-9" x1="266.89" y1="327.03" x2="275.65" y2="327.03"/><line class="cls-9" x1="266.89" y1="334.34" x2="275.65" y2="334.34"/><line class="cls-9" x1="266.89" y1="341.64" x2="275.65" y2="341.64"/><line class="cls-9" x1="266.89" y1="348.94" x2="275.65" y2="348.94"/><line class="cls-9" x1="256.67" y1="254.01" x2="265.43" y2="254.01"/><line class="cls-9" x1="256.67" y1="262.77" x2="265.43" y2="262.77"/><line class="cls-9" x1="256.67" y1="271.54" x2="265.43" y2="271.54"/><line class="cls-9" x1="256.67" y1="280.3" x2="265.43" y2="280.3"/><line class="cls-9" x1="256.67" y1="289.06" x2="265.43" y2="289.06"/><line class="cls-9" x1="256.67" y1="297.82" x2="265.43" y2="297.82"/><line class="cls-9" x1="256.67" y1="306.59" x2="265.43" y2="306.59"/><line class="cls-9" x1="256.67" y1="315.35" x2="265.43" y2="315.35"/><line class="cls-9" x1="256.67" y1="324.11" x2="265.43" y2="324.11"/><line class="cls-9" x1="256.67" y1="332.87" x2="265.43" y2="332.87"/><line class="cls-9" x1="256.67" y1="341.64" x2="265.43" y2="341.64"/><line class="cls-9" x1="256.67" y1="350.4" x2="265.43" y2="350.4"/><polygon class="cls-9" points="286.58 239.05 295 239.05 295 352.59 286.24 352.59 286.58 239.05"/><polygon class="cls-9" points="296.8 239.05 305.23 239.05 305.23 352.59 296.46 352.59 296.8 239.05"/><line class="cls-9" x1="286.61" y1="245.98" x2="295.37" y2="245.98"/><line class="cls-9" x1="296.83" y1="245.98" x2="305.59" y2="245.98"/><line class="cls-9" x1="296.83" y1="253.28" x2="305.59" y2="253.28"/><line class="cls-9" x1="296.83" y1="260.58" x2="305.59" y2="260.58"/><line class="cls-9" x1="296.83" y1="267.89" x2="305.59" y2="267.89"/><line class="cls-9" x1="296.83" y1="275.19" x2="305.59" y2="275.19"/><line class="cls-9" x1="296.83" y1="282.49" x2="305.59" y2="282.49"/><line class="cls-9" x1="296.83" y1="289.79" x2="305.59" y2="289.79"/><line class="cls-9" x1="296.83" y1="297.09" x2="305.59" y2="297.09"/><line class="cls-9" x1="296.83" y1="304.4" x2="305.59" y2="304.4"/><line class="cls-9" x1="296.83" y1="311.7" x2="305.59" y2="311.7"/><line class="cls-9" x1="296.83" y1="319" x2="305.59" y2="319"/><line class="cls-9" x1="296.83" y1="326.3" x2="305.59" y2="326.3"/><line class="cls-9" x1="296.83" y1="333.6" x2="305.59" y2="333.6"/><line class="cls-9" x1="296.83" y1="340.91" x2="305.59" y2="340.91"/><line class="cls-9" x1="296.83" y1="348.21" x2="305.59" y2="348.21"/><line class="cls-9" x1="286.61" y1="253.28" x2="295.37" y2="253.28"/><line class="cls-9" x1="286.61" y1="262.04" x2="295.37" y2="262.04"/><line class="cls-9" x1="286.61" y1="270.81" x2="295.37" y2="270.81"/><line class="cls-9" x1="286.61" y1="279.57" x2="295.37" y2="279.57"/><line class="cls-9" x1="286.61" y1="288.33" x2="295.37" y2="288.33"/><line class="cls-9" x1="286.61" y1="297.09" x2="295.37" y2="297.09"/><line class="cls-9" x1="286.61" y1="305.86" x2="295.37" y2="305.86"/><line class="cls-9" x1="286.61" y1="314.62" x2="295.37" y2="314.62"/><line class="cls-9" x1="286.61" y1="323.38" x2="295.37" y2="323.38"/><line class="cls-9" x1="286.61" y1="332.14" x2="295.37" y2="332.14"/><line class="cls-9" x1="286.61" y1="340.91" x2="295.37" y2="340.91"/><line class="cls-9" x1="286.61" y1="349.67" x2="295.37" y2="349.67"/><polygon class="cls-9" points="231.82 239.78 240.24 239.78 240.24 353.32 231.48 353.32 231.82 239.78"/><line class="cls-9" x1="231.84" y1="246.71" x2="240.6" y2="246.71"/><line class="cls-9" x1="231.84" y1="254.74" x2="240.6" y2="254.74"/><line class="cls-9" x1="231.84" y1="262.41" x2="240.6" y2="262.41"/><line class="cls-9" x1="231.84" y1="270.08" x2="240.6" y2="270.08"/><line class="cls-9" x1="231.84" y1="277.74" x2="240.6" y2="277.74"/><line class="cls-9" x1="231.84" y1="285.41" x2="240.6" y2="285.41"/><line class="cls-9" x1="231.84" y1="293.08" x2="240.6" y2="293.08"/><line class="cls-9" x1="231.84" y1="300.75" x2="240.6" y2="300.75"/><line class="cls-9" x1="231.84" y1="308.41" x2="240.6" y2="308.41"/><line class="cls-9" x1="231.84" y1="316.08" x2="240.6" y2="316.08"/><line class="cls-9" x1="231.84" y1="323.75" x2="240.6" y2="323.75"/><line class="cls-9" x1="231.84" y1="331.41" x2="240.6" y2="331.41"/><line class="cls-9" x1="231.84" y1="339.08" x2="240.6" y2="339.08"/><line class="cls-9" x1="231.84" y1="346.75" x2="240.6" y2="346.75"/><polygon class="cls-9" points="315.79 239.05 324.21 239.05 324.21 369.02 315.45 369.02 315.79 239.05"/><polygon class="cls-9" points="326.01 239.05 334.44 239.05 334.44 369.02 325.67 369.02 326.01 239.05"/><line class="cls-9" x1="316.18" y1="245.98" x2="324.21" y2="245.98"/><line class="cls-9" x1="315.82" y1="252.55" x2="323.85" y2="252.55"/><line class="cls-9" x1="315.82" y1="260.58" x2="323.85" y2="260.58"/><line class="cls-9" x1="315.82" y1="268.62" x2="323.85" y2="268.62"/><line class="cls-9" x1="315.82" y1="276.65" x2="323.85" y2="276.65"/><line class="cls-9" x1="315.82" y1="284.68" x2="323.85" y2="284.68"/><line class="cls-9" x1="315.82" y1="292.71" x2="323.85" y2="292.71"/><line class="cls-9" x1="315.82" y1="300.75" x2="323.85" y2="300.75"/><line class="cls-9" x1="315.82" y1="308.78" x2="323.85" y2="308.78"/><line class="cls-9" x1="315.82" y1="316.81" x2="323.85" y2="316.81"/><line class="cls-9" x1="315.82" y1="324.84" x2="323.85" y2="324.84"/><line class="cls-9" x1="315.82" y1="332.87" x2="323.85" y2="332.87"/><line class="cls-9" x1="315.82" y1="340.91" x2="323.85" y2="340.91"/><line class="cls-9" x1="315.82" y1="348.94" x2="323.85" y2="348.94"/><line class="cls-9" x1="315.82" y1="356.97" x2="323.85" y2="356.97"/><line class="cls-9" x1="315.82" y1="365" x2="323.85" y2="365"/><line class="cls-9" x1="326.4" y1="246.71" x2="334.44" y2="246.71"/><line class="cls-9" x1="326.04" y1="253.28" x2="334.07" y2="253.28"/><line class="cls-9" x1="326.04" y1="261.31" x2="334.07" y2="261.31"/><line class="cls-9" x1="326.04" y1="269.35" x2="334.07" y2="269.35"/><line class="cls-9" x1="326.04" y1="277.38" x2="334.07" y2="277.38"/><line class="cls-9" x1="326.04" y1="285.41" x2="334.07" y2="285.41"/><line class="cls-9" x1="326.04" y1="293.44" x2="334.07" y2="293.44"/><line class="cls-9" x1="326.04" y1="301.48" x2="334.07" y2="301.48"/><line class="cls-9" x1="326.04" y1="309.51" x2="334.07" y2="309.51"/><line class="cls-9" x1="326.04" y1="317.54" x2="334.07" y2="317.54"/><line class="cls-9" x1="326.04" y1="325.57" x2="334.07" y2="325.57"/><line class="cls-9" x1="326.04" y1="333.6" x2="334.07" y2="333.6"/><line class="cls-9" x1="326.04" y1="341.64" x2="334.07" y2="341.64"/><line class="cls-9" x1="326.04" y1="349.67" x2="334.07" y2="349.67"/><line class="cls-9" x1="326.04" y1="357.7" x2="334.07" y2="357.7"/><line class="cls-9" x1="326.04" y1="365.73" x2="334.07" y2="365.73"/><polygon class="cls-9" points="346.46 239.78 354.88 239.78 354.88 369.75 346.12 369.75 346.46 239.78"/><polygon class="cls-9" points="356.68 239.78 365.1 239.78 365.1 369.75 356.34 369.75 356.68 239.78"/><line class="cls-9" x1="346.85" y1="246.71" x2="354.88" y2="246.71"/><line class="cls-9" x1="346.48" y1="253.28" x2="354.52" y2="253.28"/><line class="cls-9" x1="346.48" y1="261.31" x2="354.52" y2="261.31"/><line class="cls-9" x1="346.48" y1="269.35" x2="354.52" y2="269.35"/><line class="cls-9" x1="346.48" y1="277.38" x2="354.52" y2="277.38"/><line class="cls-9" x1="346.48" y1="285.41" x2="354.52" y2="285.41"/><line class="cls-9" x1="346.48" y1="293.44" x2="354.52" y2="293.44"/><line class="cls-9" x1="346.48" y1="301.48" x2="354.52" y2="301.48"/><line class="cls-9" x1="346.48" y1="309.51" x2="354.52" y2="309.51"/><line class="cls-9" x1="346.48" y1="317.54" x2="354.52" y2="317.54"/><line class="cls-9" x1="346.48" y1="325.57" x2="354.52" y2="325.57"/><line class="cls-9" x1="346.48" y1="333.6" x2="354.52" y2="333.6"/><line class="cls-9" x1="346.48" y1="341.64" x2="354.52" y2="341.64"/><line class="cls-9" x1="346.48" y1="349.67" x2="354.52" y2="349.67"/><line class="cls-9" x1="346.48" y1="357.7" x2="354.52" y2="357.7"/><line class="cls-9" x1="346.48" y1="365.73" x2="354.52" y2="365.73"/><line class="cls-9" x1="357.07" y1="247.44" x2="365.1" y2="247.44"/><line class="cls-9" x1="356.71" y1="254.01" x2="364.74" y2="254.01"/><line class="cls-9" x1="356.71" y1="262.04" x2="364.74" y2="262.04"/><line class="cls-9" x1="356.71" y1="270.08" x2="364.74" y2="270.08"/><line class="cls-9" x1="356.71" y1="278.11" x2="364.74" y2="278.11"/><line class="cls-9" x1="356.71" y1="286.14" x2="364.74" y2="286.14"/><line class="cls-9" x1="356.71" y1="294.17" x2="364.74" y2="294.17"/><line class="cls-9" x1="356.71" y1="302.21" x2="364.74" y2="302.21"/><line class="cls-9" x1="356.71" y1="310.24" x2="364.74" y2="310.24"/><line class="cls-9" x1="356.71" y1="318.27" x2="364.74" y2="318.27"/><line class="cls-9" x1="356.71" y1="326.3" x2="364.74" y2="326.3"/><line class="cls-9" x1="356.71" y1="334.34" x2="364.74" y2="334.34"/><line class="cls-9" x1="356.71" y1="342.37" x2="364.74" y2="342.37"/><line class="cls-9" x1="356.71" y1="350.4" x2="364.74" y2="350.4"/><line class="cls-9" x1="356.71" y1="358.43" x2="364.74" y2="358.43"/><line class="cls-9" x1="356.71" y1="366.46" x2="364.74" y2="366.46"/><polygon class="cls-9" points="376.4 239.78 384.82 239.78 384.82 369.75 376.06 369.75 376.4 239.78"/><polygon class="cls-9" points="386.62 239.78 395.04 239.78 395.04 369.75 386.28 369.75 386.62 239.78"/><line class="cls-9" x1="376.79" y1="246.71" x2="384.82" y2="246.71"/><line class="cls-9" x1="376.42" y1="253.28" x2="384.45" y2="253.28"/><line class="cls-9" x1="376.42" y1="261.31" x2="384.45" y2="261.31"/><line class="cls-9" x1="376.42" y1="269.35" x2="384.45" y2="269.35"/><line class="cls-9" x1="376.42" y1="277.38" x2="384.45" y2="277.38"/><line class="cls-9" x1="376.42" y1="285.41" x2="384.45" y2="285.41"/><line class="cls-9" x1="376.42" y1="293.44" x2="384.45" y2="293.44"/><line class="cls-9" x1="376.42" y1="301.48" x2="384.45" y2="301.48"/><line class="cls-9" x1="376.42" y1="309.51" x2="384.45" y2="309.51"/><line class="cls-9" x1="376.42" y1="317.54" x2="384.45" y2="317.54"/><line class="cls-9" x1="376.42" y1="325.57" x2="384.45" y2="325.57"/><line class="cls-9" x1="376.42" y1="333.6" x2="384.45" y2="333.6"/><line class="cls-9" x1="376.42" y1="341.64" x2="384.45" y2="341.64"/><line class="cls-9" x1="376.42" y1="349.67" x2="384.45" y2="349.67"/><line class="cls-9" x1="376.42" y1="357.7" x2="384.45" y2="357.7"/><line class="cls-9" x1="376.42" y1="365.73" x2="384.45" y2="365.73"/><line class="cls-9" x1="387.01" y1="247.44" x2="395.04" y2="247.44"/><line class="cls-9" x1="386.65" y1="254.01" x2="394.68" y2="254.01"/><line class="cls-9" x1="386.65" y1="262.04" x2="394.68" y2="262.04"/><line class="cls-9" x1="386.65" y1="270.08" x2="394.68" y2="270.08"/><line class="cls-9" x1="386.65" y1="278.11" x2="394.68" y2="278.11"/><line class="cls-9" x1="386.65" y1="286.14" x2="394.68" y2="286.14"/><line class="cls-9" x1="386.65" y1="294.17" x2="394.68" y2="294.17"/><line class="cls-9" x1="386.65" y1="302.21" x2="394.68" y2="302.21"/><line class="cls-9" x1="386.65" y1="310.24" x2="394.68" y2="310.24"/><line class="cls-9" x1="386.65" y1="318.27" x2="394.68" y2="318.27"/><line class="cls-9" x1="386.65" y1="326.3" x2="394.68" y2="326.3"/><line class="cls-9" x1="386.65" y1="334.34" x2="394.68" y2="334.34"/><line class="cls-9" x1="386.65" y1="342.37" x2="394.68" y2="342.37"/><line class="cls-9" x1="386.65" y1="350.4" x2="394.68" y2="350.4"/><line class="cls-9" x1="386.65" y1="358.43" x2="394.68" y2="358.43"/><line class="cls-9" x1="386.65" y1="366.46" x2="394.68" y2="366.46"/><polygon class="cls-9" points="405.61 240.51 414.03 240.51 414.03 370.48 405.27 370.48 405.61 240.51"/><polygon class="cls-9" points="415.83 240.51 424.25 240.51 424.25 370.48 415.49 370.48 415.83 240.51"/><line class="cls-9" x1="406" y1="247.44" x2="414.03" y2="247.44"/><line class="cls-9" x1="405.63" y1="254.01" x2="413.66" y2="254.01"/><line class="cls-9" x1="405.63" y1="262.04" x2="413.66" y2="262.04"/><line class="cls-9" x1="405.63" y1="270.08" x2="413.66" y2="270.08"/><line class="cls-9" x1="405.63" y1="278.11" x2="413.66" y2="278.11"/><line class="cls-9" x1="405.63" y1="286.14" x2="413.66" y2="286.14"/><line class="cls-9" x1="405.63" y1="294.17" x2="413.66" y2="294.17"/><line class="cls-9" x1="405.63" y1="302.21" x2="413.66" y2="302.21"/><line class="cls-9" x1="405.63" y1="310.24" x2="413.66" y2="310.24"/><line class="cls-9" x1="405.63" y1="318.27" x2="413.66" y2="318.27"/><line class="cls-9" x1="405.63" y1="326.3" x2="413.66" y2="326.3"/><line class="cls-9" x1="405.63" y1="334.34" x2="413.66" y2="334.34"/><line class="cls-9" x1="405.63" y1="342.37" x2="413.66" y2="342.37"/><line class="cls-9" x1="405.63" y1="350.4" x2="413.66" y2="350.4"/><line class="cls-9" x1="405.63" y1="358.43" x2="413.66" y2="358.43"/><line class="cls-9" x1="405.63" y1="366.46" x2="413.66" y2="366.46"/><line class="cls-9" x1="416.22" y1="248.17" x2="424.25" y2="248.17"/><line class="cls-9" x1="415.85" y1="254.74" x2="423.89" y2="254.74"/><line class="cls-9" x1="415.85" y1="262.77" x2="423.89" y2="262.77"/><line class="cls-9" x1="415.85" y1="270.81" x2="423.89" y2="270.81"/><line class="cls-9" x1="415.85" y1="278.84" x2="423.89" y2="278.84"/><line class="cls-9" x1="415.85" y1="286.87" x2="423.89" y2="286.87"/><line class="cls-9" x1="415.85" y1="294.9" x2="423.89" y2="294.9"/><line class="cls-9" x1="415.85" y1="302.94" x2="423.89" y2="302.94"/><line class="cls-9" x1="415.85" y1="310.97" x2="423.89" y2="310.97"/><line class="cls-9" x1="415.85" y1="319" x2="423.89" y2="319"/><line class="cls-9" x1="415.85" y1="327.03" x2="423.89" y2="327.03"/><line class="cls-9" x1="415.85" y1="335.07" x2="423.89" y2="335.07"/><line class="cls-9" x1="415.85" y1="343.1" x2="423.89" y2="343.1"/><line class="cls-9" x1="415.85" y1="351.13" x2="423.89" y2="351.13"/><line class="cls-9" x1="415.85" y1="359.16" x2="423.89" y2="359.16"/><line class="cls-9" x1="415.85" y1="367.19" x2="423.89" y2="367.19"/><polygon class="cls-9" points="435.54 239.78 443.97 239.78 443.97 369.75 435.2 369.75 435.54 239.78"/><polygon class="cls-9" points="445.77 239.78 454.19 239.78 454.19 369.75 445.43 369.75 445.77 239.78"/><line class="cls-9" x1="435.93" y1="246.71" x2="443.97" y2="246.71"/><line class="cls-9" x1="435.57" y1="253.28" x2="443.6" y2="253.28"/><line class="cls-9" x1="435.57" y1="261.31" x2="443.6" y2="261.31"/><line class="cls-9" x1="435.57" y1="269.35" x2="443.6" y2="269.35"/><line class="cls-9" x1="435.57" y1="277.38" x2="443.6" y2="277.38"/><line class="cls-9" x1="435.57" y1="285.41" x2="443.6" y2="285.41"/><line class="cls-9" x1="435.57" y1="293.44" x2="443.6" y2="293.44"/><line class="cls-9" x1="435.57" y1="301.48" x2="443.6" y2="301.48"/><line class="cls-9" x1="435.57" y1="309.51" x2="443.6" y2="309.51"/><line class="cls-9" x1="435.57" y1="317.54" x2="443.6" y2="317.54"/><line class="cls-9" x1="435.57" y1="325.57" x2="443.6" y2="325.57"/><line class="cls-9" x1="435.57" y1="333.6" x2="443.6" y2="333.6"/><line class="cls-9" x1="435.57" y1="341.64" x2="443.6" y2="341.64"/><line class="cls-9" x1="435.57" y1="349.67" x2="443.6" y2="349.67"/><line class="cls-9" x1="435.57" y1="357.7" x2="443.6" y2="357.7"/><line class="cls-9" x1="435.57" y1="365.73" x2="443.6" y2="365.73"/><line class="cls-9" x1="446.16" y1="247.44" x2="454.19" y2="247.44"/><line class="cls-9" x1="445.79" y1="254.01" x2="453.82" y2="254.01"/><line class="cls-9" x1="445.79" y1="262.04" x2="453.82" y2="262.04"/><line class="cls-9" x1="445.79" y1="270.08" x2="453.82" y2="270.08"/><line class="cls-9" x1="445.79" y1="278.11" x2="453.82" y2="278.11"/><line class="cls-9" x1="445.79" y1="286.14" x2="453.82" y2="286.14"/><line class="cls-9" x1="445.79" y1="294.17" x2="453.82" y2="294.17"/><line class="cls-9" x1="445.79" y1="302.21" x2="453.82" y2="302.21"/><line class="cls-9" x1="445.79" y1="310.24" x2="453.82" y2="310.24"/><line class="cls-9" x1="445.79" y1="318.27" x2="453.82" y2="318.27"/><line class="cls-9" x1="445.79" y1="326.3" x2="453.82" y2="326.3"/><line class="cls-9" x1="445.79" y1="334.34" x2="453.82" y2="334.34"/><line class="cls-9" x1="445.79" y1="342.37" x2="453.82" y2="342.37"/><line class="cls-9" x1="445.79" y1="350.4" x2="453.82" y2="350.4"/><line class="cls-9" x1="445.79" y1="358.43" x2="453.82" y2="358.43"/><line class="cls-9" x1="445.79" y1="366.46" x2="453.82" y2="366.46"/><polygon class="cls-9" points="468.4 239.78 476.83 239.78 476.83 369.75 468.06 369.75 468.4 239.78"/><polygon class="cls-9" points="478.63 239.78 487.05 239.78 487.05 369.75 478.29 369.75 478.63 239.78"/><line class="cls-9" x1="468.79" y1="246.71" x2="476.83" y2="246.71"/><line class="cls-9" x1="468.43" y1="253.28" x2="476.46" y2="253.28"/><line class="cls-9" x1="468.43" y1="261.31" x2="476.46" y2="261.31"/><line class="cls-9" x1="468.43" y1="269.35" x2="476.46" y2="269.35"/><line class="cls-9" x1="468.43" y1="277.38" x2="476.46" y2="277.38"/><line class="cls-9" x1="468.43" y1="285.41" x2="476.46" y2="285.41"/><line class="cls-9" x1="468.43" y1="293.44" x2="476.46" y2="293.44"/><line class="cls-9" x1="468.43" y1="301.48" x2="476.46" y2="301.48"/><line class="cls-9" x1="468.43" y1="309.51" x2="476.46" y2="309.51"/><line class="cls-9" x1="468.43" y1="317.54" x2="476.46" y2="317.54"/><line class="cls-9" x1="468.43" y1="325.57" x2="476.46" y2="325.57"/><line class="cls-9" x1="468.43" y1="333.6" x2="476.46" y2="333.6"/><line class="cls-9" x1="468.43" y1="341.64" x2="476.46" y2="341.64"/><line class="cls-9" x1="468.43" y1="349.67" x2="476.46" y2="349.67"/><line class="cls-9" x1="468.43" y1="357.7" x2="476.46" y2="357.7"/><line class="cls-9" x1="468.43" y1="365.73" x2="476.46" y2="365.73"/><line class="cls-9" x1="479.02" y1="247.44" x2="487.05" y2="247.44"/><line class="cls-9" x1="478.65" y1="254.01" x2="486.68" y2="254.01"/><line class="cls-9" x1="478.65" y1="262.04" x2="486.68" y2="262.04"/><line class="cls-9" x1="478.65" y1="270.08" x2="486.68" y2="270.08"/><line class="cls-9" x1="478.65" y1="278.11" x2="486.68" y2="278.11"/><line class="cls-9" x1="478.65" y1="286.14" x2="486.68" y2="286.14"/><line class="cls-9" x1="478.65" y1="294.17" x2="486.68" y2="294.17"/><line class="cls-9" x1="478.65" y1="302.21" x2="486.68" y2="302.21"/><line class="cls-9" x1="478.65" y1="310.24" x2="486.68" y2="310.24"/><line class="cls-9" x1="478.65" y1="318.27" x2="486.68" y2="318.27"/><line class="cls-9" x1="478.65" y1="326.3" x2="486.68" y2="326.3"/><line class="cls-9" x1="478.65" y1="334.34" x2="486.68" y2="334.34"/><line class="cls-9" x1="478.65" y1="342.37" x2="486.68" y2="342.37"/><line class="cls-9" x1="478.65" y1="350.4" x2="486.68" y2="350.4"/><line class="cls-9" x1="478.65" y1="358.43" x2="486.68" y2="358.43"/><line class="cls-9" x1="478.65" y1="366.46" x2="486.68" y2="366.46"/><rect class="cls-9" x="472.44" y="401.51" width="7.3" height="19.72"/><rect class="cls-9" x="461.49" y="425.61" width="21.18" height="8.03"/><rect class="cls-9" x="468.06" y="438.02" width="14.6" height="8.03"/><rect class="cls-9" x="468.06" y="448.25" width="14.6" height="8.03"/><path class="cls-9" d="M370.19,221.88h0a0,0,0,0,1,0,0v8.76a0,0,0,0,1,0,0h-6.57a0,0,0,0,1,0,0v-2.22A6.55,6.55,0,0,1,370.19,221.88Z"/><path class="cls-9" d="M487,221.88h0a0,0,0,0,1,0,0v8.76a0,0,0,0,1,0,0h-6.57a0,0,0,0,1,0,0v-2.22A6.55,6.55,0,0,1,487,221.88Z"/><path class="cls-9" d="M250.44,221.88h0a0,0,0,0,1,0,0v8.76a0,0,0,0,1,0,0h-6.57a0,0,0,0,1,0,0v-2.22A6.55,6.55,0,0,1,250.44,221.88Z"/><path class="cls-9" d="M481.18,459.2h0a0,0,0,0,1,0,0V468a0,0,0,0,1,0,0h-6.57a0,0,0,0,1,0,0v-2.22A6.55,6.55,0,0,1,481.18,459.2Z" transform="translate(955.84 927.16) rotate(-180)"/><path class="cls-9" d="M371.65,459.93h0a0,0,0,0,1,0,0v8.76a0,0,0,0,1,0,0H365.1a0,0,0,0,1,0,0v-2.22A6.55,6.55,0,0,1,371.65,459.93Z" transform="translate(736.78 928.62) rotate(180)"/><path class="cls-9" d="M261.39,459.93h0a0,0,0,0,1,0,0v8.76a0,0,0,0,1,0,0h-6.57a0,0,0,0,1,0,0v-2.22A6.55,6.55,0,0,1,261.39,459.93Z" transform="translate(516.26 928.62) rotate(180)"/><rect class="cls-9" x="232.21" y="374.5" width="59.88" height="75.94"/><rect class="cls-9" x="378.25" y="445.33" width="53.31" height="13.87"/><rect class="cls-9" x="315.45" y="393.48" width="7.3" height="42.35"/><rect class="cls-9" x="325.67" y="393.48" width="7.3" height="42.35"/><rect class="cls-9" x="345.39" y="393.48" width="7.3" height="42.35"/><rect class="cls-9" x="354.88" y="393.48" width="7.3" height="42.35"/><rect class="cls-9" x="373.87" y="392.75" width="7.3" height="42.35"/><rect class="cls-9" x="383.36" y="393.48" width="7.3" height="42.35"/><rect class="cls-9" x="403.81" y="393.48" width="7.3" height="42.35"/><rect class="cls-9" x="414.03" y="392.75" width="7.3" height="42.35"/><rect class="cls-9" x="433.01" y="393.48" width="7.3" height="42.35"/><rect class="cls-9" x="443.24" y="393.48" width="7.3" height="42.35"/><line class="cls-9" x1="315.45" y1="399.32" x2="322.75" y2="399.32"/><line class="cls-9" x1="315.08" y1="405.17" x2="322.39" y2="405.17"/><line class="cls-9" x1="315.08" y1="411.01" x2="322.39" y2="411.01"/><line class="cls-9" x1="315.08" y1="416.85" x2="322.39" y2="416.85"/><line class="cls-9" x1="315.08" y1="422.69" x2="322.39" y2="422.69"/><line class="cls-9" x1="315.08" y1="428.53" x2="322.39" y2="428.53"/><line class="cls-9" x1="325.67" y1="399.32" x2="332.98" y2="399.32"/><line class="cls-9" x1="325.31" y1="405.17" x2="332.61" y2="405.17"/><line class="cls-9" x1="325.31" y1="411.01" x2="332.61" y2="411.01"/><line class="cls-9" x1="325.31" y1="416.85" x2="332.61" y2="416.85"/><line class="cls-9" x1="325.31" y1="422.69" x2="332.61" y2="422.69"/><line class="cls-9" x1="325.31" y1="428.53" x2="332.61" y2="428.53"/><line class="cls-9" x1="345.39" y1="399.32" x2="352.69" y2="399.32"/><line class="cls-9" x1="345.02" y1="405.17" x2="352.33" y2="405.17"/><line class="cls-9" x1="345.02" y1="411.01" x2="352.33" y2="411.01"/><line class="cls-9" x1="345.02" y1="416.85" x2="352.33" y2="416.85"/><line class="cls-9" x1="345.02" y1="422.69" x2="352.33" y2="422.69"/><line class="cls-9" x1="345.02" y1="428.53" x2="352.33" y2="428.53"/><line class="cls-9" x1="354.88" y1="399.32" x2="362.18" y2="399.32"/><line class="cls-9" x1="354.52" y1="405.17" x2="361.82" y2="405.17"/><line class="cls-9" x1="354.52" y1="411.01" x2="361.82" y2="411.01"/><line class="cls-9" x1="354.52" y1="416.85" x2="361.82" y2="416.85"/><line class="cls-9" x1="354.52" y1="422.69" x2="361.82" y2="422.69"/><line class="cls-9" x1="354.52" y1="428.53" x2="361.82" y2="428.53"/><line class="cls-9" x1="373.87" y1="399.32" x2="381.17" y2="399.32"/><line class="cls-9" x1="373.5" y1="405.17" x2="380.8" y2="405.17"/><line class="cls-9" x1="373.5" y1="411.01" x2="380.8" y2="411.01"/><line class="cls-9" x1="373.5" y1="416.85" x2="380.8" y2="416.85"/><line class="cls-9" x1="373.5" y1="422.69" x2="380.8" y2="422.69"/><line class="cls-9" x1="373.5" y1="428.53" x2="380.8" y2="428.53"/><line class="cls-9" x1="383.36" y1="399.32" x2="390.66" y2="399.32"/><line class="cls-9" x1="382.99" y1="405.17" x2="390.3" y2="405.17"/><line class="cls-9" x1="382.99" y1="411.01" x2="390.3" y2="411.01"/><line class="cls-9" x1="382.99" y1="416.85" x2="390.3" y2="416.85"/><line class="cls-9" x1="382.99" y1="422.69" x2="390.3" y2="422.69"/><line class="cls-9" x1="382.99" y1="428.53" x2="390.3" y2="428.53"/><line class="cls-9" x1="403.81" y1="399.32" x2="411.11" y2="399.32"/><line class="cls-9" x1="403.44" y1="405.17" x2="410.74" y2="405.17"/><line class="cls-9" x1="403.44" y1="411.01" x2="410.74" y2="411.01"/><line class="cls-9" x1="403.44" y1="416.85" x2="410.74" y2="416.85"/><line class="cls-9" x1="403.44" y1="422.69" x2="410.74" y2="422.69"/><line class="cls-9" x1="403.44" y1="428.53" x2="410.74" y2="428.53"/><line class="cls-9" x1="414.03" y1="399.32" x2="421.33" y2="399.32"/><line class="cls-9" x1="413.66" y1="405.17" x2="420.97" y2="405.17"/><line class="cls-9" x1="413.66" y1="411.01" x2="420.97" y2="411.01"/><line class="cls-9" x1="413.66" y1="416.85" x2="420.97" y2="416.85"/><line class="cls-9" x1="413.66" y1="422.69" x2="420.97" y2="422.69"/><line class="cls-9" x1="413.66" y1="428.53" x2="420.97" y2="428.53"/><line class="cls-9" x1="433.01" y1="399.32" x2="440.32" y2="399.32"/><line class="cls-9" x1="432.65" y1="405.17" x2="439.95" y2="405.17"/><line class="cls-9" x1="432.65" y1="411.01" x2="439.95" y2="411.01"/><line class="cls-9" x1="432.65" y1="416.85" x2="439.95" y2="416.85"/><line class="cls-9" x1="432.65" y1="422.69" x2="439.95" y2="422.69"/><line class="cls-9" x1="432.65" y1="428.53" x2="439.95" y2="428.53"/><line class="cls-9" x1="443.24" y1="399.32" x2="450.54" y2="399.32"/><line class="cls-9" x1="442.87" y1="405.17" x2="450.17" y2="405.17"/><line class="cls-9" x1="442.87" y1="411.01" x2="450.17" y2="411.01"/><line class="cls-9" x1="442.87" y1="416.85" x2="450.17" y2="416.85"/><line class="cls-9" x1="442.87" y1="422.69" x2="450.17" y2="422.69"/><line class="cls-9" x1="442.87" y1="428.53" x2="450.17" y2="428.53"/><rect class="cls-8" x="384.82" y="121.14" width="113.05" height="1.09"/><rect class="cls-8" x="384.82" y="113.07" width="113.05" height="1.09"/><rect class="cls-8" x="385.31" y="104.4" width="113.05" height="1.09"/><rect class="cls-8" x="384.82" y="129.19" width="113.05" height="1.09"/><path class="cls-10" d="M443.45,287.19a1,1,0,0,1,1.75.19c.85,3.06,2.91,8.4,7.23,10.3l.62.29a2.22,2.22,0,0,0-.27-2c-1.34-2.05,1.08-4.85,1.08-4.85a6.25,6.25,0,0,0,2,4,6,6,0,0,1,1.28,6.76c-2.33,9.08-5.83,21.08,7.8,29.86s32.83-16.56,32.83-16.56l-9.53,30.21s-14.71,10.85-31.81-4.41-5.77-37.47-5.77-37.47S437.65,298.28,443.45,287.19Z"/><path class="cls-11" d="M500.2,270.83s-3.95-17.72,16.34-13c0,0,9.85-1.61,10.36,7.69,0,0,6.35,4.18,1.7,12.23,0,0,18.87-7.29,27.09,9.25s.66,25.64-7.26,28a7.9,7.9,0,0,1,3.38,10.51c-3,7.27-18.42,12.4-27.51,3.55,0,0-25.87,3.42-25.35-14.85,0,0-12-7.77.6-22.87S500.2,270.83,500.2,270.83Z"/><path class="cls-12" d="M499.08,311.89c4.08-1.22,16-3.48,27.25,6.95a7,7,0,0,1,2,7c-3,11.16-11,44.16-4,58.44,0,0-12.37,13.63-25.86,2.64,0,0-6.06-26.38-14-38-5.47-8,8.73-30,12.33-35.36A4.21,4.21,0,0,1,499.08,311.89Z"/><path class="cls-13" d="M510.34,289.71s6,17.05,6.49,24.58a12.91,12.91,0,0,1-13-2.08s-.66-17-1.61-20.1Z"/><path class="cls-14" d="M502,266.44s-15.78,22.08-6.35,28.49,20.66-9.27,20.66-9.27,3.66-12.09-.17-16.19S502,266.44,502,266.44Z"/><path class="cls-11" d="M509.27,261.17s-7.25,1.72-8.26,5,10.27,6.32,13.44,6.47L517,285.86s7.53-12.44,4.55-19.63S509.27,261.17,509.27,261.17Z"/><path class="cls-15" d="M513.22,284s6.14-7.11,8.59-2.47-5.53,8.11-8.29,5.84Z"/><path class="cls-16" d="M482.72,442.29c0,1.19-2.06,10.7-3.21,15.76a8.39,8.39,0,0,0,.9,6l39.64,66.71a9.08,9.08,0,0,1,1,2.59c.73,3.14,2.23,10.81,1.45,17.79l-2,4.26,8.86-2,1.93-23.81L528.77,528a12,12,0,0,1-4.82-5.65c-3.59-8.71-12.49-30.87-14.78-41.67-2.61-12.27-16.24-22.24-16.24-22.24l2.4-5.66Z"/><path class="cls-17" d="M539.21,545.18s-4.79-7.59-5.35-10.55-2.13-8.17-5.09-6.6c0,0-1.39,14.35-.91,20s-6.34,5.43-6.34,5.43a6.44,6.44,0,0,0-3.26,1.64,1.6,1.6,0,0,0,1.07,2.69,38.55,38.55,0,0,0,9.5-.54,2.9,2.9,0,0,0,2.35-2.68l1-16.52,6,7.62Z"/><path class="cls-18" d="M506.39,452.91s1.4,59.67,1.59,68.15-1.34,27.25-9.83,32.87l3.69,2.74A49.57,49.57,0,0,0,511,545.18c5.07-8.49,6.6-10,6.6-10l-1.68-3.44a7.63,7.63,0,0,1-.62-4.86c1.84-8.89,8-38.44,9.63-44.81,2-7.51,2.12-17.55-4.74-25.94S506.39,452.91,506.39,452.91Z"/><path class="cls-19" d="M514.24,559.36a.52.52,0,0,0,.52-.45c.29-2,1.46-10,2.43-12,1.1-2.37,4.7-12.32,0-13.17,0,0-11.7,17.11-13.95,19.41a4.4,4.4,0,0,1-5.08.81,8.48,8.48,0,0,0-3.84,2.76,1.55,1.55,0,0,0,1.22,2.49l7.88.07a5.55,5.55,0,0,0,5.2-3.49c1.39-3.47,3.78-8.56,6.56-10.81l-1.45,13.82a.54.54,0,0,0,.52.59Z"/><path class="cls-20" d="M496.6,380.46s1.78,5.66-1,15l-16.94,59.14a1.83,1.83,0,0,0,1.15,2.22c5.06,1.82,21.72,7,44.45,5.39a2.59,2.59,0,0,0,2.35-2l7.66-34.47c4-18,8.49-37.42-11.21-49.17C514,380.44,505.57,382.73,496.6,380.46Z"/><path class="cls-21" d="M528,321.06s19.26,16,24,37.9-28.16,24.2-28.16,24.2-4.47-5-9.78-3.21-.41-8.71,5.8-8.69,3.33,4.94,12.12,1c8.56-3.87,13.85-15.86-8-34a9.94,9.94,0,0,1-2.88-3.93C516.87,323.58,520.23,316.57,528,321.06Z"/><polygon class="cls-22" points="240.71 75.25 114.66 11.86 50.8 78.73 55.14 78.89 115.63 14.52 238.83 77.18 240.71 75.25"/><polygon class="cls-23" points="73.69 79.27 73.4 93.75 75.96 93.76 76.24 79.28 73.69 79.27"/><polygon class="cls-24" points="50.42 92.41 98.06 92.61 97.94 93.86 50.42 93.66 50.42 92.41"/><polygon class="cls-25" points="50.42 78.39 97.46 78.59 97.96 79.84 50.42 79.64 50.42 78.39"/><rect class="cls-26" x="50.59" y="78.4" width="1.36" height="15.26" transform="translate(102.53 172.06) rotate(180)"/><rect class="cls-27" x="96.71" y="299.57" width="37.33" height="4.47" transform="translate(230.76 603.6) rotate(180)"/><rect class="cls-28" x="96.74" y="354.41" width="37.22" height="3.13" transform="translate(230.7 711.95) rotate(180)"/><rect class="cls-29" x="96.74" y="326.77" width="37.22" height="3.13" transform="translate(230.7 656.66) rotate(180)"/><rect class="cls-30" x="96.74" y="381.61" width="37.22" height="3.13" transform="translate(230.7 766.35) rotate(180)"/><rect class="cls-31" x="96.74" y="408.81" width="37.22" height="3.13" transform="translate(230.7 820.75) rotate(180)"/><rect class="cls-32" x="96.74" y="435.17" width="37.22" height="3.13" transform="translate(230.7 873.47) rotate(180)"/><rect class="cls-33" x="96.74" y="462.37" width="37.22" height="3.13" transform="translate(230.7 927.87) rotate(180)"/><rect class="cls-34" x="113.29" y="292.52" width="2.98" height="44.31" transform="translate(439.71 396) rotate(124.09)"/><rect class="cls-35" x="112.85" y="347.19" width="2.98" height="44.31" transform="translate(484.3 481.69) rotate(124.09)"/><rect class="cls-36" x="113.29" y="401.87" width="2.98" height="44.31" transform="translate(530.27 566.65) rotate(124.09)"/><rect class="cls-37" x="113.86" y="428.39" width="2.98" height="44.31" transform="translate(388.14 73.87) rotate(50.27)"/><rect class="cls-38" x="113.29" y="372.91" width="2.98" height="44.31" transform="translate(345.26 54.29) rotate(50.27)"/><rect class="cls-39" x="113.29" y="318.51" width="2.98" height="44.31" transform="translate(303.42 34.66) rotate(50.27)"/><rect class="cls-40" x="113.29" y="454.71" width="2.98" height="44.31" transform="translate(574.02 649.1) rotate(124.09)"/><rect class="cls-41" x="130.75" y="299.57" width="3.21" height="187.92" transform="translate(264.71 787.05) rotate(180)"/><rect class="cls-42" x="94.71" y="299.74" width="3.21" height="187.92" transform="translate(192.64 787.4) rotate(180)"/><rect class="cls-43" x="97.06" y="74.52" width="37.22" height="3.13" transform="translate(231.35 152.16) rotate(180)"/><rect class="cls-44" x="97.06" y="102.1" width="37.22" height="3.13" transform="translate(231.35 207.32) rotate(180)"/><rect class="cls-45" x="97.06" y="129.3" width="37.22" height="3.13" transform="translate(231.35 261.72) rotate(180)"/><rect class="cls-46" x="97.06" y="155.66" width="37.22" height="3.13" transform="translate(231.35 314.44) rotate(180)"/><rect class="cls-47" x="97.06" y="182.86" width="37.22" height="3.13" transform="translate(231.35 368.84) rotate(180)"/><rect class="cls-48" x="113.17" y="67.68" width="2.98" height="44.31" transform="translate(253.33 45.23) rotate(124.09)"/><rect class="cls-49" x="113.61" y="122.36" width="2.98" height="44.31" transform="translate(299.3 130.19) rotate(124.09)"/><rect class="cls-50" x="114.19" y="148.88" width="2.98" height="44.31" transform="translate(173.28 -27.24) rotate(50.27)"/><rect class="cls-51" x="113.61" y="93.4" width="2.98" height="44.31" transform="translate(130.41 -46.83) rotate(50.27)"/><rect class="cls-52" x="113.61" y="175.19" width="2.98" height="44.31" transform="translate(343.05 212.64) rotate(124.09)"/><rect class="cls-53" x="131.07" y="74.29" width="3.21" height="133.73" transform="translate(265.36 282.32) rotate(180)"/><rect class="cls-54" x="95.04" y="74.42" width="3.21" height="133.73" transform="translate(193.29 282.56) rotate(180)"/><polygon class="cls-55" points="285 76.45 284.72 98.19 288.38 98.22 288.66 76.47 285 76.45"/><polygon class="cls-56" points="266.85 98.03 264.85 97.04 285.46 75.8 287.46 76.79 266.85 98.03"/><polygon class="cls-57" points="222.1 97.47 220.1 96.49 240.71 75.25 242.71 76.23 222.1 97.47"/><polygon class="cls-58" points="177.34 97.44 175.34 96.45 195.95 75.21 197.95 76.2 177.34 97.44"/><polygon class="cls-59" points="177.34 95.97 175.45 97.06 152.52 77.06 154.41 75.96 177.34 95.97"/><polygon class="cls-60" points="222.76 95.93 220.87 97.03 197.19 76.39 199.83 75.93 222.76 95.93"/><polygon class="cls-61" points="267.29 96.23 265.4 97.32 241.28 76.45 244.36 76.22 267.29 96.23"/><polygon class="cls-62" points="134.09 97.15 132.09 96.17 152.7 74.92 154.71 75.91 134.09 97.15"/><polygon class="cls-63" points="134.58 95.28 134.56 97.15 288.38 98.17 288.4 96.3 134.58 95.28"/><polygon class="cls-64" points="133.78 74.28 133.75 76.16 288.51 77.18 288.53 75.31 133.78 74.28"/><rect class="cls-65" x="92.99" y="206.23" width="44.71" height="3.56" transform="translate(230.7 416.02) rotate(180)"/><rect class="cls-66" x="95.3" y="237.22" width="42.41" height="3.56" transform="translate(233 478) rotate(180)"/><rect class="cls-67" x="95.3" y="267.25" width="42.41" height="3.56" transform="translate(233 538.06) rotate(180)"/><rect class="cls-68" x="95.3" y="298.24" width="42.41" height="3.56" transform="translate(233 600.04) rotate(180)"/><rect class="cls-69" x="114.15" y="229.31" width="3.39" height="50.49" transform="matrix(-0.56, 0.83, -0.83, -0.56, 391.59, 301.29)"/><polygon class="cls-70" points="134.83 267.33 137 269.94 99.82 300.84 96 299.6 134.83 267.33"/><rect class="cls-71" x="112.31" y="200.24" width="3.39" height="45.7" transform="translate(212.71 -7.18) rotate(50.27)"/><rect class="cls-72" x="134.04" y="206.23" width="3.66" height="95.48" transform="translate(271.75 507.94) rotate(180)"/><rect class="cls-73" x="92.99" y="206.32" width="3.66" height="95.48" transform="translate(189.65 508.12) rotate(180)"/><rect class="cls-74" x="76.32" y="484.53" width="75.71" height="5.96" transform="translate(228.34 975.02) rotate(180)"/><rect class="cls-75" x="68.42" y="489.17" width="90.88" height="5.96" transform="translate(227.73 984.29) rotate(180)"/><rect class="cls-76" x="63.21" y="493.53" width="101" height="16.08" transform="translate(227.43 1003.15) rotate(180)"/><circle class="cls-77" cx="147.73" cy="516.24" r="20.29" transform="translate(-186.31 95.83) rotate(-22.5)"/><circle class="cls-78" cx="147.73" cy="516.24" r="16.48" transform="translate(-281.09 193.07) rotate(-37.03)"/><path class="cls-8" d="M133.89,522.63a.7.7,0,0,1-.65-.43,15.3,15.3,0,0,1,21.57-19.31.71.71,0,1,1-.7,1.23,13.89,13.89,0,0,0-20.66,12.12,13.74,13.74,0,0,0,1.1,5.41.72.72,0,0,1-.38.93A.92.92,0,0,1,133.89,522.63Z"/><path class="cls-79" d="M140.33,516.24a7.56,7.56,0,1,0,7.56-7.56A7.56,7.56,0,0,0,140.33,516.24Z"/><circle class="cls-80" cx="79.72" cy="516.51" r="20.29" transform="translate(-184.16 65.4) rotate(-21.55)"/><circle class="cls-81" cx="79.72" cy="516.51" r="16.48" transform="translate(-341.88 207.65) rotate(-45)"/><path class="cls-8" d="M65.87,522.9a.71.71,0,0,1-.65-.44,15.31,15.31,0,0,1,14.1-21.25,15.35,15.35,0,0,1,7.47,1.94.71.71,0,1,1-.7,1.24,13.87,13.87,0,0,0-20.65,12.12,13.68,13.68,0,0,0,1.09,5.4.71.71,0,0,1-.38.93A.67.67,0,0,1,65.87,522.9Z"/><path class="cls-82" d="M72.32,516.51A7.56,7.56,0,1,0,79.87,509,7.55,7.55,0,0,0,72.32,516.51Z"/><rect class="cls-4" x="84.53" y="228.18" width="62.34" height="2.32" rx="0.36" ry="0.36" transform="translate(231.41 458.69) rotate(180)"/><rect class="cls-4" x="85.54" y="254.98" width="59.94" height="2.32" transform="translate(231.02 512.27) rotate(180)"/><rect class="cls-4" x="143.16" y="228.18" width="2.32" height="28.69" transform="translate(288.64 485.06) rotate(180)"/><rect class="cls-4" x="138.16" y="228.18" width="1.16" height="28.69" transform="translate(277.48 485.06) rotate(180)"/><rect class="cls-4" x="132.39" y="228.18" width="1.16" height="28.69" transform="translate(265.95 485.06) rotate(180)"/><rect class="cls-4" x="126.63" y="228.18" width="1.16" height="28.69" transform="translate(254.42 485.06) rotate(180)"/><rect class="cls-4" x="120.86" y="228.18" width="1.16" height="28.69" transform="translate(242.89 485.06) rotate(180)"/><rect class="cls-4" x="114.7" y="228.18" width="1.16" height="28.69" transform="translate(230.57 485.06) rotate(180)"/><rect class="cls-4" x="108.94" y="228.18" width="1.16" height="28.69" transform="translate(219.04 485.06) rotate(180)"/><rect class="cls-4" x="102.45" y="228.18" width="1.16" height="28.69" transform="translate(206.06 485.06) rotate(180)"/><rect class="cls-4" x="96.68" y="228.18" width="1.16" height="28.69" transform="translate(194.52 485.06) rotate(180)"/><rect class="cls-4" x="90.97" y="228.18" width="1.16" height="28.69" transform="translate(183.09 485.06) rotate(180)"/><rect class="cls-4" x="85.54" y="228.18" width="2.32" height="28.69" transform="translate(173.41 485.06) rotate(180)"/><rect class="cls-83" x="117.12" y="47.5" width="1.52" height="34.7" transform="translate(237.67 3.58) rotate(124.09)"/><rect class="cls-84" x="116.03" y="33.98" width="1.52" height="24.12" transform="translate(220.38 -24.88) rotate(124.09)"/><rect class="cls-85" x="114.87" y="26.36" width="1.52" height="14.15" transform="translate(208.13 -43.58) rotate(124.09)"/><rect class="cls-86" x="111.17" y="44.6" width="1.52" height="36.25" transform="translate(87.91 -63.31) rotate(49.95)"/><rect class="cls-87" x="110.74" y="33.18" width="1.52" height="27.23" transform="translate(65.75 -65.14) rotate(45)"/><rect class="cls-88" x="112.99" y="21.62" width="1.42" height="10.42" transform="translate(52.28 -72.54) rotate(45)"/><polygon class="cls-89" points="134.29 74.52 114.66 11.86 95.04 75.21 99.03 75.21 114.66 20.8 131.07 74.29 134.29 74.52"/><circle class="cls-4" cx="114.15" cy="14.67" r="4.56"/><path class="cls-4" d="M114.76,111.15h68.53V99.34a35.82,35.82,0,0,0-35.82-35.82h-20a12.75,12.75,0,0,0-12.75,12.75Z"/><path class="cls-7" d="M143.81,110.63l-.45-39a4.77,4.77,0,0,0-5-4.72l-15,.56a4,4,0,0,0-3.81,4v39.17Z"/><path class="cls-4" d="M122.89,95.29h16.48V74.49a2.66,2.66,0,0,0-2.5-2.66l-9-.53c-2.74-.16-5,2.65-5,6.18Z"/><path class="cls-7" d="M183.29,96.3H162.15a3.2,3.2,0,0,1-3.2-3.12l-.68-29.41C168.91,65.11,184.51,73.86,183.29,96.3Z"/><rect class="cls-7" x="87.73" y="257.3" width="55.29" height="10.42"/><rect class="cls-90" x="212.37" y="99.22" width="1.64" height="57.49"/><rect class="cls-91" x="193.79" y="126.86" width="58.07" height="1.64" transform="translate(94.27 350) rotate(-89.77)"/><path class="cls-92" d="M213,166,211,155a3.73,3.73,0,0,1,3.67-4.4h5A4.35,4.35,0,0,1,224,155.3l-.88,11.26A5.21,5.21,0,0,1,221,170.3c-1.81,1.38-4.37,4.24-4.93,9.61a9.06,9.06,0,0,0,4.69,9.26,9.91,9.91,0,0,0,6.55,1.25c1.2-.3,5.44-1.9,5.73-3.11,4.26-9.73,9.14-.51,2.54,5.1a17.72,17.72,0,0,1-8.29,3.82c-14.22,2.3-28-12.86-15.86-25.12A5.79,5.79,0,0,0,213,166Z"/><circle class="cls-93" cx="217.85" cy="152.21" r="5.86" transform="translate(-6.14 295.23) rotate(-67.5)"/><path class="cls-7" d="M221.33,152.21a3.48,3.48,0,1,1-3.48-3.48A3.48,3.48,0,0,1,221.33,152.21Z"/><circle class="cls-94" cx="218.15" cy="98.14" r="6.32" transform="translate(-5.5 183) rotate(-45)"/><circle class="cls-7" cx="218.15" cy="98.14" r="3.75" transform="translate(-5.5 183) rotate(-45)"/><polygon class="cls-95" points="237.36 128.7 302.57 100.71 367.77 128.7 367.78 197.17 237.36 197.17 237.36 128.7"/><rect class="cls-9" x="267.53" y="145.78" width="70.16" height="46.5"/><rect class="cls-9" x="269.65" y="147.84" width="65.92" height="43.04"/><polygon class="cls-95" points="231.24 127.99 301.41 97.71 302.57 97.21 303.73 97.71 374.23 127.99 364.61 127.99 302.57 101.36 240.52 127.99 231.24 127.99"/><rect class="cls-96" x="340.43" y="145.78" width="23.33" height="45.74"/><rect class="cls-97" x="341.37" y="146.89" width="6.53" height="7.81"/><rect class="cls-97" x="341.37" y="155.82" width="6.53" height="7.81"/><rect class="cls-97" x="341.37" y="164.74" width="6.53" height="7.81"/><rect class="cls-97" x="341.37" y="173.67" width="6.53" height="7.81"/><rect class="cls-97" x="341.37" y="182.59" width="6.53" height="7.81"/><rect class="cls-97" x="348.83" y="146.89" width="6.53" height="7.81"/><rect class="cls-97" x="348.83" y="155.82" width="6.53" height="7.81"/><rect class="cls-97" x="348.83" y="164.74" width="6.53" height="7.81"/><rect class="cls-97" x="348.83" y="173.67" width="6.53" height="7.81"/><rect class="cls-97" x="348.83" y="182.59" width="6.53" height="7.81"/><rect class="cls-97" x="356.3" y="146.89" width="6.53" height="7.81"/><rect class="cls-97" x="356.3" y="155.82" width="6.53" height="7.81"/><rect class="cls-97" x="356.3" y="164.74" width="6.53" height="7.81"/><rect class="cls-97" x="356.3" y="173.67" width="6.53" height="7.81"/><rect class="cls-97" x="356.3" y="182.59" width="6.53" height="7.81"/><rect class="cls-96" x="241.17" y="145.78" width="23.33" height="45.74"/><rect class="cls-97" x="242.11" y="146.89" width="6.53" height="7.81"/><rect class="cls-97" x="242.11" y="155.82" width="6.53" height="7.81"/><rect class="cls-97" x="242.11" y="164.74" width="6.53" height="7.81"/><rect class="cls-97" x="242.11" y="173.67" width="6.53" height="7.81"/><rect class="cls-97" x="242.11" y="182.59" width="6.53" height="7.81"/><rect class="cls-97" x="249.57" y="146.89" width="6.53" height="7.81"/><rect class="cls-97" x="249.57" y="155.82" width="6.53" height="7.81"/><rect class="cls-97" x="249.57" y="164.74" width="6.53" height="7.81"/><rect class="cls-97" x="249.57" y="173.67" width="6.53" height="7.81"/><rect class="cls-97" x="249.57" y="182.59" width="6.53" height="7.81"/><rect class="cls-97" x="257.04" y="146.89" width="6.53" height="7.81"/><rect class="cls-97" x="257.04" y="155.82" width="6.53" height="7.81"/><rect class="cls-97" x="257.04" y="164.74" width="6.53" height="7.81"/><rect class="cls-97" x="257.04" y="173.67" width="6.53" height="7.81"/><rect class="cls-97" x="257.04" y="182.59" width="6.53" height="7.81"/><rect class="cls-9" x="269.65" y="147.89" width="65.92" height="10.59"/><rect class="cls-9" x="266.27" y="143.04" width="72.67" height="4.79"/><rect class="cls-9" x="260.73" y="123.15" width="83.67" height="15.7"/><path class="cls-95" d="M264.4,125.52a7.71,7.71,0,0,1,1.25-.09h.56a3.47,3.47,0,0,1,.55.08l1.57,8.25,1.89-8.25c.21,0,.4-.06.57-.07a4.61,4.61,0,0,1,.53,0,5.87,5.87,0,0,1,1,.09l2,8.46,1.57-8.46a5.25,5.25,0,0,1,1-.09,5.68,5.68,0,0,1,.59,0l.57.06-2.64,11a7.15,7.15,0,0,1-1.15.09,9.81,9.81,0,0,1-1.26-.09l-1.75-7.3-1.9,7.3-.64.06a6,6,0,0,1-.62,0,6.22,6.22,0,0,1-1-.09l-2.61-11Zm18.5,7.35-.4-.05-.38,0a2.22,2.22,0,0,0-1.18.27.93.93,0,0,0-.44.86.9.9,0,0,0,.58.92,1.6,1.6,0,0,0,.5.13l.46,0a2.32,2.32,0,0,0,.46,0l.4-.07v-2Zm0-1.57a1.31,1.31,0,0,0-.12-.6,1.07,1.07,0,0,0-.34-.36,1.5,1.5,0,0,0-.53-.17,4.75,4.75,0,0,0-.69,0,5.46,5.46,0,0,0-1.75.32,3.52,3.52,0,0,1-.32-.74,3,3,0,0,1-.11-.84,7.83,7.83,0,0,1,2.59-.44,3.68,3.68,0,0,1,2.48.76,3,3,0,0,1,.89,2.44v4.57a10.55,10.55,0,0,1-1.29.32,8.28,8.28,0,0,1-1.73.16,6.9,6.9,0,0,1-1.42-.14,3.07,3.07,0,0,1-1.12-.46,2.08,2.08,0,0,1-.71-.82,2.74,2.74,0,0,1-.26-1.24,2.21,2.21,0,0,1,.32-1.22,2.38,2.38,0,0,1,.81-.8,3.66,3.66,0,0,1,1.1-.43,6.38,6.38,0,0,1,1.22-.12c.3,0,.62,0,1,0v-.18Zm4-2.7.44-.07a3.24,3.24,0,0,1,.45,0l.45,0,.43.07a1.65,1.65,0,0,1,.09.22c0,.1.05.2.07.31s0,.21,0,.32,0,.2,0,.27a3.88,3.88,0,0,1,.82-.85,2,2,0,0,1,1.22-.37h.35a1.29,1.29,0,0,1,.29,0,2.94,2.94,0,0,1,.05.35c0,.13,0,.27,0,.41s0,.36,0,.56a4.78,4.78,0,0,1-.08.58,2.25,2.25,0,0,0-.38,0H291a3.17,3.17,0,0,0-.58.06,1.3,1.3,0,0,0-.61.28,1.69,1.69,0,0,0-.48.69,3.35,3.35,0,0,0-.19,1.28v3.75a5.14,5.14,0,0,1-.55.06h-1.06l-.56-.06v-7.9Zm7.63,4.6a1.65,1.65,0,0,0,.64,1.33,2.54,2.54,0,0,0,1.53.41,5.66,5.66,0,0,0,1.06-.1,5.46,5.46,0,0,0,1-.28,3.27,3.27,0,0,1,.29.73,3.41,3.41,0,0,1,.14.92,7.53,7.53,0,0,1-2.68.46,5.34,5.34,0,0,1-1.89-.31,3.23,3.23,0,0,1-1.28-.85,3.45,3.45,0,0,1-.73-1.28,5.37,5.37,0,0,1-.24-1.64,5.45,5.45,0,0,1,.25-1.63,3.67,3.67,0,0,1,.72-1.32,3.44,3.44,0,0,1,1.19-.9,3.94,3.94,0,0,1,1.66-.32,3.4,3.4,0,0,1,1.46.29,3.09,3.09,0,0,1,1.09.79,3.21,3.21,0,0,1,.68,1.2,4.73,4.73,0,0,1,.23,1.48c0,.2,0,.39,0,.57s0,.34-.06.45Zm3.1-1.51a1.93,1.93,0,0,0-.41-1.18,1.28,1.28,0,0,0-1-.45,1.52,1.52,0,0,0-1.16.43,2,2,0,0,0-.47,1.2Zm3.72-6.35a3.07,3.07,0,0,1,.53-.07H303a3.6,3.6,0,0,1,.55.07v4.19c.07-.09.16-.2.28-.33a2.67,2.67,0,0,1,.43-.37,3.07,3.07,0,0,1,.63-.29,2.66,2.66,0,0,1,.84-.12,2.58,2.58,0,0,1,2,.73,3.31,3.31,0,0,1,.68,2.3v5.05l-.55.06h-1.07a5.14,5.14,0,0,1-.55-.06V132a2.59,2.59,0,0,0-.26-1.27,1,1,0,0,0-.88-.44,2.08,2.08,0,0,0-.54.08,1.11,1.11,0,0,0-.49.3,1.63,1.63,0,0,0-.37.61,3.31,3.31,0,0,0-.14,1v4.15l-.55.06h-1.06a5,5,0,0,1-.54-.06V125.34Zm12.3,11.33a4.11,4.11,0,0,1-1.67-.32,3.08,3.08,0,0,1-1.17-.86,3.93,3.93,0,0,1-.7-1.31,5.29,5.29,0,0,1-.24-1.62,5.4,5.4,0,0,1,.24-1.63,3.79,3.79,0,0,1,.7-1.32,3.21,3.21,0,0,1,1.17-.87,4.54,4.54,0,0,1,3.35,0,3.2,3.2,0,0,1,1.19.87,3.49,3.49,0,0,1,.7,1.32,5.4,5.4,0,0,1,.23,1.63,5.29,5.29,0,0,1-.23,1.62,3.6,3.6,0,0,1-.7,1.31,3.07,3.07,0,0,1-1.19.86,4.13,4.13,0,0,1-1.68.32Zm0-1.65a1.32,1.32,0,0,0,1.23-.63,3.64,3.64,0,0,0,.38-1.83,3.6,3.6,0,0,0-.38-1.82,1.5,1.5,0,0,0-2.44,0,3.61,3.61,0,0,0-.37,1.82,3.65,3.65,0,0,0,.37,1.83,1.31,1.31,0,0,0,1.21.63ZM319,128.6a6.59,6.59,0,0,1,2.17,0v4.18a4.27,4.27,0,0,0,.1,1,1.53,1.53,0,0,0,.3.64,1.08,1.08,0,0,0,.51.33,2.28,2.28,0,0,0,.72.1,3.69,3.69,0,0,0,1-.1V128.6a6.5,6.5,0,0,1,1.06-.09,6.77,6.77,0,0,1,1.09.09v7.58a11.79,11.79,0,0,1-1.29.33,9.09,9.09,0,0,1-1.67.16,8.13,8.13,0,0,1-1.5-.13,3,3,0,0,1-1.25-.51,2.7,2.7,0,0,1-.87-1.16,5.43,5.43,0,0,1-.32-2V128.6Zm10.39,4.45a3,3,0,0,1-1.34-.72,2,2,0,0,1-.48-1.44,2.18,2.18,0,0,1,.84-1.82,3.51,3.51,0,0,1,2.26-.65,6.45,6.45,0,0,1,1.17.1,7.68,7.68,0,0,1,1.18.32,4.28,4.28,0,0,1-.15.83,3.94,3.94,0,0,1-.29.74,5.92,5.92,0,0,0-.81-.26,3.59,3.59,0,0,0-.93-.12,1.76,1.76,0,0,0-.81.16.55.55,0,0,0-.29.51.53.53,0,0,0,.21.48,2.71,2.71,0,0,0,.58.26l.87.25a4.58,4.58,0,0,1,.77.3,2,2,0,0,1,.59.44,1.76,1.76,0,0,1,.38.64,2.76,2.76,0,0,1,.14.93,2.38,2.38,0,0,1-.24,1.05,2.42,2.42,0,0,1-.68.85,3.5,3.5,0,0,1-1.09.56,4.66,4.66,0,0,1-1.45.21c-.25,0-.47,0-.67,0a5.3,5.3,0,0,1-.59-.07l-.56-.13c-.18-.05-.38-.12-.59-.2a4.8,4.8,0,0,1,.14-.83,6.21,6.21,0,0,1,.3-.82,6.87,6.87,0,0,0,.95.3,4.11,4.11,0,0,0,.94.1,2.71,2.71,0,0,0,.47,0,1.76,1.76,0,0,0,.46-.14,1,1,0,0,0,.36-.26.55.55,0,0,0,.14-.41.6.6,0,0,0-.22-.53,1.9,1.9,0,0,0-.62-.28l-.94-.28Zm7.21.15a1.68,1.68,0,0,0,.64,1.33,2.56,2.56,0,0,0,1.53.41,5.58,5.58,0,0,0,1.06-.1,5.79,5.79,0,0,0,1-.28,3.79,3.79,0,0,1,.43,1.65,7.59,7.59,0,0,1-2.69.46,5.25,5.25,0,0,1-1.88-.31,3.16,3.16,0,0,1-1.28-.85,3.47,3.47,0,0,1-.74-1.28,5.7,5.7,0,0,1-.23-1.64,5.45,5.45,0,0,1,.24-1.63,3.69,3.69,0,0,1,.73-1.32,3.35,3.35,0,0,1,1.19-.9,3.86,3.86,0,0,1,1.65-.32,3.37,3.37,0,0,1,1.46.29,3.13,3.13,0,0,1,1.1.79,3.2,3.2,0,0,1,.67,1.2,4.46,4.46,0,0,1,.23,1.48,5.24,5.24,0,0,1,0,.57c0,.19,0,.34-.05.45Zm3.1-1.51a1.93,1.93,0,0,0-.41-1.18,1.26,1.26,0,0,0-1-.45,1.53,1.53,0,0,0-1.16.43,2,2,0,0,0-.47,1.2Z"/><rect class="cls-98" x="14.42" y="425.32" width="415.24" height="126.72"/><rect class="cls-99" x="78.73" y="425.32" width="286.63" height="126.72"/><rect class="cls-100" x="8.52" y="414.88" width="427.05" height="10.44"/><polygon class="cls-101" points="86.89 410.51 221.69 352.65 356.49 410.51 356.49 552.05 86.89 552.05 86.89 410.51"/><polygon class="cls-102" points="86.89 410.97 218.95 353.98 221.34 352.95 223.74 353.98 356.49 410.99 356.49 416.58 349.61 416.58 221.34 361.53 93.08 416.58 86.89 416.58 86.89 410.97"/><rect class="cls-103" x="149.26" y="447.28" width="145.03" height="96.12"/><rect class="cls-104" x="153.65" y="450.19" width="136.26" height="90.31"/><polygon class="cls-105" points="74.25 410.51 219.3 347.9 221.69 346.88 224.09 347.9 369.84 410.51 349.96 410.51 221.69 355.45 93.43 410.51 74.25 410.51"/><polygon class="cls-106" points="153.65 450.25 243.89 540.5 289.91 540.5 289.91 450.19 153.65 450.19 153.65 450.25"/><rect class="cls-99" x="299.97" y="447.28" width="48.23" height="94.55"/><rect class="cls-100" x="301.9" y="449.59" width="13.51" height="16.14"/><rect class="cls-107" x="301.9" y="468.03" width="13.51" height="16.14"/><rect class="cls-100" x="301.9" y="486.48" width="13.51" height="16.14"/><rect class="cls-108" x="301.9" y="504.93" width="13.51" height="16.14"/><rect class="cls-100" x="301.9" y="523.38" width="13.51" height="16.14"/><rect class="cls-100" x="317.33" y="449.59" width="13.51" height="16.14"/><rect class="cls-109" x="317.33" y="468.03" width="13.51" height="16.14"/><rect class="cls-100" x="317.33" y="486.48" width="13.51" height="16.14"/><rect class="cls-109" x="317.33" y="504.93" width="13.51" height="16.14"/><rect class="cls-107" x="317.33" y="523.38" width="13.51" height="16.14"/><rect class="cls-109" x="332.77" y="449.59" width="13.5" height="16.14"/><rect class="cls-100" x="332.77" y="468.03" width="13.5" height="16.14"/><rect class="cls-108" x="332.77" y="486.48" width="13.5" height="16.14"/><rect class="cls-100" x="332.77" y="504.93" width="13.5" height="16.14"/><rect class="cls-100" x="332.77" y="523.38" width="13.5" height="16.14"/><rect class="cls-109" x="153.65" y="450.19" width="136.26" height="21.89"/><path class="cls-110" d="M161.2,460.65h56.36V463H161.2v-2.34Zm56.36,3.06v2.41H161.2v-2.41Zm0,3.13v2.34H161.2v-2.34Zm8.43-6.19h56.36V463H226v-2.34Zm56.36,3.06v2.41H226v-2.41Zm0,3.13v2.34H226v-2.34Z"/><path class="cls-110" d="M161.2,451.31h56.36v2.34H161.2v-2.34Zm56.36,3.05v2.41H161.2v-2.41Zm0,3.13v2.34H161.2v-2.34Zm8.43-6.18h56.36v2.34H226v-2.34Zm56.36,3.05v2.41H226v-2.41Zm0,3.13v2.34H226v-2.34Z"/><polygon class="cls-111" points="153.65 450.25 175.47 472.07 289.91 472.07 289.91 450.19 153.65 450.19 153.65 450.25"/><rect class="cls-8" x="146.67" y="441.62" width="150.22" height="9.89"/><rect class="cls-99" x="95.01" y="447.28" width="48.23" height="94.55"/><rect class="cls-100" x="96.94" y="449.59" width="13.5" height="16.14"/><rect class="cls-108" x="96.94" y="468.03" width="13.5" height="16.14"/><rect class="cls-100" x="96.94" y="486.48" width="13.5" height="16.14"/><rect class="cls-107" x="96.94" y="504.93" width="13.5" height="16.14"/><rect class="cls-100" x="96.94" y="523.38" width="13.5" height="16.14"/><rect class="cls-109" x="112.38" y="449.59" width="13.51" height="16.14"/><rect class="cls-100" x="112.38" y="468.03" width="13.51" height="16.14"/><rect class="cls-100" x="112.38" y="486.48" width="13.51" height="16.14"/><rect class="cls-109" x="112.38" y="504.93" width="13.51" height="16.14"/><rect class="cls-100" x="112.38" y="523.38" width="13.51" height="16.14"/><rect class="cls-107" x="127.81" y="449.59" width="13.5" height="16.14"/><rect class="cls-109" x="127.81" y="468.03" width="13.5" height="16.14"/><rect class="cls-100" x="127.81" y="486.48" width="13.5" height="16.14"/><rect class="cls-108" x="127.81" y="504.93" width="13.5" height="16.14"/><rect class="cls-107" x="127.81" y="523.38" width="13.5" height="16.14"/><rect class="cls-8" x="135.22" y="400.49" width="172.96" height="32.46"/><path class="cls-112" d="M142.79,406.85a16.7,16.7,0,0,1,2.59-.18l1.15,0a7.39,7.39,0,0,1,1.15.15l3.24,17.06,3.91-17.06,1.17-.14c.36,0,.73,0,1.1,0a12.74,12.74,0,0,1,2.05.18l4.07,17.5,3.25-17.5a11.05,11.05,0,0,1,2-.18,12.41,12.41,0,0,1,1.24.06l1.16.12-5.45,22.67a14,14,0,0,1-2.37.19,19.09,19.09,0,0,1-2.61-.19l-3.63-15.1-3.91,15.1-1.34.13a12.45,12.45,0,0,1-3.39-.13l-5.39-22.67ZM181,422.05c-.25,0-.52-.08-.82-.11a7.78,7.78,0,0,0-.78-.05,4.65,4.65,0,0,0-2.45.56,1.92,1.92,0,0,0-.9,1.78,1.86,1.86,0,0,0,1.19,1.9,3.24,3.24,0,0,0,1,.26c.36,0,.69,0,1,0a6,6,0,0,0,.94-.07l.82-.15v-4.16Zm0-3.25a2.54,2.54,0,0,0-.25-1.22,1.92,1.92,0,0,0-.69-.75,2.86,2.86,0,0,0-1.09-.36,10.43,10.43,0,0,0-1.43-.09,11.18,11.18,0,0,0-3.63.66,8.26,8.26,0,0,1-.66-1.55,5.87,5.87,0,0,1-.22-1.73,16.5,16.5,0,0,1,2.77-.69,16.26,16.26,0,0,1,2.59-.22,7.65,7.65,0,0,1,5.12,1.57q1.85,1.57,1.84,5.05v9.45a23.16,23.16,0,0,1-2.68.67,18.22,18.22,0,0,1-3.56.31,14.28,14.28,0,0,1-2.95-.28,6.37,6.37,0,0,1-2.3-.95,4.49,4.49,0,0,1-1.48-1.7,5.6,5.6,0,0,1-.52-2.55,4.67,4.67,0,0,1,.65-2.54,4.94,4.94,0,0,1,1.67-1.64,7.36,7.36,0,0,1,2.28-.88,12,12,0,0,1,2.53-.27c.6,0,1.28,0,2,.09v-.38Zm8.33-5.58c.31-.06.61-.11.89-.14a9.11,9.11,0,0,1,.93,0,7,7,0,0,1,.93.06,8.44,8.44,0,0,1,.9.16,1.66,1.66,0,0,1,.18.45c.05.2.1.41.14.63s.08.45.11.67.06.4.08.55a8,8,0,0,1,1.7-1.75,4,4,0,0,1,2.52-.77,6.45,6.45,0,0,1,.73,0,3,3,0,0,1,.6.09,6.32,6.32,0,0,1,.09.73c0,.27,0,.55,0,.85s0,.74,0,1.16a8.64,8.64,0,0,1-.18,1.2,4.54,4.54,0,0,0-.77-.06h-.52a7.75,7.75,0,0,0-1.2.11,2.77,2.77,0,0,0-1.26.58,3.45,3.45,0,0,0-1,1.42,6.93,6.93,0,0,0-.4,2.65v7.76a10.55,10.55,0,0,1-1.13.12l-1.11,0-1.08,0c-.37,0-.75-.06-1.15-.12V413.22Zm15.76,9.53a3.44,3.44,0,0,0,1.32,2.74,5.32,5.32,0,0,0,3.16.85,11.92,11.92,0,0,0,2.19-.21,12.37,12.37,0,0,0,2.13-.58,7.66,7.66,0,0,1,.6,1.51,8.13,8.13,0,0,1,.28,1.9,15.38,15.38,0,0,1-5.55.94,10.75,10.75,0,0,1-3.89-.63,6.79,6.79,0,0,1-2.65-1.75,7.07,7.07,0,0,1-1.52-2.66,11.36,11.36,0,0,1-.48-3.38,10.9,10.9,0,0,1,.5-3.37,8,8,0,0,1,1.5-2.74,7.13,7.13,0,0,1,2.46-1.85,8.12,8.12,0,0,1,3.42-.67,7.08,7.08,0,0,1,3,.6,6.52,6.52,0,0,1,2.26,1.63,6.87,6.87,0,0,1,1.4,2.48,9.63,9.63,0,0,1,.48,3.07c0,.4,0,.8-.05,1.19s-.07.69-.11.93Zm6.4-3.13a4,4,0,0,0-.83-2.44,2.67,2.67,0,0,0-2.17-.93,3.13,3.13,0,0,0-2.39.88,4.16,4.16,0,0,0-1,2.49Zm7.69-13.14a8,8,0,0,1,1.11-.13l1.1,0,1.1,0a8.84,8.84,0,0,1,1.14.13v8.67c.15-.19.34-.42.58-.68a5,5,0,0,1,.9-.76,5.35,5.35,0,0,1,3-.86,5.32,5.32,0,0,1,4.11,1.51c.94,1,1.4,2.59,1.4,4.76v10.44a10.55,10.55,0,0,1-1.13.12l-1.1,0-1.11,0a10.83,10.83,0,0,1-1.13-.12v-9.24a5.2,5.2,0,0,0-.54-2.62,2,2,0,0,0-1.83-.91,3.9,3.9,0,0,0-1.1.16,2.25,2.25,0,0,0-1,.61,3.47,3.47,0,0,0-.75,1.28,6.32,6.32,0,0,0-.3,2.14v8.58a11,11,0,0,1-1.14.12l-1.1,0-1.09,0a10.93,10.93,0,0,1-1.12-.12V406.48Zm25.44,23.42a8.53,8.53,0,0,1-3.45-.64,6.65,6.65,0,0,1-2.42-1.8,7.8,7.8,0,0,1-1.45-2.7,10.87,10.87,0,0,1-.49-3.34,11.16,11.16,0,0,1,.49-3.37,7.77,7.77,0,0,1,1.45-2.73,6.68,6.68,0,0,1,2.42-1.81,9.4,9.4,0,0,1,6.92,0,6.74,6.74,0,0,1,2.46,1.81,7.46,7.46,0,0,1,1.45,2.73,11.49,11.49,0,0,1,.48,3.37,11.19,11.19,0,0,1-.48,3.34,7.49,7.49,0,0,1-1.45,2.7,6.72,6.72,0,0,1-2.46,1.8,8.6,8.6,0,0,1-3.47.64Zm0-3.4a2.72,2.72,0,0,0,2.54-1.31,9.5,9.5,0,0,0,0-7.54,2.71,2.71,0,0,0-2.54-1.3,2.68,2.68,0,0,0-2.5,1.3,9.61,9.61,0,0,0,0,7.54,2.68,2.68,0,0,0,2.5,1.31Zm11.1-13.28a14,14,0,0,1,4.48,0v8.64a9,9,0,0,0,.21,2.13,2.91,2.91,0,0,0,.63,1.32,2.3,2.3,0,0,0,1.05.7,4.73,4.73,0,0,0,1.48.2,7.3,7.3,0,0,0,2-.22V413.22a14,14,0,0,1,2.21-.18,14.16,14.16,0,0,1,2.23.18v15.67a21.37,21.37,0,0,1-2.66.68,17.56,17.56,0,0,1-3.45.33,18.16,18.16,0,0,1-3.09-.25,6.1,6.1,0,0,1-2.6-1.07,5.53,5.53,0,0,1-1.78-2.4,10.83,10.83,0,0,1-.67-4.19v-8.77Zm21.47,9.21a6.29,6.29,0,0,1-2.76-1.5,4,4,0,0,1-1-3,4.5,4.5,0,0,1,1.72-3.75,7.4,7.4,0,0,1,4.68-1.35,13.15,13.15,0,0,1,2.43.22,14.19,14.19,0,0,1,2.43.66,9.19,9.19,0,0,1-.32,1.7,8.65,8.65,0,0,1-.6,1.55,11.28,11.28,0,0,0-1.67-.55,7.54,7.54,0,0,0-1.92-.24,3.48,3.48,0,0,0-1.67.33,1.12,1.12,0,0,0-.6,1.06,1.08,1.08,0,0,0,.42,1,5.09,5.09,0,0,0,1.22.54l1.8.53a9.57,9.57,0,0,1,1.59.62,4.39,4.39,0,0,1,1.21.9,3.78,3.78,0,0,1,.79,1.32,5.74,5.74,0,0,1,.28,1.93,4.86,4.86,0,0,1-.49,2.17,4.92,4.92,0,0,1-1.41,1.75,7.31,7.31,0,0,1-2.26,1.17,9.86,9.86,0,0,1-3,.42c-.51,0-1,0-1.39,0s-.83-.09-1.22-.16-.77-.16-1.15-.27-.78-.24-1.22-.41a9.51,9.51,0,0,1,.29-1.72,11.41,11.41,0,0,1,.62-1.69,12.64,12.64,0,0,0,2,.62,8.81,8.81,0,0,0,1.94.2,6.78,6.78,0,0,0,1-.07,3.58,3.58,0,0,0,1-.29,2.26,2.26,0,0,0,.74-.53,1.48,1.48,0,0,0-.15-2,4.67,4.67,0,0,0-1.28-.58l-2-.57Zm14.92.32a3.41,3.41,0,0,0,1.32,2.74,5.31,5.31,0,0,0,3.15.85,11.76,11.76,0,0,0,2.19-.21,11.9,11.9,0,0,0,2.13-.58,7.66,7.66,0,0,1,.6,1.51,8.13,8.13,0,0,1,.29,1.9,15.38,15.38,0,0,1-5.55.94,10.81,10.81,0,0,1-3.9-.63,6.94,6.94,0,0,1-2.65-1.75,7,7,0,0,1-1.51-2.66,11.36,11.36,0,0,1-.49-3.38,10.91,10.91,0,0,1,.51-3.37,7.82,7.82,0,0,1,1.49-2.74,7.32,7.32,0,0,1,2.46-1.85,8.12,8.12,0,0,1,3.42-.67,7.1,7.1,0,0,1,3,.6,6.62,6.62,0,0,1,2.26,1.63,7.18,7.18,0,0,1,1.4,2.48,9.92,9.92,0,0,1,.47,3.07,11.72,11.72,0,0,1-.05,1.19,8,8,0,0,1-.11.93Zm6.4-3.13a3.94,3.94,0,0,0-.84-2.44,2.64,2.64,0,0,0-2.16-.93,3.16,3.16,0,0,0-2.4.88,4.16,4.16,0,0,0-1,2.49Z"/><path class="cls-113" d="M141.71,405.47a15.37,15.37,0,0,1,2.58-.2c.38,0,.77,0,1.15,0a6.48,6.48,0,0,1,1.16.16l3.24,17,3.91-17q.63-.11,1.17-.15c.36,0,.72-.05,1.1-.05a11.82,11.82,0,0,1,2,.2L162.14,423l3.25-17.49a10.23,10.23,0,0,1,2-.2c.42,0,.83,0,1.23.07l1.17.13-5.45,22.66a14,14,0,0,1-2.37.19,19.34,19.34,0,0,1-2.62-.19L155.74,413l-3.91,15.1-1.34.13a12.65,12.65,0,0,1-1.28.06,12.51,12.51,0,0,1-2.11-.19l-5.39-22.66ZM180,420.66c-.25,0-.52-.08-.82-.11a7.79,7.79,0,0,0-.79-.05,4.71,4.71,0,0,0-2.44.55,1.94,1.94,0,0,0-.9,1.78,1.87,1.87,0,0,0,1.18,1.91,3.69,3.69,0,0,0,1,.26c.37,0,.69,0,1,0a5,5,0,0,0,.94-.08l.82-.14v-4.16Zm0-3.25a2.61,2.61,0,0,0-.25-1.23,2,2,0,0,0-.69-.74,2.86,2.86,0,0,0-1.09-.36,10.48,10.48,0,0,0-1.44-.09,11.17,11.17,0,0,0-3.62.66,7.65,7.65,0,0,1-.66-1.55,5.85,5.85,0,0,1-.23-1.73,15.69,15.69,0,0,1,2.78-.69,16.22,16.22,0,0,1,2.58-.23,7.66,7.66,0,0,1,5.13,1.58q1.84,1.58,1.84,5.05v9.45c-.73.23-1.63.45-2.68.67a18.29,18.29,0,0,1-3.56.31,14.21,14.21,0,0,1-2.95-.28,6.37,6.37,0,0,1-2.3-1,4.41,4.41,0,0,1-1.48-1.7,5.63,5.63,0,0,1-.52-2.55,4.67,4.67,0,0,1,.64-2.54,4.88,4.88,0,0,1,1.68-1.64,7.38,7.38,0,0,1,2.28-.89,12.68,12.68,0,0,1,2.52-.26c.61,0,1.29,0,2,.09v-.38Zm8.33-5.58c.31-.06.61-.11.89-.14a9,9,0,0,1,.93-.05,5.65,5.65,0,0,1,.93.07,8.44,8.44,0,0,1,.9.16,2.07,2.07,0,0,1,.18.45c0,.2.1.41.14.63s.08.44.11.66.06.41.08.56a7.82,7.82,0,0,1,1.7-1.75,4,4,0,0,1,2.52-.78,6.79,6.79,0,0,1,.73,0,2.72,2.72,0,0,1,.59.09,4.63,4.63,0,0,1,.1.72c0,.28,0,.56,0,.86s0,.74-.05,1.16a8.89,8.89,0,0,1-.17,1.2,4.54,4.54,0,0,0-.77-.06h-.52a6.68,6.68,0,0,0-1.2.11,2.77,2.77,0,0,0-1.26.58,3.45,3.45,0,0,0-1,1.42,6.93,6.93,0,0,0-.4,2.65v7.75a8.89,8.89,0,0,1-1.13.13l-1.11,0-1.08,0a9.42,9.42,0,0,1-1.15-.13V411.83ZM204,421.35a3.43,3.43,0,0,0,1.32,2.75,5.38,5.38,0,0,0,3.15.85,12.84,12.84,0,0,0,4.32-.79,6.88,6.88,0,0,1,.6,1.51,7.62,7.62,0,0,1,.29,1.89,15.17,15.17,0,0,1-5.55.95,10.81,10.81,0,0,1-3.9-.63,6.83,6.83,0,0,1-2.64-1.75,7,7,0,0,1-1.52-2.66,11.36,11.36,0,0,1-.48-3.38,10.9,10.9,0,0,1,.5-3.37,7.6,7.6,0,0,1,1.5-2.74,7.06,7.06,0,0,1,2.45-1.85,8.14,8.14,0,0,1,3.43-.68,7.24,7.24,0,0,1,3,.6,6.68,6.68,0,0,1,2.26,1.64,6.87,6.87,0,0,1,1.4,2.48,9.59,9.59,0,0,1,.47,3.07c0,.4,0,.8,0,1.18s-.07.7-.11.93Zm6.4-3.12a3.92,3.92,0,0,0-.84-2.44,2.64,2.64,0,0,0-2.16-.93,3.08,3.08,0,0,0-2.39.88,4.1,4.1,0,0,0-1,2.49Zm7.69-13.14a8,8,0,0,1,1.11-.13l1.1,0,1.1,0a8.84,8.84,0,0,1,1.14.13v8.67a8.61,8.61,0,0,1,.58-.68,4.62,4.62,0,0,1,.9-.76,5.15,5.15,0,0,1,1.29-.61A6.21,6.21,0,0,1,231.2,413c.94,1,1.4,2.59,1.4,4.76v10.43a8.69,8.69,0,0,1-1.13.13l-1.11,0-1.1,0a8.5,8.5,0,0,1-1.13-.13v-9.23a5.2,5.2,0,0,0-.54-2.62,2,2,0,0,0-1.83-.91,4.28,4.28,0,0,0-1.1.15,2.36,2.36,0,0,0-1,.62,3.5,3.5,0,0,0-.75,1.27,6.42,6.42,0,0,0-.3,2.15v8.57a8.84,8.84,0,0,1-1.14.13l-1.1,0-1.09,0a8.74,8.74,0,0,1-1.12-.13V405.09Zm25.44,23.42a8.36,8.36,0,0,1-3.45-.65,6.47,6.47,0,0,1-2.43-1.79,8,8,0,0,1-1.45-2.7,11.19,11.19,0,0,1-.49-3.34,11.49,11.49,0,0,1,.49-3.37,7.93,7.93,0,0,1,1.45-2.73,6.63,6.63,0,0,1,2.43-1.81,8.36,8.36,0,0,1,3.45-.67,8.46,8.46,0,0,1,3.47.67,6.74,6.74,0,0,1,2.46,1.81,7.46,7.46,0,0,1,1.45,2.73,11.49,11.49,0,0,1,.47,3.37,11.19,11.19,0,0,1-.47,3.34,7.49,7.49,0,0,1-1.45,2.7,6.58,6.58,0,0,1-2.46,1.79,8.46,8.46,0,0,1-3.47.65Zm0-3.4a2.72,2.72,0,0,0,2.54-1.31,9.61,9.61,0,0,0,0-7.54,2.72,2.72,0,0,0-2.54-1.31,2.68,2.68,0,0,0-2.5,1.31,9.61,9.61,0,0,0,0,7.54,2.68,2.68,0,0,0,2.5,1.31Zm11.1-13.28a13.3,13.3,0,0,1,4.48,0v8.64a9.62,9.62,0,0,0,.2,2.13,3.13,3.13,0,0,0,.63,1.32,2.38,2.38,0,0,0,1.06.7,5,5,0,0,0,1.48.2,7.3,7.3,0,0,0,2-.22V411.83a14,14,0,0,1,2.2-.19,14.21,14.21,0,0,1,2.24.19V427.5a21.37,21.37,0,0,1-2.66.68,17.71,17.71,0,0,1-3.45.33,18.07,18.07,0,0,1-3.09-.25,6.2,6.2,0,0,1-2.61-1.07,5.61,5.61,0,0,1-1.78-2.4,11,11,0,0,1-.66-4.19v-8.77ZM276.14,421a6.28,6.28,0,0,1-2.76-1.5,4,4,0,0,1-1-3,4.5,4.5,0,0,1,1.72-3.75,7.36,7.36,0,0,1,4.68-1.36,13.16,13.16,0,0,1,2.43.23,14.19,14.19,0,0,1,2.43.66,9.19,9.19,0,0,1-.32,1.7,8.25,8.25,0,0,1-.6,1.54,12.58,12.58,0,0,0-1.67-.55,8,8,0,0,0-1.92-.23,3.48,3.48,0,0,0-1.67.33,1.11,1.11,0,0,0-.6,1.05,1.09,1.09,0,0,0,.42,1,5.09,5.09,0,0,0,1.22.54l1.79.53a9.35,9.35,0,0,1,1.6.62,4.39,4.39,0,0,1,1.21.9,3.6,3.6,0,0,1,.79,1.32,5.72,5.72,0,0,1,.28,1.92,4.87,4.87,0,0,1-.49,2.18,5,5,0,0,1-1.42,1.75,7,7,0,0,1-2.25,1.16,9.57,9.57,0,0,1-3,.43c-.5,0-1,0-1.38-.05a11.62,11.62,0,0,1-1.22-.15c-.39-.08-.77-.17-1.15-.27s-.79-.24-1.23-.41a10.51,10.51,0,0,1,.3-1.72,11.41,11.41,0,0,1,.62-1.69,12.64,12.64,0,0,0,2,.62,9.45,9.45,0,0,0,1.94.2,5.64,5.64,0,0,0,1-.08,3.25,3.25,0,0,0,1-.28,2.25,2.25,0,0,0,.74-.54,1.46,1.46,0,0,0-.16-1.95,4.2,4.2,0,0,0-1.27-.58l-2-.57Zm14.91.31a3.47,3.47,0,0,0,1.33,2.75,5.38,5.38,0,0,0,3.15.85,11.76,11.76,0,0,0,2.19-.21,11.9,11.9,0,0,0,2.13-.58,7.42,7.42,0,0,1,.6,1.51,7.63,7.63,0,0,1,.28,1.89,15.17,15.17,0,0,1-5.55.95,10.75,10.75,0,0,1-3.89-.63,6.68,6.68,0,0,1-4.16-4.41,11,11,0,0,1-.49-3.38,11.21,11.21,0,0,1,.5-3.37,7.91,7.91,0,0,1,1.5-2.74,7,7,0,0,1,2.46-1.85,8.12,8.12,0,0,1,3.42-.68,7.25,7.25,0,0,1,3,.6,6.74,6.74,0,0,1,2.25,1.64,7,7,0,0,1,1.41,2.48,9.87,9.87,0,0,1,.47,3.07c0,.4,0,.8-.05,1.18s-.07.7-.11.93Zm6.4-3.12a4,4,0,0,0-.83-2.44,2.67,2.67,0,0,0-2.16-.93,3.12,3.12,0,0,0-2.4.88,4.16,4.16,0,0,0-1,2.49Z"/><rect class="cls-114" x="135.22" y="432.95" width="172.96" height="4.84"/><rect class="cls-115" x="179.18" y="483.24" width="23.19" height="19.68"/><rect class="cls-116" x="179.18" y="483.24" width="23.23" height="4.34"/><rect class="cls-117" x="178.61" y="482.93" width="24.34" height="3.49"/><rect class="cls-115" x="154.38" y="483.24" width="23.19" height="19.68"/><rect class="cls-116" x="154.38" y="483.24" width="23.23" height="4.34"/><rect class="cls-117" x="153.81" y="482.93" width="24.34" height="3.49"/><rect class="cls-115" x="179.18" y="502.21" width="23.19" height="19.67"/><rect class="cls-116" x="179.18" y="502.21" width="23.23" height="4.34"/><rect class="cls-117" x="178.61" y="501.9" width="24.34" height="3.49"/><rect class="cls-115" x="154.38" y="502.21" width="23.19" height="19.67"/><rect class="cls-116" x="154.38" y="502.21" width="23.23" height="4.34"/><rect class="cls-117" x="153.81" y="501.9" width="24.34" height="3.49"/><rect class="cls-115" x="179.18" y="520.81" width="23.19" height="19.68"/><rect class="cls-116" x="179.18" y="520.81" width="23.23" height="4.34"/><rect class="cls-117" x="178.61" y="520.5" width="24.34" height="3.49"/><rect class="cls-115" x="154.38" y="520.81" width="23.19" height="19.68"/><rect class="cls-116" x="154.38" y="520.81" width="23.23" height="4.34"/><rect class="cls-117" x="153.81" y="520.5" width="24.34" height="3.49"/><rect class="cls-99" x="371.85" y="442.02" width="48.23" height="94.55"/><rect class="cls-108" x="373.78" y="444.33" width="13.51" height="16.14"/><rect class="cls-107" x="373.78" y="462.77" width="13.51" height="16.14"/><rect class="cls-118" x="373.78" y="481.22" width="13.51" height="16.14"/><rect class="cls-108" x="373.78" y="499.67" width="13.51" height="16.14"/><rect class="cls-118" x="373.78" y="518.12" width="13.51" height="16.14"/><rect class="cls-118" x="389.21" y="444.33" width="13.51" height="16.14"/><rect class="cls-108" x="389.21" y="462.77" width="13.51" height="16.14"/><rect class="cls-100" x="389.21" y="481.22" width="13.51" height="16.14"/><rect class="cls-108" x="389.21" y="499.67" width="13.51" height="16.14"/><rect class="cls-107" x="389.21" y="518.12" width="13.51" height="16.14"/><rect class="cls-108" x="404.65" y="444.33" width="13.5" height="16.14"/><rect class="cls-100" x="404.65" y="462.77" width="13.5" height="16.14"/><rect class="cls-108" x="404.65" y="481.22" width="13.5" height="16.14"/><rect class="cls-118" x="404.65" y="499.67" width="13.5" height="16.14"/><rect class="cls-108" x="404.65" y="518.12" width="13.5" height="16.14"/><rect class="cls-99" x="24" y="442.02" width="48.23" height="94.55"/><rect class="cls-108" x="56.8" y="518.12" width="13.51" height="16.14"/><rect class="cls-107" x="56.8" y="499.67" width="13.51" height="16.14"/><rect class="cls-118" x="56.8" y="481.22" width="13.51" height="16.14"/><rect class="cls-108" x="56.8" y="462.77" width="13.51" height="16.14"/><rect class="cls-118" x="56.8" y="444.33" width="13.51" height="16.14"/><rect class="cls-118" x="41.37" y="518.12" width="13.5" height="16.14"/><rect class="cls-108" x="41.37" y="499.67" width="13.5" height="16.14"/><rect class="cls-100" x="41.37" y="481.22" width="13.5" height="16.14"/><rect class="cls-108" x="41.37" y="462.77" width="13.5" height="16.14"/><rect class="cls-107" x="41.37" y="444.33" width="13.5" height="16.14"/><rect class="cls-108" x="25.93" y="518.12" width="13.5" height="16.14"/><rect class="cls-100" x="25.93" y="499.67" width="13.5" height="16.14"/><rect class="cls-108" x="25.93" y="481.22" width="13.5" height="16.14"/><rect class="cls-118" x="25.93" y="462.77" width="13.5" height="16.14"/><rect class="cls-108" x="25.93" y="444.33" width="13.5" height="16.14"/><rect class="cls-115" x="266.54" y="501.83" width="23.19" height="19.68"/><rect class="cls-116" x="266.54" y="501.83" width="23.23" height="4.34"/><rect class="cls-117" x="265.96" y="501.52" width="24.34" height="3.48"/><rect class="cls-115" x="241.73" y="501.83" width="23.19" height="19.68"/><rect class="cls-116" x="241.73" y="501.83" width="23.23" height="4.34"/><rect class="cls-117" x="241.16" y="501.52" width="24.34" height="3.48"/><rect class="cls-115" x="266.54" y="520.81" width="23.19" height="19.68"/><rect class="cls-116" x="266.54" y="520.81" width="23.23" height="4.34"/><rect class="cls-117" x="265.96" y="520.5" width="24.34" height="3.49"/><rect class="cls-115" x="241.73" y="520.81" width="23.19" height="19.68"/><rect class="cls-116" x="241.73" y="520.81" width="23.23" height="4.34"/><rect class="cls-117" x="241.16" y="520.5" width="24.34" height="3.49"/><path class="cls-119" d="M333.23,542s-1.1,6.21-1.64,12.35a4.24,4.24,0,0,0,4.05,4.59c8.18.34,25.68,1,32,.72a1.38,1.38,0,0,0,1.21-1.89h0a3.09,3.09,0,0,0-1.58-1.66l-28.9-13.28Z"/><path class="cls-120" d="M332.33,538.37l.88,7.42s5.06,2.36,8.52-.3l-2.1-8.27Z"/><path class="cls-121" d="M333,398.82c-.38,1.94-2,96.73,8.09,139.21a1.45,1.45,0,0,1-.84,1.68,25.3,25.3,0,0,1-8.26,1.67,2.47,2.47,0,0,1-2.46-1.78c-2.9-9.86-16.78-59.24-18.59-106.41-2-52.71,0-1.79,0-1.79l1.19-32.58Z"/><path class="cls-122" d="M300,545.25s-1.75,3.13-3.44,11.46a2.59,2.59,0,0,0,2.28,3.09c2.7.27,6.86.61,10.19.59a2.58,2.58,0,0,0,2.54-2.88,21.64,21.64,0,0,0-5.06-11.91Z"/><path class="cls-123" d="M298.45,535.7l2.05,11.23s2,1.51,6.06.42l-1-12.08Z"/><path class="cls-124" d="M292.89,401.73c-8.29,50,1.79,123.61,5.19,138a2.24,2.24,0,0,0,1.82,1.71,15,15,0,0,0,6.48-.26,2.05,2.05,0,0,0,1.48-1.89c.46-11.65-.36-83.14,7.36-111.4a6.41,6.41,0,0,1,2.47-3.54l15-10.65,1.15-17.23Z"/><path class="cls-125" d="M345.69,307c-24.83-.41-52.24,6.52-52.24,6.52-7.4,43.19-1.29,93-1.29,93,19.23,5,40.91-3.08,40.91-3.08,3.2-18.05,18.11-68.87,18.11-68.87a81.68,81.68,0,0,0,30.36-9.63c-6.28-7.28-9.24-16.54-10.52-22A83.83,83.83,0,0,1,345.69,307Z"/><path class="cls-126" d="M419.05,270.39a4.76,4.76,0,0,0-5.53-1.56c-3.65,15.44-22.82,28-42.5,34.08,1.28,5.47,4.24,14.73,10.52,22C414.21,306.55,419.05,270.39,419.05,270.39Z"/><path class="cls-127" d="M418.46,271.13c.25.82-2.71,2.05-4.45-1.27-.06-1.59-1-8.4-.07-9.7,5.06-6.9,14.87-15.55,14.87-15.55a2.33,2.33,0,0,1,.3,3.24l-4.77,5c1,1.8,2.22,3.32,2.78,5.5a6.64,6.64,0,0,1-.66,4.91c-.84,1.51-2,3.46-3,5A6.6,6.6,0,0,1,418.46,271.13Z"/><path class="cls-128" d="M422.26,256l-4.34,3.68-1.36,3.66,3.87,4.29s1.3-7.26,2.27-8.84S423.16,256.49,422.26,256Z"/><path class="cls-129" d="M303,337.53l-9.53-24s-23.19,15.76-27,35.74a54.71,54.71,0,0,1,20.17,5.41C288.32,345.2,303,337.53,303,337.53Z"/><path class="cls-130" d="M323.25,360.16s-26,14.72-34.83,2.15a9.84,9.84,0,0,1-1.81-7.67,54.71,54.71,0,0,0-20.17-5.41,27.59,27.59,0,0,0,3,18.91c15.39,28.16,57.26-1.56,57.26-1.56Z"/><path class="cls-131" d="M398,313.41a.14.14,0,0,0,0-.06l-.07-.05-.36-.27-5.18-3.77a2.86,2.86,0,0,0-4.38,1.37L385.38,318l-4.94,14.09S403.31,332.22,398,313.41Z"/><path class="cls-132" d="M398,313.41a.52.52,0,0,0-.1-.11l-.36-.27c1.83,2.7-1.31,3.21-12.15,5l-5.75.95c-11.67,2-22.42-3.64-27.33-6.77a2.82,2.82,0,0,0-2.4-.32,2.87,2.87,0,0,0-1.79,1.63c-4.18,10-16.56,39.59-17.17,40.7l-12.1,28.34s-.15,4.66,6.67,9.13,8.91,6.15,18.6,4.41a121.91,121.91,0,0,0,16.12-4.47h0s0,.36,0,.36c4.25-1.44,7.48-2.52,8-2.52h0a4.1,4.1,0,0,0,.35-.39l14-32.49h0l.16-1.07A154.91,154.91,0,0,0,394.56,335c0-.07,0-.15,0-.23.59-1.27,1.08-2.47,1.55-3.6C400.9,319.52,399.12,314.94,398,313.41Z"/><path class="cls-133" d="M360.27,392c4.25-1.44,7.48-2.52,8-2.52h0l13.88-32.31a4.37,4.37,0,0,0,.44-.57h0c5.43-8.89,9.61-16,12.15-21.59,0-.08-.08-.15,0-.24.36-.79.61-1.56.91-2.3v-.1c-.32.42-10.61,14.11-14.2,18.76C378.14,355.28,363.5,385.32,360.27,392Z"/><path class="cls-134" d="M323.56,366.79s-2-8.14-1.19-11,2.35-6.6,7.51-5.78a75.86,75.86,0,0,1,11.24,3s-.31,3.76-4.23,2.55l2.44,1.88s-.35,3-3.66,1.4l2.26,2.5a2.63,2.63,0,0,1-3.86.88C331.63,360.61,330.46,367.77,323.56,366.79Z"/><path class="cls-135" d="M320.54,286.8l-7.91,22.86a.83.83,0,0,0,.38,1c2.15,1.19,9.91,4.63,19.27-1.3a3.88,3.88,0,0,0,1.78-2.77l2.56-19.78Z"/><path class="cls-136" d="M337.73,265.64s8.68,16.34,7.56,22.93-11.86,6.13-21.25.77l-6.57-17.64Z"/><path class="cls-137" d="M324.45,280.68a.69.69,0,0,0,.3-1,17.58,17.58,0,0,1-2.42-5.12s-1.56-1,4-2.33,13.78-3.37,15.51-8.08-5.19-12-9.83-6.94a.69.69,0,0,1-1.07,0c-1.16-1.51-4.21-4.65-8.45-2.75-4,1.78-4.42,4.69-4.36,6.16a.67.67,0,0,1-.8.68c-2-.38-6.81-.71-9.06,4.23-1.85,4.07-.65,6.37.45,7.49a.68.68,0,0,1-.29,1.12c-1.32.4-3,1.52-2.85,4.61.24,4.27,5,3.89,6.37,3.7a.65.65,0,0,1,.6.21c1.16,1.29,6.41,6.76,12.09,7.42a.68.68,0,0,0,.72-.89l-2.46-7.15a.67.67,0,0,1,.36-.84Z"/><path class="cls-138" d="M325.44,281.69s-6.18-4.24-6.63-.67,5.56,5.17,8.54,3.84Z"/><path class="cls-139" d="M341.17,258.29s-9.84-17-27.44-6.84-8.07,22.64-8.07,22.64Z"/><path class="cls-140" d="M305.1,259.19s21.2-16.92,31.21,1.26c4.1-1.8,4.86-2.16,4.86-2.16s-8.89-16.28-21-10.8S305.08,255.61,305.1,259.19Z"/><path class="cls-8" d="M329.37,264.08a.28.28,0,0,1-.2,0L329,264c-3.15-1.69-8.43-4.52-11.94-3.07a33.35,33.35,0,0,0-4.92,2.77c-1.13.72-2.29,1.46-3.45,2.07-1.59.84-3.33,1.73-5.34,2.73h0a.22.22,0,0,1-.19-.4c2-1,3.74-1.88,5.32-2.71,1.15-.6,2.31-1.34,3.42-2.05a34.31,34.31,0,0,1,5-2.81c3.7-1.53,9.09,1.36,12.32,3.08l.14.08a.22.22,0,0,1,.09.29A.32.32,0,0,1,329.37,264.08Z"/><path class="cls-140" d="M305.72,276.84l41.79-16.08a.66.66,0,0,0,.43-.64.68.68,0,0,0-.46-.62c-2.16-.69-5.73-1.66-7.15-1-4.59,2-34.67,15.61-34.67,15.61S304.91,274.44,305.72,276.84Z"/></g></g></g></svg>