<svg xmlns="http://www.w3.org/2000/svg" viewBox="0 0 172.03 118.54"><defs><style>.cls-1{fill:#c3903d;}.cls-2{fill:#f3b863;}.cls-3{fill:#bc4c00;}.cls-4{fill:#29443f;}.cls-5{fill:#102824;}.cls-6{fill:#d35500;}.cls-7{fill:#ff7b22;}.cls-8{fill:#112320;}.cls-9{fill:#22423d;}.cls-10{fill:#c78b5b;}.cls-11{fill:#e5be84;}.cls-12{fill:#ead1b7;}.cls-13{fill:#f7eee5;}.cls-14{fill:#444248;}.cls-15{fill:#006e9e;}.cls-16{fill:#fed8a7;}.cls-17{fill:#e8b32e;}.cls-18{fill:#ffcc3e;}.cls-19{fill:#ffcd50;}.cls-20{fill:#127abc;}.cls-21{fill:#fec894;}.cls-22{fill:#a46700;}.cls-23{fill:#050403;}.cls-24{fill:#493828;}.cls-25{fill:#e28b00;}.cls-26{fill:#ffac1a;}.cls-27{fill:#fff;}</style></defs><title>Asset 33</title><g id="Layer_2" data-name="Layer 2"><g id="Layer_1-2" data-name="Layer 1"><rect class="cls-1" x="165.14" y="108.61" width="3.45" height="5.91"/><rect class="cls-2" x="168.59" y="108.61" width="3.45" height="5.91"/><rect class="cls-3" x="0.01" y="86.41" width="11.32" height="12.31"/><path class="cls-4" d="M79,100.53c0,9.81,5.51,17.76,12.3,17.76s12.31-8,12.31-17.76S98.11,82.76,91.31,82.76,79,90.72,79,100.53Z"/><rect class="cls-4" x="83.6" y="82.81" width="8.37" height="35.44"/><path class="cls-5" d="M71.62,100.53c0,9.81,5.51,17.76,12.31,17.76s12.3-8,12.3-17.76-5.5-17.77-12.3-17.77S71.62,90.72,71.62,100.53Z"/><path class="cls-6" d="M75.44,100.53c0,6.5,3.65,11.78,8.16,11.78s8.16-5.28,8.16-11.78S88.11,88.75,83.6,88.75,75.44,94,75.44,100.53Z"/><ellipse class="cls-7" cx="83.6" cy="100.53" rx="6.76" ry="9.76"/><ellipse class="cls-6" cx="84.82" cy="100.53" rx="5.54" ry="9.6"/><ellipse class="cls-4" cx="85.36" cy="95.03" rx="0.84" ry="1.21"/><rect class="cls-4" x="84.84" y="93.83" width="0.57" height="2.41"/><ellipse class="cls-5" cx="84.86" cy="95.03" rx="0.84" ry="1.21"/><path class="cls-4" d="M84.53,105.63c0,.67.37,1.21.83,1.21s.84-.54.84-1.21-.37-1.21-.84-1.21S84.53,105,84.53,105.63Z"/><rect class="cls-4" x="84.84" y="104.43" width="0.57" height="2.41"/><path class="cls-5" d="M84,105.63c0,.67.38,1.21.84,1.21s.84-.54.84-1.21-.38-1.21-.84-1.21S84,105,84,105.63Z"/><path class="cls-4" d="M88.43,97.51c0,.67.38,1.21.84,1.21s.84-.54.84-1.21-.38-1.21-.84-1.21S88.43,96.84,88.43,97.51Z"/><rect class="cls-4" x="88.74" y="96.3" width="0.57" height="2.41"/><path class="cls-5" d="M87.93,97.51c0,.67.37,1.21.84,1.21s.83-.54.83-1.21-.37-1.21-.83-1.21S87.93,96.84,87.93,97.51Z"/><path class="cls-4" d="M88.73,102.9c0,.67.37,1.21.84,1.21s.83-.54.83-1.21-.37-1.21-.83-1.21S88.73,102.23,88.73,102.9Z"/><rect class="cls-4" x="89.04" y="101.69" width="0.57" height="2.41"/><ellipse class="cls-5" cx="89.06" cy="102.9" rx="0.84" ry="1.21"/><path class="cls-4" d="M81.06,97.51c0,.67.37,1.21.83,1.21s.84-.54.84-1.21-.37-1.21-.84-1.21S81.06,96.84,81.06,97.51Z"/><rect class="cls-4" x="81.37" y="96.3" width="0.57" height="2.41"/><path class="cls-5" d="M80.55,97.51c0,.67.38,1.21.84,1.21s.84-.54.84-1.21-.38-1.21-.84-1.21S80.55,96.84,80.55,97.51Z"/><ellipse class="cls-4" cx="82.19" cy="102.9" rx="0.84" ry="1.21"/><rect class="cls-4" x="81.66" y="101.69" width="0.57" height="2.41"/><path class="cls-5" d="M80.85,102.9c0,.67.37,1.21.83,1.21s.84-.54.84-1.21-.37-1.21-.84-1.21S80.85,102.23,80.85,102.9Z"/><path class="cls-4" d="M83.48,100.2c0,1.83,1,3.32,2.29,3.32s2.3-1.49,2.3-3.32-1-3.31-2.3-3.31S83.48,98.37,83.48,100.2Z"/><rect class="cls-4" x="84.33" y="96.9" width="1.56" height="6.61"/><path class="cls-5" d="M82.1,100.2c0,1.83,1,3.32,2.29,3.32s2.3-1.49,2.3-3.32-1-3.31-2.3-3.31S82.1,98.37,82.1,100.2Z"/><path class="cls-6" d="M90.36,100.53a13.35,13.35,0,0,0-.84-4.72h1v9.84H89.35A13,13,0,0,0,90.36,100.53Z"/><ellipse class="cls-4" cx="15.86" cy="104.43" rx="9.78" ry="14.12"/><rect class="cls-4" x="9.73" y="90.34" width="6.65" height="28.17"/><path class="cls-5" d="M.21,104.43c0,7.79,4.38,14.11,9.78,14.11s9.78-6.32,9.78-14.11S15.39,90.31,10,90.31.21,96.63.21,104.43Z"/><ellipse class="cls-6" cx="9.73" cy="104.43" rx="6.49" ry="9.36"/><path class="cls-7" d="M4.35,104.43c0,4.28,2.41,7.76,5.38,7.76s5.37-3.48,5.37-7.76-2.4-7.76-5.37-7.76S4.35,100.14,4.35,104.43Z"/><path class="cls-6" d="M10.7,96.8c2.5.66,4.4,3.82,4.4,7.63s-1.9,7-4.4,7.62c-2.51-.66-4.41-3.82-4.41-7.62S8.19,97.46,10.7,96.8Z"/><path class="cls-4" d="M10.46,100.06c0,.53.3,1,.67,1s.67-.43.67-1-.3-1-.67-1S10.46,99.53,10.46,100.06Z"/><rect class="cls-4" x="10.71" y="99.1" width="0.45" height="1.92"/><path class="cls-5" d="M10.07,100.06c0,.53.29,1,.66,1s.67-.43.67-1-.3-1-.67-1S10.07,99.53,10.07,100.06Z"/><path class="cls-4" d="M10.46,108.49c0,.53.3,1,.67,1s.67-.43.67-1-.3-1-.67-1S10.46,108,10.46,108.49Z"/><rect class="cls-4" x="10.71" y="107.53" width="0.45" height="1.92"/><path class="cls-5" d="M10.07,108.49c0,.53.29,1,.66,1s.67-.43.67-1-.3-1-.67-1S10.07,108,10.07,108.49Z"/><path class="cls-4" d="M13.57,102c0,.53.3,1,.66,1s.67-.43.67-1-.3-1-.67-1S13.57,101.5,13.57,102Z"/><rect class="cls-4" x="13.82" y="101.07" width="0.45" height="1.92"/><path class="cls-5" d="M13.17,102c0,.53.3,1,.66,1s.67-.43.67-1-.3-1-.67-1S13.17,101.5,13.17,102Z"/><path class="cls-4" d="M13.8,106.31c0,.53.3,1,.67,1s.67-.43.67-1-.3-1-.67-1S13.8,105.78,13.8,106.31Z"/><rect class="cls-4" x="14.05" y="105.35" width="0.45" height="1.92"/><path class="cls-5" d="M13.4,106.31c0,.53.3,1,.67,1s.67-.43.67-1-.3-1-.67-1S13.4,105.78,13.4,106.31Z"/><path class="cls-4" d="M7.7,102c0,.53.3,1,.67,1s.67-.43.67-1-.3-1-.67-1S7.7,101.5,7.7,102Z"/><rect class="cls-4" x="7.95" y="101.07" width="0.45" height="1.92"/><path class="cls-5" d="M7.31,102c0,.53.29,1,.66,1s.67-.43.67-1-.3-1-.67-1S7.31,101.5,7.31,102Z"/><path class="cls-4" d="M7.94,106.31c0,.53.3,1,.67,1s.66-.43.66-1-.3-1-.66-1S7.94,105.78,7.94,106.31Z"/><rect class="cls-4" x="8.19" y="105.35" width="0.45" height="1.92"/><path class="cls-5" d="M7.54,106.31c0,.53.3,1,.67,1s.66-.43.66-1-.3-1-.66-1S7.54,105.78,7.54,106.31Z"/><path class="cls-4" d="M9.63,104.17c0,1.46.82,2.63,1.82,2.63s1.83-1.17,1.83-2.63-.82-2.63-1.83-2.63S9.63,102.72,9.63,104.17Z"/><rect class="cls-4" x="10.31" y="101.54" width="1.24" height="5.25"/><path class="cls-5" d="M8.53,104.17c0,1.46.82,2.63,1.83,2.63s1.82-1.17,1.82-2.63-.81-2.63-1.82-2.63S8.53,102.72,8.53,104.17Z"/><path class="cls-6" d="M15.1,104.43a10.43,10.43,0,0,0-.67-3.75h.78v7.82H14.3A10.33,10.33,0,0,0,15.1,104.43Z"/><path class="cls-4" d="M61.15,96.3H85a1.72,1.72,0,0,0,1.72-1.77C86.59,92,84.59,33,62.45,5.79,59.33,2,54,0,46.53,0A52.68,52.68,0,0,0,34.78,1.42a1.73,1.73,0,0,0-1.29,1.82c.26,3.05.11,46.93,0,69.71a1.71,1.71,0,0,0,.87,1.5c.2.12,20.32,11.65,25.27,20.94A1.73,1.73,0,0,0,61.15,96.3Zm22-3.44h-21C56.72,84,40.89,74.3,36.94,72c0-8,.26-57.64,0-67.51a49.62,49.62,0,0,1,9.55-1c4.37,0,10.21.78,13.25,4.51C79.1,31.72,82.63,82.71,83.15,92.86Z"/><path class="cls-5" d="M58.91,96.3H82.7a1.72,1.72,0,0,0,1.72-1.77C84.35,92,82.34,33,60.2,5.79,57.08,2,51.72,0,44.28,0A52.68,52.68,0,0,0,32.53,1.42a1.74,1.74,0,0,0-1.29,1.82c.26,3.05.11,46.93,0,69.71a1.71,1.71,0,0,0,.87,1.5c.21.12,20.32,11.65,25.28,20.94A1.72,1.72,0,0,0,58.91,96.3Zm22-3.44h-21C54.47,84,38.65,74.3,34.69,72c0-8,.27-57.64,0-67.51a49.62,49.62,0,0,1,9.55-1c4.37,0,10.21.78,13.25,4.51C76.85,31.72,80.38,82.71,80.9,92.86Z"/><polygon class="cls-4" points="36.63 8.19 24.38 0 48.11 0.03 55.74 1.74 61.45 6.04 62.38 8.19 36.63 8.19"/><path class="cls-8" d="M10.83,91.21V70.7H62V99.75H20.2C18.45,94.79,14.93,91.36,10.83,91.21Z"/><rect class="cls-1" x="130.94" y="113.33" width="35.92" height="1.24"/><path class="cls-3" d="M21.37,106.81c0-8.62-4.84-15.61-10.82-15.61-.23,0-.46,0-.7,0H4.77c-.24,0-.47,0-.7,0A8,8,0,0,0,0,92.35V80.41A9.7,9.7,0,0,1,9.7,70.7h1.13c0,1.45,0,2.26,0,2.26S31.5,84.73,36.75,94.58h23.8s-.3-10.09-2.16-23.88H84.81a9.7,9.7,0,0,1,9.7,9.71v20.46a9.7,9.7,0,0,1-9.7,9.71H21.05A22,22,0,0,0,21.37,106.81Z"/><path class="cls-6" d="M21.37,106.81c0-8.62-4.84-15.54-10.82-15.54-.23,0-.46.11-.7.11H4.77c-.24,0-.47-.11-.7-.11-.05,0-.09-.07-.13-.06V77a9.65,9.65,0,0,1,1.58-5.3,9.75,9.75,0,0,1,4.18-1h1.13c0,1.45,0,2.38,0,2.38S31.5,85,36.75,94.82h23.8s0-1.47-.17-3.44h4.11s-.26-8.69-1.72-20.68h22a9.7,9.7,0,0,1,9.7,9.71v20.46a9.61,9.61,0,0,1-1.58,5.3,9.61,9.61,0,0,1-4.18,1H21.37Z"/><path class="cls-8" d="M57.1,94.82h3.45s0-1.47-.17-3.44L62.77,70.7h22a10.14,10.14,0,0,1,1.83.18V99.25H57.1Z"/><path class="cls-8" d="M64.76,77.1h5.83A3.42,3.42,0,0,0,74,73L71.34,59.69A3.42,3.42,0,0,0,68,56.92H62.16A3.42,3.42,0,0,0,58.8,61l2.61,13.34A3.42,3.42,0,0,0,64.76,77.1Z"/><polygon class="cls-7" points="3.94 84.27 34.59 91.38 34.6 91.39 35.4 95.39 3.94 88.95 3.94 84.27"/><rect class="cls-4" x="91.07" y="0.31" width="9.84" height="112.23"/><rect class="cls-5" x="87.62" y="0.31" width="9.85" height="112.23"/><rect class="cls-4" x="76.3" y="0.31" width="9.85" height="112.23"/><rect class="cls-5" x="72.85" y="0.31" width="9.85" height="112.23"/><rect class="cls-5" x="91.07" y="66.27" width="1.97" height="19.2"/><rect class="cls-5" x="86.14" y="66.27" width="1.97" height="19.2"/><rect class="cls-5" x="95.99" y="66.27" width="1.97" height="19.2"/><path class="cls-5" d="M99.93,112.55V67.75H82.7v44.8H78.76V67.73a3.35,3.35,0,0,1,3.51-3.43h17.79a3.6,3.6,0,0,1,3.8,3.43v44.82Z"/><path class="cls-4" d="M102.39,112.55V67.75H85.16v44.8H81.07V67.73a3.66,3.66,0,0,1,3.66-3.66h17.79a3.66,3.66,0,0,1,3.66,3.66v44.82Z"/><rect class="cls-4" x="83.68" y="84.98" width="20.18" height="4.92"/><rect class="cls-4" x="83.68" y="107.62" width="20.18" height="4.92"/><rect class="cls-4" x="97.47" y="66.27" width="1.97" height="19.2"/><rect class="cls-4" x="92.54" y="66.27" width="1.97" height="19.2"/><rect class="cls-4" x="87.62" y="66.27" width="1.97" height="19.2"/><rect class="cls-5" x="96.97" y="91.38" width="4.43" height="20.18"/><rect class="cls-9" x="99.44" y="91.38" width="4.43" height="20.18"/><polygon class="cls-4" points="160.97 108.61 96.97 108.61 96.97 111.56 134.68 111.56 160.97 109.1 160.97 108.61"/><rect class="cls-1" x="151.61" y="108.61" width="3.45" height="5.91"/><polygon class="cls-5" points="156.53 108.61 96.97 108.61 96.97 111.56 130.25 111.56 156.53 109.1 156.53 108.61"/><rect class="cls-2" x="154.65" y="108.61" width="3.45" height="5.91"/><rect class="cls-5" x="87.62" y="91.38" width="4.43" height="20.18"/><rect class="cls-9" x="90.08" y="91.38" width="4.43" height="20.18"/><polygon class="cls-4" points="151.61 108.61 87.62 108.61 87.62 111.56 125.33 111.56 151.61 109.1 151.61 108.61"/><polygon class="cls-5" points="147.18 108.61 87.62 108.61 87.62 111.56 120.9 111.56 147.18 109.1 147.18 108.61"/><rect class="cls-1" x="134.38" y="108.61" width="3.45" height="5.91"/><rect class="cls-2" x="137.83" y="108.61" width="3.45" height="5.91"/><rect class="cls-2" x="140.72" y="107.13" width="31.31" height="1.48"/><rect class="cls-1" x="89.84" y="107.13" width="50.88" height="1.48"/><rect class="cls-1" x="89.84" y="113.04" width="50.88" height="1.48"/><rect class="cls-2" x="140.72" y="108.61" width="5.48" height="5.91"/><rect class="cls-1" x="135.24" y="108.61" width="5.48" height="5.91"/><rect class="cls-1" x="89.84" y="108.61" width="5.48" height="5.91"/><rect class="cls-1" x="111.75" y="108.61" width="5.48" height="5.91"/><rect class="cls-10" x="116.69" y="69.12" width="27.87" height="38.44"/><rect class="cls-11" x="89.85" y="69.12" width="39" height="38.44"/><rect class="cls-12" x="104.11" y="69.12" width="10.46" height="9.89"/><rect class="cls-12" x="104.11" y="97.67" width="10.46" height="9.89"/><rect class="cls-13" x="91.71" y="99.68" width="10.12" height="6.11"/><rect class="cls-14" x="92.18" y="100.53" width="1.07" height="4.4"/><rect class="cls-14" x="93.9" y="100.53" width="0.38" height="4.4"/><rect class="cls-14" x="95.82" y="100.53" width="0.88" height="4.4"/><rect class="cls-14" x="94.71" y="100.53" width="0.54" height="4.4"/><rect class="cls-14" x="97.36" y="100.53" width="0.36" height="4.4"/><rect class="cls-14" x="99.08" y="100.53" width="0.73" height="4.4"/><rect class="cls-14" x="100.06" y="100.53" width="0.36" height="4.4"/><rect class="cls-14" x="98.25" y="100.53" width="0.5" height="4.4"/><rect class="cls-14" x="100.8" y="100.53" width="0.54" height="4.4"/><rect class="cls-11" x="133.04" y="69.12" width="39" height="38.44"/><rect class="cls-12" x="147.3" y="69.12" width="10.46" height="9.89"/><rect class="cls-12" x="147.3" y="97.67" width="10.46" height="9.89"/><rect class="cls-13" x="134.9" y="99.68" width="10.12" height="6.11"/><rect class="cls-14" x="135.37" y="100.53" width="1.07" height="4.4"/><rect class="cls-14" x="137.09" y="100.53" width="0.38" height="4.4"/><rect class="cls-14" x="139.01" y="100.53" width="0.88" height="4.4"/><rect class="cls-14" x="137.9" y="100.53" width="0.54" height="4.4"/><rect class="cls-14" x="140.55" y="100.53" width="0.36" height="4.4"/><rect class="cls-14" x="142.27" y="100.53" width="0.73" height="4.4"/><rect class="cls-14" x="143.25" y="100.53" width="0.36" height="4.4"/><rect class="cls-14" x="141.44" y="100.53" width="0.5" height="4.4"/><rect class="cls-14" x="143.99" y="100.53" width="0.54" height="4.4"/><rect class="cls-11" x="111.55" y="30.67" width="39" height="38.44"/><rect class="cls-12" x="125.82" y="30.67" width="10.46" height="9.89"/><rect class="cls-12" x="125.82" y="59.22" width="10.46" height="9.89"/><rect class="cls-13" x="113.42" y="61.23" width="10.12" height="6.11"/><rect class="cls-14" x="113.88" y="62.09" width="1.07" height="4.4"/><rect class="cls-14" x="115.61" y="62.09" width="0.38" height="4.4"/><rect class="cls-14" x="117.53" y="62.09" width="0.88" height="4.4"/><rect class="cls-14" x="116.42" y="62.09" width="0.54" height="4.4"/><rect class="cls-14" x="119.07" y="62.09" width="0.36" height="4.4"/><rect class="cls-14" x="120.78" y="62.09" width="0.73" height="4.4"/><rect class="cls-14" x="121.76" y="62.09" width="0.36" height="4.4"/><rect class="cls-14" x="119.96" y="62.09" width="0.5" height="4.4"/><rect class="cls-14" x="122.51" y="62.09" width="0.54" height="4.4"/><path class="cls-5" d="M30.3,74.15h5.82a3.42,3.42,0,0,0,3.36-4.08l-2.6-13.34A3.42,3.42,0,0,0,33.52,54H27.69A3.41,3.41,0,0,0,24.34,58l2.6,13.35A3.42,3.42,0,0,0,30.3,74.15Z"/><path class="cls-4" d="M33.83,74.15h5.83A3.41,3.41,0,0,0,43,70.07l-2.6-13.34A3.42,3.42,0,0,0,37.06,54H31.23A3.42,3.42,0,0,0,27.87,58l2.6,13.35A3.43,3.43,0,0,0,33.83,74.15Z"/><rect class="cls-4" x="28.55" y="74.15" width="22.64" height="6.4" rx="2.37" ry="2.37"/><path class="cls-15" d="M37.63,67.4s1,5.27,7.82,5.27,8.69,3.2,8.69,3.2-.9,5.16-.33,7.88S55,86,55,86L61,80.62s1.73-7.79-1.84-10.37C54,66.49,39.32,66.66,37.63,67.4Z"/><path class="cls-16" d="M55.91,51.16s1-2.11,2-2.3a2.37,2.37,0,0,1,.84,0l.24.07a1.26,1.26,0,0,1,.86,1c.13.77,1,2.48.26,2.55s-2.27,1.21-3.2.83A2,2,0,0,1,55.91,51.16Z"/><path class="cls-16" d="M58.11,49c-.1.26,1.54.73,2.22,1s1.16.19,1.25-.06,0-.6-.73-.86S58.2,48.77,58.11,49Z"/><path class="cls-16" d="M58.11,50c-.1.25,1.54.73,2.22,1s1.16.2,1.25-.05,0-.61-.73-.86S58.2,49.75,58.11,50Z"/><path class="cls-16" d="M57.76,50.83c-.09.26,1.54.73,2.23,1s1.15.2,1.25-.06-.05-.6-.74-.86S57.86,50.58,57.76,50.83Z"/><path class="cls-16" d="M57.28,51.32c-.09.25,1.54.73,2.23,1s1.15.19,1.25-.06,0-.6-.74-.86S57.38,51.06,57.28,51.32Z"/><path class="cls-17" d="M33.89,49.36s3.28-3.88,8.22.38c3.5,3,4.34,4.77,4.25,4.78S54,51.29,55,50.68s3.36,2.12,2.68,2.86S47.2,63.3,43.61,60.39C39.62,57.18,32.13,52.8,33.89,49.36Z"/><path class="cls-18" d="M29.85,50.84c.5-4.67,7.06-4,7.06-4s1.62,0,4.21,1.89c1.71,1.23,2.89,4.41,3.69,8,0,0-2.17,6.64-.19,9.76.16,2.49,1.64,4.35,1.54,5.13-.31,2.68-8.36,1.52-12,.22S29.36,55.51,29.85,50.84Z"/><path class="cls-18" d="M29.85,50.84c.5-4.67,7.06-4,7.06-4s1.62,0,4.21,1.89c1.71,1.23,2.89,4.41,3.69,8,0,0-2.17,6.64-.19,9.76.16,2.49,1.64,4.35,1.54,5.13-.31,2.68-8.36,1.52-12,.22S29.36,55.51,29.85,50.84Z"/><path class="cls-19" d="M32.05,47.65l-.81,4.16s.4,13.69,1.82,16.71c1.19,2.53,5.88,3.73,11.83,4.42-2.47.87-7.92,0-10.76-1-3.68-1.29-4.77-16.38-4.28-21A3.92,3.92,0,0,1,32.05,47.65Z"/><path class="cls-20" d="M43,52.79s-3.2-7.3-8.07-5.8h0c-.18.14,2.69-1.89,7.35,6Z"/><path class="cls-20" d="M31.3,67a43.61,43.61,0,0,1-1.05-5.62c4.7,6.64,8.65.07,9.4-2.86C40,57.12,39.4,53,39.4,53H43c.8,0,1.82,3.88,1.83,3.9S43.14,65,46.1,67.29h0a18,18,0,0,1,7.17,2.47c3.57,2.57,1.85,12.33,1.85,12.33l-6.06,5.35s-.59.5-1.16-2.21.33-7.88.33-7.88-1.89-3.2-8.68-3.2C30.92,74.15,31.3,67,31.3,67Z"/><path class="cls-15" d="M32,63.29a20.84,20.84,0,0,0,1.06,5.23c1.42,3,7.83,4.15,15.42,4.77a5.85,5.85,0,0,1,2-.86S48.77,74,49,74.15s1.9.18,2.49.65c0,0-2.06.3-2.22.89s-1.08,7.57,0,10.31a2.67,2.67,0,0,1,.22,1.11l-.38.33s-.59.5-1.16-2.21.33-7.88.33-7.88-1.89-3.2-8.68-3.2C30.92,74.15,31.3,67,31.3,67h0a43.61,43.61,0,0,1-1.05-5.62A9.43,9.43,0,0,0,32,63.29Z"/><path class="cls-8" d="M52,57.26l10-6.39a1,1,0,0,0,.29-1.35v0a1,1,0,0,0-1.34-.29l-10,6.39a1,1,0,0,0-.3,1.35v0A1,1,0,0,0,52,57.26Z"/><path class="cls-16" d="M51.16,55.34c0-.05,1-2.11,2-2.3A2.42,2.42,0,0,1,54,53l.24.07a1.28,1.28,0,0,1,.86,1c.13.78,1,2.48.26,2.55s-2.28,1.21-3.2.83A2,2,0,0,1,51.16,55.34Z"/><path class="cls-16" d="M53.35,53.2c-.09.26,1.54.73,2.23,1s1.15.2,1.25-.06,0-.6-.74-.86S53.45,53,53.35,53.2Z"/><path class="cls-16" d="M53.35,54.19c-.09.25,1.54.73,2.23,1s1.15.19,1.25-.06,0-.61-.74-.86S53.45,53.93,53.35,54.19Z"/><path class="cls-16" d="M53,55c-.1.26,1.54.73,2.23,1s1.15.2,1.24-.06,0-.6-.73-.86S53.1,54.76,53,55Z"/><path class="cls-16" d="M52.53,55.5c-.1.25,1.54.73,2.23,1s1.15.19,1.24-.06,0-.6-.73-.86S52.62,55.25,52.53,55.5Z"/><path class="cls-16" d="M43.81,35.7c-1.08-4.63-9.66-2.66-10.44,0-.35,1.16-.13,3.53.23,5.81h0a10.16,10.16,0,0,0,.68,2.1c.32.51.7,3,.4,3.33a13.64,13.64,0,0,1,4.1,2.73,8,8,0,0,0-.68-2c-.2-2.37,2.07-1.88,4.23-3S43.81,35.7,43.81,35.7Z"/><path class="cls-21" d="M42.33,44.76a1.48,1.48,0,0,0,.38-.29,4.77,4.77,0,0,1-2.82.23A6.59,6.59,0,0,1,36,42.39a12.94,12.94,0,0,1-.76-3.51l-1.72,1.71c0,.31.09.61.13.92h0a10.16,10.16,0,0,0,.68,2.1c.32.51.7,3,.4,3.33a13.64,13.64,0,0,1,4.1,2.73,8,8,0,0,0-.68-2C37.9,45.35,40.17,45.84,42.33,44.76Z"/><path class="cls-22" d="M43,32.21s1.84,2.32.88,4.8h0c-.06-1.16-.27-2.46-.88-2.72h0a2.09,2.09,0,0,0-1.91,0c-1.83.65-2-.06-3.16-.2s-2.39,2.16-2.46,4.54c0,1.23-1.9,2.9-1.9,2.9a17.38,17.38,0,0,1-.64-4C32.73,34.66,33.8,28.09,43,32.21Z"/><path class="cls-21" d="M40.44,42.52h.31A1.14,1.14,0,0,0,42,42a.15.15,0,0,0-.06-.22.17.17,0,0,0-.22.06c-.19.34-.46.36-.91.35h-.22c-.46,0-.72,0-.92-.35a.16.16,0,0,0-.22-.06.16.16,0,0,0-.06.22A1.09,1.09,0,0,0,40.44,42.52Z"/><rect class="cls-23" x="38.24" y="37.98" width="1.08" height="1.44" rx="0.53" ry="0.53"/><rect class="cls-23" x="41.95" y="37.98" width="1.08" height="1.44" rx="0.53" ry="0.53"/><path class="cls-24" d="M37.62,37a1.9,1.9,0,0,1,.94-.44,1.75,1.75,0,0,1,1.3.36l.07.56a1.69,1.69,0,0,0-1.3-.36,1.71,1.71,0,0,0-.93.44Z"/><path class="cls-24" d="M41.12,37a1.87,1.87,0,0,1,.93-.44,1.74,1.74,0,0,1,1.3.36l.08.56a1.72,1.72,0,0,0-2.24.08Z"/><path class="cls-21" d="M41.12,38.29s.08,2.44.11,2.78-1.09.2-1.3.14.42,1,1.57.16C42,41,41.12,38.29,41.12,38.29Z"/><path class="cls-25" d="M32.35,35a5.56,5.56,0,0,1,.09-.82A6.37,6.37,0,0,1,38.82,29,6.21,6.21,0,0,1,45.26,35h.45c.19,0,.36-.06.36.14h0c0,.2-.17.28-.36.28H32.87C33.07,35.45,32.3,35.57,32.35,35Z"/><path class="cls-26" d="M45.94,35.17h0c0-.2,0-.33-.23-.33h-.45A6.41,6.41,0,0,0,40.08,29a6.4,6.4,0,0,0-5.19,5.19,7,7,0,0,0-.08.79.34.34,0,0,0,.37.4H45.71C45.9,35.34,45.94,35.37,45.94,35.17Z"/><path class="cls-18" d="M45.71,35.45H32.87c.2,0-.57.19-.52-.36,0-.06,0-.06,0-.06H45.71c.19,0,.36-.06.36.14h0C46.07,35.37,45.9,35.45,45.71,35.45Z"/><path class="cls-18" d="M41.6,35.45h0a.32.32,0,0,0,.32-.32,5.79,5.79,0,0,0-1.67-4.38.31.31,0,0,0-.44,0,.32.32,0,0,0,0,.45h0a5.28,5.28,0,0,1,1.44,3.9A.32.32,0,0,0,41.6,35.45Z"/><path class="cls-18" d="M42.93,35A5.73,5.73,0,0,0,42.07,32a.26.26,0,0,1,0-.4c.14-.11.33-.17.45,0a5.64,5.64,0,0,1,1,3.51Z"/><path class="cls-18" d="M38.61,31.6c.13-.11.33-.19.45-.06a5.51,5.51,0,0,1,1,3.49h-.63A5.6,5.6,0,0,0,38.57,32,.22.22,0,0,1,38.61,31.6Z"/><path class="cls-21" d="M34.25,40.65h0a1.11,1.11,0,0,0,1-1.16v-.8a1.11,1.11,0,0,0-1-1.16h0a1.12,1.12,0,0,0-1.06,1.16l.14,1.07C33.49,40.49,33.67,40.65,34.25,40.65Z"/><rect class="cls-5" x="28.55" y="74.15" width="14.77" height="6.4" rx="2.37" ry="2.37"/><path class="cls-4" d="M39,96.3H62.79a1.72,1.72,0,0,0,1.73-1.77C64.44,92,62.44,33,40.3,5.79,37.17,2,31.82,0,24.37,0A52.65,52.65,0,0,0,12.63,1.42a1.73,1.73,0,0,0-1.29,1.82c.26,3.05.11,46.93,0,69.71a1.71,1.71,0,0,0,.87,1.5c.2.12,20.32,11.65,25.27,20.94A1.73,1.73,0,0,0,39,96.3Zm22-3.44H40C34.57,84,18.74,74.3,14.79,72c0-8,.26-57.64,0-67.51a49.6,49.6,0,0,1,9.54-1c4.37,0,10.22.78,13.26,4.51C57,31.72,60.48,82.71,61,92.86Z"/><path class="cls-5" d="M36.75,96.3h23.8a1.72,1.72,0,0,0,1.72-1.77C62.19,92,60.19,33,38.05,5.79,34.93,2,29.57,0,22.13,0A52.68,52.68,0,0,0,10.38,1.42,1.74,1.74,0,0,0,9.09,3.24c.26,3.05.11,46.93,0,69.71a1.71,1.71,0,0,0,.87,1.5c.2.12,20.32,11.65,25.28,20.94A1.7,1.7,0,0,0,36.75,96.3Zm22-3.44h-21C32.32,84,16.5,74.3,12.54,72c0-8,.26-57.64,0-67.51a49.62,49.62,0,0,1,9.55-1c4.36,0,10.21.78,13.25,4.51C54.7,31.72,58.23,82.71,58.75,92.86Z"/><polygon class="cls-6" points="72.36 80.06 54.13 80.44 48.47 87.94 46.87 96.31 72.36 96.3 72.36 80.06"/><path class="cls-4" d="M55.46,100.53c0,9.81,5.51,17.76,12.31,17.76s12.3-8,12.3-17.76-5.51-17.77-12.3-17.77S55.46,90.72,55.46,100.53Z"/><rect class="cls-4" x="60.05" y="82.81" width="8.37" height="35.44"/><path class="cls-5" d="M48.08,100.53c0,9.81,5.51,17.76,12.3,17.76s12.31-8,12.31-17.76S67.18,82.76,60.38,82.76,48.08,90.72,48.08,100.53Z"/><path class="cls-6" d="M51.89,100.53c0,6.5,3.66,11.78,8.16,11.78s8.17-5.28,8.17-11.78-3.66-11.78-8.17-11.78S51.89,94,51.89,100.53Z"/><path class="cls-7" d="M53.29,100.53c0,5.39,3,9.76,6.76,9.76s6.77-4.37,6.77-9.76-3-9.77-6.77-9.77S53.29,95.13,53.29,100.53Z"/><path class="cls-6" d="M61.28,90.93c3.15.83,5.54,4.81,5.54,9.6s-2.39,8.76-5.54,9.59c-3.16-.83-5.55-4.8-5.55-9.59S58.12,91.76,61.28,90.93Z"/><path class="cls-4" d="M61,95c0,.67.38,1.21.84,1.21s.84-.54.84-1.21-.38-1.2-.84-1.2S61,94.37,61,95Z"/><rect class="cls-4" x="61.29" y="93.83" width="0.57" height="2.41"/><ellipse class="cls-5" cx="61.32" cy="95.03" rx="0.84" ry="1.21"/><path class="cls-4" d="M61,105.63c0,.67.38,1.21.84,1.21s.84-.54.84-1.21-.38-1.21-.84-1.21S61,105,61,105.63Z"/><rect class="cls-4" x="61.29" y="104.43" width="0.57" height="2.41"/><path class="cls-5" d="M60.48,105.63c0,.67.37,1.21.84,1.21s.83-.54.83-1.21-.37-1.21-.83-1.21S60.48,105,60.48,105.63Z"/><path class="cls-4" d="M64.89,97.51c0,.67.37,1.21.83,1.21s.84-.54.84-1.21-.37-1.21-.84-1.21S64.89,96.84,64.89,97.51Z"/><rect class="cls-4" x="65.2" y="96.3" width="0.57" height="2.41"/><path class="cls-5" d="M64.38,97.51c0,.67.38,1.21.84,1.21s.84-.54.84-1.21-.38-1.21-.84-1.21S64.38,96.84,64.38,97.51Z"/><path class="cls-4" d="M65.18,102.9c0,.67.38,1.21.84,1.21s.84-.54.84-1.21-.38-1.21-.84-1.21S65.18,102.23,65.18,102.9Z"/><rect class="cls-4" x="65.49" y="101.69" width="0.57" height="2.41"/><path class="cls-5" d="M64.68,102.9c0,.67.37,1.21.84,1.21s.83-.54.83-1.21-.37-1.21-.83-1.21S64.68,102.23,64.68,102.9Z"/><path class="cls-4" d="M57.51,97.51c0,.67.37,1.21.84,1.21s.83-.54.83-1.21-.37-1.21-.83-1.21S57.51,96.84,57.51,97.51Z"/><rect class="cls-4" x="57.82" y="96.3" width="0.57" height="2.41"/><path class="cls-5" d="M57,97.51c0,.67.37,1.21.83,1.21s.84-.54.84-1.21-.37-1.21-.84-1.21S57,96.84,57,97.51Z"/><ellipse class="cls-4" cx="58.64" cy="102.9" rx="0.84" ry="1.21"/><rect class="cls-4" x="58.12" y="101.69" width="0.57" height="2.41"/><path class="cls-5" d="M57.3,102.9c0,.67.38,1.21.84,1.21s.84-.54.84-1.21-.38-1.21-.84-1.21S57.3,102.23,57.3,102.9Z"/><path class="cls-4" d="M59.93,100.2c0,1.83,1,3.32,2.3,3.32s2.29-1.49,2.29-3.32-1-3.31-2.29-3.31S59.93,98.37,59.93,100.2Z"/><rect class="cls-4" x="60.79" y="96.9" width="1.56" height="6.61"/><path class="cls-5" d="M58.55,100.2c0,1.83,1,3.32,2.3,3.32s2.29-1.49,2.29-3.32-1-3.31-2.29-3.31S58.55,98.37,58.55,100.2Z"/><path class="cls-6" d="M66.82,100.53A13.13,13.13,0,0,0,66,95.81h1v9.84H65.8A13,13,0,0,0,66.82,100.53Z"/><path class="cls-5" d="M49.78,15.14h2.14a2.45,2.45,0,0,1,2.45,2.45V21a2.45,2.45,0,0,1-2.45,2.45H49.78A2.46,2.46,0,0,1,47.33,21V17.6A2.45,2.45,0,0,1,49.78,15.14Z"/><rect class="cls-4" x="49.07" y="15.14" width="7.05" height="8.31" rx="2.45" ry="2.45"/><rect class="cls-27" x="50.7" y="16.07" width="4.43" height="5.91" rx="1.2" ry="1.2"/><path class="cls-7" d="M64.49,80.06H58.21a12.8,12.8,0,0,1,7.25-2.29c8.15,0,14.71,7.9,15.91,18.53H75.81L69.17,81.22a9.62,9.62,0,0,0-3.71-.76c-.33,0-.65,0-1,.05Z"/><rect class="cls-7" x="60.55" y="77.77" width="5.41" height="1.48"/><path class="cls-6" d="M73.73,96.3c-1.15-9-6.62-15.84-13.2-15.84s-12,6.83-13.2,15.84H44.62c1.2-10.63,7.76-18.53,15.91-18.53s14.71,7.9,15.92,18.53Z"/><path class="cls-15" d="M30.25,61.36s.85,8.33,2.16,9.59Z"/><path class="cls-20" d="M40.49,53.28s-3.2-7.3-8.08-5.8c0,0-.9.48-1.07.62s3.77-2.5,8.43,5.4Z"/><path d="M43,54.19h.53a.22.22,0,0,0,.23-.22l-.64-1.27a.23.23,0,0,0-.22-.23h-.54a.23.23,0,0,0-.22.23L42.8,54A.22.22,0,0,0,43,54.19Z"/><path d="M40.44,54.19H41A.23.23,0,0,0,41.2,54l-.64-1.27a.23.23,0,0,0-.23-.23H39.8a.23.23,0,0,0-.23.23L40.21,54A.22.22,0,0,0,40.44,54.19Z"/><path class="cls-19" d="M30.33,49.54s.41-.94.93-1.18c.77-.36,2-.69,2.72.1.25.28.72.7,1.08,1.06,2.86,2.82,5.46,5.14,6.66,6.89,0,0,7.83-1.25,8.92-1.65s2.89,2.74,2.07,3.33S40,65.31,37.63,61.36C35.54,58,29.4,51.45,30.33,49.54Z"/><path class="cls-17" d="M52.71,58.09c.24-.18.25-.58.12-1.05l0-.09c-3.76,2.5-11.79,5.94-15.14,3s-6.91-11.07-6.9-11.11a4.11,4.11,0,0,0-.43.72c-.93,1.91,3.92,8.46,7.19,12.39C40.48,65.49,51.89,58.69,52.71,58.09Z"/><path class="cls-17" d="M41.52,56.06c-.6,0-1.64,0-1.93.81,0,0,1-.72,1.39-.4,0,0-1.88,1-1.77,2.05a14.66,14.66,0,0,1,2.4-2.29Z"/></g></g></svg>