<svg xmlns="http://www.w3.org/2000/svg" viewBox="0 0 56.27 115.86"><defs><style>.cls-1{fill:#03110e;}.cls-2{fill:#006e9e;}.cls-3{fill:#ffcc3e;}.cls-4{fill:#e8b32e;}.cls-5{fill:#127abc;}.cls-6{fill:#fed8a7;}.cls-7{fill:#fec894;}.cls-8{fill:#a46700;}.cls-9{fill:#e28b00;}.cls-10{fill:#ffac1a;}.cls-11{fill:#29443f;}.cls-12{fill:#c67239;}.cls-13{fill:#fccf8c;}.cls-14{fill:#d78346;}.cls-15{fill:#e8e8e8;}.cls-16{fill:#aeb1cc;}.cls-17{fill:#ffcd50;}</style></defs><title>Asset 34</title><g id="Layer_2" data-name="Layer 2"><g id="Layer_1-2" data-name="Layer 1"><path class="cls-1" d="M33.91,115.86a1.19,1.19,0,0,0,1.16-1.44c-.89-4-8.79-5-13.15-5-3.9,0-3.84,2.83-4.46,4.94a1.18,1.18,0,0,0,1.13,1.52Z"/><path class="cls-2" d="M14.9,65.16s6.21,42.27,4.21,45c0,0,6-.19,6.62-.5s2-39.38,0-44.53Z"/><path class="cls-3" d="M6.28,33.58c.75-7.13,10.77-6.07,10.77-6.07s2.49,0,6.44,2.89c2.61,1.88,3.2,5.85,4.42,11.39,0,0-6.37,10.44-3.34,15.2a58.65,58.65,0,0,1,.11,8c-.49,4.1-6.26,2.72-11.88.74S5.52,40.71,6.28,33.58Z"/><path class="cls-4" d="M16.58,44.14c-.4-3.72-1.29-14.28-4.32-13.82s1.68,21.16,1.68,21.16L21,49S16.8,46.16,16.58,44.14Z"/><path class="cls-5" d="M26.29,36.56S21.4,25.41,14,27.7h0c-.26.22,4.12-2.88,11.23,9.2Z"/><path class="cls-6" d="M27.75,10.31c-1.66-7.08-14.75-4.06-16,0-.53,1.78-.19,5.39.36,8.88h0a15.31,15.31,0,0,0,1,3.2c.5.79,1.08,4.53.61,5.09,3,1,6.28,4.18,6.28,4.18.17-.31-1.05-3-1.05-3-.3-3.61,3.16-2.86,6.47-4.51S27.75,10.31,27.75,10.31Z"/><path class="cls-7" d="M25.49,24.16a2.17,2.17,0,0,0,.58-.44c-1.15.55-2.22.58-4.31.34-1.59-.19-5-1.71-6-3.52-.8-1.36-1.17-5.37-1.17-5.37L12,17.79c.06.47.13.94.2,1.4h0a15.31,15.31,0,0,0,1,3.2c.5.79,1.08,4.53.61,5.09,3,1,6.28,4.18,6.28,4.18.17-.31-1.05-3-1.05-3C18.72,25.06,22.18,25.81,25.49,24.16Z"/><path class="cls-8" d="M26.55,5s2.82,3.54,1.36,7.33h0c-.11-1.78-.43-3.75-1.36-4.15h0a3.19,3.19,0,0,0-2.92,0c-2.79,1-3.08-.1-4.83-.31s-3.64,3.3-3.75,6.94c-.06,1.88-2.9,4.43-2.9,4.43a26.25,26.25,0,0,1-1-6.1C10.82,8.72,12.45-1.31,26.55,5Z"/><path class="cls-9" d="M10.24,9.28A8.67,8.67,0,0,1,10.37,8a9.75,9.75,0,0,1,9.75-8A9.5,9.5,0,0,1,30,9.29h.68c.29,0,.55-.09.55.21h0c0,.3-.26.43-.55.43H11C11.34,9.94,10.16,10.12,10.24,9.28Z"/><path class="cls-10" d="M31,9.51h0c0-.3-.06-.49-.35-.49H30A9.81,9.81,0,0,0,22,0,9.75,9.75,0,0,0,14.13,8,8,8,0,0,0,14,9.16a.52.52,0,0,0,.57.6H30.65C30.94,9.76,31,9.81,31,9.51Z"/><path class="cls-3" d="M30.65,9.94H11c.31,0-.87.28-.79-.56,0-.09,0-.09,0-.09H30.65c.29,0,.55-.09.55.21h0C31.2,9.81,30.94,9.94,30.65,9.94Z"/><path class="cls-3" d="M24.37,9.94h0a.49.49,0,0,0,.48-.49c0-4.52-2.43-6.62-2.54-6.7a.48.48,0,0,0-.62.74h0a8.15,8.15,0,0,1,2.19,6A.49.49,0,0,0,24.37,9.94Z"/><path class="cls-3" d="M26.4,9.29a8.64,8.64,0,0,0-1.32-4.7A.41.41,0,0,1,25.14,4c.2-.17.51-.26.68-.06a8.57,8.57,0,0,1,1.55,5.37Z"/><path class="cls-3" d="M19.8,4.05c.21-.17.51-.29.68-.09A8.37,8.37,0,0,1,22,9.29h-1a8.68,8.68,0,0,0-1.31-4.7A.33.33,0,0,1,19.8,4.05Z"/><path class="cls-7" d="M13.14,17.88h0a1.7,1.7,0,0,0,1.61-1.77V14.88a1.69,1.69,0,0,0-1.61-1.77h0a1.69,1.69,0,0,0-1.61,1.77l.21,1.64C12,17.64,12.25,17.88,13.14,17.88Z"/><path class="cls-5" d="M7.69,64.66h0v0Z"/><path class="cls-5" d="M7.81,65A12.23,12.23,0,0,0,7.8,67c0,.72,0,1.45,0,2.43h10.9a1.48,1.48,0,0,1,0-.21c4-.16,7.36-.62,7.36-.62C26.2,67.77,28,42.78,28,42.78s-.53-5.66-1.74-5.66H20.87s.91,6.21.37,8.32C20.1,49.91,14,59.18,6.79,49c.31,2.42,1.34,7.77,1.32,10.31C8.09,61.55,7.9,63.45,7.81,65Z"/><path class="cls-2" d="M7.69,64.66h0v0Z"/><path class="cls-2" d="M7.81,65A12.23,12.23,0,0,0,7.8,67c0,.72,0,1.45,0,2.43h4.42v0c-1.44-.68-2.33-5-1.79-6.36s-.2-7.33-.2-7.33L6.82,49.2c.34,2.51,1.31,7.64,1.29,10.1C8.09,61.51,7.9,63.45,7.81,65Z"/><path class="cls-7" d="M13.14,17.88h0a1.7,1.7,0,0,0,1.61-1.77V14.88a1.69,1.69,0,0,0-1.61-1.77h0a1.69,1.69,0,0,0-1.61,1.77l.21,1.64C12,17.64,12.25,17.88,13.14,17.88Z"/><path class="cls-5" d="M22.78,37s-4.9-11.16-12.34-8.87c0,0-1.38.74-1.64,1s5.76-3.83,12.87,8.24Z"/><path d="M26.09,38.36h.81a.34.34,0,0,0,.34-.34l-1-1.94a.35.35,0,0,0-.35-.35h-.81a.35.35,0,0,0-.34.35l1,1.94A.35.35,0,0,0,26.09,38.36Z"/><path d="M22.14,38.36H23A.35.35,0,0,0,23.3,38l-1-1.94a.35.35,0,0,0-.35-.35h-.81a.35.35,0,0,0-.34.35l1,1.94A.35.35,0,0,0,22.14,38.36Z"/><path class="cls-11" d="M8.14,109.68l1.63,6.18,5,0a1.2,1.2,0,0,0,1.15-1.46C15.24,111.39,12.21,110.12,8.14,109.68Z"/><path class="cls-11" d="M14.37,114.6c-1.24-3.28-4.7-6.47-7.87-8C3,104.84,1.8,107.4.32,109a1.19,1.19,0,0,0,.34,1.87l9.11,5Z"/><rect class="cls-12" x="37.99" y="35.89" width="18.28" height="27.68"/><rect class="cls-12" x="19.72" y="35.89" width="18.28" height="27.68"/><rect class="cls-13" x="37.99" y="34.84" width="18.28" height="27.68"/><rect class="cls-14" x="19.72" y="34.84" width="18.28" height="27.68"/><rect class="cls-15" x="43.74" y="39.02" width="8.88" height="7.31"/><rect class="cls-16" x="43.74" y="49.46" width="4.18" height="4.7"/><path class="cls-17" d="M6.89,31.42S7.51,30,8.3,29.61a3.43,3.43,0,0,1,4,.71,4,4,0,0,1,.92,1.75c1.85,6.81.52,12.81,2.35,15.49,0,0,8.84,10.91,10.54,11.43s0,4.57-2.21,5c-1.52.27-10.21-2.54-14.73-8C4.12,50,5.46,34.33,6.89,31.42Z"/><path class="cls-4" d="M23.86,64c.38-.28.39-.89.19-1.61a.74.74,0,0,1,0-.14c-4.29,1-11-3.94-14.88-8.93-4.22-5.44-1.61-22.91-1.6-23a6,6,0,0,0-.64,1.11C5.46,34.33,4.12,50,9.13,56,13.65,61.42,22.61,64.87,23.86,64Z"/><path class="cls-4" d="M15.23,47c-.91-.05-2.5.06-3,1.24,0,0,1.5-1.11,2.12-.63,0,0-2.86,1.53-2.69,3.14a22.24,22.24,0,0,1,3.67-3.5A2.07,2.07,0,0,1,15.23,47Z"/><path class="cls-17" d="M6.89,31.42S7.51,30,8.3,29.61a3.43,3.43,0,0,1,4,.71,4,4,0,0,1,.92,1.75c1.85,6.81.52,12.81,2.35,15.49,0,0,8.84,10.91,10.54,11.43s0,4.57-2.21,5c-1.52.27-10.21-2.54-14.73-8C4.12,50,5.46,34.33,6.89,31.42Z"/><path class="cls-4" d="M23.86,64c2.21-.4,3.87-4.45,2.21-5a2.66,2.66,0,0,1-.78-.5,2.64,2.64,0,0,0-1.88.94,5.39,5.39,0,0,0-.64,4.45A3.86,3.86,0,0,0,23.86,64Z"/><path class="cls-4" d="M23.86,64c.38-.28.39-.89.19-1.61a.74.74,0,0,1,0-.14c-4.29,1-11-3.94-14.88-8.93-4.22-5.44-1.61-22.91-1.6-23a6,6,0,0,0-.64,1.11C5.46,34.33,4.12,50,9.13,56,13.65,61.42,22.61,64.87,23.86,64Z"/><path class="cls-4" d="M15.23,47c-.91-.05-2.5.06-3,1.24,0,0,1.5-1.11,2.12-.63,0,0-2.86,1.53-2.69,3.14a22.24,22.24,0,0,1,3.67-3.5A2.07,2.07,0,0,1,15.23,47Z"/><path class="cls-6" d="M25,58.92c.08,0,4-.59,5.24.42a3.22,3.22,0,0,1,.81,1,3.35,3.35,0,0,1,.15.35c.25.71-.41,1.21-.89,1.75-.8.9-2,3.6-2.78,2.77s-3.62-1.53-4.07-3A3.07,3.07,0,0,1,25,58.92Z"/><path class="cls-6" d="M30.23,59.68c-.39.13.06,2.3.42,3.36s.88,1.56,1.28,1.43.66-.64.3-1.7S30.62,59.54,30.23,59.68Z"/><path class="cls-6" d="M29.07,60.55c-.39.13.06,2.3.42,3.36s.88,1.56,1.28,1.43.66-.64.3-1.7S29.46,60.42,29.07,60.55Z"/><path class="cls-6" d="M27.05,60.69c-.39.13.62,2.53,1,3.59s.88,1.56,1.27,1.42.67-.63.31-1.7S27.44,60.56,27.05,60.69Z"/><path class="cls-6" d="M28.63,59a7.91,7.91,0,0,0,3.69.59c1.69-.31.77,1.15-.07,1.37a4.07,4.07,0,0,1-1.72-.18Z"/><path class="cls-6" d="M25.64,60.69c-.39.13.62,2.53,1,3.59s.88,1.56,1.27,1.42.67-.63.31-1.7S26,60.56,25.64,60.69Z"/><path class="cls-5" d="M7.85,69.46c.06,2.44,1.7,18.22,1.7,18.22s-5.72,14.5-7,19.65l6.48,1.55c4.48-5.52,8.1-17.79,9.11-18.7s1.55-21,1.55-21Z"/><path class="cls-2" d="M9.55,87.68s-5.72,14.5-7,19.65L5,107.9c.35-4.46,5-17,5.13-17.75.18.24,2.77,1.11,2.64.84A24.23,24.23,0,0,0,10.86,89l1.88.63s-.52-.59-1.59-2,1.13-18.22,1.13-18.22l-.6-.08-3.83.08C7.91,71.9,9.55,87.68,9.55,87.68Z"/></g></g></svg>