<svg xmlns="http://www.w3.org/2000/svg" viewBox="0 0 191.68 182.43"><defs><style>.cls-1{isolation:isolate;}.cls-2{fill:#485b88;}.cls-3{fill:#64739a;}.cls-4,.cls-9{fill:#c78b5b;}.cls-5{fill:#e5be84;}.cls-6{fill:#ead1b7;}.cls-7{fill:#f7eee5;}.cls-8{fill:#444248;}.cls-9{opacity:0.32;mix-blend-mode:multiply;}.cls-10{fill:#dd642f;}</style></defs><title>Asset 32</title><g class="cls-1"><g id="Layer_2" data-name="Layer 2"><g id="Layer_1-2" data-name="Layer 1"><polygon class="cls-2" points="0.17 24.15 2.98 22.36 22.49 57.28 42 22.36 44.8 24.15 24.39 60.68 44.8 97.21 42 99 22.49 64.09 2.98 99 0.17 97.21 20.59 60.68 0.17 24.15"/><polygon class="cls-2" points="0.17 100.79 2.98 99 22.49 133.91 42 99 44.8 100.79 24.39 137.32 44.8 173.85 42 175.64 22.49 140.72 2.98 175.64 0.17 173.85 20.59 137.32 0.17 100.79"/><rect class="cls-3" x="41.78" y="19.03" width="3.2" height="163.4"/><rect class="cls-3" x="20.89" y="19.03" width="3.2" height="163.4"/><rect class="cls-3" y="19.03" width="3.2" height="163.4"/><rect class="cls-3" x="1.6" y="22.83" width="41.78" height="4.43"/><rect class="cls-3" x="1.6" y="96.78" width="41.78" height="4.43"/><rect class="cls-3" x="1.6" y="170.74" width="41.78" height="4.43"/><rect class="cls-4" x="35.19" y="110.23" width="33.95" height="33.18"/><rect class="cls-5" x="25.79" y="110.23" width="33.65" height="33.18"/><rect class="cls-6" x="39.94" y="110.23" width="5.36" height="8.54"/><rect class="cls-6" x="39.94" y="134.87" width="5.36" height="8.54"/><rect class="cls-7" x="28.17" y="136.6" width="8.73" height="5.27"/><rect class="cls-8" x="35.58" y="137.34" width="0.93" height="3.8"/><rect class="cls-8" x="34.69" y="137.34" width="0.33" height="3.8"/><rect class="cls-8" x="32.6" y="137.34" width="0.76" height="3.8"/><rect class="cls-8" x="33.85" y="137.34" width="0.46" height="3.8"/><rect class="cls-8" x="31.72" y="137.34" width="0.31" height="3.8"/><rect class="cls-8" x="29.92" y="137.34" width="0.63" height="3.8"/><rect class="cls-8" x="29.39" y="137.34" width="0.31" height="3.8"/><rect class="cls-8" x="30.83" y="137.34" width="0.43" height="3.8"/><rect class="cls-8" x="28.59" y="137.34" width="0.46" height="3.8"/><rect class="cls-9" x="25.79" y="125.78" width="43.35" height="17.63"/><rect class="cls-4" x="25.92" y="0.53" width="23.87" height="23.32"/><rect class="cls-5" x="19.31" y="0.53" width="23.66" height="23.32"/><rect class="cls-6" x="29.26" y="0.53" width="3.77" height="6"/><rect class="cls-6" x="29.26" y="17.85" width="3.77" height="6"/><rect class="cls-7" x="20.99" y="19.07" width="6.14" height="3.71"/><rect class="cls-8" x="26.19" y="19.59" width="0.65" height="2.67"/><rect class="cls-8" x="25.57" y="19.59" width="0.23" height="2.67"/><rect class="cls-8" x="24.1" y="19.59" width="0.53" height="2.67"/><rect class="cls-8" x="24.98" y="19.59" width="0.33" height="2.67"/><rect class="cls-8" x="23.48" y="19.59" width="0.22" height="2.67"/><rect class="cls-8" x="22.21" y="19.59" width="0.44" height="2.67"/><rect class="cls-8" x="21.84" y="19.59" width="0.22" height="2.67"/><rect class="cls-8" x="22.85" y="19.59" width="0.3" height="2.67"/><rect class="cls-8" x="21.28" y="19.59" width="0.33" height="2.67"/><rect class="cls-4" x="17.56" y="129.33" width="23.87" height="14.07"/><rect class="cls-5" x="10.95" y="129.33" width="23.66" height="14.07"/><rect class="cls-6" x="19.61" y="129.33" width="6.35" height="4.17"/><rect class="cls-7" x="27.34" y="138.62" width="6.14" height="3.71"/><rect class="cls-8" x="32.54" y="139.14" width="0.65" height="2.67"/><rect class="cls-8" x="31.92" y="139.14" width="0.23" height="2.67"/><rect class="cls-8" x="30.45" y="139.14" width="0.53" height="2.67"/><rect class="cls-8" x="31.33" y="139.14" width="0.33" height="2.67"/><rect class="cls-8" x="29.83" y="139.14" width="0.22" height="2.67"/><rect class="cls-8" x="28.57" y="139.14" width="0.44" height="2.67"/><rect class="cls-8" x="28.2" y="139.14" width="0.22" height="2.67"/><rect class="cls-8" x="29.21" y="139.14" width="0.3" height="2.67"/><rect class="cls-8" x="27.64" y="139.14" width="0.33" height="2.67"/><rect class="cls-4" x="18.18" y="23.58" width="23.87" height="23.32"/><rect class="cls-5" x="11.57" y="23.58" width="23.66" height="23.32"/><rect class="cls-6" x="20.23" y="23.58" width="6.35" height="6"/><rect class="cls-6" x="20.23" y="40.9" width="6.35" height="6"/><rect class="cls-7" x="27.96" y="42.12" width="6.14" height="3.71"/><rect class="cls-8" x="33.16" y="42.64" width="0.65" height="2.67"/><rect class="cls-8" x="32.54" y="42.64" width="0.23" height="2.67"/><rect class="cls-8" x="31.07" y="42.64" width="0.53" height="2.67"/><rect class="cls-8" x="31.95" y="42.64" width="0.33" height="2.67"/><rect class="cls-8" x="30.45" y="42.64" width="0.22" height="2.67"/><rect class="cls-8" x="29.19" y="42.64" width="0.44" height="2.67"/><rect class="cls-8" x="28.82" y="42.64" width="0.22" height="2.67"/><rect class="cls-8" x="29.83" y="42.64" width="0.3" height="2.67"/><rect class="cls-8" x="28.26" y="42.64" width="0.33" height="2.67"/><rect class="cls-4" x="47.7" y="10.61" width="37.13" height="36.28"/><rect class="cls-5" x="37.42" y="10.61" width="36.8" height="36.28"/><rect class="cls-6" x="50.88" y="10.61" width="9.88" height="9.34"/><rect class="cls-6" x="50.88" y="37.56" width="9.88" height="9.34"/><rect class="cls-7" x="62.91" y="39.46" width="9.55" height="5.77"/><rect class="cls-8" x="71.01" y="40.27" width="1.01" height="4.15"/><rect class="cls-8" x="70.04" y="40.27" width="0.36" height="4.15"/><rect class="cls-8" x="67.75" y="40.27" width="0.83" height="4.15"/><rect class="cls-8" x="69.13" y="40.27" width="0.51" height="4.15"/><rect class="cls-8" x="66.79" y="40.27" width="0.34" height="4.15"/><rect class="cls-8" x="64.82" y="40.27" width="0.69" height="4.15"/><rect class="cls-8" x="64.25" y="40.27" width="0.34" height="4.15"/><rect class="cls-8" x="65.82" y="40.27" width="0.47" height="4.15"/><rect class="cls-8" x="63.37" y="40.27" width="0.51" height="4.15"/><rect class="cls-4" x="61.66" y="114.44" width="29.64" height="28.96"/><rect class="cls-5" x="53.45" y="114.44" width="29.38" height="28.96"/><rect class="cls-6" x="65.8" y="114.44" width="4.68" height="7.45"/><rect class="cls-6" x="65.8" y="135.95" width="4.68" height="7.45"/><rect class="cls-7" x="55.53" y="137.47" width="7.62" height="4.6"/><rect class="cls-8" x="62" y="138.11" width="0.81" height="3.31"/><rect class="cls-8" x="61.22" y="138.11" width="0.28" height="3.31"/><rect class="cls-8" x="59.4" y="138.11" width="0.66" height="3.31"/><rect class="cls-8" x="60.49" y="138.11" width="0.4" height="3.31"/><rect class="cls-8" x="58.63" y="138.11" width="0.27" height="3.31"/><rect class="cls-8" x="57.06" y="138.11" width="0.55" height="3.31"/><rect class="cls-8" x="56.6" y="138.11" width="0.27" height="3.31"/><rect class="cls-8" x="57.85" y="138.11" width="0.38" height="3.31"/><rect class="cls-8" x="55.9" y="138.11" width="0.4" height="3.31"/><rect class="cls-4" x="97.23" y="120.08" width="23.87" height="23.32"/><rect class="cls-5" x="90.62" y="120.08" width="23.66" height="23.32"/><rect class="cls-6" x="99.28" y="120.08" width="6.35" height="6"/><rect class="cls-6" x="99.28" y="137.4" width="6.35" height="6"/><rect class="cls-7" x="107.01" y="138.62" width="6.14" height="3.71"/><rect class="cls-8" x="112.21" y="139.14" width="0.65" height="2.67"/><rect class="cls-8" x="111.59" y="139.14" width="0.23" height="2.67"/><rect class="cls-8" x="110.12" y="139.14" width="0.53" height="2.67"/><rect class="cls-8" x="111" y="139.14" width="0.33" height="2.67"/><rect class="cls-8" x="109.5" y="139.14" width="0.22" height="2.67"/><rect class="cls-8" x="108.24" y="139.14" width="0.44" height="2.67"/><rect class="cls-8" x="107.87" y="139.14" width="0.22" height="2.67"/><rect class="cls-8" x="108.88" y="139.14" width="0.3" height="2.67"/><rect class="cls-8" x="107.31" y="139.14" width="0.33" height="2.67"/><rect class="cls-4" x="126.75" y="107.12" width="37.13" height="36.28"/><rect class="cls-5" x="116.47" y="107.12" width="36.8" height="36.28"/><rect class="cls-6" x="129.93" y="107.12" width="9.88" height="9.34"/><rect class="cls-6" x="129.93" y="134.07" width="9.88" height="9.34"/><rect class="cls-7" x="141.96" y="135.96" width="9.55" height="5.77"/><rect class="cls-8" x="150.06" y="136.77" width="1.01" height="4.15"/><rect class="cls-8" x="149.09" y="136.77" width="0.36" height="4.15"/><rect class="cls-8" x="146.8" y="136.77" width="0.83" height="4.15"/><rect class="cls-8" x="148.18" y="136.77" width="0.51" height="4.15"/><rect class="cls-8" x="145.84" y="136.77" width="0.34" height="4.15"/><rect class="cls-8" x="143.87" y="136.77" width="0.69" height="4.15"/><rect class="cls-8" x="143.3" y="136.77" width="0.34" height="4.15"/><rect class="cls-8" x="144.87" y="136.77" width="0.47" height="4.15"/><rect class="cls-8" x="142.42" y="136.77" width="0.51" height="4.15"/><rect class="cls-4" x="139.07" width="28.27" height="27.63"/><rect class="cls-5" x="131.24" width="28.02" height="27.63"/><rect class="cls-6" x="141.49" width="7.52" height="7.11"/><rect class="cls-6" x="141.49" y="20.52" width="7.52" height="7.11"/><rect class="cls-7" x="150.65" y="21.96" width="7.27" height="4.39"/><rect class="cls-8" x="156.82" y="22.58" width="0.77" height="3.16"/><rect class="cls-8" x="156.08" y="22.58" width="0.27" height="3.16"/><rect class="cls-8" x="154.34" y="22.58" width="0.63" height="3.16"/><rect class="cls-8" x="155.38" y="22.58" width="0.39" height="3.16"/><rect class="cls-8" x="153.6" y="22.58" width="0.26" height="3.16"/><rect class="cls-8" x="152.11" y="22.58" width="0.52" height="3.16"/><rect class="cls-8" x="151.67" y="22.58" width="0.26" height="3.16"/><rect class="cls-8" x="152.86" y="22.58" width="0.36" height="3.16"/><rect class="cls-8" x="151" y="22.58" width="0.39" height="3.16"/><rect class="cls-9" x="131.24" y="6.78" width="26.08" height="20.85"/><rect class="cls-4" x="93.92" y="0.53" width="23.87" height="23.32"/><rect class="cls-5" x="87.31" y="0.53" width="23.66" height="23.32"/><rect class="cls-6" x="97.26" y="0.53" width="3.77" height="6"/><rect class="cls-6" x="97.26" y="17.85" width="3.77" height="6"/><rect class="cls-7" x="88.99" y="19.07" width="6.14" height="3.71"/><rect class="cls-8" x="94.19" y="19.59" width="0.65" height="2.67"/><rect class="cls-8" x="93.57" y="19.59" width="0.23" height="2.67"/><rect class="cls-8" x="92.1" y="19.59" width="0.53" height="2.67"/><rect class="cls-8" x="92.98" y="19.59" width="0.33" height="2.67"/><rect class="cls-8" x="91.48" y="19.59" width="0.22" height="2.67"/><rect class="cls-8" x="90.22" y="19.59" width="0.44" height="2.67"/><rect class="cls-8" x="89.84" y="19.59" width="0.22" height="2.67"/><rect class="cls-8" x="90.85" y="19.59" width="0.3" height="2.67"/><rect class="cls-8" x="89.28" y="19.59" width="0.33" height="2.67"/><rect class="cls-4" x="86.18" y="23.58" width="23.87" height="23.32"/><rect class="cls-5" x="79.58" y="23.58" width="23.66" height="23.32"/><rect class="cls-6" x="88.23" y="23.58" width="6.35" height="6"/><rect class="cls-6" x="88.23" y="40.9" width="6.35" height="6"/><rect class="cls-7" x="95.96" y="42.12" width="6.14" height="3.71"/><rect class="cls-8" x="101.17" y="42.64" width="0.65" height="2.67"/><rect class="cls-8" x="100.54" y="42.64" width="0.23" height="2.67"/><rect class="cls-8" x="99.07" y="42.64" width="0.53" height="2.67"/><rect class="cls-8" x="99.95" y="42.64" width="0.33" height="2.67"/><rect class="cls-8" x="98.45" y="42.64" width="0.22" height="2.67"/><rect class="cls-8" x="97.19" y="42.64" width="0.44" height="2.67"/><rect class="cls-8" x="96.82" y="42.64" width="0.22" height="2.67"/><rect class="cls-8" x="97.83" y="42.64" width="0.3" height="2.67"/><rect class="cls-8" x="96.26" y="42.64" width="0.33" height="2.67"/><rect class="cls-4" x="115.7" y="10.61" width="37.13" height="36.28"/><rect class="cls-5" x="105.42" y="10.61" width="36.8" height="36.28"/><rect class="cls-6" x="118.89" y="10.61" width="9.88" height="9.34"/><rect class="cls-6" x="118.89" y="37.56" width="9.88" height="9.34"/><rect class="cls-7" x="130.91" y="39.46" width="9.55" height="5.77"/><rect class="cls-8" x="139.01" y="40.27" width="1.01" height="4.15"/><rect class="cls-8" x="138.04" y="40.27" width="0.36" height="4.15"/><rect class="cls-8" x="135.76" y="40.27" width="0.83" height="4.15"/><rect class="cls-8" x="137.13" y="40.27" width="0.51" height="4.15"/><rect class="cls-8" x="134.79" y="40.27" width="0.34" height="4.15"/><rect class="cls-8" x="132.82" y="40.27" width="0.69" height="4.15"/><rect class="cls-8" x="132.25" y="40.27" width="0.34" height="4.15"/><rect class="cls-8" x="133.82" y="40.27" width="0.47" height="4.15"/><rect class="cls-8" x="131.38" y="40.27" width="0.51" height="4.15"/><rect class="cls-4" x="39.29" y="67.05" width="29.03" height="28.37"/><rect class="cls-5" x="31.25" y="67.05" width="28.78" height="28.37"/><rect class="cls-6" x="41.78" y="67.05" width="7.72" height="7.3"/><rect class="cls-6" x="41.78" y="88.11" width="7.72" height="7.3"/><rect class="cls-7" x="51.18" y="89.6" width="7.47" height="4.51"/><rect class="cls-8" x="57.52" y="90.23" width="0.79" height="3.25"/><rect class="cls-8" x="56.76" y="90.23" width="0.28" height="3.25"/><rect class="cls-8" x="54.97" y="90.23" width="0.65" height="3.25"/><rect class="cls-8" x="56.04" y="90.23" width="0.4" height="3.25"/><rect class="cls-8" x="54.21" y="90.23" width="0.27" height="3.25"/><rect class="cls-8" x="52.68" y="90.23" width="0.54" height="3.25"/><rect class="cls-8" x="52.23" y="90.23" width="0.27" height="3.25"/><rect class="cls-8" x="53.45" y="90.23" width="0.37" height="3.25"/><rect class="cls-8" x="51.54" y="90.23" width="0.4" height="3.25"/><rect class="cls-4" x="142.13" y="57.03" width="29.03" height="38.38"/><rect class="cls-5" x="134.09" y="57.03" width="28.78" height="38.38"/><rect class="cls-6" x="144.62" y="57.03" width="7.72" height="7.3"/><rect class="cls-6" x="144.62" y="88.11" width="7.72" height="7.3"/><rect class="cls-7" x="154.03" y="89.6" width="7.47" height="4.51"/><rect class="cls-8" x="160.36" y="90.23" width="0.79" height="3.25"/><rect class="cls-8" x="159.6" y="90.23" width="0.28" height="3.25"/><rect class="cls-8" x="157.81" y="90.23" width="0.65" height="3.25"/><rect class="cls-8" x="158.88" y="90.23" width="0.4" height="3.25"/><rect class="cls-8" x="157.06" y="90.23" width="0.27" height="3.25"/><rect class="cls-8" x="155.52" y="90.23" width="0.54" height="3.25"/><rect class="cls-8" x="155.07" y="90.23" width="0.27" height="3.25"/><rect class="cls-8" x="156.3" y="90.23" width="0.37" height="3.25"/><rect class="cls-8" x="154.39" y="90.23" width="0.4" height="3.25"/><rect class="cls-9" x="134.09" y="57.03" width="10.3" height="38.38"/><rect class="cls-4" x="70.1" y="72.09" width="23.87" height="23.32"/><rect class="cls-5" x="63.49" y="72.09" width="23.66" height="23.32"/><rect class="cls-6" x="72.14" y="72.09" width="6.35" height="6"/><rect class="cls-6" x="72.14" y="89.41" width="6.35" height="6"/><rect class="cls-7" x="79.87" y="90.63" width="6.14" height="3.71"/><rect class="cls-8" x="85.08" y="91.15" width="0.65" height="2.67"/><rect class="cls-8" x="84.45" y="91.15" width="0.23" height="2.67"/><rect class="cls-8" x="82.98" y="91.15" width="0.53" height="2.67"/><rect class="cls-8" x="83.86" y="91.15" width="0.33" height="2.67"/><rect class="cls-8" x="82.36" y="91.15" width="0.22" height="2.67"/><rect class="cls-8" x="81.1" y="91.15" width="0.44" height="2.67"/><rect class="cls-8" x="80.73" y="91.15" width="0.22" height="2.67"/><rect class="cls-8" x="81.74" y="91.15" width="0.3" height="2.67"/><rect class="cls-8" x="80.17" y="91.15" width="0.33" height="2.67"/><rect class="cls-4" x="99.61" y="59.13" width="37.13" height="36.28"/><rect class="cls-5" x="89.33" y="59.13" width="36.8" height="36.28"/><rect class="cls-6" x="102.8" y="59.13" width="9.88" height="9.34"/><rect class="cls-6" x="102.8" y="86.08" width="9.88" height="9.34"/><rect class="cls-7" x="114.83" y="87.97" width="9.55" height="5.77"/><rect class="cls-8" x="122.92" y="88.78" width="1.01" height="4.15"/><rect class="cls-8" x="121.95" y="88.78" width="0.36" height="4.15"/><rect class="cls-8" x="119.67" y="88.78" width="0.83" height="4.15"/><rect class="cls-8" x="121.04" y="88.78" width="0.51" height="4.15"/><rect class="cls-8" x="118.7" y="88.78" width="0.34" height="4.15"/><rect class="cls-8" x="116.74" y="88.78" width="0.69" height="4.15"/><rect class="cls-8" x="116.16" y="88.78" width="0.34" height="4.15"/><rect class="cls-8" x="117.73" y="88.78" width="0.47" height="4.15"/><rect class="cls-8" x="115.29" y="88.78" width="0.51" height="4.15"/><rect class="cls-4" x="154.85" y="23.58" width="23.87" height="23.32"/><rect class="cls-5" x="148.25" y="23.58" width="23.66" height="23.32"/><rect class="cls-6" x="156.9" y="23.58" width="6.35" height="6"/><rect class="cls-6" x="156.9" y="40.9" width="6.35" height="6"/><rect class="cls-7" x="164.63" y="42.12" width="6.14" height="3.71"/><rect class="cls-8" x="169.84" y="42.64" width="0.65" height="2.67"/><rect class="cls-8" x="169.21" y="42.64" width="0.23" height="2.67"/><rect class="cls-8" x="167.74" y="42.64" width="0.53" height="2.67"/><rect class="cls-8" x="168.62" y="42.64" width="0.33" height="2.67"/><rect class="cls-8" x="167.12" y="42.64" width="0.22" height="2.67"/><rect class="cls-8" x="165.86" y="42.64" width="0.44" height="2.67"/><rect class="cls-8" x="165.49" y="42.64" width="0.22" height="2.67"/><rect class="cls-8" x="166.5" y="42.64" width="0.3" height="2.67"/><rect class="cls-8" x="164.93" y="42.64" width="0.33" height="2.67"/><rect class="cls-9" x="148.25" y="23.58" width="6.5" height="23.32"/><rect class="cls-10" x="3.2" y="46.9" width="186.88" height="7.8"/><rect class="cls-10" x="3.2" y="95.41" width="186.88" height="7.8"/><rect class="cls-10" x="3.2" y="143.4" width="186.88" height="7.8"/><polygon class="cls-2" points="146.87 24.15 149.68 22.36 169.19 57.28 188.7 22.36 191.5 24.15 171.09 60.68 191.5 97.21 188.7 99 169.19 64.09 149.68 99 146.87 97.21 167.28 60.68 146.87 24.15"/><polygon class="cls-2" points="146.87 100.79 149.68 99 169.19 133.91 188.7 99 191.5 100.79 171.09 137.32 191.5 173.85 188.7 175.64 169.19 140.72 149.68 175.64 146.87 173.85 167.28 137.32 146.87 100.79"/><rect class="cls-3" x="188.48" y="19.03" width="3.2" height="163.4"/><rect class="cls-3" x="167.59" y="19.03" width="3.2" height="163.4"/><rect class="cls-3" x="146.7" y="19.03" width="3.2" height="163.4"/><rect class="cls-3" x="148.3" y="22.83" width="41.78" height="4.43"/><rect class="cls-3" x="148.3" y="96.78" width="41.78" height="4.43"/><rect class="cls-3" x="148.3" y="170.74" width="41.78" height="4.43"/></g></g></g></svg>