<svg xmlns="http://www.w3.org/2000/svg" viewBox="0 0 131.22 180.48"><defs><style>.cls-1{fill:#b1b2b4;}.cls-2{fill:#999;}.cls-3{fill:#848484;}.cls-4{fill:#c67239;}.cls-5{fill:#fccf8c;}.cls-6{fill:#d78346;}.cls-7{fill:#e8e8e8;}.cls-8{fill:#aeb1cc;}</style></defs><title>Asset 26</title><g id="Layer_2" data-name="Layer 2"><g id="Layer_1-2" data-name="Layer 1"><rect class="cls-1" x="37.29" width="3.68" height="180.48"/><rect class="cls-2" x="39.6" width="3.68" height="180.48"/><rect class="cls-1" width="3.68" height="180.48"/><rect class="cls-2" x="2.3" width="3.68" height="180.48"/><rect class="cls-1" x="125.23" width="3.68" height="180.48"/><rect class="cls-2" x="127.53" width="3.68" height="180.48"/><rect class="cls-3" x="2.3" y="40.6" width="125.23" height="4.6"/><rect class="cls-3" x="2.3" width="125.23" height="4.6"/><rect class="cls-3" x="2.3" y="81.21" width="125.23" height="4.6"/><rect class="cls-3" x="2.3" y="121.81" width="125.23" height="4.6"/><rect class="cls-3" x="2.3" y="162.42" width="125.23" height="4.6"/><rect class="cls-4" x="15.19" y="16.2" width="16.11" height="24.4"/><rect class="cls-4" x="31.31" y="16.2" width="24.86" height="24.4"/><rect class="cls-5" x="15.19" y="15.28" width="16.11" height="24.4"/><rect class="cls-6" x="31.31" y="15.28" width="24.86" height="24.4"/><rect class="cls-7" x="18.42" y="18.96" width="7.83" height="6.45"/><rect class="cls-8" x="22.56" y="28.17" width="3.68" height="4.14"/><rect class="cls-4" x="37.06" y="16.2" width="16.11" height="24.4"/><rect class="cls-4" x="53.18" y="16.2" width="24.86" height="24.4"/><rect class="cls-5" x="37.06" y="15.28" width="16.11" height="24.4"/><rect class="cls-6" x="53.18" y="15.28" width="24.86" height="24.4"/><rect class="cls-7" x="40.29" y="18.96" width="7.83" height="6.45"/><rect class="cls-8" x="44.43" y="28.17" width="3.68" height="4.14"/><rect class="cls-4" x="58.7" y="16.2" width="16.11" height="24.4"/><rect class="cls-4" x="74.82" y="16.2" width="24.86" height="24.4"/><rect class="cls-5" x="58.7" y="15.28" width="16.11" height="24.4"/><rect class="cls-6" x="74.82" y="15.28" width="24.86" height="24.4"/><rect class="cls-7" x="61.93" y="18.96" width="7.83" height="6.45"/><rect class="cls-8" x="66.07" y="28.17" width="3.68" height="4.14"/><rect class="cls-4" x="79.65" y="16.2" width="16.12" height="24.4"/><rect class="cls-4" x="95.77" y="16.2" width="24.86" height="24.4"/><rect class="cls-5" x="79.65" y="15.28" width="16.12" height="24.4"/><rect class="cls-6" x="95.77" y="15.28" width="24.86" height="24.4"/><rect class="cls-7" x="82.88" y="18.96" width="7.83" height="6.45"/><rect class="cls-8" x="87.02" y="28.17" width="3.68" height="4.14"/><rect class="cls-4" x="12.2" y="57.13" width="16.11" height="24.4"/><rect class="cls-4" x="28.31" y="57.13" width="24.86" height="24.4"/><rect class="cls-5" x="12.2" y="56.21" width="16.11" height="24.4"/><rect class="cls-6" x="28.31" y="56.21" width="24.86" height="24.4"/><rect class="cls-7" x="15.42" y="59.89" width="7.83" height="6.45"/><rect class="cls-8" x="19.57" y="69.1" width="3.68" height="4.14"/><rect class="cls-4" x="34.07" y="57.13" width="16.11" height="24.4"/><rect class="cls-4" x="50.18" y="57.13" width="24.86" height="24.4"/><rect class="cls-5" x="34.07" y="56.21" width="16.11" height="24.4"/><rect class="cls-6" x="50.18" y="56.21" width="24.86" height="24.4"/><rect class="cls-7" x="37.29" y="59.89" width="7.83" height="6.45"/><rect class="cls-8" x="41.44" y="69.1" width="3.68" height="4.14"/><rect class="cls-4" x="55.71" y="57.13" width="16.11" height="24.4"/><rect class="cls-4" x="71.82" y="57.13" width="24.86" height="24.4"/><rect class="cls-5" x="55.71" y="56.21" width="16.11" height="24.4"/><rect class="cls-6" x="71.82" y="56.21" width="24.86" height="24.4"/><rect class="cls-7" x="58.93" y="59.89" width="7.83" height="6.45"/><rect class="cls-8" x="63.08" y="69.1" width="3.68" height="4.14"/><rect class="cls-4" x="76.66" y="57.13" width="16.12" height="24.4"/><rect class="cls-4" x="92.77" y="57.13" width="24.86" height="24.4"/><rect class="cls-5" x="76.66" y="56.21" width="16.12" height="24.4"/><rect class="cls-6" x="92.77" y="56.21" width="24.86" height="24.4"/><rect class="cls-7" x="79.88" y="59.89" width="7.83" height="6.45"/><rect class="cls-8" x="84.03" y="69.1" width="3.68" height="4.14"/><rect class="cls-4" x="12.2" y="97.41" width="16.11" height="24.4"/><rect class="cls-4" x="28.31" y="97.41" width="24.86" height="24.4"/><rect class="cls-5" x="12.2" y="96.49" width="16.11" height="24.4"/><rect class="cls-6" x="28.31" y="96.49" width="24.86" height="24.4"/><rect class="cls-7" x="15.42" y="100.17" width="7.83" height="6.45"/><rect class="cls-8" x="19.57" y="109.38" width="3.68" height="4.14"/><rect class="cls-4" x="34.07" y="97.41" width="16.11" height="24.4"/><rect class="cls-4" x="50.18" y="97.41" width="24.86" height="24.4"/><rect class="cls-5" x="34.07" y="96.49" width="16.11" height="24.4"/><rect class="cls-6" x="50.18" y="96.49" width="24.86" height="24.4"/><rect class="cls-7" x="37.29" y="100.17" width="7.83" height="6.45"/><rect class="cls-8" x="41.44" y="109.38" width="3.68" height="4.14"/><rect class="cls-4" x="55.71" y="97.41" width="16.11" height="24.4"/><rect class="cls-4" x="71.82" y="97.41" width="24.86" height="24.4"/><rect class="cls-5" x="55.71" y="96.49" width="16.11" height="24.4"/><rect class="cls-6" x="71.82" y="96.49" width="24.86" height="24.4"/><rect class="cls-7" x="58.93" y="100.17" width="7.83" height="6.45"/><rect class="cls-8" x="63.08" y="109.38" width="3.68" height="4.14"/><rect class="cls-4" x="76.66" y="97.41" width="16.12" height="24.4"/><rect class="cls-4" x="92.77" y="97.41" width="24.86" height="24.4"/><rect class="cls-5" x="76.66" y="96.49" width="16.12" height="24.4"/><rect class="cls-6" x="92.77" y="96.49" width="24.86" height="24.4"/><rect class="cls-7" x="79.88" y="100.17" width="7.83" height="6.45"/><rect class="cls-8" x="84.03" y="109.38" width="3.68" height="4.14"/><rect class="cls-4" x="13.12" y="137.69" width="16.11" height="24.4"/><rect class="cls-4" x="29.24" y="137.69" width="24.86" height="24.4"/><rect class="cls-5" x="13.12" y="136.77" width="16.11" height="24.4"/><rect class="cls-6" x="29.24" y="136.77" width="24.86" height="24.4"/><rect class="cls-7" x="16.34" y="140.46" width="7.83" height="6.45"/><rect class="cls-8" x="20.49" y="149.66" width="3.68" height="4.14"/><rect class="cls-4" x="34.99" y="137.69" width="16.11" height="24.4"/><rect class="cls-4" x="51.11" y="137.69" width="24.86" height="24.4"/><rect class="cls-5" x="34.99" y="136.77" width="16.11" height="24.4"/><rect class="cls-6" x="51.11" y="136.77" width="24.86" height="24.4"/><rect class="cls-7" x="38.21" y="140.46" width="7.83" height="6.45"/><rect class="cls-8" x="42.36" y="149.66" width="3.68" height="4.14"/><rect class="cls-4" x="56.63" y="137.69" width="16.11" height="24.4"/><rect class="cls-4" x="72.75" y="137.69" width="24.86" height="24.4"/><rect class="cls-5" x="56.63" y="136.77" width="16.11" height="24.4"/><rect class="cls-6" x="72.75" y="136.77" width="24.86" height="24.4"/><rect class="cls-7" x="59.85" y="140.46" width="7.83" height="6.45"/><rect class="cls-8" x="64" y="149.66" width="3.68" height="4.14"/><rect class="cls-4" x="77.58" y="137.69" width="16.12" height="24.4"/><rect class="cls-4" x="93.7" y="137.69" width="24.86" height="24.4"/><rect class="cls-5" x="77.58" y="136.77" width="16.12" height="24.4"/><rect class="cls-6" x="93.7" y="136.77" width="24.86" height="24.4"/><rect class="cls-7" x="80.8" y="140.46" width="7.83" height="6.45"/><rect class="cls-8" x="84.95" y="149.66" width="3.68" height="4.14"/><rect class="cls-1" x="87.94" width="3.68" height="180.48"/><rect class="cls-2" x="90.24" width="3.68" height="180.48"/><polyline class="cls-3" points="78.52 4.6 87.94 4.6 87.94 14.02"/><polyline class="cls-3" points="11.72 4.6 2.3 4.6 2.3 14.02"/><polyline class="cls-3" points="52.7 4.6 43.28 4.6 43.28 14.02"/><polyline class="cls-3" points="118.12 4.6 127.53 4.6 127.53 14.02"/></g></g></svg>