<svg xmlns="http://www.w3.org/2000/svg" viewBox="0 0 89.88 163.45"><defs><style>.cls-1{fill:#877373;}.cls-2{fill:#e2550e;}.cls-3{fill:#eea886;}.cls-4{fill:#385369;}.cls-5{fill:#323657;}.cls-6{fill:#dbdff0;}.cls-7{fill:#754836;}.cls-8{fill:#fab546;}.cls-9{fill:#ccd0e0;}.cls-10{fill:#3b3f66;}.cls-11{fill:#555c94;}.cls-12{fill:#bcc0cf;}.cls-13{fill:#e3dddd;}.cls-14{fill:#b5b0b0;}.cls-15{fill:#293c4d;}.cls-16{fill:#fa7126;}.cls-17{fill:#ebebeb;}.cls-18{fill:#d1d1d1;}.cls-19{fill:#5f6069;}.cls-20{fill:#a77860;}</style></defs><title>Asset 30</title><g id="Layer_2" data-name="Layer 2"><g id="Layer_1-2" data-name="Layer 1"><polygon class="cls-1" points="61.04 31.75 61.53 31.76 61.55 29.59 50.59 27.8 50.65 22.74 52.55 22.76 52.55 22.27 50.17 22.25 50.1 28.21 61.06 30.01 61.04 31.75"/><rect class="cls-2" x="53.68" y="19.82" width="16.45" height="5.61" transform="translate(123.55 45.97) rotate(-179.33)"/><rect class="cls-1" x="60.06" y="31.36" width="2.44" height="14.82" transform="translate(122.56 77.54) rotate(180)"/><path class="cls-3" d="M64.05,41.76a3.22,3.22,0,0,1-.87.56s-.59.1-1,.21l-.33.09a5.48,5.48,0,0,1-1.74.56,31.89,31.89,0,0,1-4.21-.63l0-2.22-.41-2s4.27-3.21,5-3.37a.82.82,0,0,1,.21,0,6.46,6.46,0,0,1,1.44.18c.12,0,1.33.13,1.51.47a1.46,1.46,0,0,1,.09,1.29,3.33,3.33,0,0,1,.32,1.7,2.19,2.19,0,0,1,0,1.75S64.42,41.26,64.05,41.76Z"/><path class="cls-4" d="M16.67,30.11S11.5,45.52,12.11,46s14.38,4.15,14.38,4.15-1.82,12.6-2.59,12.49c-1.07-.16-20.18-10.57-20.73-11.9S7,42,7,42,13.39,27.78,16.67,30.11Z"/><path class="cls-5" d="M36.41,154.46s4.29-.91,4.44-1,1-1.85,1.71-1.57.72,2.36,1.37,2.7,5.86,3.72,6.5,4.34,4.53.18,5,1.27.55,3.68-5.27,3.18-12.43.55-13.69-.12S36,156.14,36.41,154.46Z"/><path class="cls-5" d="M1.71,152.07s4.38-.21,4.55-.32,1.32-1.66,1.94-1.27.33,2.44.92,2.88,5.19,4.61,5.72,5.32,4.45.9,4.73,2.06-.05,3.72-5.71,2.29S1.5,161.59.36,160.73,1.07,153.67,1.71,152.07Z"/><path class="cls-3" d="M28.52,21.13l-.09.25c-.16.49-.3,1-.42,1.46a22.71,22.71,0,0,0-.66,4.93c.39,1.58-6.36-4.84-6.36-4.84a78.65,78.65,0,0,0-.18-11.15C20.26,5.91,28.52,21.13,28.52,21.13Z"/><path class="cls-6" d="M31.36,53.23c-.17.66-.35,1.35-.52,2.07-.08.33-.15.68-.22,1-1,5.11-.47,12.48.35,20.78,0,0-3.61,1.13-22.72,4.21a236.68,236.68,0,0,1,3.94-47.89c2-6.39,4.15-7.39,8.59-10.75,0,0,.86,0,6.9,4.36.43.3,2.38,4.21,3.61,8.56C33.45,43.29,32.89,47.27,31.36,53.23Z"/><path class="cls-4" d="M26,46.32a13.18,13.18,0,0,1-1.39,2,10.61,10.61,0,0,1-4.79,3.33,3.4,3.4,0,0,1-2.19,0l-.17-.07c-3-1.54-5.64-19.64-.06-22.83a6.9,6.9,0,0,1,5.25-.27c2.6,1.09,4.45,5.65,4.79,12.31A10.15,10.15,0,0,1,26,46.32Z"/><path class="cls-3" d="M32.49,6.36s2.27,3.41,1.36,4.06c-.75.54,1.31,3.9,1.59,4.46S34.09,16,33.77,16.41s-.93,5.06-2.29,5.33-7.73-1.3-9.57-2.89S18,9.49,18.76,6.06,28.48.41,32.49,6.36Z"/><path class="cls-7" d="M33,7.06s.35-1.75-3.51-4.29-8.77.86-9.5,1.12S16,7.8,17.86,12.08c3,7.16,3.25,6.93,3.25,6.93s.3-4.46,1.62-4.9S26.13,13,26.13,13s-1.58-3.24.35-3.91S30.89,6.51,33,7.06Z"/><path class="cls-3" d="M25.3,13.37c-.14-.39-.75-2.11-2.11-1.71s-.69,2.51.5,3.68S26.06,15.51,25.3,13.37Z"/><path class="cls-8" d="M33.43,7s-4.22-10.62-13-5.74C10.18,7,19.28,15.39,19.28,15.39S21.76,10.57,33.43,7Z"/><path class="cls-8" d="M33,6.1a15.71,15.71,0,0,1,2.56.16c3,.6-6.51,2.24-7.32,2.63C20.73,12.46,33,6.1,33,6.1Z"/><path class="cls-4" d="M24.16,29.58s-4.38-4.18-8.45,1.3c-2.24,3-.2,6.76,12.2,17,0,0,5,5,6.43,5.34,5.26,1.05,20.75-8.11,22.15-9.28l-1-5.76a68.81,68.81,0,0,1-9.73,3.92A64.07,64.07,0,0,0,38,44.72Z"/><polygon class="cls-9" points="20.78 22.68 20.91 21.81 27.79 25.87 27.68 27.04 20.78 22.68"/><polygon class="cls-10" points="1.71 152.07 2.87 148.21 8.1 148.96 7.38 152.43 1.71 152.07"/><polygon class="cls-11" points="36.08 152.36 36.41 154.46 42.1 153.41 41.74 150.27 36.08 152.36"/><path class="cls-6" d="M22.68,84.91s-.88,7.54-1.85,15.27c-.22,1.75-.45,3.52-.67,5.21-.72,5.56-1.39,10.28-1.68,11.11-.77,2.23-8.66,36.34-8.66,36.34s-9.54,1-9.82.14c0,0,7.4-38.28,7.3-39.55S8.43,76.51,8.43,76.51,22.26,82.86,22.68,84.91Z"/><path class="cls-6" d="M30.32,74.08s7.45,34.88,8.09,37.55,6.73,42.83,6.73,42.83a14,14,0,0,1-9.79,1.65S26.67,113.82,26,112.54c-2.61-5-11.68-29.58-12.95-33S8.28,72.6,8.28,72.6,17.42,67.25,30.32,74.08Z"/><path class="cls-12" d="M20.83,100.18c-.22,1.75-.45,3.52-.67,5.21h0C17.48,98.6,14,82.21,13.94,82,14.31,83,20.83,100.18,20.83,100.18Z"/><path class="cls-13" d="M55.44,22.53c0,1.54-.79,2.8-1.76,2.8s-1.76-1.26-1.76-2.8.79-2.81,1.76-2.81S55.44,21,55.44,22.53Z"/><path class="cls-14" d="M71.88,22.72c0,1.55-.79,2.8-1.76,2.8s-1.76-1.25-1.76-2.8.79-2.81,1.76-2.81S71.88,21.17,71.88,22.72Z"/><path class="cls-15" d="M26,46.32a13.18,13.18,0,0,1-1.39,2A52.46,52.46,0,0,1,17.29,38C18.55,39.66,26,46.32,26,46.32Z"/><rect class="cls-16" x="73.71" y="142.01" width="16.18" height="21.45"/><rect class="cls-17" x="73.71" y="148.02" width="16.18" height="15.43"/><rect class="cls-18" x="73.71" y="162.61" width="16.18" height="0.84"/><path class="cls-19" d="M78.29,153.91a5.1,5.1,0,0,1-4.4-1.94c-2.44-3.34-.27-9.69-.18-10h.36c0,.06-2.23,6.55.11,9.75a4.76,4.76,0,0,0,4.11,1.79A10.54,10.54,0,0,0,87,149.11a13.52,13.52,0,0,0,2.57-7.1h.29a13.53,13.53,0,0,1-2.57,7.31A10.9,10.9,0,0,1,78.29,153.91Z"/><path class="cls-20" d="M28.43,21.38c-.16.49-.3,1-.42,1.46a10.73,10.73,0,0,1-5.37-3.49A27.43,27.43,0,0,0,28.43,21.38Z"/></g></g></svg>