<svg xmlns="http://www.w3.org/2000/svg" viewBox="0 0 131.22 180.48"><defs><style>.cls-1{fill:#1187c9;}.cls-2{fill:#0072bc;}.cls-3{fill:#ba4f2a;}.cls-4{fill:#c3903d;}.cls-5{fill:#f3b863;}.cls-6{fill:#c67239;}.cls-7{fill:#fccf8c;}.cls-8{fill:#d78346;}.cls-9{fill:#e8e8e8;}.cls-10{fill:#aeb1cc;}</style></defs><title>Asset 25</title><g id="Layer_2" data-name="Layer 2"><g id="Layer_1-2" data-name="Layer 1"><rect class="cls-1" x="90.24" width="3.68" height="180.48"/><rect class="cls-2" x="87.94" width="3.68" height="180.48"/><polygon class="cls-1" points="93.92 42.36 93.92 39.13 127.53 4.6 127.53 10.59 93.92 45.12 91.62 45.12 91.62 42.36 93.92 42.36"/><polygon class="cls-2" points="91.62 45.12 125.23 10.59 125.23 4.6 91.62 39.13 91.62 45.12"/><polygon class="cls-1" points="125.23 174.5 91.62 139.97 93.92 139.97 127.53 174.5 125.23 174.5"/><polygon class="cls-2" points="127.53 173.98 125.23 174.5 91.62 139.97 91.62 145.95 125.23 180.48 127.53 180.48 127.53 177.72 127.53 173.98"/><polygon class="cls-1" points="125.23 86.1 91.62 51.57 93.92 51.57 127.53 86.1 125.23 86.1"/><polygon class="cls-2" points="127.53 85.58 125.23 86.1 91.62 51.57 91.62 57.55 125.23 92.08 127.53 92.08 127.53 89.32 127.53 85.58"/><polygon class="cls-1" points="93.92 132.6 93.92 129.38 127.53 94.85 127.53 100.83 93.92 135.36 91.62 135.36 91.62 132.6 93.92 132.6"/><polygon class="cls-2" points="91.62 135.36 125.23 100.83 125.23 94.85 91.62 129.38 91.62 135.36"/><rect class="cls-1" x="127.53" width="3.68" height="180.48"/><rect class="cls-2" x="125.23" width="3.68" height="180.48"/><rect class="cls-1" x="2.3" width="3.68" height="180.48"/><rect class="cls-2" width="3.68" height="180.48"/><rect class="cls-3" x="2.76" width="125.23" height="4.6"/><rect class="cls-3" x="2.76" y="45.12" width="125.23" height="4.6"/><rect class="cls-3" x="2.76" y="90.24" width="125.23" height="4.6"/><rect class="cls-3" x="2.76" y="135.36" width="125.23" height="4.6"/><rect class="cls-4" x="96.53" y="43.76" width="23.02" height="1.38"/><rect class="cls-4" x="108.79" y="39.62" width="3.22" height="5.52"/><rect class="cls-5" x="112.01" y="39.62" width="3.22" height="5.52"/><rect class="cls-4" x="116.33" y="39.62" width="3.22" height="5.52"/><rect class="cls-5" x="119.55" y="39.62" width="3.22" height="5.52"/><rect class="cls-5" x="104.36" y="38.23" width="18.42" height="1.38"/><rect class="cls-4" x="74.43" y="38.23" width="29.93" height="1.38"/><rect class="cls-4" x="74.43" y="43.76" width="29.93" height="1.38"/><rect class="cls-5" x="104.36" y="39.62" width="3.22" height="5.52"/><rect class="cls-4" x="101.14" y="39.62" width="3.22" height="5.52"/><rect class="cls-4" x="74.43" y="39.62" width="3.22" height="5.52"/><rect class="cls-4" x="87.33" y="39.62" width="3.22" height="5.52"/><rect class="cls-6" x="101.6" y="13.83" width="16.11" height="24.4"/><rect class="cls-6" x="76.74" y="13.83" width="24.86" height="24.4"/><rect class="cls-7" x="101.6" y="12.91" width="16.11" height="24.4"/><rect class="cls-8" x="76.74" y="12.91" width="24.86" height="24.4"/><rect class="cls-9" x="106.66" y="16.6" width="7.83" height="6.45"/><rect class="cls-10" x="106.66" y="25.8" width="3.68" height="4.14"/><rect class="cls-4" x="74.66" y="43.76" width="23.02" height="1.38"/><rect class="cls-4" x="86.92" y="39.62" width="3.22" height="5.52"/><rect class="cls-5" x="90.14" y="39.62" width="3.22" height="5.52"/><rect class="cls-4" x="94.46" y="39.62" width="3.22" height="5.52"/><rect class="cls-5" x="97.68" y="39.62" width="3.22" height="5.52"/><rect class="cls-5" x="82.49" y="38.23" width="18.42" height="1.38"/><rect class="cls-4" x="52.56" y="38.23" width="29.93" height="1.38"/><rect class="cls-4" x="52.56" y="43.76" width="29.93" height="1.38"/><rect class="cls-5" x="82.49" y="39.62" width="3.22" height="5.52"/><rect class="cls-4" x="79.27" y="39.62" width="3.22" height="5.52"/><rect class="cls-4" x="52.56" y="39.62" width="3.22" height="5.52"/><rect class="cls-4" x="65.46" y="39.62" width="3.22" height="5.52"/><rect class="cls-6" x="79.73" y="13.83" width="16.11" height="24.4"/><rect class="cls-6" x="54.87" y="13.83" width="24.86" height="24.4"/><rect class="cls-7" x="79.73" y="12.91" width="16.11" height="24.4"/><rect class="cls-8" x="54.87" y="12.91" width="24.86" height="24.4"/><rect class="cls-9" x="84.79" y="16.6" width="7.83" height="6.45"/><rect class="cls-10" x="84.79" y="25.8" width="3.68" height="4.14"/><rect class="cls-4" x="53.02" y="43.76" width="23.02" height="1.38"/><rect class="cls-4" x="65.28" y="39.62" width="3.22" height="5.52"/><rect class="cls-5" x="68.5" y="39.62" width="3.22" height="5.52"/><rect class="cls-4" x="72.82" y="39.62" width="3.22" height="5.52"/><rect class="cls-5" x="76.05" y="39.62" width="3.22" height="5.52"/><rect class="cls-5" x="60.85" y="38.23" width="18.42" height="1.38"/><rect class="cls-4" x="30.92" y="38.23" width="29.93" height="1.38"/><rect class="cls-4" x="30.92" y="43.76" width="29.93" height="1.38"/><rect class="cls-5" x="60.85" y="39.62" width="3.22" height="5.52"/><rect class="cls-4" x="57.63" y="39.62" width="3.22" height="5.52"/><rect class="cls-4" x="30.92" y="39.62" width="3.22" height="5.52"/><rect class="cls-4" x="43.82" y="39.62" width="3.22" height="5.52"/><rect class="cls-6" x="58.09" y="13.83" width="16.11" height="24.4"/><rect class="cls-6" x="33.23" y="13.83" width="24.86" height="24.4"/><rect class="cls-7" x="58.09" y="12.91" width="16.11" height="24.4"/><rect class="cls-8" x="33.23" y="12.91" width="24.86" height="24.4"/><rect class="cls-9" x="63.15" y="16.6" width="7.83" height="6.45"/><rect class="cls-10" x="63.15" y="25.8" width="3.68" height="4.14"/><rect class="cls-4" x="96.53" y="88.88" width="23.02" height="1.38"/><rect class="cls-4" x="108.79" y="84.74" width="3.22" height="5.53"/><rect class="cls-5" x="112.01" y="84.74" width="3.22" height="5.53"/><rect class="cls-4" x="116.33" y="84.74" width="3.22" height="5.53"/><rect class="cls-5" x="119.55" y="84.74" width="3.22" height="5.53"/><rect class="cls-5" x="104.36" y="83.36" width="18.42" height="1.38"/><rect class="cls-4" x="74.43" y="83.36" width="29.93" height="1.38"/><rect class="cls-4" x="74.43" y="88.88" width="29.93" height="1.38"/><rect class="cls-5" x="104.36" y="84.74" width="3.22" height="5.53"/><rect class="cls-4" x="101.14" y="84.74" width="3.22" height="5.53"/><rect class="cls-4" x="74.43" y="84.74" width="3.22" height="5.53"/><rect class="cls-4" x="87.33" y="84.74" width="3.22" height="5.53"/><rect class="cls-6" x="101.6" y="58.95" width="16.11" height="24.4"/><rect class="cls-6" x="76.74" y="58.95" width="24.86" height="24.4"/><rect class="cls-7" x="101.6" y="58.03" width="16.11" height="24.4"/><rect class="cls-8" x="76.74" y="58.03" width="24.86" height="24.4"/><rect class="cls-9" x="106.66" y="61.72" width="7.83" height="6.45"/><rect class="cls-10" x="106.66" y="70.92" width="3.68" height="4.14"/><rect class="cls-4" x="74.66" y="88.88" width="23.02" height="1.38"/><rect class="cls-4" x="86.92" y="84.74" width="3.22" height="5.53"/><rect class="cls-5" x="90.14" y="84.74" width="3.22" height="5.53"/><rect class="cls-4" x="94.46" y="84.74" width="3.22" height="5.53"/><rect class="cls-5" x="97.68" y="84.74" width="3.22" height="5.53"/><rect class="cls-5" x="82.49" y="83.36" width="18.42" height="1.38"/><rect class="cls-4" x="52.56" y="83.36" width="29.93" height="1.38"/><rect class="cls-4" x="52.56" y="88.88" width="29.93" height="1.38"/><rect class="cls-5" x="82.49" y="84.74" width="3.22" height="5.53"/><rect class="cls-4" x="79.27" y="84.74" width="3.22" height="5.53"/><rect class="cls-4" x="52.56" y="84.74" width="3.22" height="5.53"/><rect class="cls-4" x="65.46" y="84.74" width="3.22" height="5.53"/><rect class="cls-6" x="79.73" y="58.95" width="16.11" height="24.4"/><rect class="cls-6" x="54.87" y="58.95" width="24.86" height="24.4"/><rect class="cls-7" x="79.73" y="58.03" width="16.11" height="24.4"/><rect class="cls-8" x="54.87" y="58.03" width="24.86" height="24.4"/><rect class="cls-9" x="84.79" y="61.72" width="7.83" height="6.45"/><rect class="cls-10" x="84.79" y="70.92" width="3.68" height="4.14"/><rect class="cls-4" x="53.02" y="88.88" width="23.02" height="1.38"/><rect class="cls-4" x="65.28" y="84.74" width="3.22" height="5.53"/><rect class="cls-5" x="68.5" y="84.74" width="3.22" height="5.53"/><rect class="cls-4" x="72.82" y="84.74" width="3.22" height="5.53"/><rect class="cls-5" x="76.05" y="84.74" width="3.22" height="5.53"/><rect class="cls-5" x="60.85" y="83.36" width="18.42" height="1.38"/><rect class="cls-4" x="30.92" y="83.36" width="29.93" height="1.38"/><rect class="cls-4" x="30.92" y="88.88" width="29.93" height="1.38"/><rect class="cls-5" x="60.85" y="84.74" width="3.22" height="5.53"/><rect class="cls-4" x="57.63" y="84.74" width="3.22" height="5.53"/><rect class="cls-4" x="30.92" y="84.74" width="3.22" height="5.53"/><rect class="cls-4" x="43.82" y="84.74" width="3.22" height="5.53"/><rect class="cls-6" x="58.09" y="58.95" width="16.11" height="24.4"/><rect class="cls-6" x="33.23" y="58.95" width="24.86" height="24.4"/><rect class="cls-7" x="58.09" y="58.03" width="16.11" height="24.4"/><rect class="cls-8" x="33.23" y="58.03" width="24.86" height="24.4"/><rect class="cls-9" x="63.15" y="61.72" width="7.83" height="6.45"/><rect class="cls-10" x="63.15" y="70.92" width="3.68" height="4.14"/><rect class="cls-4" x="96.53" y="133.98" width="23.02" height="1.38"/><rect class="cls-4" x="108.79" y="129.84" width="3.22" height="5.52"/><rect class="cls-5" x="112.01" y="129.84" width="3.22" height="5.52"/><rect class="cls-4" x="116.33" y="129.84" width="3.22" height="5.52"/><rect class="cls-5" x="119.55" y="129.84" width="3.22" height="5.52"/><rect class="cls-5" x="104.36" y="128.46" width="18.42" height="1.38"/><rect class="cls-4" x="74.43" y="128.46" width="29.93" height="1.38"/><rect class="cls-4" x="74.43" y="133.98" width="29.93" height="1.38"/><rect class="cls-5" x="104.36" y="129.84" width="3.22" height="5.52"/><rect class="cls-4" x="101.14" y="129.84" width="3.22" height="5.52"/><rect class="cls-4" x="74.43" y="129.84" width="3.22" height="5.52"/><rect class="cls-4" x="87.33" y="129.84" width="3.22" height="5.52"/><rect class="cls-6" x="101.6" y="104.05" width="16.11" height="24.4"/><rect class="cls-6" x="76.74" y="104.05" width="24.86" height="24.4"/><rect class="cls-7" x="101.6" y="103.13" width="16.11" height="24.4"/><rect class="cls-8" x="76.74" y="103.13" width="24.86" height="24.4"/><rect class="cls-9" x="106.66" y="106.82" width="7.83" height="6.45"/><rect class="cls-10" x="106.66" y="116.02" width="3.68" height="4.14"/><rect class="cls-4" x="74.66" y="133.98" width="23.02" height="1.38"/><rect class="cls-4" x="86.92" y="129.84" width="3.22" height="5.52"/><rect class="cls-5" x="90.14" y="129.84" width="3.22" height="5.52"/><rect class="cls-4" x="94.46" y="129.84" width="3.22" height="5.52"/><rect class="cls-5" x="97.68" y="129.84" width="3.22" height="5.52"/><rect class="cls-5" x="82.49" y="128.46" width="18.42" height="1.38"/><rect class="cls-4" x="52.56" y="128.46" width="29.93" height="1.38"/><rect class="cls-4" x="52.56" y="133.98" width="29.93" height="1.38"/><rect class="cls-5" x="82.49" y="129.84" width="3.22" height="5.52"/><rect class="cls-4" x="79.27" y="129.84" width="3.22" height="5.52"/><rect class="cls-4" x="52.56" y="129.84" width="3.22" height="5.52"/><rect class="cls-4" x="65.46" y="129.84" width="3.22" height="5.52"/><rect class="cls-6" x="79.73" y="104.05" width="16.11" height="24.4"/><rect class="cls-6" x="54.87" y="104.05" width="24.86" height="24.4"/><rect class="cls-7" x="79.73" y="103.13" width="16.11" height="24.4"/><rect class="cls-8" x="54.87" y="103.13" width="24.86" height="24.4"/><rect class="cls-9" x="84.79" y="106.82" width="7.83" height="6.45"/><rect class="cls-10" x="84.79" y="116.02" width="3.68" height="4.14"/><rect class="cls-4" x="53.02" y="133.98" width="23.02" height="1.38"/><rect class="cls-4" x="65.28" y="129.84" width="3.22" height="5.52"/><rect class="cls-5" x="68.5" y="129.84" width="3.22" height="5.52"/><rect class="cls-4" x="72.82" y="129.84" width="3.22" height="5.52"/><rect class="cls-5" x="76.05" y="129.84" width="3.22" height="5.52"/><rect class="cls-5" x="60.85" y="128.46" width="18.42" height="1.38"/><rect class="cls-4" x="30.92" y="128.46" width="29.93" height="1.38"/><rect class="cls-4" x="30.92" y="133.98" width="29.93" height="1.38"/><rect class="cls-5" x="60.85" y="129.84" width="3.22" height="5.52"/><rect class="cls-4" x="57.63" y="129.84" width="3.22" height="5.52"/><rect class="cls-4" x="30.92" y="129.84" width="3.22" height="5.52"/><rect class="cls-4" x="43.82" y="129.84" width="3.22" height="5.52"/><rect class="cls-6" x="58.09" y="104.05" width="16.11" height="24.4"/><rect class="cls-6" x="33.23" y="104.05" width="24.86" height="24.4"/><rect class="cls-7" x="58.09" y="103.13" width="16.11" height="24.4"/><rect class="cls-8" x="33.23" y="103.13" width="24.86" height="24.4"/><rect class="cls-9" x="63.15" y="106.82" width="7.83" height="6.45"/><rect class="cls-10" x="63.15" y="116.02" width="3.68" height="4.14"/><rect class="cls-4" x="96.53" y="179.08" width="23.02" height="1.38"/><rect class="cls-4" x="108.79" y="174.94" width="3.22" height="5.52"/><rect class="cls-5" x="112.01" y="174.94" width="3.22" height="5.52"/><rect class="cls-4" x="116.33" y="174.94" width="3.22" height="5.52"/><rect class="cls-5" x="119.55" y="174.94" width="3.22" height="5.52"/><rect class="cls-5" x="104.36" y="173.56" width="18.42" height="1.38"/><rect class="cls-4" x="74.43" y="173.56" width="29.93" height="1.38"/><rect class="cls-4" x="74.43" y="179.08" width="29.93" height="1.38"/><rect class="cls-5" x="104.36" y="174.94" width="3.22" height="5.52"/><rect class="cls-4" x="101.14" y="174.94" width="3.22" height="5.52"/><rect class="cls-4" x="74.43" y="174.94" width="3.22" height="5.52"/><rect class="cls-4" x="87.33" y="174.94" width="3.22" height="5.52"/><rect class="cls-6" x="101.6" y="149.15" width="16.11" height="24.4"/><rect class="cls-6" x="76.74" y="149.15" width="24.86" height="24.4"/><rect class="cls-7" x="101.6" y="148.23" width="16.11" height="24.4"/><rect class="cls-8" x="76.74" y="148.23" width="24.86" height="24.4"/><rect class="cls-9" x="106.66" y="151.92" width="7.83" height="6.45"/><rect class="cls-10" x="106.66" y="161.13" width="3.68" height="4.14"/><rect class="cls-4" x="74.66" y="179.08" width="23.02" height="1.38"/><rect class="cls-4" x="86.92" y="174.94" width="3.22" height="5.52"/><rect class="cls-5" x="90.14" y="174.94" width="3.22" height="5.52"/><rect class="cls-4" x="94.46" y="174.94" width="3.22" height="5.52"/><rect class="cls-5" x="97.68" y="174.94" width="3.22" height="5.52"/><rect class="cls-5" x="82.49" y="173.56" width="18.42" height="1.38"/><rect class="cls-4" x="52.56" y="173.56" width="29.93" height="1.38"/><rect class="cls-4" x="52.56" y="179.08" width="29.93" height="1.38"/><rect class="cls-5" x="82.49" y="174.94" width="3.22" height="5.52"/><rect class="cls-4" x="79.27" y="174.94" width="3.22" height="5.52"/><rect class="cls-4" x="52.56" y="174.94" width="3.22" height="5.52"/><rect class="cls-4" x="65.46" y="174.94" width="3.22" height="5.52"/><rect class="cls-6" x="79.73" y="149.15" width="16.11" height="24.4"/><rect class="cls-6" x="54.87" y="149.15" width="24.86" height="24.4"/><rect class="cls-7" x="79.73" y="148.23" width="16.11" height="24.4"/><rect class="cls-8" x="54.87" y="148.23" width="24.86" height="24.4"/><rect class="cls-9" x="84.79" y="151.92" width="7.83" height="6.45"/><rect class="cls-10" x="84.79" y="161.13" width="3.68" height="4.14"/><rect class="cls-4" x="53.02" y="179.08" width="23.02" height="1.38"/><rect class="cls-4" x="65.28" y="174.94" width="3.22" height="5.52"/><rect class="cls-5" x="68.5" y="174.94" width="3.22" height="5.52"/><rect class="cls-4" x="72.82" y="174.94" width="3.22" height="5.52"/><rect class="cls-5" x="76.05" y="174.94" width="3.22" height="5.52"/><rect class="cls-5" x="60.85" y="173.56" width="18.42" height="1.38"/><rect class="cls-4" x="30.92" y="173.56" width="29.93" height="1.38"/><rect class="cls-4" x="30.92" y="179.08" width="29.93" height="1.38"/><rect class="cls-5" x="60.85" y="174.94" width="3.22" height="5.52"/><rect class="cls-4" x="57.63" y="174.94" width="3.22" height="5.52"/><rect class="cls-4" x="30.92" y="174.94" width="3.22" height="5.52"/><rect class="cls-4" x="43.82" y="174.94" width="3.22" height="5.52"/><rect class="cls-6" x="58.09" y="149.15" width="16.11" height="24.4"/><rect class="cls-6" x="33.23" y="149.15" width="24.86" height="24.4"/><rect class="cls-7" x="58.09" y="148.23" width="16.11" height="24.4"/><rect class="cls-8" x="33.23" y="148.23" width="24.86" height="24.4"/><rect class="cls-9" x="63.15" y="151.92" width="7.83" height="6.45"/><rect class="cls-10" x="63.15" y="161.13" width="3.68" height="4.14"/><rect class="cls-4" x="32.08" y="43.76" width="23.02" height="1.38"/><rect class="cls-4" x="44.33" y="39.62" width="3.22" height="5.52"/><rect class="cls-5" x="47.55" y="39.62" width="3.22" height="5.52"/><rect class="cls-4" x="51.87" y="39.62" width="3.22" height="5.52"/><rect class="cls-5" x="55.1" y="39.62" width="3.22" height="5.52"/><rect class="cls-5" x="39.9" y="38.23" width="18.42" height="1.38"/><rect class="cls-4" x="9.98" y="38.23" width="29.93" height="1.38"/><rect class="cls-4" x="9.98" y="43.76" width="29.93" height="1.38"/><rect class="cls-5" x="39.9" y="39.62" width="3.22" height="5.52"/><rect class="cls-4" x="36.68" y="39.62" width="3.22" height="5.52"/><rect class="cls-4" x="9.98" y="39.62" width="3.22" height="5.52"/><rect class="cls-4" x="22.87" y="39.62" width="3.22" height="5.52"/><rect class="cls-6" x="37.14" y="13.83" width="16.12" height="24.4"/><rect class="cls-6" x="12.28" y="13.83" width="24.86" height="24.4"/><rect class="cls-7" x="37.14" y="12.91" width="16.12" height="24.4"/><rect class="cls-8" x="12.28" y="12.91" width="24.86" height="24.4"/><rect class="cls-9" x="42.2" y="16.6" width="7.83" height="6.45"/><rect class="cls-10" x="42.2" y="25.8" width="3.68" height="4.14"/><rect class="cls-4" x="32.08" y="88.88" width="23.02" height="1.38"/><rect class="cls-4" x="44.33" y="84.74" width="3.22" height="5.53"/><rect class="cls-5" x="47.55" y="84.74" width="3.22" height="5.53"/><rect class="cls-4" x="51.87" y="84.74" width="3.22" height="5.53"/><rect class="cls-5" x="55.1" y="84.74" width="3.22" height="5.53"/><rect class="cls-5" x="39.9" y="83.36" width="18.42" height="1.38"/><rect class="cls-4" x="9.98" y="83.36" width="29.93" height="1.38"/><rect class="cls-4" x="9.98" y="88.88" width="29.93" height="1.38"/><rect class="cls-5" x="39.9" y="84.74" width="3.22" height="5.53"/><rect class="cls-4" x="36.68" y="84.74" width="3.22" height="5.53"/><rect class="cls-4" x="9.98" y="84.74" width="3.22" height="5.53"/><rect class="cls-4" x="22.87" y="84.74" width="3.22" height="5.53"/><rect class="cls-6" x="37.14" y="58.95" width="16.12" height="24.4"/><rect class="cls-6" x="12.28" y="58.95" width="24.86" height="24.4"/><rect class="cls-7" x="37.14" y="58.03" width="16.12" height="24.4"/><rect class="cls-8" x="12.28" y="58.03" width="24.86" height="24.4"/><polygon class="cls-1" points="37.29 84.26 3.68 49.73 5.99 49.73 39.6 84.26 37.29 84.26"/><polygon class="cls-2" points="39.6 83.74 37.29 84.26 3.68 49.73 3.68 55.71 37.29 90.24 39.6 90.24 39.6 87.48 39.6 83.74"/><rect class="cls-9" x="42.2" y="61.72" width="7.83" height="6.45"/><rect class="cls-10" x="42.2" y="70.92" width="3.68" height="4.14"/><rect class="cls-4" x="32.08" y="133.98" width="23.02" height="1.38"/><rect class="cls-4" x="44.33" y="129.84" width="3.22" height="5.52"/><rect class="cls-5" x="47.55" y="129.84" width="3.22" height="5.52"/><rect class="cls-4" x="51.87" y="129.84" width="3.22" height="5.52"/><rect class="cls-5" x="55.1" y="129.84" width="3.22" height="5.52"/><rect class="cls-5" x="39.9" y="128.46" width="18.42" height="1.38"/><rect class="cls-4" x="9.98" y="128.46" width="29.93" height="1.38"/><rect class="cls-4" x="9.98" y="133.98" width="29.93" height="1.38"/><rect class="cls-5" x="39.9" y="129.84" width="3.22" height="5.52"/><rect class="cls-4" x="36.68" y="129.84" width="3.22" height="5.52"/><rect class="cls-4" x="9.98" y="129.84" width="3.22" height="5.52"/><rect class="cls-4" x="22.87" y="129.84" width="3.22" height="5.52"/><rect class="cls-6" x="37.14" y="104.05" width="16.12" height="24.4"/><rect class="cls-6" x="12.28" y="104.05" width="24.86" height="24.4"/><rect class="cls-7" x="37.14" y="103.13" width="16.12" height="24.4"/><rect class="cls-8" x="12.28" y="103.13" width="24.86" height="24.4"/><rect class="cls-9" x="42.2" y="106.82" width="7.83" height="6.45"/><rect class="cls-10" x="42.2" y="116.02" width="3.68" height="4.14"/><rect class="cls-4" x="32.08" y="179.08" width="23.02" height="1.38"/><rect class="cls-4" x="44.33" y="174.94" width="3.22" height="5.52"/><rect class="cls-5" x="47.55" y="174.94" width="3.22" height="5.52"/><rect class="cls-4" x="51.87" y="174.94" width="3.22" height="5.52"/><rect class="cls-5" x="55.1" y="174.94" width="3.22" height="5.52"/><rect class="cls-5" x="39.9" y="173.56" width="18.42" height="1.38"/><rect class="cls-4" x="9.98" y="173.56" width="29.93" height="1.38"/><rect class="cls-4" x="9.98" y="179.08" width="29.93" height="1.38"/><rect class="cls-5" x="39.9" y="174.94" width="3.22" height="5.52"/><rect class="cls-4" x="36.68" y="174.94" width="3.22" height="5.52"/><rect class="cls-4" x="9.98" y="174.94" width="3.22" height="5.52"/><rect class="cls-4" x="22.87" y="174.94" width="3.22" height="5.52"/><rect class="cls-6" x="37.14" y="149.15" width="16.12" height="24.4"/><rect class="cls-6" x="12.28" y="149.15" width="24.86" height="24.4"/><rect class="cls-7" x="37.14" y="148.23" width="16.12" height="24.4"/><rect class="cls-8" x="12.28" y="148.23" width="24.86" height="24.4"/><rect class="cls-9" x="42.2" y="151.92" width="7.83" height="6.45"/><rect class="cls-10" x="42.2" y="161.13" width="3.68" height="4.14"/><polygon class="cls-1" points="5.99 42.36 5.99 39.13 39.6 4.6 39.6 10.59 5.99 45.12 3.68 45.12 3.68 42.36 5.99 42.36"/><polygon class="cls-2" points="3.68 45.12 37.29 10.59 37.29 4.6 3.68 39.13 3.68 45.12"/><polygon class="cls-1" points="37.29 174.5 3.68 139.97 5.99 139.97 39.6 174.5 37.29 174.5"/><polygon class="cls-2" points="39.6 173.98 37.29 174.5 3.68 139.97 3.68 145.95 37.29 180.48 39.6 180.48 39.6 177.72 39.6 173.98"/><polygon class="cls-1" points="5.99 132.6 5.99 129.38 39.6 94.85 39.6 100.83 5.99 135.36 3.68 135.36 3.68 132.6 5.99 132.6"/><polygon class="cls-2" points="3.68 135.36 37.29 100.83 37.29 94.85 3.68 129.38 3.68 135.36"/><rect class="cls-1" x="39.6" width="3.68" height="180.48"/><rect class="cls-2" x="37.29" width="3.68" height="180.48"/></g></g></svg>