<svg xmlns="http://www.w3.org/2000/svg" viewBox="0 0 202.66 148.48"><defs><style>.cls-1{fill:#c3903d;}.cls-2{fill:#f3b863;}.cls-3{fill:#bc4c00;}.cls-4{fill:#29443f;}.cls-5{fill:#102824;}.cls-6{fill:#d35500;}.cls-7{fill:#ff7b22;}.cls-8{fill:#112320;}.cls-9{fill:#22423d;}.cls-10{fill:#c67239;}.cls-11{fill:#fccf8c;}.cls-12{fill:#d78346;}.cls-13{fill:#826737;}.cls-14{fill:#e8e8e8;}.cls-15{fill:#aeb1cc;}.cls-16{fill:#006e9e;}.cls-17{fill:#fed8a7;}.cls-18{fill:#e8b32e;}.cls-19{fill:#ffcc3e;}.cls-20{fill:#ffcd50;}.cls-21{fill:#127abc;}.cls-22{fill:#fec894;}.cls-23{fill:#a46700;}.cls-24{fill:#e28b00;}.cls-25{fill:#ffac1a;}.cls-26{fill:#fff;}</style></defs><title>Asset 14</title><g id="Layer_2" data-name="Layer 2"><g id="Layer_1-2" data-name="Layer 1"><rect class="cls-1" x="6.89" y="137.86" width="4.34" height="7.34" transform="translate(-2.52 0.18) rotate(-1.02)"/><rect class="cls-2" x="2.55" y="137.94" width="4.34" height="7.34" transform="translate(-2.53 0.11) rotate(-1.02)"/><rect class="cls-3" x="188.25" y="106.96" width="14.27" height="15.29" transform="translate(-2.01 3.5) rotate(-1.02)"/><path class="cls-4" d="M103.13,126.14c.22,12.18-6.55,22.19-15.12,22.34s-15.69-9.6-15.9-21.79,6.55-22.18,15.11-22.33S102.91,114,103.13,126.14Z"/><rect class="cls-4" x="86.79" y="104.33" width="10.55" height="44.02" transform="translate(-2.24 1.66) rotate(-1.02)"/><path class="cls-5" d="M112.44,126c.22,12.18-6.55,22.18-15.12,22.33s-15.69-9.6-15.91-21.78S88,104.34,96.53,104.19,112.22,113.79,112.44,126Z"/><path class="cls-6" d="M107.63,126.06c.14,8.08-4.35,14.71-10,14.82s-10.4-6.37-10.55-14.45,4.35-14.72,10-14.82S107.48,118,107.63,126.06Z"/><ellipse class="cls-7" cx="97.34" cy="126.24" rx="8.53" ry="12.13" transform="translate(-2.24 1.76) rotate(-1.02)"/><ellipse class="cls-6" cx="95.8" cy="126.27" rx="6.99" ry="11.92" transform="translate(-2.24 1.73) rotate(-1.02)"/><ellipse class="cls-4" cx="94.99" cy="119.46" rx="1.06" ry="1.5" transform="translate(-2.12 1.71) rotate(-1.02)"/><rect class="cls-4" x="94.94" y="117.96" width="0.72" height="3" transform="translate(-2.12 1.72) rotate(-1.02)"/><ellipse class="cls-5" cx="95.63" cy="119.45" rx="1.06" ry="1.5" transform="matrix(1, -0.02, 0.02, 1, -2.12, 1.73)"/><path class="cls-4" d="M96.29,132.61c0,.83-.45,1.51-1,1.52s-1.07-.66-1.09-1.48.45-1.51,1-1.53S96.27,131.78,96.29,132.61Z"/><rect class="cls-4" x="95.17" y="131.12" width="0.72" height="3" transform="translate(-2.35 1.73) rotate(-1.02)"/><path class="cls-5" d="M96.92,132.6c0,.83-.45,1.51-1,1.52s-1.07-.66-1.08-1.49.44-1.51,1-1.52S96.9,131.77,96.92,132.6Z"/><path class="cls-4" d="M91.18,122.61c0,.83-.44,1.51-1,1.52s-1.06-.66-1.08-1.48.45-1.51,1-1.53S91.17,121.78,91.18,122.61Z"/><rect class="cls-4" x="90.07" y="121.12" width="0.72" height="3" transform="translate(-2.17 1.63) rotate(-1.02)"/><path class="cls-5" d="M91.82,122.6c0,.82-.45,1.51-1,1.52s-1.07-.66-1.09-1.49.45-1.51,1-1.52S91.8,121.77,91.82,122.6Z"/><path class="cls-4" d="M90.93,129.31c0,.83-.45,1.51-1,1.52s-1.07-.66-1.08-1.49.44-1.51,1-1.52S90.91,128.48,90.93,129.31Z"/><rect class="cls-4" x="89.82" y="127.82" width="0.72" height="3" transform="translate(-2.29 1.63) rotate(-1.02)"/><ellipse class="cls-5" cx="90.51" cy="129.31" rx="1.06" ry="1.5" transform="translate(-2.29 1.64) rotate(-1.02)"/><path class="cls-4" d="M100.48,122.44c0,.83-.44,1.51-1,1.52s-1.06-.65-1.08-1.48.45-1.51,1-1.52S100.47,121.61,100.48,122.44Z"/><rect class="cls-4" x="99.37" y="120.96" width="0.72" height="3" transform="translate(-2.17 1.8) rotate(-1.02)"/><path class="cls-5" d="M101.12,122.43c0,.83-.45,1.51-1,1.52S99,123.3,99,122.47s.45-1.51,1-1.52S101.1,121.6,101.12,122.43Z"/><ellipse class="cls-4" cx="99.17" cy="129.16" rx="1.06" ry="1.5" transform="translate(-2.29 1.79) rotate(-1.02)"/><rect class="cls-4" x="99.12" y="127.66" width="0.72" height="3" transform="matrix(1, -0.02, 0.02, 1, -2.29, 1.8)"/><path class="cls-5" d="M100.86,129.13c0,.83-.44,1.51-1,1.52s-1.06-.65-1.08-1.48.45-1.51,1-1.52S100.85,128.3,100.86,129.13Z"/><path class="cls-4" d="M97.49,125.84c0,2.27-1.22,4.14-2.82,4.17s-2.93-1.79-3-4.07,1.22-4.13,2.82-4.16S97.45,123.57,97.49,125.84Z"/><rect class="cls-4" x="94.44" y="121.77" width="1.97" height="8.21" transform="translate(-2.23 1.72) rotate(-1.02)"/><path class="cls-5" d="M99.22,125.81c0,2.27-1.22,4.14-2.81,4.17s-2.93-1.79-3-4.07,1.22-4.13,2.82-4.16S99.18,123.54,99.22,125.81Z"/><path class="cls-6" d="M88.81,126.4a16.28,16.28,0,0,1,1-5.88l-1.23,0,.22,12.23,1.44,0A16.09,16.09,0,0,1,88.81,126.4Z"/><ellipse class="cls-4" cx="182.82" cy="129.57" rx="12.33" ry="17.54" transform="translate(-2.28 3.28) rotate(-1.02)"/><rect class="cls-4" x="182.16" y="112" width="8.39" height="35" transform="translate(-2.28 3.35) rotate(-1.02)"/><path class="cls-5" d="M202.54,129.21c.18,9.69-5.2,17.64-12,17.76s-12.47-7.63-12.65-17.32,5.21-17.63,12-17.75S202.37,119.53,202.54,129.21Z"/><ellipse class="cls-6" cx="190.54" cy="129.43" rx="8.18" ry="11.63" transform="translate(-2.28 3.42) rotate(-1.02)"/><path class="cls-7" d="M197.32,129.31c.09,5.32-2.86,9.69-6.61,9.76s-6.85-4.2-6.94-9.52,2.86-9.69,6.6-9.76S197.22,124,197.32,129.31Z"/><path class="cls-6" d="M189.15,120c-3.14.87-5.47,4.84-5.38,9.57s2.55,8.61,5.72,9.37c3.14-.87,5.47-4.84,5.38-9.57S192.32,120.74,189.15,120Z"/><path class="cls-4" d="M189.52,124c0,.66-.36,1.2-.82,1.21s-.85-.52-.86-1.18.35-1.2.82-1.21S189.51,123.36,189.52,124Z"/><rect class="cls-4" x="188.63" y="122.84" width="0.57" height="2.38" transform="translate(-2.18 3.39) rotate(-1.02)"/><path class="cls-5" d="M190,124c0,.66-.35,1.2-.82,1.21s-.85-.52-.86-1.18.36-1.2.82-1.21S190,123.35,190,124Z"/><path class="cls-4" d="M189.7,134.49c0,.65-.35,1.2-.81,1.2s-.85-.52-.86-1.17.35-1.2.81-1.21S189.69,133.83,189.7,134.49Z"/><rect class="cls-4" x="188.82" y="133.31" width="0.57" height="2.38" transform="matrix(1, -0.02, 0.02, 1, -2.37, 3.4)"/><path class="cls-5" d="M190.21,134.48c0,.66-.36,1.2-.82,1.21s-.85-.52-.86-1.18.35-1.2.82-1.21S190.19,133.82,190.21,134.48Z"/><path class="cls-4" d="M185.65,126.54c0,.66-.36,1.2-.82,1.21s-.85-.52-.86-1.18.36-1.2.82-1.21S185.64,125.88,185.65,126.54Z"/><rect class="cls-4" x="184.76" y="125.36" width="0.57" height="2.38" transform="translate(-2.23 3.32) rotate(-1.02)"/><path class="cls-5" d="M186.15,126.53c0,.66-.35,1.2-.82,1.21s-.84-.52-.86-1.18.36-1.2.82-1.21S186.14,125.87,186.15,126.53Z"/><path class="cls-4" d="M185.45,131.86c0,.66-.36,1.2-.82,1.21s-.85-.52-.86-1.18.35-1.2.82-1.21S185.44,131.2,185.45,131.86Z"/><rect class="cls-4" x="184.56" y="130.68" width="0.57" height="2.38" transform="translate(-2.32 3.32) rotate(-1.02)"/><path class="cls-5" d="M186,131.85c0,.66-.35,1.2-.82,1.21s-.85-.52-.86-1.18.36-1.2.82-1.21S185.94,131.19,186,131.85Z"/><path class="cls-4" d="M193,126.4c0,.66-.35,1.21-.82,1.21s-.85-.52-.86-1.18.36-1.2.82-1.2S193,125.75,193,126.4Z"/><rect class="cls-4" x="192.16" y="125.23" width="0.57" height="2.38" transform="translate(-2.22 3.45) rotate(-1.02)"/><path class="cls-5" d="M193.54,126.39c0,.66-.35,1.21-.81,1.21s-.85-.52-.86-1.18.35-1.2.81-1.2S193.53,125.74,193.54,126.39Z"/><path class="cls-4" d="M192.84,131.73c0,.66-.36,1.2-.82,1.21s-.85-.52-.86-1.18.36-1.2.82-1.21S192.83,131.07,192.84,131.73Z"/><rect class="cls-4" x="191.95" y="130.55" width="0.57" height="2.38" transform="translate(-2.32 3.45) rotate(-1.02)"/><path class="cls-5" d="M193.34,131.72c0,.66-.35,1.2-.82,1.21s-.84-.52-.86-1.18.36-1.2.82-1.21S193.33,131.06,193.34,131.72Z"/><path class="cls-4" d="M190.66,129.11c0,1.8-1,3.29-2.24,3.31s-2.33-1.42-2.36-3.23,1-3.29,2.24-3.31S190.63,127.3,190.66,129.11Z"/><rect class="cls-4" x="188.24" y="125.87" width="1.56" height="6.53" transform="translate(-2.27 3.39) rotate(-1.02)"/><path class="cls-5" d="M192,129.08c0,1.81-1,3.29-2.24,3.31s-2.33-1.42-2.36-3.22,1-3.29,2.24-3.32S192,127.28,192,129.08Z"/><path class="cls-6" d="M183.77,129.55a12.93,12.93,0,0,1,.76-4.67h-1l.18,9.72,1.14,0A12.6,12.6,0,0,1,183.77,129.55Z"/><path class="cls-4" d="M125.54,120.49l-30,.54a2.22,2.22,0,0,1-1.57-.62,2.11,2.11,0,0,1-.64-1.55c0-3.1,1.25-76.46,28.56-110.76C125.75,3.26,132.46.72,141.84.56a66.59,66.59,0,0,1,14.85,1.5,2.16,2.16,0,0,1,1.66,2.22c-.26,3.8.9,58.3,1.54,86.58a2.12,2.12,0,0,1-1.06,1.89c-.25.15-25.35,14.92-31.39,26.58A2.18,2.18,0,0,1,125.54,120.49Zm-27.8-3.78,26.47-.47c6.65-11.14,26.38-23.53,31.31-26.51-.22-9.92-1.61-71.58-1.55-83.85a63.41,63.41,0,0,0-12.05-1c-5.51.1-12.86,1.2-16.6,5.9C101.48,40.68,98.17,104.09,97.74,116.71Z"/><path class="cls-5" d="M128.37,120.44l-30,.54a2.24,2.24,0,0,1-1.57-.62,2.2,2.2,0,0,1-.64-1.55c0-3.1,1.26-76.46,28.57-110.76C128.59,3.21,135.3.67,144.68.51A66.55,66.55,0,0,1,159.52,2a2.14,2.14,0,0,1,1.66,2.22c-.25,3.8.9,58.3,1.55,86.58a2.13,2.13,0,0,1-1.07,1.89c-.25.15-25.35,14.92-31.39,26.57A2.16,2.16,0,0,1,128.37,120.44Zm-27.79-3.78,26.46-.48c6.65-11.13,26.38-23.52,31.32-26.5-.23-9.92-1.61-71.58-1.55-83.85a63.45,63.45,0,0,0-12.06-1c-5.5.1-12.85,1.2-16.6,5.9C104.32,40.63,101,104,100.58,116.66Z"/><polygon class="cls-4" points="154.5 10.51 169.77 0.06 139.85 0.63 130.27 2.92 123.17 8.39 122.04 11.09 154.5 10.51"/><path class="cls-8" d="M188.86,113l-.45-25.47-64.53,1.15.64,36.07,52.72-.94C179.33,117.65,183.7,113.31,188.86,113Z"/><rect class="cls-1" x="6.94" y="143.13" width="31.03" height="1.83" transform="translate(-2.57 0.42) rotate(-1.02)"/><path class="cls-3" d="M175.92,132.65c-.19-10.71,5.76-19.5,13.29-19.63a8.63,8.63,0,0,1,.88,0l6.42-.12c.29,0,.58-.05.88-.06a10.28,10.28,0,0,1,5.15,1.33l-.27-14.82a12.15,12.15,0,0,0-12.44-11.84l-1.42,0c0,1.79.07,2.79.07,2.79s-25.82,15.1-32.22,27.44l-30,.54s.15-12.54,2.18-29.7l-33.29.59a12.15,12.15,0,0,0-12,12.27l.45,25.42A12.14,12.14,0,0,0,96,138.75l80.36-1.43A28.19,28.19,0,0,1,175.92,132.65Z"/><path class="cls-6" d="M175.92,132.65c-.19-10.71,5.76-19.41,13.29-19.54.3,0,.59.12.88.11l6.42-.11c.29,0,.58-.14.88-.15.05,0,.1-.08.16-.08l-.32-17.69a11.85,11.85,0,0,0-2.11-6.55,12.29,12.29,0,0,0-5.29-1.1l-1.42,0c0,1.79.07,3,.07,3s-25.82,15.24-32.22,27.59l-30,.53s0-1.83.13-4.28l-5.17.09s.13-10.79,1.7-25.71l-27.77.49a12.15,12.15,0,0,0-12,12.27l.45,25.42a11.93,11.93,0,0,0,2.11,6.55,12.36,12.36,0,0,0,5.3,1.09l84.93-1.51C175.93,132.92,175.92,132.78,175.92,132.65Z"/><path class="cls-8" d="M130.62,118.57l-4.35.07s0-1.83.13-4.28l-3.47-25.62h0l-27.77.49a13.27,13.27,0,0,0-2.3.26l.63,35.24,37.22-.66Z"/><path class="cls-8" d="M120.57,96.73l-7.35.13a4.26,4.26,0,0,1-4.32-5l3-16.63a4.29,4.29,0,0,1,4.17-3.51l7.35-.13a4.26,4.26,0,0,1,4.32,5l-3,16.63A4.3,4.3,0,0,1,120.57,96.73Z"/><path class="cls-7" d="M197.39,104.26l-38.48,9.52h0l-.93,5,39.52-8.7Z"/><rect class="cls-4" x="74.54" y="2.05" width="12.41" height="139.41" transform="translate(-1.27 1.45) rotate(-1.02)"/><rect class="cls-5" x="78.88" y="1.97" width="12.41" height="139.41" transform="matrix(1, -0.02, 0.02, 1, -1.27, 1.53)"/><rect class="cls-4" x="93.16" y="1.72" width="12.41" height="139.41" transform="matrix(1, -0.02, 0.02, 1, -1.26, 1.78)"/><rect class="cls-5" x="97.5" y="1.64" width="12.41" height="139.41" transform="matrix(1, -0.02, 0.02, 1, -1.26, 1.86)"/><rect class="cls-5" x="84.9" y="83.89" width="2.48" height="23.85" transform="translate(-1.7 1.55) rotate(-1.02)"/><rect class="cls-5" x="91.1" y="83.78" width="2.48" height="23.85" transform="translate(-1.69 1.66) rotate(-1.02)"/><rect class="cls-5" x="78.7" y="84" width="2.48" height="23.85" transform="matrix(1, -0.02, 0.02, 1, -1.7, 1.44)"/><path class="cls-5" d="M77,141.54,76,85.91l21.72-.39,1,55.63,5-.09-1-55.66a4.17,4.17,0,0,0-4.49-4.17l-22.43.4c-2.54,0-4.76,1.82-4.72,4.33l1,55.67Z"/><path class="cls-4" d="M73.92,141.6,72.93,86l21.72-.39,1,55.64,5.15-.09-1-55.67A4.59,4.59,0,0,0,95.11,81l-22.43.4A4.59,4.59,0,0,0,68.15,86l1,55.67Z"/><rect class="cls-4" x="71.5" y="107.16" width="25.44" height="6.11" transform="translate(-1.95 1.52) rotate(-1.02)"/><rect class="cls-4" x="72.01" y="135.29" width="25.44" height="6.11" transform="translate(-2.45 1.53) rotate(-1.02)"/><rect class="cls-4" x="76.83" y="84.04" width="2.48" height="23.85" transform="translate(-1.7 1.41) rotate(-1.02)"/><rect class="cls-4" x="83.04" y="83.93" width="2.48" height="23.85" transform="translate(-1.7 1.52) rotate(-1.02)"/><rect class="cls-4" x="89.24" y="83.81" width="2.48" height="23.85" transform="translate(-1.69 1.63) rotate(-1.02)"/><rect class="cls-5" x="74.92" y="115.23" width="5.58" height="25.07" transform="translate(-2.27 1.41) rotate(-1.02)"/><rect class="cls-9" x="71.82" y="115.29" width="5.58" height="25.07" transform="translate(-2.27 1.35) rotate(-1.02)"/><polygon class="cls-4" points="0 138.02 80.66 136.58 80.73 140.25 33.2 141.1 0.01 138.63 0 138.02"/><polygon class="cls-5" points="5.58 137.92 80.66 136.58 80.73 140.25 38.78 141 5.6 138.53 5.58 137.92"/><rect class="cls-1" x="17.44" y="137.67" width="4.34" height="7.34" transform="matrix(1, -0.02, 0.02, 1, -2.52, 0.37)"/><rect class="cls-5" x="86.71" y="115.02" width="5.59" height="25.07" transform="translate(-2.26 1.62) rotate(-1.02)"/><rect class="cls-9" x="83.61" y="115.08" width="5.59" height="25.07" transform="translate(-2.26 1.56) rotate(-1.02)"/><polygon class="cls-4" points="11.79 137.81 92.45 136.37 92.52 140.04 44.99 140.89 11.8 138.42 11.79 137.81"/><polygon class="cls-5" points="17.37 137.71 92.45 136.37 92.52 140.04 50.57 140.79 17.38 138.32 17.37 137.71"/><rect class="cls-1" x="29.23" y="137.46" width="4.34" height="7.34" transform="translate(-2.51 0.58) rotate(-1.02)"/><rect class="cls-2" x="24.88" y="137.54" width="4.34" height="7.34" transform="translate(-2.52 0.51) rotate(-1.02)"/><rect class="cls-2" x="13.1" y="137.75" width="4.34" height="7.34" transform="translate(-2.52 0.29) rotate(-1.02)"/><rect class="cls-2" x="2.46" y="135.92" width="24.82" height="1.83" transform="translate(-2.44 0.29) rotate(-1.02)"/><rect class="cls-1" x="27.28" y="135.34" width="40.34" height="1.83" transform="translate(-2.42 0.87) rotate(-1.02)"/><rect class="cls-1" x="27.41" y="142.68" width="40.34" height="1.83" transform="translate(-2.55 0.87) rotate(-1.02)"/><rect class="cls-2" x="23.02" y="137.57" width="4.34" height="7.34" transform="matrix(1, -0.02, 0.02, 1, -2.52, 0.47)"/><rect class="cls-1" x="27.37" y="137.49" width="4.34" height="7.34" transform="translate(-2.51 0.55) rotate(-1.02)"/><rect class="cls-1" x="63.35" y="136.85" width="4.35" height="7.34" transform="translate(-2.5 1.19) rotate(-1.02)"/><rect class="cls-1" x="45.98" y="137.16" width="4.35" height="7.34" transform="translate(-2.51 0.88) rotate(-1.02)"/><rect class="cls-10" x="8.98" y="103.42" width="21.72" height="32.41" transform="matrix(1, -0.02, 0.02, 1, -2.13, 0.37)"/><rect class="cls-10" x="30.7" y="102.93" width="33.51" height="32.41" transform="translate(-2.12 0.87) rotate(-1.02)"/><rect class="cls-11" x="8.96" y="102.2" width="21.72" height="32.41" transform="translate(-2.11 0.37) rotate(-1.02)"/><rect class="cls-12" x="30.68" y="101.71" width="33.51" height="32.41" transform="translate(-2.1 0.87) rotate(-1.02)"/><rect class="cls-13" x="34.19" y="125.6" width="19.24" height="5.5" transform="translate(-2.28 0.8) rotate(-1.02)"/><rect class="cls-14" x="13.18" y="107.11" width="10.55" height="8.56" transform="translate(-1.98 0.35) rotate(-1.02)"/><rect class="cls-15" x="18.96" y="119.29" width="4.96" height="5.5" transform="translate(-2.17 0.4) rotate(-1.02)"/><rect class="cls-10" x="8.38" y="69.8" width="21.72" height="32.41" transform="translate(-1.53 0.36) rotate(-1.02)"/><rect class="cls-10" x="30.1" y="69.31" width="33.51" height="32.41" transform="translate(-1.52 0.85) rotate(-1.02)"/><rect class="cls-11" x="8.36" y="68.57" width="21.72" height="32.41" transform="translate(-1.51 0.36) rotate(-1.02)"/><rect class="cls-12" x="30.08" y="68.08" width="33.51" height="32.41" transform="translate(-1.5 0.85) rotate(-1.02)"/><rect class="cls-14" x="12.58" y="73.49" width="10.55" height="8.56" transform="translate(-1.38 0.33) rotate(-1.02)"/><rect class="cls-15" x="18.36" y="85.67" width="4.96" height="5.5" transform="translate(-1.57 0.39) rotate(-1.02)"/><rect class="cls-13" x="33.58" y="91.36" width="19.24" height="5.5" transform="translate(-1.67 0.79) rotate(-1.02)"/><rect class="cls-10" x="7.78" y="36.17" width="21.72" height="32.41" transform="matrix(1, -0.02, 0.02, 1, -0.93, 0.34)"/><rect class="cls-10" x="29.5" y="35.68" width="33.51" height="32.41" transform="translate(-0.92 0.83) rotate(-1.02)"/><rect class="cls-11" x="7.76" y="34.95" width="21.72" height="32.41" transform="translate(-0.91 0.34) rotate(-1.02)"/><rect class="cls-12" x="29.48" y="34.46" width="33.51" height="32.41" transform="matrix(1, -0.02, 0.02, 1, -0.9, 0.83)"/><rect class="cls-13" x="32.99" y="58.35" width="19.24" height="5.5" transform="translate(-1.08 0.77) rotate(-1.02)"/><rect class="cls-14" x="11.98" y="39.86" width="10.55" height="8.56" transform="translate(-0.78 0.31) rotate(-1.02)"/><rect class="cls-15" x="17.76" y="52.04" width="4.96" height="5.5" transform="translate(-0.97 0.37) rotate(-1.02)"/><path class="cls-5" d="M164,92.29l-7.35.13a4.27,4.27,0,0,1-4.32-5l3-16.63a4.3,4.3,0,0,1,4.17-3.51l7.35-.13a4.27,4.27,0,0,1,4.32,5l-3,16.63A4.3,4.3,0,0,1,164,92.29Z"/><path class="cls-4" d="M159.49,92.37l-7.35.13a4.27,4.27,0,0,1-4.32-5l3-16.63A4.3,4.3,0,0,1,155,67.37l7.35-.13a4.27,4.27,0,0,1,4.32,5l-3,16.63A4.3,4.3,0,0,1,159.49,92.37Z"/><path class="cls-4" d="M163.3,100.25l-22.57.4a3,3,0,0,1-3-2.89l0-2.06a3,3,0,0,1,2.93-3l22.57-.4a3,3,0,0,1,3,2.89l0,2.06A3,3,0,0,1,163.3,100.25Z"/><path class="cls-16" d="M154.55,84.06s-1.18,6.58-9.74,6.73S133.93,95,133.93,95s1.24,6.39.59,9.78-1.42,2.77-1.42,2.77l-7.76-6.5S123,91.37,127.43,88.1C133.92,83.31,152.4,83.19,154.55,84.06Z"/><path class="cls-17" d="M131.14,64.31c0-.07-1.34-2.6-2.61-2.81a2.88,2.88,0,0,0-1.06,0,1.32,1.32,0,0,0-.3.09,1.59,1.59,0,0,0-1.07,1.24c-.14,1-1.23,3.11-.27,3.18s2.89,1.45,4,1A2.49,2.49,0,0,0,131.14,64.31Z"/><path class="cls-17" d="M128.33,61.7c.13.32-1.92.95-2.78,1.28s-1.45.27-1.57,0,0-.75.9-1.09S128.21,61.39,128.33,61.7Z"/><path class="cls-17" d="M128.36,62.93c.12.31-1.93.94-2.79,1.27s-1.45.27-1.57,0,0-.75.9-1.08S128.23,62.61,128.36,62.93Z"/><path class="cls-17" d="M128.81,63.94c.12.32-1.93,1-2.79,1.28s-1.45.27-1.57,0,0-.75.9-1.09S128.68,63.63,128.81,63.94Z"/><path class="cls-17" d="M129.42,64.54c.13.31-1.92.94-2.78,1.27s-1.45.27-1.58,0,0-.75.91-1.08S129.3,64.22,129.42,64.54Z"/><path class="cls-18" d="M158.87,61.58s-4.23-4.74-10.36.66c-4.35,3.82-5.36,6-5.25,6s-9.74-3.85-11-4.57-4.19,2.7-3.31,3.61,13.45,11.88,17.92,8.19C151.81,71.42,161.16,65.81,158.87,61.58Z"/><path class="cls-19" d="M164,63.32c-.73-5.78-9-4.77-9-4.77s-2,.06-5.27,2.43c-2.13,1.57-3.55,5.55-4.47,10.06,0,0,2.88,8.2.45,12.11-.15,3.1-2,5.45-1.83,6.41.46,3.32,10.57,1.7,15.18,0S164.72,69.11,164,63.32Z"/><path class="cls-19" d="M164,63.32c-.73-5.78-9-4.77-9-4.77s-2,.06-5.27,2.43c-2.13,1.57-3.55,5.55-4.47,10.06,0,0,2.88,8.2.45,12.11-.15,3.1-2,5.45-1.83,6.41.46,3.32,10.57,1.7,15.18,0S164.72,69.11,164,63.32Z"/><path class="cls-20" d="M161.15,59.42l1.11,5.15s-.2,17-1.92,20.79c-1.45,3.17-7.33,4.76-14.82,5.75,3.14,1,10-.24,13.55-1.54,4.6-1.69,5.65-20.46,4.92-26.25A4.84,4.84,0,0,0,161.15,59.42Z"/><path class="cls-21" d="M147.52,66s3.87-9.14,10-7.39h0c.22.17-3.44-2.28-9.13,7.65Z"/><path class="cls-21" d="M162.52,83.4a52.74,52.74,0,0,0,1.2-7c-5.78,8.35-10.9.28-11.91-3.34-.47-1.71.19-6.88.19-6.88l-4.48.08c-1,0-2.21,4.87-2.22,4.89s2.25,10-1.42,13h0c-3.71.69-6.94,1.72-9,3.23-4.44,3.28-2.06,15.36-2.06,15.36l7.75,6.51s.76.61,1.42-2.78-.59-9.78-.59-9.78,2.32-4,10.88-4.17c10.87-.19,10.24-9.09,10.24-9.09Z"/><path class="cls-16" d="M161.55,78.83a25.61,25.61,0,0,1-1.21,6.53c-1.73,3.78-9.78,5.32-19.33,6.27a7.35,7.35,0,0,0-2.54-1s2.18,1.87,2,2.1-2.38.26-3.12.86c0,0,2.6.33,2.81,1.06s1.54,9.38.23,12.8a3.49,3.49,0,0,0-.25,1.38l.48.41s.76.61,1.42-2.78-.59-9.78-.59-9.78,2.32-4,10.88-4.17c10.87-.19,10.24-9.09,10.24-9.09h0a52.74,52.74,0,0,0,1.2-7A11.35,11.35,0,0,1,161.55,78.83Z"/><path class="cls-8" d="M136.22,71.8l-12.69-7.72a1.19,1.19,0,0,1-.4-1.66v0a1.25,1.25,0,0,1,1.69-.39l12.7,7.71a1.2,1.2,0,0,1,.4,1.67v0A1.25,1.25,0,0,1,136.22,71.8Z"/><path class="cls-17" d="M137.23,69.39c0-.06-1.35-2.59-2.61-2.8a2.55,2.55,0,0,0-1.07,0l-.3.08a1.57,1.57,0,0,0-1.06,1.25c-.15,1-1.23,3.1-.27,3.18s2.89,1.45,4.05.95A2.48,2.48,0,0,0,137.23,69.39Z"/><path class="cls-17" d="M134.42,66.79c.12.31-1.92.94-2.78,1.28s-1.45.26-1.58,0,.05-.75.91-1.08S134.3,66.48,134.42,66.79Z"/><path class="cls-17" d="M134.44,68c.13.31-1.92.94-2.78,1.28s-1.45.27-1.58-.05,0-.75.91-1.08S134.32,67.7,134.44,68Z"/><path class="cls-17" d="M134.89,69c.13.31-1.92.94-2.78,1.28s-1.45.27-1.58,0,.05-.75.91-1.08S134.77,68.72,134.89,69Z"/><path class="cls-17" d="M135.51,69.62c.12.32-1.93.95-2.79,1.28s-1.45.27-1.57-.05,0-.74.91-1.08S135.38,69.31,135.51,69.62Z"/><path class="cls-17" d="M146.06,44.83c1.26-5.77,12.11-3.52,13.16-.23.46,1.44.23,4.38-.17,7.22h0a12.49,12.49,0,0,1-.8,2.62c-.4.64-.82,3.7-.43,4.15a17.06,17.06,0,0,0-5.12,3.48,10,10,0,0,1,.83-2.44c.19-2.94-2.65-2.28-5.41-3.58S146.06,44.83,146.06,44.83Z"/><path class="cls-22" d="M148.12,56.05a1.92,1.92,0,0,1-.48-.34,6,6,0,0,0,3.56.21c1.3-.17,4.06-1.46,4.91-3,.65-1.12.89-4.38.89-4.38l2.2,2.09q-.06.57-.15,1.14h0a12.49,12.49,0,0,1-.8,2.62c-.4.64-.82,3.7-.43,4.15a17.06,17.06,0,0,0-5.12,3.48,10,10,0,0,1,.83-2.44C153.72,56.69,150.88,57.35,148.12,56.05Z"/><path class="cls-23" d="M147,40.48s-2.28,2.93-1,6h0c0-1.44.29-3,1-3.39h0a2.68,2.68,0,0,1,2.41-.08c2.32.77,2.54-.13,4-.32s3,2.62,3.2,5.58c.07,1.53,2.45,3.56,2.45,3.56a20.94,20.94,0,0,0,.73-5C160,43.29,158.51,35.16,147,40.48Z"/><path class="cls-24" d="M160.49,43.74a8.36,8.36,0,0,0-.13-1,8,8,0,0,0-8.16-6.38,7.78,7.78,0,0,0-8,7.69h-.56c-.24,0-.46-.06-.45.18h0c0,.24.22.35.46.34l1.09,0,15-.27h.12C159.59,44.29,160.56,44.42,160.49,43.74Z"/><path class="cls-25" d="M143.36,44.23h0c0-.24,0-.4.29-.4h.56a8,8,0,0,1,6.41-7.42,8,8,0,0,1,6.64,6.32,6.41,6.41,0,0,1,.13,1,.42.42,0,0,1-.46.5h-.3l-11.88.22-1.09,0C143.41,44.43,143.37,44.47,143.36,44.23Z"/><path class="cls-19" d="M143.66,44.57l1.09,0,15-.27h.12c-.26,0,.72.22.64-.46,0-.07,0-.08,0-.08L144.21,44h-.56c-.24,0-.46-.06-.45.18h0C143.2,44.47,143.42,44.58,143.66,44.57Z"/><path class="cls-19" d="M148.84,44.48h0a.42.42,0,0,1-.41-.39,7.27,7.27,0,0,1,2-5.49.42.42,0,0,1,.57,0,.4.4,0,0,1,0,.56h0a6.54,6.54,0,0,0-1.73,4.88A.4.4,0,0,1,148.84,44.48Z"/><path class="cls-19" d="M147.15,44a7.05,7.05,0,0,1,1-3.84.32.32,0,0,0,0-.49c-.17-.14-.42-.21-.56,0A6.85,6.85,0,0,0,146.35,44Z"/><path class="cls-19" d="M152.52,39.63c-.17-.14-.42-.24-.56-.07a6.78,6.78,0,0,0-1.21,4.35h.81a6.86,6.86,0,0,1,1-3.84A.27.27,0,0,0,152.52,39.63Z"/><path class="cls-22" d="M158.22,50.77h0a1.39,1.39,0,0,1-1.35-1.42l0-1a1.4,1.4,0,0,1,1.31-1.46h0a1.39,1.39,0,0,1,1.36,1.42l-.15,1.33C159.17,50.55,159,50.75,158.22,50.77Z"/><path class="cls-5" d="M166.2,95.19a3,3,0,0,0-3-2.89l-12.65.23a3,3,0,0,0-2.93,3l0,2.07a3,3,0,0,0,3,2.88l12.64-.22a3,3,0,0,0,2.93-3Z"/><path class="cls-4" d="M153.46,120l-30,.54a2.18,2.18,0,0,1-1.57-.62,2.15,2.15,0,0,1-.64-1.55c0-3.1,1.26-76.46,28.56-110.76,3.86-4.83,10.57-7.37,20-7.54a67.24,67.24,0,0,1,14.84,1.5,2.15,2.15,0,0,1,1.66,2.22c-.26,3.8.9,58.3,1.54,86.59a2.15,2.15,0,0,1-1.06,1.89c-.25.14-25.35,14.92-31.39,26.57A2.18,2.18,0,0,1,153.46,120Zm-27.8-3.78,26.47-.47c6.65-11.13,26.38-23.53,31.31-26.51-.22-9.92-1.61-71.58-1.55-83.85a63.41,63.41,0,0,0-12-1c-5.51.1-12.86,1.2-16.6,5.91C129.4,40.18,126.09,103.59,125.66,116.21Z"/><path class="cls-5" d="M156.3,119.94l-30,.54a2.21,2.21,0,0,1-1.57-.62,2.11,2.11,0,0,1-.64-1.55c0-3.1,1.25-76.46,28.56-110.76C156.51,2.71,163.22.18,172.6,0a67.14,67.14,0,0,1,14.84,1.5,2.15,2.15,0,0,1,1.66,2.22c-.25,3.8.9,58.3,1.55,86.58a2.11,2.11,0,0,1-1.07,1.89c-.25.15-25.35,14.93-31.39,26.58A2.16,2.16,0,0,1,156.3,119.94Zm-27.8-3.78,26.46-.47c6.66-11.14,26.38-23.53,31.32-26.51-.23-9.92-1.61-71.58-1.55-83.85a63.41,63.41,0,0,0-12-1c-5.51.1-12.86,1.2-16.61,5.91C132.24,40.13,128.93,103.54,128.5,116.16Z"/><polygon class="cls-6" points="111.05 100.57 134.04 100.64 141.34 109.83 143.55 120.17 111.41 120.75 111.05 100.57"/><path class="cls-4" d="M132.81,125.61c.22,12.18-6.55,22.19-15.12,22.34s-15.69-9.6-15.9-21.78,6.55-22.19,15.12-22.34S132.59,113.43,132.81,125.61Z"/><rect class="cls-4" x="116.47" y="103.8" width="10.55" height="44.02" transform="translate(-2.23 2.19) rotate(-1.02)"/><path class="cls-5" d="M142.12,125.45c.22,12.18-6.55,22.18-15.12,22.33s-15.69-9.6-15.91-21.78,6.55-22.18,15.12-22.34S141.9,113.26,142.12,125.45Z"/><path class="cls-6" d="M137.31,125.53c.14,8.08-4.35,14.72-10,14.82s-10.4-6.37-10.55-14.45,4.35-14.72,10-14.82S137.16,117.45,137.31,125.53Z"/><path class="cls-7" d="M135.55,125.56c.11,6.7-3.61,12.2-8.31,12.28s-8.63-5.28-8.75-12,3.6-12.2,8.31-12.28S135.43,118.87,135.55,125.56Z"/><path class="cls-6" d="M125.27,113.83c-4,1.1-6.88,6.09-6.78,12s3.21,10.83,7.2,11.79c4-1.1,6.88-6.09,6.78-12S129.26,114.78,125.27,113.83Z"/><path class="cls-4" d="M125.73,118.91c0,.83-.45,1.51-1,1.52s-1.07-.65-1.08-1.48.44-1.51,1-1.52S125.71,118.09,125.73,118.91Z"/><rect class="cls-4" x="124.62" y="117.43" width="0.72" height="3" transform="translate(-2.1 2.25) rotate(-1.02)"/><ellipse class="cls-5" cx="125.31" cy="118.92" rx="1.06" ry="1.5" transform="translate(-2.1 2.25) rotate(-1.02)"/><path class="cls-4" d="M126,132.08c0,.83-.44,1.51-1,1.52s-1.07-.65-1.09-1.48.45-1.51,1-1.52S126,131.25,126,132.08Z"/><rect class="cls-4" x="124.85" y="130.59" width="0.72" height="3" transform="translate(-2.34 2.26) rotate(-1.02)"/><path class="cls-5" d="M126.6,132.07c0,.83-.45,1.51-1,1.52s-1.07-.66-1.08-1.49.44-1.51,1-1.52S126.58,131.24,126.6,132.07Z"/><path class="cls-4" d="M120.86,122.08c0,.83-.44,1.51-1,1.52s-1.06-.66-1.08-1.48.45-1.51,1-1.52S120.85,121.25,120.86,122.08Z"/><rect class="cls-4" x="119.75" y="120.59" width="0.72" height="3" transform="translate(-2.16 2.16) rotate(-1.02)"/><path class="cls-5" d="M121.5,122.07c0,.82-.45,1.51-1,1.52s-1.07-.66-1.09-1.49.45-1.51,1-1.52S121.48,121.24,121.5,122.07Z"/><path class="cls-4" d="M120.61,128.78c0,.83-.45,1.51-1,1.52s-1.07-.66-1.08-1.49.44-1.51,1-1.52S120.59,128,120.61,128.78Z"/><rect class="cls-4" x="119.5" y="127.29" width="0.72" height="3" transform="translate(-2.28 2.16) rotate(-1.02)"/><path class="cls-5" d="M121.24,128.77c0,.83-.44,1.51-1,1.52s-1.06-.66-1.08-1.49.45-1.51,1-1.52S121.23,127.94,121.24,128.77Z"/><path class="cls-4" d="M130.16,121.91c0,.83-.44,1.51-1,1.52s-1.06-.65-1.08-1.48.45-1.51,1-1.52S130.15,121.08,130.16,121.91Z"/><rect class="cls-4" x="129.05" y="120.43" width="0.72" height="3" transform="matrix(1, -0.02, 0.02, 1, -2.15, 2.33)"/><path class="cls-5" d="M130.8,121.9c0,.83-.45,1.51-1,1.52s-1.07-.65-1.09-1.48.45-1.51,1-1.52S130.78,121.07,130.8,121.9Z"/><ellipse class="cls-4" cx="128.85" cy="128.63" rx="1.06" ry="1.5" transform="matrix(1, -0.02, 0.02, 1, -2.27, 2.32)"/><rect class="cls-4" x="128.8" y="127.13" width="0.72" height="3" transform="matrix(1, -0.02, 0.02, 1, -2.27, 2.32)"/><path class="cls-5" d="M130.54,128.6c0,.83-.44,1.51-1,1.52s-1.06-.65-1.08-1.48.45-1.51,1-1.52S130.53,127.77,130.54,128.6Z"/><path class="cls-4" d="M127.17,125.31c0,2.28-1.22,4.14-2.82,4.17s-2.93-1.79-3-4.06,1.22-4.14,2.82-4.17S127.13,123,127.17,125.31Z"/><rect class="cls-4" x="124.12" y="121.24" width="1.97" height="8.21" transform="translate(-2.22 2.25) rotate(-1.02)"/><path class="cls-5" d="M128.9,125.28c0,2.27-1.22,4.14-2.82,4.17s-2.92-1.79-3-4.07,1.22-4.13,2.82-4.16S128.86,123,128.9,125.28Z"/><path class="cls-6" d="M118.49,125.87a16.06,16.06,0,0,1,1-5.88l-1.23,0,.22,12.23,1.44,0A15.91,15.91,0,0,1,118.49,125.87Z"/><path class="cls-5" d="M138.26,29.75l-2.7.05a3.06,3.06,0,0,1-3.14-3l-.08-4.22a3.07,3.07,0,0,1,3-3.1l2.69,0a3.07,3.07,0,0,1,3.15,3l.08,4.22A3.07,3.07,0,0,1,138.26,29.75Z"/><path class="cls-4" d="M136.06,29.79l-2.69.05a3.07,3.07,0,0,1-3.15-3l-.08-4.22a3.08,3.08,0,0,1,3-3.1l2.7-.05a3.07,3.07,0,0,1,3.15,3l.07,4.22A3.07,3.07,0,0,1,136.06,29.79Z"/><path class="cls-26" d="M137,26.46A1.5,1.5,0,0,1,135.56,28L133,28a1.49,1.49,0,0,1-1.53-1.45l-.08-4.37a1.49,1.49,0,0,1,1.48-1.51l2.57-.05A1.5,1.5,0,0,1,137,22.09Z"/><path class="cls-7" d="M121,100.39l7.91-.14a16.33,16.33,0,0,0-9.18-2.67c-10.28.18-18.37,10.13-19.65,23.37l3.29-.06h.13l3.59-.07,8-18.88a12.26,12.26,0,0,1,4.67-1c.4,0,.81,0,1.21,0Z"/><rect class="cls-7" x="119.09" y="97.53" width="6.83" height="1.83" transform="translate(-1.74 2.2) rotate(-1.02)"/><path class="cls-6" d="M109.69,120.78c1.25-11.22,8-19.83,16.28-20s15.34,8.21,17,19.38l3.42-.06c-1.75-13.18-10.19-22.84-20.47-22.65s-18.37,10.13-19.64,23.37Z"/><path class="cls-16" d="M163.72,76.4s-.88,10.37-2.52,12Z"/><path class="cls-21" d="M150.63,66.6s3.88-9.14,10.05-7.39c0,0,1.15.58,1.37.75s-4.81-3-10.5,6.89Z"/><path d="M147.46,67.79h-.67a.28.28,0,0,1-.29-.28l.78-1.59a.27.27,0,0,1,.28-.28h.67a.27.27,0,0,1,.29.27l-.78,1.59A.28.28,0,0,1,147.46,67.79Z"/><path d="M150.72,67.73h-.67a.28.28,0,0,1-.29-.27l.78-1.59a.28.28,0,0,1,.28-.29h.67a.29.29,0,0,1,.29.27L151,67.44A.28.28,0,0,1,150.72,67.73Z"/><path class="cls-20" d="M163.35,61.72s-.53-1.15-1.19-1.44c-1-.43-2.53-.81-3.42.18-.32.36-.89.89-1.34,1.34-3.55,3.56-6.77,6.51-8.24,8.71,0,0-9.9-1.38-11.29-1.84s-3.58,3.46-2.53,4.18,16.13,8.67,19.08,3.72C157,72.28,164.57,64.08,163.35,61.72Z"/><path class="cls-18" d="M135.34,72.85c-.31-.22-.33-.72-.17-1.31a.45.45,0,0,1,0-.11c4.8,3,15,7.11,19.15,3.36s8.46-13.9,8.45-14a5.22,5.22,0,0,1,.55.89c1.22,2.36-4.75,10.6-8.79,15.56C150.91,81.75,136.39,73.57,135.34,72.85Z"/><path class="cls-18" d="M149.4,70.07c.75,0,2.06,0,2.45,1,0,0-1.25-.88-1.76-.48,0,0,2.38,1.2,2.27,2.51a18.34,18.34,0,0,0-3.08-2.79C149.32,70.21,149.36,70.15,149.4,70.07Z"/></g></g></svg>