<svg xmlns="http://www.w3.org/2000/svg" viewBox="0 0 170.03 180.24"><defs><style>.cls-1{fill:#babdb3;}.cls-1,.cls-10,.cls-102,.cls-103,.cls-104,.cls-105,.cls-106,.cls-107,.cls-108,.cls-109,.cls-110,.cls-111,.cls-113,.cls-114,.cls-115,.cls-116,.cls-119,.cls-12,.cls-121,.cls-122,.cls-123,.cls-124,.cls-127,.cls-129,.cls-131,.cls-132,.cls-134,.cls-136,.cls-137,.cls-138,.cls-14,.cls-140,.cls-141,.cls-144,.cls-145,.cls-147,.cls-148,.cls-15,.cls-151,.cls-152,.cls-154,.cls-155,.cls-16,.cls-17,.cls-18,.cls-2,.cls-20,.cls-21,.cls-22,.cls-24,.cls-25,.cls-26,.cls-27,.cls-29,.cls-3,.cls-30,.cls-31,.cls-32,.cls-34,.cls-37,.cls-39,.cls-40,.cls-42,.cls-43,.cls-45,.cls-46,.cls-47,.cls-48,.cls-49,.cls-51,.cls-53,.cls-54,.cls-55,.cls-56,.cls-57,.cls-58,.cls-60,.cls-62,.cls-63,.cls-64,.cls-66,.cls-67,.cls-69,.cls-7,.cls-70,.cls-72,.cls-74,.cls-76,.cls-78,.cls-79,.cls-8,.cls-81,.cls-83,.cls-85,.cls-87,.cls-88,.cls-90,.cls-92,.cls-94,.cls-96,.cls-97,.cls-98,.cls-99{fill-rule:evenodd;}.cls-2{fill:#ecead8;}.cls-3{fill:#dfdcca;}.cls-4{fill:#e8e6d2;}.cls-5{fill:#bfbfb2;}.cls-6{fill:#efede7;}.cls-7{fill:#809caa;}.cls-8{fill:#617783;}.cls-9{fill:#a1c2d2;}.cls-10{fill:#54636c;}.cls-11{fill:#d6a09b;}.cls-12{fill:#dfbdbb;}.cls-13{fill:#e9dfde;}.cls-14{fill:#9da785;}.cls-15{fill:#c7d1a5;}.cls-16{fill:#b7bb83;}.cls-17{fill:#f2de9c;}.cls-18,.cls-19{fill:#efcd5f;}.cls-20{fill:#71b8d6;}.cls-21{fill:#569dbb;}.cls-22{fill:#bed0d8;}.cls-23{fill:#86c5de;}.cls-24{fill:#6eadc8;}.cls-25{fill:#7d8ebb;}.cls-26{fill:#65739d;}.cls-27{fill:#c1c7db;}.cls-28{fill:#8f9ec7;}.cls-29{fill:#7988ae;}.cls-30{fill:#cd8daf;}.cls-31{fill:#b07192;}.cls-32{fill:#ddc8d6;}.cls-33{fill:#d69ebd;}.cls-34{fill:#bc85a3;}.cls-35{fill:#babcbe;}.cls-36,.cls-45{fill:#86a6bc;}.cls-37{fill:#646578;}.cls-38,.cls-46{fill:#7795a8;}.cls-39{fill:#5a5e69;}.cls-40{fill:#c9cacc;}.cls-41{fill:#98b5c9;}.cls-42{fill:#7a7c8e;}.cls-43{fill:#bcbec0;}.cls-44{fill:#d1d3d4;}.cls-47{fill:#ddbc83;}.cls-48{fill:#bba06d;}.cls-49,.cls-68{fill:#fccfbb;}.cls-50{fill:#dfc090;}.cls-51{fill:#c3a97a;}.cls-52{fill:#f6d0c1;}.cls-53{fill:#bba27a;}.cls-54{fill:#9e8a67;}.cls-55{fill:#d2b3a7;}.cls-56{fill:#ded98a;}.cls-57{fill:#bdba6d;}.cls-58{fill:#feddc3;}.cls-59{fill:#e0db95;}.cls-60{fill:#c7c37a;}.cls-61{fill:#f8dbc3;}.cls-62{fill:#c1bd7c;}.cls-63{fill:#9f9d68;}.cls-64{fill:#d9bba3;}.cls-65{fill:#c48b77;}.cls-66{fill:#f9a284;}.cls-67{fill:#f04c65;}.cls-69{fill:#f9a062;}.cls-70,.cls-71{fill:#c2e8fb;}.cls-72,.cls-77{fill:#d9f1fd;}.cls-73{fill:#ffefd4;}.cls-74,.cls-75{fill:#aecbda;}.cls-76{fill:#bed1db;}.cls-78{fill:#eef9fe;}.cls-79,.cls-80{fill:#c3cfec;}.cls-81,.cls-86{fill:#dee5f1;}.cls-82{fill:#eff2de;}.cls-83,.cls-84{fill:#afb9cf;}.cls-85{fill:#bdc5d3;}.cls-87{fill:#eff2f6;}.cls-88,.cls-89{fill:#e4cae3;}.cls-90,.cls-95{fill:#ebe4ec;}.cls-91{fill:#fed8ad;}.cls-92,.cls-93{fill:#c6b3c8;}.cls-94{fill:#cdc2cf;}.cls-96{fill:#f5f2f4;}.cls-97{fill:#9daece;}.cls-98{fill:#d2dae7;}.cls-99{fill:#c0cadd;}.cls-100{fill:#f9e5ba;}.cls-101{fill:#dee6bb;}.cls-102{fill:#ab7f7b;}.cls-103{fill:#da9f98;}.cls-104{fill:#d18e88;}.cls-105{fill:#eb916b;}.cls-106{fill:#f1bea4;}.cls-107{fill:#997b95;}.cls-108{fill:#c59cbb;}.cls-109{fill:#b88aad;}.cls-110{fill:#e886a4;}.cls-111{fill:#eeb9c6;}.cls-112{fill:#b3bbc2;}.cls-113{fill:#bad7dc;}.cls-114{fill:#a1c7d0;}.cls-115,.cls-118{fill:#ccebf4;}.cls-116,.cls-117{fill:#4991ac;}.cls-119{fill:#8ac4cf;}.cls-120{fill:#b2bab8;}.cls-121{fill:#cee0c8;}.cls-122{fill:#bfd4b6;}.cls-123,.cls-126{fill:#ddedd8;}.cls-124,.cls-125{fill:#6ba484;}.cls-127{fill:#b2d1a6;}.cls-128,.cls-131{fill:#ddbd76;}.cls-129{fill:#f5d080;}.cls-130,.cls-132{fill:#f8eace;}.cls-133,.cls-136{fill:#a2c182;}.cls-134{fill:#b4d48f;}.cls-135,.cls-137{fill:#e0ecd5;}.cls-138,.cls-139{fill:#facf68;}.cls-140,.cls-143{fill:#f9e1a7;}.cls-141,.cls-142{fill:#e6b848;}.cls-144{fill:#f6f6f6;}.cls-145,.cls-146{fill:#ee725f;}.cls-147,.cls-150{fill:#f3ac99;}.cls-148,.cls-149{fill:#dc5c4d;}.cls-151{fill:#f3f4f4;}.cls-152,.cls-153{fill:#ec74a1;}.cls-154,.cls-157{fill:#f1acc3;}.cls-155,.cls-156{fill:#db5e8d;}</style></defs><title>Asset 28</title><g id="Layer_2" data-name="Layer 2"><g id="Layer_1-2" data-name="Layer 1"><path class="cls-1" d="M123.82,61.15l-1.88-.08V60a1,1,0,0,1,.94-.94h0a1,1,0,0,1,.94.94v1.15ZM85.87,59.61l-1.67-.07a1,1,0,0,1,.82-.48h0a1,1,0,0,1,.85.55Zm74.88-.55h0a1,1,0,0,1,.94.94v1.62a.94.94,0,0,1-.94.93h0a.94.94,0,0,1-.94-.93V60A1,1,0,0,1,160.75,59.06Z"/><path class="cls-2" d="M4.5,0h161V174H4.5Z"/><polygon class="cls-3" points="4.93 50.61 165.96 50.61 165.53 62.84 4.5 56.3 4.93 50.61"/><polygon class="cls-3" points="4.93 85.59 165.96 85.59 165.53 97.83 4.5 91.29 4.93 85.59"/><polygon class="cls-3" points="4.5 120.58 165.53 120.58 165.53 132.74 4.5 126.36 4.5 120.58"/><polygon class="cls-3" points="4.93 155.57 165.96 155.57 165.53 167.8 4.5 161.26 4.93 155.57"/><polygon class="cls-3" points="4.93 15.3 165.96 15.3 165.53 27.54 4.5 20.99 4.93 15.3"/><rect class="cls-4" y="13.71" width="170.03" height="5.2"/><rect class="cls-5" y="16.5" width="170.03" height="2.41"/><rect class="cls-6" y="14.47" width="170.03" height="3.58"/><rect class="cls-4" y="48.34" width="170.03" height="5.2"/><rect class="cls-5" y="51.13" width="170.03" height="2.41"/><rect class="cls-6" y="49.1" width="170.03" height="3.58"/><rect class="cls-4" y="82.97" width="170.03" height="5.2"/><rect class="cls-5" y="85.76" width="170.03" height="2.41"/><rect class="cls-6" y="83.74" width="170.03" height="3.58"/><rect class="cls-4" y="117.6" width="170.03" height="5.2"/><rect class="cls-5" y="120.39" width="170.03" height="2.41"/><rect class="cls-6" y="118.37" width="170.03" height="3.58"/><polygon class="cls-7" points="0 152.23 170.03 152.23 170.03 156.36 170.03 167.26 170.03 175.65 170.03 180.24 0 180.24 0 175.65 0 167.26 0 156.36 0 152.23"/><polygon class="cls-8" points="0 154.92 170.03 154.92 170.03 156.36 170.03 167.11 0 160.68 0 156.36 0 154.92"/><rect class="cls-4" y="152.23" width="170.03" height="5.2"/><rect class="cls-5" y="155.02" width="170.03" height="2.41"/><rect class="cls-6" y="153" width="170.03" height="3.58"/><polygon class="cls-8" points="0 176.48 170.03 176.48 170.03 177.03 170.03 178.5 170.03 179.62 170.03 180.24 0 180.24 0 179.62 0 178.5 0 177.03 0 176.48"/><rect class="cls-9" y="177.02" width="170.03" height="2.69"/><path class="cls-8" d="M2.68,159h0a.81.81,0,0,1,.81.81v1.39a.8.8,0,0,1-.81.8h0a.81.81,0,0,1-.81-.8v-1.39a.81.81,0,0,1,.81-.81Zm0,4.51h0a.81.81,0,0,1,.81.81v1.38a.81.81,0,0,1-.81.81h0a.81.81,0,0,1-.81-.81v-1.38a.81.81,0,0,1,.81-.81Zm0,4.5h0a.81.81,0,0,1,.81.81v1.39a.81.81,0,0,1-.81.81h0a.82.82,0,0,1-.81-.81v-1.39a.82.82,0,0,1,.81-.81Zm0,4.51h0a.81.81,0,0,1,.81.81v1.39a.81.81,0,0,1-.81.81h0a.82.82,0,0,1-.81-.81v-1.39a.81.81,0,0,1,.81-.81ZM43.54,159h0a.81.81,0,0,1,.81.81v1.39a.81.81,0,0,1-.81.8h0a.8.8,0,0,1-.81-.8v-1.39a.81.81,0,0,1,.81-.81Zm0,4.51h0a.81.81,0,0,1,.81.81v1.38a.81.81,0,0,1-.81.81h0a.81.81,0,0,1-.81-.81v-1.38a.81.81,0,0,1,.81-.81Zm0,4.5h0a.82.82,0,0,1,.81.81v1.39a.82.82,0,0,1-.81.81h0a.81.81,0,0,1-.81-.81v-1.39a.81.81,0,0,1,.81-.81Zm0,4.51h0a.81.81,0,0,1,.81.81v1.39a.82.82,0,0,1-.81.81h0a.81.81,0,0,1-.81-.81v-1.39a.81.81,0,0,1,.81-.81ZM84.39,159h0a.81.81,0,0,1,.81.81v1.39a.8.8,0,0,1-.81.8h0a.81.81,0,0,1-.81-.8v-1.39a.81.81,0,0,1,.81-.81Zm0,4.51h0a.81.81,0,0,1,.81.81v1.38a.81.81,0,0,1-.81.81h0a.81.81,0,0,1-.81-.81v-1.38a.81.81,0,0,1,.81-.81Zm0,4.5h0a.81.81,0,0,1,.81.81v1.39a.81.81,0,0,1-.81.81h0a.82.82,0,0,1-.81-.81v-1.39a.82.82,0,0,1,.81-.81Zm0,4.51h0a.81.81,0,0,1,.81.81v1.39a.81.81,0,0,1-.81.81h0a.82.82,0,0,1-.81-.81v-1.39a.81.81,0,0,1,.81-.81ZM125.25,159h0a.81.81,0,0,1,.81.81v1.39a.81.81,0,0,1-.81.8h0a.8.8,0,0,1-.81-.8v-1.39a.81.81,0,0,1,.81-.81Zm0,4.51h0a.81.81,0,0,1,.81.81v1.38a.81.81,0,0,1-.81.81h0a.81.81,0,0,1-.81-.81v-1.38a.81.81,0,0,1,.81-.81Zm0,4.5h0a.82.82,0,0,1,.81.81v1.39a.82.82,0,0,1-.81.81h0a.81.81,0,0,1-.81-.81v-1.39a.81.81,0,0,1,.81-.81Zm0,4.51h0a.81.81,0,0,1,.81.81v1.39a.82.82,0,0,1-.81.81h0a.81.81,0,0,1-.81-.81v-1.39a.81.81,0,0,1,.81-.81ZM166.1,159h0a.81.81,0,0,1,.81.81v1.39a.8.8,0,0,1-.81.8h0a.81.81,0,0,1-.81-.8v-1.39a.81.81,0,0,1,.81-.81Zm0,4.51h0a.81.81,0,0,1,.81.81v1.38a.81.81,0,0,1-.81.81h0a.81.81,0,0,1-.81-.81v-1.38a.81.81,0,0,1,.81-.81Zm0,4.5h0a.81.81,0,0,1,.81.81v1.39a.81.81,0,0,1-.81.81h0a.82.82,0,0,1-.81-.81v-1.39a.82.82,0,0,1,.81-.81Zm0,4.51h0a.81.81,0,0,1,.81.81v1.39a.81.81,0,0,1-.81.81h0a.82.82,0,0,1-.81-.81v-1.39A.81.81,0,0,1,166.1,172.55Z"/><path class="cls-10" d="M2.68,159h0a.81.81,0,0,1,.81.81v1l-1.62-.06v-.91a.81.81,0,0,1,.81-.81Zm123.38,6.42-1.62-.07v-1a.81.81,0,0,1,.81-.81h0a.81.81,0,0,1,.81.81v1.1Zm-41-1.55-1.3-.05a.78.78,0,0,1,.63-.31h0a.79.79,0,0,1,.67.36ZM43.54,159h0a.81.81,0,0,1,.81.81v1.39a.81.81,0,0,1-.81.8h0a.8.8,0,0,1-.81-.8v-1.39a.81.81,0,0,1,.81-.81Zm40.85,0h0a.81.81,0,0,1,.81.81v1.39a.8.8,0,0,1-.81.8h0a.81.81,0,0,1-.81-.8v-1.39a.81.81,0,0,1,.81-.81Zm40.86,0h0a.81.81,0,0,1,.81.81v1.39a.81.81,0,0,1-.81.8h0a.8.8,0,0,1-.81-.8v-1.39a.81.81,0,0,1,.81-.81Zm40.85,0h0a.81.81,0,0,1,.81.81v1.39a.8.8,0,0,1-.81.8h0a.81.81,0,0,1-.81-.8v-1.39a.81.81,0,0,1,.81-.81Zm0,4.51h0a.81.81,0,0,1,.81.81v1.38a.81.81,0,0,1-.81.81h0a.81.81,0,0,1-.81-.81v-1.38A.81.81,0,0,1,166.1,163.54Z"/><path class="cls-3" d="M122.88,144.7h0a.94.94,0,0,1,.94.94v1.61a.94.94,0,0,1-.94.94h0a1,1,0,0,1-.94-.94v-1.61a1,1,0,0,1,.94-.94Zm0-5.23h0a.94.94,0,0,1,.94.94V142a.94.94,0,0,1-.94.94h0a1,1,0,0,1-.94-.94v-1.61a1,1,0,0,1,.94-.94Zm0-5.24h0a1,1,0,0,1,.94.94v1.61a.94.94,0,0,1-.94.94h0a1,1,0,0,1-.94-.94v-1.61a1,1,0,0,1,.94-.94Zm0-5.23h0a.94.94,0,0,1,.94.94v1.61a.94.94,0,0,1-.94.94h0a1,1,0,0,1-.94-.94v-1.61a1,1,0,0,1,.94-.94ZM85,144.7h0a1,1,0,0,1,.94.94v1.61a1,1,0,0,1-.94.94h0a.94.94,0,0,1-.94-.94v-1.61a.94.94,0,0,1,.94-.94Zm0-5.23h0a1,1,0,0,1,.94.94V142A1,1,0,0,1,85,143h0a.94.94,0,0,1-.94-.94v-1.61a.94.94,0,0,1,.94-.94Zm0-5.24h0a1,1,0,0,1,.94.94v1.61a1,1,0,0,1-.94.94h0a.94.94,0,0,1-.94-.94v-1.61a1,1,0,0,1,.94-.94ZM85,129h0a1,1,0,0,1,.94.94v1.61a1,1,0,0,1-.94.94h0a.94.94,0,0,1-.94-.94v-1.61A.94.94,0,0,1,85,129ZM47.15,144.7h0a.94.94,0,0,1,.94.94v1.61a.94.94,0,0,1-.94.94h0a.94.94,0,0,1-.94-.94v-1.61a.94.94,0,0,1,.94-.94Zm0-5.23h0a.94.94,0,0,1,.94.94V142a.94.94,0,0,1-.94.94h0a.94.94,0,0,1-.94-.94v-1.61a.94.94,0,0,1,.94-.94Zm0-5.24h0a1,1,0,0,1,.94.94v1.61a.94.94,0,0,1-.94.94h0a.94.94,0,0,1-.94-.94v-1.61a1,1,0,0,1,.94-.94Zm0-5.23h0a.94.94,0,0,1,.94.94v1.61a.94.94,0,0,1-.94.94h0a.94.94,0,0,1-.94-.94v-1.61a.94.94,0,0,1,.94-.94ZM9.29,144.7h0a1,1,0,0,1,.94.94v1.61a1,1,0,0,1-.94.94h0a.94.94,0,0,1-.94-.94v-1.61a.94.94,0,0,1,.94-.94Zm0-5.23h0a1,1,0,0,1,.94.94V142a1,1,0,0,1-.94.94h0a.94.94,0,0,1-.94-.94v-1.61a.94.94,0,0,1,.94-.94Zm0-5.24h0a1,1,0,0,1,.94.94v1.61a1,1,0,0,1-.94.94h0a.94.94,0,0,1-.94-.94v-1.61a1,1,0,0,1,.94-.94Zm0-5.23h0a1,1,0,0,1,.94.94v1.61a1,1,0,0,1-.94.94h0a.94.94,0,0,1-.94-.94v-1.61a.94.94,0,0,1,.94-.94Zm151.46,15.7h0a1,1,0,0,1,.94.94v1.61a1,1,0,0,1-.94.94h0a.94.94,0,0,1-.94-.94v-1.61a.94.94,0,0,1,.94-.94Zm0-5.23h0a1,1,0,0,1,.94.94V142a1,1,0,0,1-.94.94h0a.94.94,0,0,1-.94-.94v-1.61a.94.94,0,0,1,.94-.94Zm0-5.24h0a1,1,0,0,1,.94.94v1.61a1,1,0,0,1-.94.94h0a.94.94,0,0,1-.94-.94v-1.61a1,1,0,0,1,.94-.94Zm0-5.23h0a1,1,0,0,1,.94.94v1.61a1,1,0,0,1-.94.94h0a.94.94,0,0,1-.94-.94v-1.61A.94.94,0,0,1,160.75,129Z"/><path class="cls-1" d="M123.82,131.08l-1.88-.07v-1.07a1,1,0,0,1,.94-.94h0a.94.94,0,0,1,.94.94v1.14Zm-37.94-1.5-1.7-.07A1,1,0,0,1,85,129h0a.93.93,0,0,1,.86.58Zm74.87-.58h0a1,1,0,0,1,.94.94v1.61a1,1,0,0,1-.94.94h0a.94.94,0,0,1-.94-.94v-1.61A.94.94,0,0,1,160.75,129Z"/><path class="cls-3" d="M122.88,109.26h0a.94.94,0,0,1,.94.94v1.61a1,1,0,0,1-.94.94h0a1,1,0,0,1-.94-.94V110.2a1,1,0,0,1,.94-.94Zm0-5.24h0a.94.94,0,0,1,.94.94v1.61a.94.94,0,0,1-.94.94h0a1,1,0,0,1-.94-.94V105a1,1,0,0,1,.94-.94Zm0-5.23h0a.94.94,0,0,1,.94.94v1.61a1,1,0,0,1-.94.94h0a1,1,0,0,1-.94-.94V99.73a1,1,0,0,1,.94-.94Zm0-5.24h0a1,1,0,0,1,.94.94V96.1a.94.94,0,0,1-.94.94h0a1,1,0,0,1-.94-.94V94.49a1,1,0,0,1,.94-.94ZM85,109.26h0a1,1,0,0,1,.94.94v1.61a1,1,0,0,1-.94.94h0a1,1,0,0,1-.94-.94V110.2a.94.94,0,0,1,.94-.94ZM85,104h0A1,1,0,0,1,86,105v1.61a1,1,0,0,1-.94.94h0a.94.94,0,0,1-.94-.94V105A.94.94,0,0,1,85,104Zm0-5.23h0a1,1,0,0,1,.94.94v1.61a1,1,0,0,1-.94.94h0a1,1,0,0,1-.94-.94V99.73a.94.94,0,0,1,.94-.94Zm0-5.24h0a1,1,0,0,1,.94.94V96.1A1,1,0,0,1,85,97h0a.94.94,0,0,1-.94-.94V94.49a1,1,0,0,1,.94-.94ZM47.15,109.26h0a.94.94,0,0,1,.94.94v1.61a1,1,0,0,1-.94.94h0a1,1,0,0,1-.94-.94V110.2a.94.94,0,0,1,.94-.94Zm0-5.24h0a.94.94,0,0,1,.94.94v1.61a.94.94,0,0,1-.94.94h0a.94.94,0,0,1-.94-.94V105a.94.94,0,0,1,.94-.94Zm0-5.23h0a.94.94,0,0,1,.94.94v1.61a1,1,0,0,1-.94.94h0a1,1,0,0,1-.94-.94V99.73a.94.94,0,0,1,.94-.94Zm0-5.24h0a1,1,0,0,1,.94.94V96.1a.94.94,0,0,1-.94.94h0a.94.94,0,0,1-.94-.94V94.49a1,1,0,0,1,.94-.94ZM9.29,109.26h0a1,1,0,0,1,.94.94v1.61a1,1,0,0,1-.94.94h0a1,1,0,0,1-.94-.94V110.2a.94.94,0,0,1,.94-.94Zm0-5.24h0a1,1,0,0,1,.94.94v1.61a1,1,0,0,1-.94.94h0a.94.94,0,0,1-.94-.94V105a.94.94,0,0,1,.94-.94Zm0-5.23h0a1,1,0,0,1,.94.94v1.61a1,1,0,0,1-.94.94h0a1,1,0,0,1-.94-.94V99.73a.94.94,0,0,1,.94-.94Zm0-5.24h0a1,1,0,0,1,.94.94V96.1a1,1,0,0,1-.94.94h0a.94.94,0,0,1-.94-.94V94.49a1,1,0,0,1,.94-.94Zm151.46,15.71h0a1,1,0,0,1,.94.94v1.61a1,1,0,0,1-.94.94h0a1,1,0,0,1-.94-.94V110.2a.94.94,0,0,1,.94-.94Zm0-5.24h0a1,1,0,0,1,.94.94v1.61a1,1,0,0,1-.94.94h0a.94.94,0,0,1-.94-.94V105a.94.94,0,0,1,.94-.94Zm0-5.23h0a1,1,0,0,1,.94.94v1.61a1,1,0,0,1-.94.94h0a1,1,0,0,1-.94-.94V99.73a.94.94,0,0,1,.94-.94Zm0-5.24h0a1,1,0,0,1,.94.94V96.1a1,1,0,0,1-.94.94h0a.94.94,0,0,1-.94-.94V94.49A1,1,0,0,1,160.75,93.55Z"/><path class="cls-3" d="M122.88,74.77h0a.94.94,0,0,1,.94.94v1.61a1,1,0,0,1-.94.94h0a1,1,0,0,1-.94-.94V75.71a1,1,0,0,1,.94-.94Zm0-5.24h0a1,1,0,0,1,.94.94v1.61a.94.94,0,0,1-.94.94h0a1,1,0,0,1-.94-.94V70.47a1,1,0,0,1,.94-.94Zm0-5.23h0a.94.94,0,0,1,.94.94v1.61a.94.94,0,0,1-.94.94h0a1,1,0,0,1-.94-.94V65.24a1,1,0,0,1,.94-.94Zm0-5.24h0a1,1,0,0,1,.94.94v1.62a.94.94,0,0,1-.94.93h0a.94.94,0,0,1-.94-.93V60a1,1,0,0,1,.94-.94ZM85,74.77h0a1,1,0,0,1,.94.94v1.61a1,1,0,0,1-.94.94h0a1,1,0,0,1-.94-.94V75.71a.94.94,0,0,1,.94-.94Zm0-5.24h0a1,1,0,0,1,.94.94v1.61A1,1,0,0,1,85,73h0a.94.94,0,0,1-.94-.94V70.47a1,1,0,0,1,.94-.94Zm0-5.23h0a1,1,0,0,1,.94.94v1.61a1,1,0,0,1-.94.94h0a.94.94,0,0,1-.94-.94V65.24A.94.94,0,0,1,85,64.3Zm0-5.24h0A1,1,0,0,1,86,60v1.62a.94.94,0,0,1-.94.93h0a.94.94,0,0,1-.94-.93V60a1,1,0,0,1,.94-.94ZM47.15,74.77h0a.94.94,0,0,1,.94.94v1.61a1,1,0,0,1-.94.94h0a1,1,0,0,1-.94-.94V75.71a.94.94,0,0,1,.94-.94Zm0-5.24h0a1,1,0,0,1,.94.94v1.61a.94.94,0,0,1-.94.94h0a.94.94,0,0,1-.94-.94V70.47a1,1,0,0,1,.94-.94Zm0-5.23h0a.94.94,0,0,1,.94.94v1.61a.94.94,0,0,1-.94.94h0a.94.94,0,0,1-.94-.94V65.24a.94.94,0,0,1,.94-.94Zm0-5.24h0a1,1,0,0,1,.94.94v1.62a.94.94,0,0,1-.94.93h0a.94.94,0,0,1-.94-.93V60a1,1,0,0,1,.94-.94ZM9.29,74.77h0a1,1,0,0,1,.94.94v1.61a1,1,0,0,1-.94.94h0a1,1,0,0,1-.94-.94V75.71a.94.94,0,0,1,.94-.94Zm0-5.24h0a1,1,0,0,1,.94.94v1.61a1,1,0,0,1-.94.94h0a.94.94,0,0,1-.94-.94V70.47a1,1,0,0,1,.94-.94Zm0-5.23h0a1,1,0,0,1,.94.94v1.61a1,1,0,0,1-.94.94h0a.94.94,0,0,1-.94-.94V65.24a.94.94,0,0,1,.94-.94Zm0-5.24h0a1,1,0,0,1,.94.94v1.62a.94.94,0,0,1-.94.93h0a.94.94,0,0,1-.94-.93V60a1,1,0,0,1,.94-.94ZM160.75,74.77h0a1,1,0,0,1,.94.94v1.61a1,1,0,0,1-.94.94h0a1,1,0,0,1-.94-.94V75.71a.94.94,0,0,1,.94-.94Zm0-5.24h0a1,1,0,0,1,.94.94v1.61a1,1,0,0,1-.94.94h0a.94.94,0,0,1-.94-.94V70.47a1,1,0,0,1,.94-.94Zm0-5.23h0a1,1,0,0,1,.94.94v1.61a1,1,0,0,1-.94.94h0a.94.94,0,0,1-.94-.94V65.24a.94.94,0,0,1,.94-.94Zm0-5.24h0a1,1,0,0,1,.94.94v1.62a.94.94,0,0,1-.94.93h0a.94.94,0,0,1-.94-.93V60A1,1,0,0,1,160.75,59.06Z"/><path class="cls-3" d="M122.88,40h0a.94.94,0,0,1,.94.94v1.61a.94.94,0,0,1-.94.94h0a1,1,0,0,1-.94-.94V40.9a1,1,0,0,1,.94-.94Zm0-5.23h0a.94.94,0,0,1,.94.94v1.61a1,1,0,0,1-.94.94h0a1,1,0,0,1-.94-.94V35.67a1,1,0,0,1,.94-.94Zm0-5.24h0a.94.94,0,0,1,.94.94V32a.94.94,0,0,1-.94.94h0a1,1,0,0,1-.94-.94V30.43a1,1,0,0,1,.94-.94Zm0-5.23h0a.94.94,0,0,1,.94.94v1.61a1,1,0,0,1-.94.94h0a1,1,0,0,1-.94-.94V25.2a1,1,0,0,1,.94-.94ZM85,40h0a1,1,0,0,1,.94.94v1.61a1,1,0,0,1-.94.94h0a.94.94,0,0,1-.94-.94V40.9A.94.94,0,0,1,85,40Zm0-5.23h0a1,1,0,0,1,.94.94v1.61a1,1,0,0,1-.94.94h0a1,1,0,0,1-.94-.94V35.67a.94.94,0,0,1,.94-.94Zm0-5.24h0a1,1,0,0,1,.94.94V32A1,1,0,0,1,85,33h0a.94.94,0,0,1-.94-.94V30.43a.94.94,0,0,1,.94-.94Zm0-5.23h0a1,1,0,0,1,.94.94v1.61a1,1,0,0,1-.94.94h0a1,1,0,0,1-.94-.94V25.2a.94.94,0,0,1,.94-.94ZM47.15,40h0a.94.94,0,0,1,.94.94v1.61a.94.94,0,0,1-.94.94h0a.94.94,0,0,1-.94-.94V40.9a.94.94,0,0,1,.94-.94Zm0-5.23h0a.94.94,0,0,1,.94.94v1.61a1,1,0,0,1-.94.94h0a1,1,0,0,1-.94-.94V35.67a.94.94,0,0,1,.94-.94Zm0-5.24h0a.94.94,0,0,1,.94.94V32a.94.94,0,0,1-.94.94h0a.94.94,0,0,1-.94-.94V30.43a.94.94,0,0,1,.94-.94Zm0-5.23h0a.94.94,0,0,1,.94.94v1.61a1,1,0,0,1-.94.94h0a1,1,0,0,1-.94-.94V25.2a.94.94,0,0,1,.94-.94ZM9.29,40h0a1,1,0,0,1,.94.94v1.61a1,1,0,0,1-.94.94h0a.94.94,0,0,1-.94-.94V40.9A.94.94,0,0,1,9.29,40Zm0-5.23h0a1,1,0,0,1,.94.94v1.61a1,1,0,0,1-.94.94h0a1,1,0,0,1-.94-.94V35.67a.94.94,0,0,1,.94-.94Zm0-5.24h0a1,1,0,0,1,.94.94V32a1,1,0,0,1-.94.94h0A.94.94,0,0,1,8.35,32V30.43a.94.94,0,0,1,.94-.94Zm0-5.23h0a1,1,0,0,1,.94.94v1.61a1,1,0,0,1-.94.94h0a1,1,0,0,1-.94-.94V25.2a.94.94,0,0,1,.94-.94ZM160.75,40h0a1,1,0,0,1,.94.94v1.61a1,1,0,0,1-.94.94h0a.94.94,0,0,1-.94-.94V40.9a.94.94,0,0,1,.94-.94Zm0-5.23h0a1,1,0,0,1,.94.94v1.61a1,1,0,0,1-.94.94h0a1,1,0,0,1-.94-.94V35.67a.94.94,0,0,1,.94-.94Zm0-5.24h0a1,1,0,0,1,.94.94V32a1,1,0,0,1-.94.94h0a.94.94,0,0,1-.94-.94V30.43a.94.94,0,0,1,.94-.94Zm0-5.23h0a1,1,0,0,1,.94.94v1.61a1,1,0,0,1-.94.94h0a1,1,0,0,1-.94-.94V25.2A.94.94,0,0,1,160.75,24.26Z"/><path class="cls-3" d="M10,5.54h0A1,1,0,0,1,9.1,4.6V3A1,1,0,0,1,10,2.05h0A.94.94,0,0,1,11,3V4.6a1,1,0,0,1-.94.94Zm6.52,0h0a1,1,0,0,1-.94-.94V3a.94.94,0,0,1,.94-.94h0A.94.94,0,0,1,17.5,3V4.6a1,1,0,0,1-.94.94Zm6.52,0h0a1,1,0,0,1-.94-.94V3a.94.94,0,0,1,.94-.94h0A.94.94,0,0,1,24,3V4.6a1,1,0,0,1-.94.94Zm6.52,0h0a1,1,0,0,1-.94-.94V3a.94.94,0,0,1,.94-.94h0a.94.94,0,0,1,.94.94V4.6a1,1,0,0,1-.94.94Zm6.52,0h0a1,1,0,0,1-.94-.94V3a.94.94,0,0,1,.94-.94h0a.94.94,0,0,1,.94.94V4.6a1,1,0,0,1-.94.94Zm6.52,0h0a1,1,0,0,1-.94-.94V3a.94.94,0,0,1,.94-.94h0a.94.94,0,0,1,.94.94V4.6a1,1,0,0,1-.94.94Zm6.52,0h0a1,1,0,0,1-.94-.94V3a.94.94,0,0,1,.94-.94h0A.94.94,0,0,1,50.1,3V4.6a1,1,0,0,1-.94.94Zm6.52,0h0a1,1,0,0,1-.94-.94V3a.94.94,0,0,1,.94-.94h0a.94.94,0,0,1,.94.94V4.6a1,1,0,0,1-.94.94Zm6.52,0h0a1,1,0,0,1-.94-.94V3a.94.94,0,0,1,.94-.94h0a.94.94,0,0,1,.94.94V4.6a1,1,0,0,1-.94.94Zm6.52,0h0a1,1,0,0,1-.94-.94V3a.94.94,0,0,1,.94-.94h0a.94.94,0,0,1,.94.94V4.6a1,1,0,0,1-.94.94Zm6.52,0h0a1,1,0,0,1-.94-.94V3a.94.94,0,0,1,.94-.94h0a1,1,0,0,1,.94.94V4.6a1,1,0,0,1-.94.94Zm6.52,0h0a1,1,0,0,1-.94-.94V3a.94.94,0,0,1,.94-.94h0A1,1,0,0,1,82.7,3V4.6a1,1,0,0,1-.94.94Zm6.52,0h0a1,1,0,0,1-.94-.94V3a.94.94,0,0,1,.94-.94h0a1,1,0,0,1,.94.94V4.6a1,1,0,0,1-.94.94Zm6.52,0h0a1,1,0,0,1-.94-.94V3a.94.94,0,0,1,.94-.94h0a1,1,0,0,1,.94.94V4.6a1,1,0,0,1-.94.94Zm6.52,0h0a1,1,0,0,1-.94-.94V3a.94.94,0,0,1,.94-.94h0a1,1,0,0,1,.94.94V4.6a1,1,0,0,1-.94.94Zm6.52,0h0a1,1,0,0,1-.94-.94V3a.94.94,0,0,1,.94-.94h0a.94.94,0,0,1,.93.94V4.6a.94.94,0,0,1-.93.94Zm6.51,0h0a.94.94,0,0,1-.93-.94V3a.94.94,0,0,1,.93-.94h0a.94.94,0,0,1,.94.94V4.6a1,1,0,0,1-.94.94Zm6.52,0h0a1,1,0,0,1-.94-.94V3a1,1,0,0,1,.94-.94h0a.94.94,0,0,1,.94.94V4.6a1,1,0,0,1-.94.94Zm6.52,0h0a1,1,0,0,1-.94-.94V3a1,1,0,0,1,.94-.94h0a.94.94,0,0,1,.94.94V4.6a1,1,0,0,1-.94.94Zm6.52,0h0A1,1,0,0,1,133,4.6V3a1,1,0,0,1,.94-.94h0a.94.94,0,0,1,.94.94V4.6a1,1,0,0,1-.94.94Zm6.52,0h0a1,1,0,0,1-.94-.94V3a1,1,0,0,1,.94-.94h0a.94.94,0,0,1,.94.94V4.6a1,1,0,0,1-.94.94Zm6.52,0h0A1,1,0,0,1,146,4.6V3a1,1,0,0,1,.94-.94h0a.94.94,0,0,1,.94.94V4.6a1,1,0,0,1-.94.94Zm6.52,0h0a1,1,0,0,1-.94-.94V3a.94.94,0,0,1,.94-.94h0a.94.94,0,0,1,.94.94V4.6a1,1,0,0,1-.94.94Zm6.52,0h0a1,1,0,0,1-.94-.94V3a.94.94,0,0,1,.94-.94h0a.94.94,0,0,1,.94.94V4.6A1,1,0,0,1,160,5.54Z"/><path class="cls-1" d="M123.82,96.14l-1.88-.08V94.49a1,1,0,0,1,.94-.94h0a1,1,0,0,1,.94.94v1.65ZM86,94.6l-1.88-.08v0a1,1,0,0,1,.94-.94h0a1,1,0,0,1,.94.94v.11Zm74.79-1h0a1,1,0,0,1,.94.94V96.1a1,1,0,0,1-.94.94h0a.94.94,0,0,1-.94-.94V94.49A1,1,0,0,1,160.75,93.55Z"/><path class="cls-1" d="M161.5,27.37,160,27.31a1,1,0,0,1-.14-.5V25.2a.94.94,0,0,1,.94-.94h0a1,1,0,0,1,.94.94v1.61a1,1,0,0,1-.19.56Zm-37.68-1.53-1.88-.08V25.2a1,1,0,0,1,.94-.94h0a.94.94,0,0,1,.94.94v.64ZM85.18,24.27h0Z"/><rect class="cls-11" x="80.84" y="124.38" width="15.91" height="26.69" rx="1.22" ry="1.22"/><path class="cls-12" d="M83.71,124.38H93.87a1.13,1.13,0,0,1,1,1.22v24.25a1.13,1.13,0,0,1-1,1.22H83.71a1.13,1.13,0,0,1-1-1.22V125.6A1.13,1.13,0,0,1,83.71,124.38Z"/><rect class="cls-13" x="84.44" y="131.85" width="8.69" height="11.74" rx="0.8" ry="0.8"/><rect class="cls-13" x="84.44" y="127.21" width="8.69" height="3.38" rx="0.8" ry="0.8"/><rect class="cls-13" x="84.44" y="144.86" width="8.69" height="3.38" rx="0.8" ry="0.8"/><path class="cls-14" d="M110.63,94.4h24.75a1,1,0,0,1,.9,1.12v22.14a1,1,0,0,1-.9,1.11H110.63a1,1,0,0,1-.9-1.11V95.52A1,1,0,0,1,110.63,94.4Z"/><path class="cls-15" d="M110.63,94.4h9v24.37h-9a1,1,0,0,1-.9-1.12V95.52A1,1,0,0,1,110.63,94.4Z"/><path class="cls-16" d="M111.9,94.4h22.21c.45,0,.81.5.81,1.12v22.14c0,.61-.36,1.11-.81,1.11H111.9c-.45,0-.81-.5-.81-1.11V95.52C111.09,94.9,111.45,94.4,111.9,94.4Z"/><polygon class="cls-17" points="123 99.09 123.55 100.54 124.35 99.21 124.62 100.74 125.64 99.57 125.64 101.12 126.86 100.15 126.58 101.68 127.95 100.94 127.4 102.4 128.88 101.92 128.08 103.25 129.62 103.04 128.6 104.21 130.15 104.28 128.93 105.25 130.45 105.59 129.08 106.33 130.51 106.94 129.03 107.42 130.33 108.27 128.79 108.48 129.91 109.55 128.36 109.48 129.27 110.74 127.76 110.39 128.43 111.79 127 111.18 127.42 112.68 126.12 111.82 126.26 113.37 125.14 112.29 125 113.84 124.09 112.58 123.68 114.08 123 112.68 122.33 114.08 121.92 112.58 121.01 113.84 120.87 112.29 119.75 113.37 119.89 111.82 118.59 112.68 119 111.18 117.58 111.79 118.25 110.39 116.74 110.74 117.65 109.48 116.1 109.55 117.22 108.48 115.68 108.27 116.98 107.42 115.5 106.94 116.93 106.33 115.56 105.59 117.08 105.25 115.86 104.28 117.41 104.21 116.39 103.04 117.93 103.25 117.13 101.92 118.61 102.4 118.06 100.94 119.43 101.68 119.15 100.15 120.37 101.12 120.37 99.57 121.39 100.74 121.66 99.21 122.46 100.54 123 99.09"/><path class="cls-18" d="M115.26,103.91h15.49a2.68,2.68,0,0,1,2.67,2.67h0a2.68,2.68,0,0,1-2.67,2.68H115.26a2.68,2.68,0,0,1-2.67-2.68h0A2.68,2.68,0,0,1,115.26,103.91Z"/><path class="cls-18" d="M115.46,100.85a.85.85,0,1,0-.86-.85A.86.86,0,0,0,115.46,100.85Z"/><path class="cls-18" d="M130.55,100.85a.85.85,0,1,0,0-1.7.85.85,0,0,0,0,1.7Z"/><path class="cls-18" d="M115.46,114a.86.86,0,1,0-.86-.85A.86.86,0,0,0,115.46,114Z"/><circle class="cls-19" cx="130.55" cy="113.17" r="0.85"/><path class="cls-20" d="M104.13,127.19h18.34v3.19h-.11a.34.34,0,0,0-.33.34h0a.33.33,0,0,0,.33.33h.11v2.29h-.11a.33.33,0,0,0-.33.33h0a.33.33,0,0,0,.33.33h.11v2.29h-.11a.33.33,0,0,0-.33.33h0a.33.33,0,0,0,.33.33h.11v2.29h-.11a.33.33,0,0,0-.33.33h0a.33.33,0,0,0,.33.33h.11v2.29h-.11a.33.33,0,0,0-.33.33h0a.34.34,0,0,0,.33.34h.11v2.29h-.11a.33.33,0,0,0-.33.33h0a.33.33,0,0,0,.33.33h.11v2.29h-.11a.33.33,0,0,0-.33.33h0a.34.34,0,0,0,.33.34h.11V152H104.13v-3.19h.1a.34.34,0,0,0,.34-.34h0a.34.34,0,0,0-.34-.33h-.1v-2.29h.1a.34.34,0,0,0,.34-.33h0a.34.34,0,0,0-.34-.33h-.1v-2.29h.1a.34.34,0,0,0,.34-.34h0a.34.34,0,0,0-.34-.33h-.1v-2.29h.1a.34.34,0,0,0,.34-.33h0a.34.34,0,0,0-.34-.33h-.1V137h.1a.34.34,0,0,0,.34-.33h0a.34.34,0,0,0-.34-.33h-.1V134h.1a.34.34,0,0,0,.34-.33h0a.34.34,0,0,0-.34-.33h-.1v-2.29h.1a.34.34,0,0,0,.34-.33h0a.34.34,0,0,0-.34-.34h-.1Z"/><path class="cls-21" d="M122.35,130.38a.34.34,0,0,0-.32.34h0a.33.33,0,0,0,.33.33H104.23a.34.34,0,0,0,.34-.33h0a.35.35,0,0,0-.33-.34Zm0,3a.32.32,0,0,0-.32.33h0a.33.33,0,0,0,.33.33H104.23a.34.34,0,0,0,.34-.33h0a.33.33,0,0,0-.33-.33Zm0,2.95a.33.33,0,0,0-.32.33h0a.33.33,0,0,0,.33.33H104.23a.34.34,0,0,0,.34-.33h0a.34.34,0,0,0-.33-.33Zm0,3a.32.32,0,0,0-.32.33h0a.33.33,0,0,0,.33.33H104.23a.34.34,0,0,0,.34-.33h0a.33.33,0,0,0-.33-.33Zm0,2.95a.33.33,0,0,0-.32.33h0a.34.34,0,0,0,.33.34H104.23a.34.34,0,0,0,.34-.34h0a.34.34,0,0,0-.33-.33Zm0,3a.32.32,0,0,0-.32.33h0a.33.33,0,0,0,.33.33H104.23a.34.34,0,0,0,.34-.33h0a.33.33,0,0,0-.33-.33Zm0,3a.33.33,0,0,0-.32.33h0a.34.34,0,0,0,.33.34H104.23a.34.34,0,0,0,.34-.34h0a.34.34,0,0,0-.33-.33Z"/><path class="cls-22" d="M103.82,125.33h19a.48.48,0,0,1,.49.48v1.45H103.34v-1.45A.48.48,0,0,1,103.82,125.33Z"/><rect class="cls-23" x="106.37" y="128.21" width="4.87" height="22.42"/><path class="cls-24" d="M111.25,131.05h-4.88v-.67h4.88v.67Zm0,2.29V134h-4.88v-.66Zm0,2.95V137h-4.88v-.67Zm0,3v.66h-4.88v-.66Zm0,2.95v.67h-4.88v-.67Zm0,3v.66h-4.88v-.66Zm0,3v.67h-4.88v-.67Z"/><path class="cls-25" d="M124.58,131.25h15.34v2.67h-.09a.29.29,0,0,0-.28.28h0a.29.29,0,0,0,.28.28h.09v1.91h-.09a.29.29,0,0,0-.28.28h0a.29.29,0,0,0,.28.28h.09v1.91h-.09a.29.29,0,0,0-.28.28h0a.29.29,0,0,0,.28.28h.09v1.91h-.09a.29.29,0,0,0-.28.28h0a.29.29,0,0,0,.28.28h.09v1.91h-.09a.29.29,0,0,0-.28.28h0a.29.29,0,0,0,.28.28h.09v1.91h-.09a.29.29,0,0,0-.28.28h0a.29.29,0,0,0,.28.28h.09v1.91h-.09a.29.29,0,0,0-.28.28h0a.29.29,0,0,0,.28.28h.09V152H124.58V149.3h.1A.28.28,0,0,0,125,149h0a.28.28,0,0,0-.27-.28h-.1v-1.91h.1a.28.28,0,0,0,.27-.28h0a.28.28,0,0,0-.27-.28h-.1v-1.91h.1a.28.28,0,0,0,.27-.28h0a.28.28,0,0,0-.27-.28h-.1v-1.91h.1a.28.28,0,0,0,.27-.28h0a.28.28,0,0,0-.27-.28h-.1v-1.91h.1a.28.28,0,0,0,.27-.28h0a.28.28,0,0,0-.27-.28h-.1V137h.1a.28.28,0,0,0,.27-.28h0a.28.28,0,0,0-.27-.28h-.1v-1.91h.1a.28.28,0,0,0,.27-.28h0a.28.28,0,0,0-.27-.28h-.1Z"/><path class="cls-26" d="M139.82,133.92a.28.28,0,0,0-.27.28h0a.29.29,0,0,0,.28.28H124.68a.28.28,0,0,0,.27-.28h0a.28.28,0,0,0-.27-.28Zm0,2.47a.28.28,0,0,0-.27.28h0a.29.29,0,0,0,.28.28H124.68a.28.28,0,0,0,.27-.28h0a.28.28,0,0,0-.27-.28Zm0,2.47a.28.28,0,0,0-.27.28h0a.29.29,0,0,0,.28.28H124.68a.28.28,0,0,0,.27-.28h0a.28.28,0,0,0-.27-.28Zm0,2.47a.28.28,0,0,0-.27.28h0a.29.29,0,0,0,.28.28H124.68a.28.28,0,0,0,.27-.28h0a.28.28,0,0,0-.27-.28Zm0,2.47a.28.28,0,0,0-.27.28h0a.29.29,0,0,0,.28.28H124.68a.28.28,0,0,0,.27-.28h0a.28.28,0,0,0-.27-.28Zm0,2.47a.28.28,0,0,0-.27.28h0a.29.29,0,0,0,.28.28H124.68a.28.28,0,0,0,.27-.28h0a.28.28,0,0,0-.27-.28Zm0,2.47a.28.28,0,0,0-.27.28h0a.29.29,0,0,0,.28.28H124.68A.28.28,0,0,0,125,149h0a.28.28,0,0,0-.27-.28Z"/><path class="cls-27" d="M124.33,129.7h15.84a.4.4,0,0,1,.41.4v1.21H123.93V130.1A.4.4,0,0,1,124.33,129.7Z"/><rect class="cls-28" x="126.46" y="132.1" width="4.08" height="18.75"/><path class="cls-29" d="M130.54,134.48h-4.08v-.56h4.08v.56Zm0,1.91V137h-4.08v-.56Zm0,2.47v.56h-4.08v-.56Zm0,2.47v.56h-4.08v-.56Zm0,2.47v.56h-4.08v-.56Zm0,2.47v.56h-4.08v-.56Zm0,2.47v.56h-4.08v-.56Z"/><path class="cls-30" d="M142.5,125.92h19.28v3.36h-.11a.35.35,0,0,0-.35.35h0a.35.35,0,0,0,.35.35h.11v2.41h-.11a.35.35,0,0,0-.35.34h0a.35.35,0,0,0,.35.35h.11v2.41h-.11a.35.35,0,0,0-.35.35h0a.35.35,0,0,0,.35.35h.11v2.41h-.11a.35.35,0,0,0-.35.35h0a.35.35,0,0,0,.35.35h.11v2.4h-.11a.35.35,0,0,0-.35.35h0a.35.35,0,0,0,.35.35h.11v2.41h-.11a.35.35,0,0,0-.35.35h0a.35.35,0,0,0,.35.35h.11v2.4h-.11a.35.35,0,0,0-.35.35h0a.35.35,0,0,0,.35.35h.11V152H142.5v-3.36h.12a.35.35,0,0,0,.35-.35h0a.35.35,0,0,0-.35-.35h-.12v-2.4h.12a.35.35,0,0,0,.35-.35h0a.35.35,0,0,0-.35-.35h-.12V142.4h.12a.35.35,0,0,0,.35-.35h0a.35.35,0,0,0-.35-.35h-.12v-2.4h.12A.35.35,0,0,0,143,139h0a.35.35,0,0,0-.35-.35h-.12v-2.41h.12a.35.35,0,0,0,.35-.35h0a.35.35,0,0,0-.35-.35h-.12v-2.41h.12a.35.35,0,0,0,.35-.35h0a.35.35,0,0,0-.35-.34h-.12V130h.12a.35.35,0,0,0,.35-.35h0a.35.35,0,0,0-.35-.35h-.12Z"/><path class="cls-31" d="M161.66,129.28a.35.35,0,0,0-.34.35h0a.35.35,0,0,0,.35.35h-19a.35.35,0,0,0,.35-.35h0a.35.35,0,0,0-.35-.35Zm0,3.11a.34.34,0,0,0-.34.34h0a.35.35,0,0,0,.35.35h-19a.35.35,0,0,0,.35-.35h0a.35.35,0,0,0-.35-.34Zm0,3.1a.35.35,0,0,0-.34.35h0a.35.35,0,0,0,.35.35h-19a.35.35,0,0,0,.35-.35h0a.36.36,0,0,0-.35-.35Zm0,3.11a.35.35,0,0,0-.34.35h0a.35.35,0,0,0,.35.35h-19A.35.35,0,0,0,143,139h0a.35.35,0,0,0-.35-.35Zm0,3.1a.35.35,0,0,0-.34.35h0a.35.35,0,0,0,.35.35h-19a.35.35,0,0,0,.35-.35h0a.36.36,0,0,0-.35-.35Zm0,3.11a.35.35,0,0,0-.34.35h0a.35.35,0,0,0,.35.35h-19a.35.35,0,0,0,.35-.35h0a.35.35,0,0,0-.35-.35Zm0,3.1a.35.35,0,0,0-.34.35h0a.35.35,0,0,0,.35.35h-19a.35.35,0,0,0,.35-.35h0a.36.36,0,0,0-.35-.35Z"/><path class="cls-32" d="M142.18,124H162.1a.51.51,0,0,1,.51.51V126H141.67v-1.53A.51.51,0,0,1,142.18,124Z"/><rect class="cls-33" x="144.86" y="126.99" width="5.12" height="23.57"/><path class="cls-34" d="M150,130h-5.13v-.7H150v.7Zm0,2.41v.69h-5.13v-.69Zm0,3.1v.7h-5.13v-.7Zm0,3.11v.7h-5.13v-.7Zm0,3.1v.7h-5.13v-.7Zm0,3.11v.7h-5.13v-.7Zm0,3.1v.7h-5.13v-.7Z"/><rect class="cls-35" x="145.54" y="43.52" width="17.95" height="5.13" rx="0.32" ry="0.32"/><rect class="cls-36" x="145.54" y="44.06" width="17.95" height="4.05"/><path class="cls-37" d="M163.49,44.41v.44h-18v-.44Zm0,2.91v.43h-18v-.43Z"/><rect class="cls-38" x="159.42" y="44.06" width="4.07" height="4.05"/><path class="cls-39" d="M163.49,44.41v.44h-4.07v-.44Zm-4.07,2.91v.43h4.07v-.43Z"/><path class="cls-40" d="M147.61,43.52h1.95a.33.33,0,0,0-.31.32v4.48a.33.33,0,0,0,.33.33h-2a.33.33,0,0,1-.32-.33V43.84a.32.32,0,0,1,.31-.32Zm1.95,0h0Z"/><rect class="cls-41" x="147.3" y="44.06" width="1.95" height="4.05"/><path class="cls-42" d="M149.25,44.85H147.3v-.44h1.95v.44Zm0,2.47v.43H147.3v-.43Z"/><path class="cls-43" d="M154.56,39.18a6.92,6.92,0,1,0-6.91-6.91A6.92,6.92,0,0,0,154.56,39.18Z"/><circle class="cls-44" cx="154.56" cy="32.27" r="6.43"/><path class="cls-43" d="M154.56,38.21a5.95,5.95,0,1,0-5.95-5.94A6,6,0,0,0,154.56,38.21Z"/><path class="cls-45" d="M154.56,37.34a5.08,5.08,0,1,0-5.07-5.07A5.09,5.09,0,0,0,154.56,37.34Z"/><path class="cls-46" d="M154.56,36.29a4,4,0,1,0-4-4A4,4,0,0,0,154.56,36.29Z"/><rect class="cls-35" x="145.6" y="38.23" width="17.95" height="5.13" rx="0.32" ry="0.32"/><rect class="cls-36" x="145.6" y="38.77" width="17.95" height="4.05"/><path class="cls-37" d="M163.55,39.13v.43h-18v-.43Zm0,2.9v.44h-18V42Z"/><rect class="cls-38" x="159.48" y="38.77" width="4.07" height="4.05"/><path class="cls-39" d="M163.55,39.13v.43h-4.07v-.43ZM159.48,42v.44h4.07V42Z"/><path class="cls-40" d="M147.67,38.23h2a.33.33,0,0,0-.31.33V43a.32.32,0,0,0,.32.32h-1.95a.32.32,0,0,1-.32-.32V38.56a.33.33,0,0,1,.31-.33Zm2,0Z"/><rect class="cls-41" x="147.36" y="38.77" width="1.95" height="4.05"/><path class="cls-42" d="M149.31,39.56h-1.95v-.43h1.95v.43Zm0,2.47v.44h-1.95V42Z"/><path class="cls-47" d="M15.45,73.52h6.3v1.1h0a.11.11,0,0,0-.11.11h0a.11.11,0,0,0,.11.12h0v.79h0a.11.11,0,0,0-.11.11h0a.11.11,0,0,0,.11.11h0v.79h0a.11.11,0,0,0-.11.11h0a.11.11,0,0,0,.11.12h0v.78h0a.12.12,0,0,0-.11.12h0a.11.11,0,0,0,.11.11h0v.79h0a.11.11,0,0,0-.11.11h0a.12.12,0,0,0,.11.12h0v.78h0a.11.11,0,0,0-.11.12h0a.11.11,0,0,0,.11.11h0v.79h0a.11.11,0,0,0-.11.11h0a.11.11,0,0,0,.11.11h0V82h-6.3v-1.1h0a.11.11,0,0,0,.11-.11h0a.11.11,0,0,0-.11-.11h0v-.79h0a.11.11,0,0,0,.11-.11h0a.11.11,0,0,0-.11-.12h0v-.78h0a.12.12,0,0,0,.11-.12h0a.11.11,0,0,0-.11-.11h0v-.79h0a.11.11,0,0,0,.11-.11h0a.12.12,0,0,0-.11-.12h0v-.78h0a.11.11,0,0,0,.11-.12h0a.11.11,0,0,0-.11-.11h0v-.79h0a.11.11,0,0,0,.11-.11h0a.11.11,0,0,0-.11-.11h0v-.79h0a.11.11,0,0,0,.11-.12h0a.11.11,0,0,0-.11-.11h0Z"/><path class="cls-48" d="M21.71,74.62a.11.11,0,0,0-.11.11h0a.11.11,0,0,0,.11.12H15.49a.11.11,0,0,0,.11-.12h0a.11.11,0,0,0-.11-.11Zm0,1a.11.11,0,0,0-.11.11h0a.11.11,0,0,0,.11.11H15.49a.11.11,0,0,0,.11-.11h0a.11.11,0,0,0-.11-.11Zm0,1a.11.11,0,0,0-.11.11h0a.11.11,0,0,0,.11.12H15.49a.11.11,0,0,0,.11-.12h0a.11.11,0,0,0-.11-.11Zm0,1a.12.12,0,0,0-.11.12h0a.11.11,0,0,0,.11.11H15.49a.11.11,0,0,0,.11-.11h0a.12.12,0,0,0-.11-.12Zm0,1a.11.11,0,0,0-.11.11h0a.12.12,0,0,0,.11.12H15.49a.12.12,0,0,0,.11-.12h0a.11.11,0,0,0-.11-.11Zm0,1a.11.11,0,0,0-.11.12h0a.11.11,0,0,0,.11.11H15.49a.11.11,0,0,0,.11-.11h0a.11.11,0,0,0-.11-.12Zm0,1a.11.11,0,0,0-.11.11h0a.11.11,0,0,0,.11.11H15.49a.11.11,0,0,0,.11-.11h0a.11.11,0,0,0-.11-.11Z"/><path class="cls-49" d="M15.35,72.88h6.5a.18.18,0,0,1,.17.17v.5H15.18v-.5A.18.18,0,0,1,15.35,72.88Z"/><rect class="cls-50" x="16.47" y="73.52" width="1.05" height="8.51"/><path class="cls-51" d="M17.53,74.85H16.47v-.23h1.06v.23Zm-1.06.79v.22h1.06v-.22Zm0,1v.23h1.06v-.23Zm0,1v.23h1.06v-.23Zm0,1v.23h1.06v-.23Zm0,1v.23h1.06v-.23Zm0,1v.23h1.06v-.23Z"/><rect class="cls-52" x="16.47" y="72.88" width="1.05" height="0.66"/><path class="cls-53" d="M19.84,73.52h1.91v1.1h0a.11.11,0,0,0-.11.11h0a.11.11,0,0,0,.11.11h0v.79h0a.11.11,0,0,0-.11.11h0a.11.11,0,0,0,.11.11h0v.79h0a.11.11,0,0,0-.11.11h0a.11.11,0,0,0,.11.12h0v.78h0a.12.12,0,0,0-.11.12h0a.11.11,0,0,0,.11.11h0v.79h0a.11.11,0,0,0-.11.11h0a.12.12,0,0,0,.11.12h0v.78h0a.11.11,0,0,0-.11.12h0a.11.11,0,0,0,.11.11h0v.79h0a.11.11,0,0,0-.11.11h0a.12.12,0,0,0,.11.12h0V82H19.84Z"/><path class="cls-54" d="M21.71,74.62a.11.11,0,0,0-.11.11h0a.11.11,0,0,0,.11.11H19.84v-.23Zm-1.87,1v.22h1.87a.11.11,0,0,1-.11-.11h0a.11.11,0,0,1,.11-.11Zm0,1v.23h1.87a.11.11,0,0,1-.11-.12h0a.11.11,0,0,1,.11-.11Zm0,1v.23h1.87a.11.11,0,0,1-.11-.11h0a.12.12,0,0,1,.11-.12Zm0,1v.23h1.87a.12.12,0,0,1-.11-.12h0a.11.11,0,0,1,.11-.11Zm0,1v.23h1.87a.11.11,0,0,1-.11-.11h0a.11.11,0,0,1,.11-.12Zm0,1v.23h1.87a.12.12,0,0,1-.11-.12h0a.11.11,0,0,1,.11-.11Z"/><path class="cls-55" d="M19.84,72.88h2a.18.18,0,0,1,.17.17v.5H19.84Z"/><path class="cls-47" d="M15.51,64.44H21.8v1.1h0a.12.12,0,0,0-.12.12h0a.12.12,0,0,0,.12.11h0v.79h0a.12.12,0,0,0-.12.11h0a.12.12,0,0,0,.12.11h0v.79h0a.12.12,0,0,0-.12.11h0a.12.12,0,0,0,.12.12h0v.78h0a.12.12,0,0,0-.12.12h0a.12.12,0,0,0,.12.11h0v.79h0a.12.12,0,0,0-.12.11h0a.13.13,0,0,0,.12.12h0v.78h0a.12.12,0,0,0-.12.12h0a.12.12,0,0,0,.12.11h0v.79h0a.12.12,0,0,0-.12.11h0a.12.12,0,0,0,.12.11h0V73H15.51v-1.1h0a.11.11,0,0,0,.11-.11h0a.11.11,0,0,0-.11-.11h0v-.79h0a.11.11,0,0,0,.11-.11h0a.11.11,0,0,0-.11-.12h0v-.78h0a.12.12,0,0,0,.11-.12h0a.11.11,0,0,0-.11-.11h0v-.79h0a.11.11,0,0,0,.11-.11h0a.11.11,0,0,0-.11-.12h0V67.8h0a.11.11,0,0,0,.11-.12h0a.11.11,0,0,0-.11-.11h0v-.79h0a.11.11,0,0,0,.11-.11h0a.11.11,0,0,0-.11-.11h0v-.79h0a.11.11,0,0,0,.11-.11h0a.11.11,0,0,0-.11-.12h0Z"/><path class="cls-48" d="M21.76,65.54a.11.11,0,0,0-.11.12h0a.12.12,0,0,0,.12.11H15.55a.11.11,0,0,0,.11-.11h0a.11.11,0,0,0-.11-.12Zm0,1a.11.11,0,0,0-.11.11h0a.12.12,0,0,0,.12.11H15.55a.11.11,0,0,0,.11-.11h0a.11.11,0,0,0-.11-.11Zm0,1a.11.11,0,0,0-.11.11h0a.12.12,0,0,0,.12.12H15.55a.11.11,0,0,0,.11-.12h0a.11.11,0,0,0-.11-.11Zm0,1a.13.13,0,0,0-.11.12h0a.12.12,0,0,0,.12.11H15.55a.11.11,0,0,0,.11-.11h0a.13.13,0,0,0-.11-.12Zm0,1a.11.11,0,0,0-.11.11h0a.13.13,0,0,0,.12.12H15.55a.12.12,0,0,0,.11-.12h0a.11.11,0,0,0-.11-.11Zm0,1a.11.11,0,0,0-.11.12h0a.12.12,0,0,0,.12.11H15.55a.11.11,0,0,0,.11-.11h0a.11.11,0,0,0-.11-.12Zm0,1a.11.11,0,0,0-.11.11h0a.12.12,0,0,0,.12.11H15.55a.11.11,0,0,0,.11-.11h0a.11.11,0,0,0-.11-.11Z"/><path class="cls-49" d="M15.4,63.81h6.51a.17.17,0,0,1,.17.16v.5H15.24V64A.16.16,0,0,1,15.4,63.81Z"/><rect class="cls-50" x="16.53" y="64.44" width="1.05" height="8.51"/><path class="cls-51" d="M17.58,65.77h-1v-.23h1v.23Zm-1,.79v.22h1v-.22Zm0,1v.23h1v-.23Zm0,1v.23h1v-.23Zm0,1v.23h1V69.6Zm0,1v.23h1v-.23Zm0,1v.23h1v-.23Z"/><rect class="cls-52" x="16.53" y="63.81" width="1.05" height="0.66"/><path class="cls-53" d="M19.9,64.44h1.9v1.1h0a.12.12,0,0,0-.12.11h0a.12.12,0,0,0,.12.11h0v.79h0a.12.12,0,0,0-.12.11h0a.12.12,0,0,0,.12.11h0v.79h0a.12.12,0,0,0-.12.11h0a.12.12,0,0,0,.12.12h0v.78h0a.12.12,0,0,0-.12.12h0a.12.12,0,0,0,.12.11h0v.79h0a.12.12,0,0,0-.12.11h0a.12.12,0,0,0,.12.12h0v.78h0a.12.12,0,0,0-.12.12h0a.12.12,0,0,0,.12.11h0v.79h0a.12.12,0,0,0-.12.11h0a.13.13,0,0,0,.12.12h0V73H19.9Z"/><path class="cls-54" d="M21.76,65.54a.11.11,0,0,0-.11.11h0a.12.12,0,0,0,.12.11H19.9v-.23Zm-1.86,1v.22h1.87a.12.12,0,0,1-.12-.11h0a.11.11,0,0,1,.11-.11Zm0,1v.23h1.87a.12.12,0,0,1-.12-.12h0a.11.11,0,0,1,.11-.11Zm0,1v.23h1.87a.12.12,0,0,1-.12-.11h0a.13.13,0,0,1,.11-.12Zm0,1v.23h1.87a.12.12,0,0,1-.12-.12h0a.11.11,0,0,1,.11-.11Zm0,1v.23h1.87a.12.12,0,0,1-.12-.11h0a.11.11,0,0,1,.11-.12Zm0,1v.23h1.87a.13.13,0,0,1-.12-.12h0a.11.11,0,0,1,.11-.11Z"/><path class="cls-55" d="M19.9,63.81h2a.16.16,0,0,1,.16.16v.5H19.9Z"/><path class="cls-47" d="M15.51,55.25H21.8v1.1h0a.12.12,0,0,0-.12.11h0a.12.12,0,0,0,.12.12h0v.78h0a.13.13,0,0,0-.12.12h0a.12.12,0,0,0,.12.11h0v.79h0a.12.12,0,0,0-.12.11h0a.12.12,0,0,0,.12.12h0v.78h0a.12.12,0,0,0-.12.12h0a.12.12,0,0,0,.12.11h0v.79h0a.12.12,0,0,0-.12.11h0a.13.13,0,0,0,.12.12h0v.78h0a.12.12,0,0,0-.12.12h0a.12.12,0,0,0,.12.11h0v.79h0a.12.12,0,0,0-.12.11h0a.12.12,0,0,0,.12.11h0v1.1H15.51v-1.1h0a.11.11,0,0,0,.11-.11h0a.11.11,0,0,0-.11-.11h0v-.79h0a.11.11,0,0,0,.11-.11h0a.11.11,0,0,0-.11-.12h0v-.78h0a.12.12,0,0,0,.11-.12h0a.11.11,0,0,0-.11-.11h0v-.79h0a.11.11,0,0,0,.11-.11h0a.11.11,0,0,0-.11-.12h0v-.78h0a.11.11,0,0,0,.11-.12h0a.11.11,0,0,0-.11-.11h0v-.79h0a.11.11,0,0,0,.11-.11h0a.12.12,0,0,0-.11-.12h0v-.78h0a.11.11,0,0,0,.11-.12h0a.11.11,0,0,0-.11-.11h0Z"/><path class="cls-48" d="M21.76,56.35a.11.11,0,0,0-.11.11h0a.12.12,0,0,0,.12.12H15.55a.11.11,0,0,0,.11-.12h0a.11.11,0,0,0-.11-.11Zm0,1a.13.13,0,0,0-.11.12h0a.12.12,0,0,0,.12.11H15.55a.11.11,0,0,0,.11-.11h0a.13.13,0,0,0-.11-.12Zm0,1a.11.11,0,0,0-.11.11h0a.12.12,0,0,0,.12.12H15.55a.11.11,0,0,0,.11-.12h0a.11.11,0,0,0-.11-.11Zm0,1a.13.13,0,0,0-.11.12h0a.12.12,0,0,0,.12.11H15.55a.11.11,0,0,0,.11-.11h0a.13.13,0,0,0-.11-.12Zm0,1a.11.11,0,0,0-.11.11h0a.13.13,0,0,0,.12.12H15.55a.12.12,0,0,0,.11-.12h0a.11.11,0,0,0-.11-.11Zm0,1a.11.11,0,0,0-.11.12h0a.12.12,0,0,0,.12.11H15.55a.11.11,0,0,0,.11-.11h0a.11.11,0,0,0-.11-.12Zm0,1a.11.11,0,0,0-.11.11h0a.12.12,0,0,0,.12.11H15.55a.11.11,0,0,0,.11-.11h0a.11.11,0,0,0-.11-.11Z"/><path class="cls-49" d="M15.4,54.61h6.51a.18.18,0,0,1,.17.17v.5H15.24v-.5A.17.17,0,0,1,15.4,54.61Z"/><rect class="cls-50" x="16.53" y="55.25" width="1.05" height="8.51"/><path class="cls-51" d="M17.58,56.58h-1v-.23h1v.23Zm-1,.78v.23h1v-.23Zm0,1v.23h1v-.23Zm0,1v.23h1v-.23Zm0,1v.23h1v-.23Zm0,1v.23h1v-.23Zm0,1v.22h1v-.22Z"/><rect class="cls-52" x="16.53" y="54.61" width="1.05" height="0.66"/><path class="cls-53" d="M19.9,55.25h1.9v1.1h0a.12.12,0,0,0-.12.11h0a.12.12,0,0,0,.12.12h0v.78h0a.13.13,0,0,0-.12.12h0a.12.12,0,0,0,.12.11h0v.79h0a.12.12,0,0,0-.12.11h0a.12.12,0,0,0,.12.12h0v.78h0a.12.12,0,0,0-.12.12h0a.12.12,0,0,0,.12.11h0v.79h0a.12.12,0,0,0-.12.11h0a.13.13,0,0,0,.12.12h0v.78h0a.12.12,0,0,0-.12.12h0a.12.12,0,0,0,.12.11h0v.79h0a.12.12,0,0,0-.12.11h0a.12.12,0,0,0,.12.11h0v1.1H19.9Z"/><path class="cls-54" d="M21.76,56.35a.11.11,0,0,0-.11.11h0a.12.12,0,0,0,.12.12H19.9v-.23Zm-1.86,1v.23h1.87a.12.12,0,0,1-.12-.11h0a.13.13,0,0,1,.11-.12Zm0,1v.23h1.87a.12.12,0,0,1-.12-.12h0a.11.11,0,0,1,.11-.11Zm0,1v.23h1.87a.12.12,0,0,1-.12-.11h0a.13.13,0,0,1,.11-.12Zm0,1v.23h1.87a.13.13,0,0,1-.12-.12h0a.11.11,0,0,1,.11-.11Zm0,1v.23h1.87a.12.12,0,0,1-.12-.11h0a.11.11,0,0,1,.11-.12Zm0,1v.22h1.87a.12.12,0,0,1-.12-.11h0a.11.11,0,0,1,.11-.11Z"/><path class="cls-55" d="M19.9,54.61h2a.17.17,0,0,1,.16.17v.5H19.9Z"/><path class="cls-56" d="M22.88,70.25h8.81v1.54h-.05a.16.16,0,0,0-.16.15h0a.16.16,0,0,0,.16.16h.05v1.1h-.05a.16.16,0,0,0-.16.16h0a.16.16,0,0,0,.16.16h.05v1.1h-.05a.16.16,0,0,0-.16.16h0a.16.16,0,0,0,.16.16h.05V76h-.05a.16.16,0,0,0-.16.16h0a.16.16,0,0,0,.16.16h.05v1.1h-.05a.16.16,0,0,0-.16.16h0a.16.16,0,0,0,.16.16h.05v1.1h-.05a.16.16,0,0,0-.16.16h0a.16.16,0,0,0,.16.16h.05v1.1h-.05a.16.16,0,0,0-.16.16h0a.16.16,0,0,0,.16.16h.05v1.53H22.88V80.62h.05a.16.16,0,0,0,.16-.16h0a.16.16,0,0,0-.16-.16h-.05V79.2h.05a.16.16,0,0,0,.16-.16h0a.16.16,0,0,0-.16-.16h-.05v-1.1h.05a.16.16,0,0,0,.16-.16h0a.16.16,0,0,0-.16-.16h-.05v-1.1h.05a.16.16,0,0,0,.16-.16h0a.16.16,0,0,0-.16-.16h-.05v-1.1h.05a.16.16,0,0,0,.16-.16h0a.16.16,0,0,0-.16-.16h-.05v-1.1h.05a.16.16,0,0,0,.16-.16h0a.16.16,0,0,0-.16-.16h-.05V72.1h.05a.16.16,0,0,0,.16-.16h0a.16.16,0,0,0-.16-.15h-.05Z"/><path class="cls-57" d="M31.63,71.79a.15.15,0,0,0-.15.15h0a.16.16,0,0,0,.16.16H22.93a.16.16,0,0,0,.16-.16h0a.15.15,0,0,0-.15-.15Zm0,1.41a.17.17,0,0,0-.15.16h0a.16.16,0,0,0,.16.16H22.93a.16.16,0,0,0,.16-.16h0a.17.17,0,0,0-.15-.16Zm0,1.42a.16.16,0,0,0-.15.16h0a.16.16,0,0,0,.16.16H22.93a.16.16,0,0,0,.16-.16h0a.16.16,0,0,0-.15-.16Zm0,1.42a.16.16,0,0,0-.15.16h0a.16.16,0,0,0,.16.16H22.93a.16.16,0,0,0,.16-.16h0a.16.16,0,0,0-.15-.16Zm0,1.42a.16.16,0,0,0-.15.16h0a.16.16,0,0,0,.16.16H22.93a.16.16,0,0,0,.16-.16h0a.16.16,0,0,0-.15-.16Zm0,1.42a.16.16,0,0,0-.15.16h0a.16.16,0,0,0,.16.16H22.93a.16.16,0,0,0,.16-.16h0a.16.16,0,0,0-.15-.16Zm0,1.42a.16.16,0,0,0-.15.16h0a.16.16,0,0,0,.16.16H22.93a.16.16,0,0,0,.16-.16h0a.16.16,0,0,0-.15-.16Z"/><path class="cls-58" d="M22.74,69.36h9.09a.23.23,0,0,1,.24.23v.69H22.5v-.69A.23.23,0,0,1,22.74,69.36Z"/><rect class="cls-59" x="24.31" y="70.25" width="1.47" height="11.9"/><path class="cls-60" d="M25.78,72.1H24.31v-.31h1.47v.31Zm-1.47,1.1v.32h1.47V73.2Zm0,1.42v.32h1.47v-.32Zm0,1.42v.32h1.47V76Zm0,1.42v.32h1.47v-.32Zm0,1.42v.32h1.47v-.32Zm0,1.42v.32h1.47V80.3Z"/><rect class="cls-61" x="24.31" y="69.36" width="1.47" height="0.93"/><path class="cls-62" d="M29,70.25h2.67v1.54h-.05a.16.16,0,0,0-.16.15h0a.16.16,0,0,0,.16.15h.05v1.1h-.05a.16.16,0,0,0-.16.16h0a.16.16,0,0,0,.16.16h.05v1.1h-.05a.16.16,0,0,0-.16.16h0a.16.16,0,0,0,.16.16h.05V76h-.05a.16.16,0,0,0-.16.16h0a.16.16,0,0,0,.16.16h.05v1.1h-.05a.16.16,0,0,0-.16.16h0a.16.16,0,0,0,.16.16h.05v1.1h-.05a.16.16,0,0,0-.16.16h0a.16.16,0,0,0,.16.16h.05v1.1h-.05a.16.16,0,0,0-.16.16h0a.16.16,0,0,0,.16.16h.05v1.53H29Z"/><path class="cls-63" d="M31.63,71.79a.15.15,0,0,0-.15.15h0a.16.16,0,0,0,.16.15H29v-.31ZM29,73.2v.32h2.62a.16.16,0,0,1-.16-.16h0a.17.17,0,0,1,.15-.16Zm0,1.42v.32h2.62a.16.16,0,0,1-.16-.16h0a.17.17,0,0,1,.15-.16ZM29,76v.32h2.62a.16.16,0,0,1-.16-.16h0a.16.16,0,0,1,.15-.16Zm0,1.42v.32h2.62a.16.16,0,0,1-.16-.16h0a.16.16,0,0,1,.15-.16Zm0,1.42v.32h2.62a.16.16,0,0,1-.16-.16h0a.16.16,0,0,1,.15-.16Zm0,1.42v.32h2.62a.16.16,0,0,1-.16-.16h0a.16.16,0,0,1,.15-.16Z"/><path class="cls-64" d="M29,69.36h2.81a.23.23,0,0,1,.24.23v.69H29Z"/><path class="cls-56" d="M23.08,57.27h8.81v1.54h-.06a.16.16,0,0,0-.16.16h0a.16.16,0,0,0,.16.16h.06v1.1h-.06a.16.16,0,0,0-.16.16h0a.16.16,0,0,0,.16.16h.06v1.09h-.06a.16.16,0,0,0-.16.16h0a.16.16,0,0,0,.16.16h.06v1.1h-.06a.16.16,0,0,0-.16.16h0a.16.16,0,0,0,.16.16h.06v1.1h-.06a.16.16,0,0,0-.16.16h0a.16.16,0,0,0,.16.16h.06v1.1h-.06a.16.16,0,0,0-.16.16h0a.16.16,0,0,0,.16.16h.06v1.1h-.06a.16.16,0,0,0-.16.16h0a.16.16,0,0,0,.16.16h.06v1.53H23.08V67.64h.05a.16.16,0,0,0,.16-.16h0a.16.16,0,0,0-.16-.16h-.05v-1.1h.05a.16.16,0,0,0,.16-.16h0a.16.16,0,0,0-.16-.16h-.05V64.8h.05a.16.16,0,0,0,.16-.16h0a.16.16,0,0,0-.16-.16h-.05v-1.1h.05a.16.16,0,0,0,.16-.16h0a.16.16,0,0,0-.16-.16h-.05V62h.05a.16.16,0,0,0,.16-.16h0a.16.16,0,0,0-.16-.16h-.05V60.55h.05a.16.16,0,0,0,.16-.16h0a.16.16,0,0,0-.16-.16h-.05v-1.1h.05a.16.16,0,0,0,.16-.16h0a.16.16,0,0,0-.16-.16h-.05Z"/><path class="cls-57" d="M31.83,58.81a.16.16,0,0,0-.16.16h0a.16.16,0,0,0,.16.16h-8.7a.16.16,0,0,0,.16-.16h0a.16.16,0,0,0-.16-.16Zm0,1.42a.16.16,0,0,0-.16.16h0a.16.16,0,0,0,.16.16h-8.7a.16.16,0,0,0,.16-.16h0a.16.16,0,0,0-.16-.16Zm0,1.41a.17.17,0,0,0-.16.16h0a.16.16,0,0,0,.16.16h-8.7a.16.16,0,0,0,.16-.16h0a.17.17,0,0,0-.16-.16Zm0,1.42a.17.17,0,0,0-.16.16h0a.16.16,0,0,0,.16.16h-8.7a.16.16,0,0,0,.16-.16h0a.17.17,0,0,0-.16-.16Zm0,1.42a.16.16,0,0,0-.16.16h0a.16.16,0,0,0,.16.16h-8.7a.16.16,0,0,0,.16-.16h0a.16.16,0,0,0-.16-.16Zm0,1.42a.16.16,0,0,0-.16.16h0a.16.16,0,0,0,.16.16h-8.7a.16.16,0,0,0,.16-.16h0a.16.16,0,0,0-.16-.16Zm0,1.42a.16.16,0,0,0-.16.16h0a.16.16,0,0,0,.16.16h-8.7a.16.16,0,0,0,.16-.16h0a.16.16,0,0,0-.16-.16Z"/><path class="cls-58" d="M22.93,56.38H32a.23.23,0,0,1,.23.23v.7H22.7v-.7A.23.23,0,0,1,22.93,56.38Z"/><rect class="cls-59" x="24.51" y="57.27" width="1.47" height="11.9"/><path class="cls-60" d="M26,59.13H24.51v-.32H26v.32Zm-1.47,1.1v.32H26v-.32Zm0,1.42V62H26v-.31Zm0,1.41v.32H26v-.32Zm0,1.42v.32H26v-.32Zm0,1.42v.32H26V65.9Zm0,1.42v.32H26v-.32Z"/><rect class="cls-61" x="24.51" y="56.38" width="1.47" height="0.93"/><path class="cls-62" d="M29.22,57.27h2.67v1.54h-.06a.16.16,0,0,0-.16.16h0a.17.17,0,0,0,.16.16h.06v1.1h-.06a.16.16,0,0,0-.16.16h0a.17.17,0,0,0,.16.16h.06v1.1h-.06a.16.16,0,0,0-.16.15h0a.16.16,0,0,0,.16.16h.06v1.1h-.06a.17.17,0,0,0-.16.16h0a.16.16,0,0,0,.16.16h.06v1.1h-.06a.16.16,0,0,0-.16.16h0a.16.16,0,0,0,.16.16h.06v1.1h-.06a.16.16,0,0,0-.16.16h0a.16.16,0,0,0,.16.16h.06v1.1h-.06a.16.16,0,0,0-.16.16h0a.16.16,0,0,0,.16.16h.06v1.53H29.22Z"/><path class="cls-63" d="M31.83,58.81a.16.16,0,0,0-.16.16h0a.17.17,0,0,0,.16.16H29.22v-.32Zm-2.61,1.42v.32h2.61a.17.17,0,0,1-.16-.16h0a.16.16,0,0,1,.16-.16Zm0,1.42V62h2.61a.16.16,0,0,1-.16-.16h0a.16.16,0,0,1,.16-.15Zm0,1.41v.32h2.61a.16.16,0,0,1-.16-.16h0a.17.17,0,0,1,.16-.16Zm0,1.42v.32h2.61a.16.16,0,0,1-.16-.16h0a.16.16,0,0,1,.16-.16Zm0,1.42v.32h2.61a.16.16,0,0,1-.16-.16h0a.16.16,0,0,1,.16-.16Zm0,1.42v.32h2.61a.16.16,0,0,1-.16-.16h0a.16.16,0,0,1,.16-.16Z"/><path class="cls-64" d="M29.22,56.38H32a.23.23,0,0,1,.23.23v.7h-3Z"/><rect class="cls-65" x="28.87" y="90.34" width="3.13" height="1.14"/><path class="cls-66" d="M23.72,97.18H27a1.14,1.14,0,0,0,1.14-1.13V94.52a1.14,1.14,0,0,0-1.17-1.14l-3.22.06V92.23l4.39,0v-.5a.69.69,0,0,1,.63-.74h3.32a.7.7,0,0,1,.64.74V116a1.7,1.7,0,0,1-1.7,1.69H23.72Zm-3.39,0h3.39v20.51H17.64a1.7,1.7,0,0,1-1.7-1.69V100.15c0-1.16,2.72-5.34,3.8-7.31a1.11,1.11,0,0,1,1-.59l3,0v1.21l-1.71,0c-1.05,0-3.27,2.51-2.53,3.34A1.12,1.12,0,0,0,20.33,97.18Z"/><path class="cls-67" d="M28.63,90.73h3.61a.25.25,0,0,0,.25-.25v-1a.85.85,0,0,0-.85-.85H29.22a.85.85,0,0,0-.85.85v1A.26.26,0,0,0,28.63,90.73Z"/><rect class="cls-68" x="19.07" y="99.83" width="11.15" height="14.99" rx="0.79" ry="0.79"/><path class="cls-67" d="M24.64,111.2a3.88,3.88,0,1,0-3.88-3.88A3.88,3.88,0,0,0,24.64,111.2Z"/><path class="cls-69" d="M24.64,110.29a3,3,0,1,0-3-3A3,3,0,0,0,24.64,110.29Z"/><path class="cls-70" d="M10.33,126.33h5.75v-1.17a1.35,1.35,0,0,0-1.35-1.35H11.68a1.35,1.35,0,0,0-1.35,1.35Z"/><rect class="cls-71" x="7.81" y="129.05" width="10.78" height="23.08"/><polygon class="cls-72" points="10.43 125.93 15.98 125.93 18.6 129.05 7.81 129.05 10.43 125.93"/><rect class="cls-73" x="9.43" y="131.87" width="7.56" height="2.12"/><rect class="cls-73" x="9.43" y="135.6" width="7.56" height="8.67"/><rect class="cls-73" x="9.43" y="145.88" width="7.56" height="2.12"/><path class="cls-74" d="M15.74,126.33h.34v-1.17a1.35,1.35,0,0,0-1.35-1.35h-.08a2.27,2.27,0,0,1,.82,2.09Z"/><rect class="cls-75" x="17.43" y="129.05" width="1.17" height="23.08"/><polygon class="cls-76" points="15.49 125.93 15.98 125.93 18.6 129.05 17.43 129.05 17.43 129.04 15.49 125.93"/><path class="cls-72" d="M10.33,126.33h.35l.27-.43a2.27,2.27,0,0,1,.82-2.09h-.09a1.35,1.35,0,0,0-1.35,1.35Z"/><rect class="cls-77" x="7.81" y="129.05" width="1.18" height="23.08"/><polygon class="cls-78" points="10.43 125.93 10.93 125.93 8.99 129.04 8.99 129.05 7.81 129.05 10.43 125.93"/><path class="cls-79" d="M21.77,126.33h5.75v-1.17a1.35,1.35,0,0,0-1.35-1.35H23.12a1.35,1.35,0,0,0-1.35,1.35Z"/><rect class="cls-80" x="19.25" y="129.05" width="10.78" height="23.08"/><polygon class="cls-81" points="21.87 125.93 27.42 125.93 30.04 129.05 19.25 129.05 21.87 125.93"/><rect class="cls-82" x="20.86" y="131.87" width="7.56" height="2.12"/><rect class="cls-82" x="20.86" y="135.6" width="7.56" height="8.67"/><rect class="cls-82" x="20.86" y="145.88" width="7.56" height="2.12"/><path class="cls-83" d="M27.18,126.33h.34v-1.17a1.35,1.35,0,0,0-1.35-1.35h-.08a2.29,2.29,0,0,1,.82,2.09Z"/><rect class="cls-84" x="28.87" y="129.05" width="1.17" height="23.08"/><polygon class="cls-85" points="26.93 125.93 27.42 125.93 30.04 129.05 28.87 129.05 28.87 129.04 26.93 125.93"/><path class="cls-81" d="M21.77,126.33h.35l.27-.43a2.27,2.27,0,0,1,.82-2.09h-.09a1.35,1.35,0,0,0-1.35,1.35Z"/><rect class="cls-86" x="19.25" y="129.05" width="1.18" height="23.08"/><polygon class="cls-87" points="21.87 125.93 22.37 125.93 20.43 129.04 20.43 129.05 19.25 129.05 21.87 125.93"/><path class="cls-88" d="M33.21,126.33H39v-1.17a1.34,1.34,0,0,0-1.34-1.35h-3a1.35,1.35,0,0,0-1.35,1.35Z"/><rect class="cls-89" x="30.69" y="129.05" width="10.78" height="23.08"/><polygon class="cls-90" points="33.31 125.93 38.86 125.93 41.47 129.05 30.69 129.05 33.31 125.93"/><rect class="cls-91" x="32.3" y="131.87" width="7.56" height="2.12"/><rect class="cls-91" x="32.3" y="135.6" width="7.56" height="8.67"/><rect class="cls-91" x="32.3" y="145.88" width="7.56" height="2.12"/><path class="cls-92" d="M38.62,126.33H39v-1.17a1.34,1.34,0,0,0-1.34-1.35h-.08a2.29,2.29,0,0,1,.82,2.09Z"/><rect class="cls-93" x="40.31" y="129.05" width="1.17" height="23.08"/><polygon class="cls-94" points="38.37 125.93 38.86 125.93 41.47 129.05 40.31 129.05 40.31 129.04 38.37 125.93"/><path class="cls-90" d="M33.21,126.33h.35l.27-.43a2.27,2.27,0,0,1,.82-2.09h-.09a1.35,1.35,0,0,0-1.35,1.35Z"/><rect class="cls-95" x="30.69" y="129.05" width="1.18" height="23.08"/><polygon class="cls-96" points="33.31 125.93 33.81 125.93 31.87 129.04 31.87 129.05 30.69 129.05 33.31 125.93"/><path class="cls-97" d="M157.19,67.56v14a1.06,1.06,0,0,1-1.15.93H126.7a1,1,0,0,1-1.14-.93v-14a1.05,1.05,0,0,1,1.14-.93H156A1.06,1.06,0,0,1,157.19,67.56Z"/><path class="cls-98" d="M157.19,67.56v9.3H125.56v-9.3a1.05,1.05,0,0,1,1.14-.93H156A1.06,1.06,0,0,1,157.19,67.56Z"/><path class="cls-99" d="M157.19,68.87V80.3c0,.46-.52.83-1.15.83H126.7c-.63,0-1.14-.37-1.14-.83V68.87c0-.46.51-.83,1.14-.83H156C156.67,68,157.19,68.41,157.19,68.87Z"/><rect class="cls-100" x="129.48" y="70.8" width="23.78" height="7.57" rx="0.91" ry="0.91"/><rect class="cls-101" x="132.17" y="72.06" width="18.81" height="5.05" rx="0.61" ry="0.61"/><path class="cls-97" d="M151.62,56.88V66a.69.69,0,0,1-.74.6h-19a.68.68,0,0,1-.74-.6v-9.1a.68.68,0,0,1,.74-.6h19A.68.68,0,0,1,151.62,56.88Z"/><path class="cls-98" d="M151.62,56.88v6H131.13v-6a.68.68,0,0,1,.74-.6h19A.68.68,0,0,1,151.62,56.88Z"/><path class="cls-99" d="M151.62,57.73v7.4c0,.3-.34.54-.74.54h-19c-.41,0-.74-.24-.74-.54v-7.4c0-.3.33-.54.74-.54h19C151.29,57.19,151.62,57.43,151.62,57.73Z"/><rect class="cls-100" x="133.67" y="58.98" width="15.4" height="4.9" rx="0.59" ry="0.59"/><rect class="cls-101" x="135.41" y="59.8" width="12.18" height="3.27" rx="0.4" ry="0.4"/><path class="cls-102" d="M52.52,69.31H66.33a.57.57,0,0,1,.5.62V82.28a.57.57,0,0,1-.5.62H52.52a.57.57,0,0,1-.5-.62V69.93A.57.57,0,0,1,52.52,69.31Z"/><path class="cls-103" d="M52.52,69.31h5V82.9h-5a.57.57,0,0,1-.5-.62V69.93A.57.57,0,0,1,52.52,69.31Z"/><path class="cls-104" d="M53.23,69.31H65.62c.25,0,.45.28.45.62V82.28c0,.34-.2.62-.45.62H53.23c-.25,0-.45-.28-.45-.62V69.93C52.78,69.59,53,69.31,53.23,69.31Z"/><path class="cls-105" d="M59.42,81.58A5.47,5.47,0,1,0,54,76.11,5.48,5.48,0,0,0,59.42,81.58Z"/><path class="cls-106" d="M59.42,81a4.86,4.86,0,1,0-4.85-4.85A4.86,4.86,0,0,0,59.42,81Z"/><path class="cls-105" d="M56.75,74.67H62.1a1.45,1.45,0,0,1,1.44,1.44h0a1.44,1.44,0,0,1-1.44,1.43H56.75a1.44,1.44,0,0,1-1.44-1.43h0A1.45,1.45,0,0,1,56.75,74.67Z"/><path class="cls-102" d="M52.52,55.67H66.33a.57.57,0,0,1,.5.63V68.65a.57.57,0,0,1-.5.62H52.52a.57.57,0,0,1-.5-.62V56.3A.57.57,0,0,1,52.52,55.67Z"/><path class="cls-103" d="M52.52,55.67h5v13.6h-5a.57.57,0,0,1-.5-.62V56.3A.57.57,0,0,1,52.52,55.67Z"/><path class="cls-104" d="M53.23,55.67H65.62c.25,0,.45.28.45.63V68.65c0,.34-.2.62-.45.62H53.23c-.25,0-.45-.28-.45-.62V56.3C52.78,56,53,55.67,53.23,55.67Z"/><path class="cls-105" d="M59.42,67.94A5.47,5.47,0,1,0,54,62.47,5.48,5.48,0,0,0,59.42,67.94Z"/><path class="cls-106" d="M59.42,67.33a4.86,4.86,0,1,0-4.85-4.86A4.87,4.87,0,0,0,59.42,67.33Z"/><path class="cls-105" d="M56.75,61H62.1a1.45,1.45,0,0,1,1.44,1.44h0a1.45,1.45,0,0,1-1.44,1.44H56.75a1.45,1.45,0,0,1-1.44-1.44h0A1.45,1.45,0,0,1,56.75,61Z"/><path class="cls-107" d="M67.92,69.31H81.73a.58.58,0,0,1,.51.62V82.28a.58.58,0,0,1-.51.62H67.92a.58.58,0,0,1-.5-.62V69.93A.58.58,0,0,1,67.92,69.31Z"/><path class="cls-108" d="M67.92,69.31h5V82.9h-5a.58.58,0,0,1-.5-.62V69.93A.58.58,0,0,1,67.92,69.31Z"/><path class="cls-109" d="M68.63,69.31H81c.25,0,.46.28.46.62V82.28c0,.34-.21.62-.46.62H68.63c-.25,0-.45-.28-.45-.62V69.93C68.18,69.59,68.38,69.31,68.63,69.31Z"/><path class="cls-110" d="M74.83,81.58a5.47,5.47,0,1,0-5.47-5.47A5.48,5.48,0,0,0,74.83,81.58Z"/><path class="cls-111" d="M74.83,81A4.86,4.86,0,1,0,70,76.11,4.87,4.87,0,0,0,74.83,81Z"/><path class="cls-110" d="M72.15,74.67H77.5a1.45,1.45,0,0,1,1.44,1.44h0a1.44,1.44,0,0,1-1.44,1.43H72.15a1.43,1.43,0,0,1-1.43-1.43h0A1.44,1.44,0,0,1,72.15,74.67Z"/><path class="cls-107" d="M67.92,55.67H81.73a.58.58,0,0,1,.51.63V68.65a.58.58,0,0,1-.51.62H67.92a.58.58,0,0,1-.5-.62V56.3A.58.58,0,0,1,67.92,55.67Z"/><path class="cls-108" d="M67.92,55.67h5v13.6h-5a.58.58,0,0,1-.5-.62V56.3A.58.58,0,0,1,67.92,55.67Z"/><path class="cls-109" d="M68.63,55.67H81c.25,0,.46.28.46.63V68.65c0,.34-.21.62-.46.62H68.63c-.25,0-.45-.28-.45-.62V56.3C68.18,56,68.38,55.67,68.63,55.67Z"/><path class="cls-110" d="M74.83,67.94a5.47,5.47,0,1,0-5.47-5.47A5.48,5.48,0,0,0,74.83,67.94Z"/><path class="cls-111" d="M74.83,67.33A4.86,4.86,0,1,0,70,62.47,4.87,4.87,0,0,0,74.83,67.33Z"/><path class="cls-110" d="M72.15,61H77.5a1.45,1.45,0,0,1,1.44,1.44h0a1.45,1.45,0,0,1-1.44,1.44H72.15a1.44,1.44,0,0,1-1.43-1.44h0A1.44,1.44,0,0,1,72.15,61Z"/><rect class="cls-112" x="62.72" y="90.98" width="4.86" height="1.26"/><path class="cls-113" d="M59.41,116.43H70.88a.59.59,0,0,0,.59-.58v-21c0-.44-3-2.74-3.45-3.14H62.28c-.45.4-3.45,2.7-3.45,3.14v21A.59.59,0,0,0,59.41,116.43Z"/><path class="cls-114" d="M59.41,116.43H70.88a.59.59,0,0,0,.59-.58v-21c0-.44-3-2.74-3.45-3.14H67l1.47,3.06v20.83l-9.55.57A.57.57,0,0,0,59.41,116.43Z"/><path class="cls-115" d="M71.4,94.65a31,31,0,0,0-3.38-3H62.28a31,31,0,0,0-3.38,3Z"/><path class="cls-113" d="M71.4,94.65a31,31,0,0,0-3.38-3H67l1.43,3Z"/><path class="cls-116" d="M62.6,91.44h5.1a.37.37,0,0,0,.36-.37V89.63a1.2,1.2,0,0,0-1.2-1.2H63.44a1.2,1.2,0,0,0-1.2,1.2v1.44A.37.37,0,0,0,62.6,91.44Z"/><rect class="cls-117" x="60.6" y="99.97" width="9.1" height="8.15" rx="0.39" ry="0.39"/><rect class="cls-118" x="60.01" y="95.39" width="3.13" height="19.21"/><path class="cls-119" d="M61,100h2.15v8.15H61a.38.38,0,0,1-.39-.39v-7.37A.38.38,0,0,1,61,100Z"/><rect class="cls-112" x="75.7" y="97.26" width="3.66" height="0.95"/><path class="cls-113" d="M73.21,116.43h8.64a.44.44,0,0,0,.43-.44V100.14c0-.33-2.26-2.06-2.59-2.36H75.37c-.34.3-2.6,2-2.6,2.36V116A.44.44,0,0,0,73.21,116.43Z"/><path class="cls-114" d="M73.21,116.43h8.64a.44.44,0,0,0,.43-.44V100.14c0-.33-2.26-2.06-2.59-2.36h-.78l1.1,2.3v15.69l-7.19.43A.44.44,0,0,0,73.21,116.43Z"/><path class="cls-115" d="M82.24,100a23.12,23.12,0,0,0-2.55-2.25H75.37A23.12,23.12,0,0,0,72.82,100Z"/><path class="cls-113" d="M82.24,100a23.12,23.12,0,0,0-2.55-2.25h-.78L80,100Z"/><path class="cls-116" d="M75.61,97.61h3.84a.28.28,0,0,0,.27-.28V96.25a.9.9,0,0,0-.9-.9H76.24a.9.9,0,0,0-.91.9v1.08A.29.29,0,0,0,75.61,97.61Z"/><path class="cls-117" d="M74.4,104h6.26a.29.29,0,0,1,.29.29v5.55a.29.29,0,0,1-.29.29H74.4a.29.29,0,0,1-.29-.29v-5.55A.3.3,0,0,1,74.4,104Z"/><rect class="cls-118" x="73.66" y="100.59" width="2.36" height="14.47"/><path class="cls-119" d="M74.4,104H76v6.14H74.4a.29.29,0,0,1-.3-.29v-5.55A.3.3,0,0,1,74.4,104Z"/><rect class="cls-120" x="86.94" y="97.26" width="3.66" height="0.95"/><path class="cls-121" d="M84.45,116.43h8.63a.44.44,0,0,0,.44-.44V100.14c0-.33-2.26-2.06-2.6-2.36H86.6c-.33.3-2.59,2-2.59,2.36V116A.44.44,0,0,0,84.45,116.43Z"/><path class="cls-122" d="M84.45,116.43h8.63a.44.44,0,0,0,.44-.44V100.14c0-.33-2.26-2.06-2.6-2.36h-.78l1.11,2.3v15.69l-7.19.43A.43.43,0,0,0,84.45,116.43Z"/><path class="cls-123" d="M93.47,100a23.12,23.12,0,0,0-2.55-2.25H86.6A23.06,23.06,0,0,0,84.06,100Z"/><path class="cls-121" d="M93.47,100a23.12,23.12,0,0,0-2.55-2.25h-.78L91.22,100Z"/><path class="cls-124" d="M86.85,97.61h3.83a.29.29,0,0,0,.28-.28V96.25a.9.9,0,0,0-.91-.9H87.48a.9.9,0,0,0-.91.9v1.08A.28.28,0,0,0,86.85,97.61Z"/><path class="cls-125" d="M85.63,104H91.9a.29.29,0,0,1,.29.29v5.55a.29.29,0,0,1-.29.29H85.63a.29.29,0,0,1-.29-.29v-5.55A.3.3,0,0,1,85.63,104Z"/><rect class="cls-126" x="84.9" y="100.59" width="2.36" height="14.47"/><path class="cls-127" d="M85.63,104h1.62v6.14H85.63a.29.29,0,0,1-.29-.29v-5.55A.3.3,0,0,1,85.63,104Z"/><path class="cls-128" d="M88.92,34.19h15.2a.76.76,0,0,1,.76.76V47.64a.77.77,0,0,1-.77.77H88.92a.77.77,0,0,1-.77-.77V35A.76.76,0,0,1,88.92,34.19Z"/><path class="cls-129" d="M88.15,47.64h0V35a.78.78,0,0,1,.77-.77h15.23V46.88a.76.76,0,0,1-.76.76H88.15Z"/><rect class="cls-130" x="89.61" y="36.34" width="13.82" height="9.24" rx="0.88" ry="0.88"/><path class="cls-131" d="M96.52,46.76a5.8,5.8,0,1,0-5.8-5.8A5.82,5.82,0,0,0,96.52,46.76Z"/><path class="cls-132" d="M96.52,45.58A4.62,4.62,0,1,0,91.9,41,4.63,4.63,0,0,0,96.52,45.58Z"/><rect class="cls-128" x="88.15" y="19.81" width="16.73" height="14.21" rx="0.77" ry="0.77"/><path class="cls-129" d="M88.15,33.26h0V20.58a.77.77,0,0,1,.77-.77h15.23V32.5a.76.76,0,0,1-.76.76H88.15Z"/><rect class="cls-130" x="89.61" y="21.96" width="13.82" height="9.24" rx="0.88" ry="0.88"/><path class="cls-131" d="M96.52,32.38a5.8,5.8,0,1,0-5.8-5.8A5.82,5.82,0,0,0,96.52,32.38Z"/><path class="cls-132" d="M96.52,31.2a4.62,4.62,0,1,0-4.62-4.62A4.63,4.63,0,0,0,96.52,31.2Z"/><rect class="cls-133" x="105.87" y="34.19" width="16.73" height="14.21" rx="0.77" ry="0.77"/><path class="cls-134" d="M105.87,47.64h0V35a.77.77,0,0,1,.76-.77h15.24V46.88a.77.77,0,0,1-.77.76H105.87Z"/><rect class="cls-135" x="107.32" y="36.34" width="13.82" height="9.24" rx="0.88" ry="0.88"/><path class="cls-136" d="M114.23,46.76a5.8,5.8,0,1,0-5.8-5.8A5.81,5.81,0,0,0,114.23,46.76Z"/><path class="cls-137" d="M114.23,45.58A4.62,4.62,0,1,0,109.61,41,4.63,4.63,0,0,0,114.23,45.58Z"/><rect class="cls-133" x="105.87" y="19.81" width="16.73" height="14.21" rx="0.77" ry="0.77"/><path class="cls-134" d="M105.87,33.26h0V20.58a.76.76,0,0,1,.76-.77h15.24V32.5a.77.77,0,0,1-.77.76H105.87Z"/><rect class="cls-135" x="107.32" y="21.96" width="13.82" height="9.24" rx="0.88" ry="0.88"/><path class="cls-136" d="M114.23,32.38a5.8,5.8,0,1,0-5.8-5.8A5.81,5.81,0,0,0,114.23,32.38Z"/><path class="cls-137" d="M114.23,31.2a4.62,4.62,0,1,0-4.62-4.62A4.63,4.63,0,0,0,114.23,31.2Z"/><path class="cls-138" d="M13.41,23.09h5.74V21.92a1.35,1.35,0,0,0-1.35-1.35H14.75a1.34,1.34,0,0,0-1.34,1.35Z"/><rect class="cls-139" x="10.89" y="25.81" width="10.78" height="23.08"/><polygon class="cls-140" points="13.5 22.68 19.05 22.68 21.67 25.81 10.88 25.81 13.5 22.68"/><path class="cls-141" d="M18.81,23.09h.34V21.92a1.35,1.35,0,0,0-1.35-1.35h-.08a2.28,2.28,0,0,1,.83,2.09Z"/><rect class="cls-142" x="20.5" y="25.81" width="1.17" height="23.08"/><polygon class="cls-138" points="18.56 22.68 19.05 22.68 21.67 25.81 20.5 25.81 20.5 25.8 18.56 22.68"/><path class="cls-140" d="M13.41,23.09h.34l.27-.43a2.29,2.29,0,0,1,.82-2.09h-.09a1.34,1.34,0,0,0-1.34,1.35Z"/><rect class="cls-143" x="10.89" y="25.81" width="1.18" height="23.08"/><polygon class="cls-144" points="13.5 22.68 14 22.68 12.06 25.8 12.06 25.81 10.88 25.81 13.5 22.68"/><path class="cls-145" d="M25.5,23.09h5.74V21.92a1.34,1.34,0,0,0-1.34-1.35h-3a1.35,1.35,0,0,0-1.35,1.35Z"/><rect class="cls-146" x="22.98" y="25.81" width="10.78" height="23.08"/><polygon class="cls-147" points="25.6 22.68 31.15 22.68 33.76 25.81 22.98 25.81 25.6 22.68"/><path class="cls-148" d="M30.91,23.09h.33V21.92a1.34,1.34,0,0,0-1.34-1.35h-.08a2.29,2.29,0,0,1,.82,2.09Z"/><rect class="cls-149" x="32.6" y="25.81" width="1.17" height="23.08"/><polygon class="cls-145" points="30.66 22.68 31.15 22.68 33.76 25.81 32.6 25.81 32.6 25.8 30.66 22.68"/><path class="cls-147" d="M25.5,23.09h.35l.27-.43a2.28,2.28,0,0,1,.81-2.09h-.08a1.35,1.35,0,0,0-1.35,1.35Z"/><rect class="cls-150" x="22.98" y="25.81" width="1.18" height="23.08"/><polygon class="cls-151" points="25.6 22.68 26.1 22.68 24.16 25.8 24.16 25.81 22.98 25.81 25.6 22.68"/><path class="cls-152" d="M37.59,23.09h5.75V21.92A1.35,1.35,0,0,0,42,20.57H38.94a1.35,1.35,0,0,0-1.35,1.35Z"/><rect class="cls-153" x="35.08" y="25.81" width="10.78" height="23.08"/><polygon class="cls-154" points="37.69 22.68 43.24 22.68 45.86 25.81 35.08 25.81 37.69 22.68"/><path class="cls-155" d="M43,23.09h.34V21.92A1.35,1.35,0,0,0,42,20.57h-.07a2.29,2.29,0,0,1,.82,2.09Z"/><rect class="cls-156" x="44.69" y="25.81" width="1.17" height="23.08"/><polygon class="cls-152" points="42.75 22.68 43.24 22.68 45.86 25.81 44.69 25.81 44.69 25.8 42.75 22.68"/><path class="cls-154" d="M37.59,23.09h.35l.27-.43A2.29,2.29,0,0,1,39,20.57h-.09a1.35,1.35,0,0,0-1.35,1.35Z"/><rect class="cls-157" x="35.08" y="25.81" width="1.18" height="23.08"/><polygon class="cls-151" points="37.69 22.68 38.19 22.68 36.25 25.8 36.25 25.81 35.08 25.81 37.69 22.68"/></g></g></svg>