<svg xmlns="http://www.w3.org/2000/svg" viewBox="0 0 82.79 92.64"><defs><style>.cls-1{fill:#c7e2f3;}.cls-2{fill:#602b15;}.cls-3{fill:#be7d5a;}.cls-4{fill:#5d5faa;}.cls-5{fill:#aa7150;}</style></defs><title>user5</title><g id="Layer_2" data-name="Layer 2"><g id="Capa_1" data-name="Capa 1"><path class="cls-1" d="M82.79,84.61c0,4.43-18.53,8-41.39,8S0,89,0,84.61s18.53-8,41.4-8S82.79,80.17,82.79,84.61Z"/><path class="cls-2" d="M14.13,75c0,4.09.26,6.83,2.06,9.6H43.8c-.23-4.63-2.57-6.52.33-10.87,2.7-4,6.19-7.28,3.35-12.38-3.3-5.94-7-8.13-6.43-15.61.41-5,4-8,4.44-13.34s2-14.56-2.05-18.83c-1.29-1.37-3.31-1.2-4.64-2.32C37,9.7,37.11,7.66,35.62,6c-2.9-3.28-6.71-1.84-10,.29-6.19,4-11.45,13.75-9,21.23,1.64,5.1,4.49,7,1,11.8-3,4.21-5.81,7.29-6.26,12.75-.46,5.67,2.32,7.39,3.6,12.18C15.83,67.57,14.17,71.63,14.13,75Z"/><path class="cls-2" d="M34.12,75c0,4.09.25,6.83,2.05,9.6H63.78c-.23-4.63-2.56-6.52.33-10.87,2.7-4,6.19-7.28,3.36-12.38-3.31-5.94-7.06-8.13-6.44-15.61.42-5,4-8,4.44-13.34s2-14.56-2-18.83c-1.29-1.37-3.32-1.2-4.64-2.32C57,9.7,57.09,7.66,55.61,6c-2.9-3.28-6.72-1.84-10,.29-6.19,4-11.45,13.75-9,21.23,1.64,5.1,4.49,7,1,11.8-3,4.21-5.81,7.29-6.25,12.75-.46,5.67,2.32,7.39,3.59,12.18C35.81,67.57,34.16,71.63,34.12,75Z"/><path class="cls-3" d="M68.17,70.65a15.91,15.91,0,0,0-8.39-6.41L47.5,59.69H35.78L23.5,64.24a15.91,15.91,0,0,0-8.38,6.41Z"/><path class="cls-3" d="M70.91,84.61c0-.74.68-16.48-8-19,0,0-11.08-.94-7.35,19Z"/><path class="cls-4" d="M53.36,84.61h19l-1.64-9.82c-1.49-10.38-10.23-9.61-10.23-9.61-9.66,2.85-8.22,12.2-8.22,12.2Z"/><path class="cls-2" d="M64.2,9.32c1.38,3,2.17,7.22.84,10.28-3,6.76-16.19,8.54-19.84,1.8-2.72-5-1.08-12.27,2.72-16.32C53.2-.54,61.23,2.93,64.2,9.32Z"/><rect class="cls-3" x="35.78" y="48.18" width="11.72" height="15.7"/><path class="cls-4" d="M65.14,84.61a12,12,0,0,0-.25-1.26S61.4,69.9,62.62,65.48c0,0-3-1.86-11.29-4.37-.94,4-5.2,5.74-5.2,5.74a25.28,25.28,0,0,1-13.54-6L22,64.83s-13.49,2.8-4.59,19.78Z"/><path class="cls-3" d="M33.23,44.29a9.37,9.37,0,0,0,2.15,3.14c4.31,4.14,10,7,16.09,7,15.75-6.88,10.64-37.21,10.64-37.21C59.75,2.75,47.33,2.78,47.33,2.78,38,2.37,29.4,6.8,28,16.68c-.56,3.79.17,7.85.36,11.64a30.55,30.55,0,0,0,1.37,8.21C30.6,39.23,32.09,41.68,33.23,44.29Z"/><path class="cls-5" d="M59.69,45.92a16.38,16.38,0,0,1-8.22,8.55c-6,0-11.78-2.9-16.09-7a9.37,9.37,0,0,1-2.15-3.14c-.21-.48-.43-.94-.66-1.41C40.09,51.43,51.05,59.69,59.69,45.92Z"/><path class="cls-3" d="M31.58,33.22s-1.24-5.16-5.21-3c0,0-1.8.91-.5,4.45,0,0,1.88,5.11,5.71,3.24Z"/><path class="cls-2" d="M57.58,7.41s1.89,17.74-16.44,18.53c0,0-9.88.59-8.57,10.09,0,0-.28-7.33-6.2-5.84,0,0-4.05-5-3.11-14.67,0,0-.54-10.95,15-15.11C38.25.41,56.26-2.55,57.58,7.41Z"/><path class="cls-3" d="M27.13,84.61c1.1-4.1,2.74-13.52-4.08-16.89,0,0-12.55-4.73-11.68,16.89Z"/><path class="cls-4" d="M29.42,84.61l.93-6s1.42-9.35-8.24-12.18c0,0-8.74-.77-10.22,9.62l-1.41,8.57Z"/></g></g></svg>