<svg xmlns="http://www.w3.org/2000/svg" viewBox="0 0 82.79 95.88"><defs><style>.cls-1{fill:#c7e2f3;}.cls-2{fill:#4d1300;}.cls-3{fill:#f8b78f;}.cls-4{fill:#6cbce9;}.cls-5{fill:#e6ab86;}.cls-6{fill:#682506;}</style></defs><title>user6</title><g id="Layer_2" data-name="Layer 2"><g id="Capa_1" data-name="Capa 1"><path class="cls-1" d="M82.79,87.85c0,4.44-18.53,8-41.39,8S0,92.29,0,87.85s18.53-8,41.4-8S82.79,83.42,82.79,87.85Z"/><path class="cls-2" d="M12.71,14.79a5.42,5.42,0,0,0,.83,3.65c.75,1.13,1.34,1.55,1.34,2.91,0,2.19-1.7,4.37-2,6.6-.72,5,2.56,12.41,9,13.53,7.28,1.28,11-3.34,13.6-8.68,3.84-7.86.55-16.08-2.13-23.65-.76-2.14-.62-3.78-3-5-3.8-2-8.39-.48-11.86,1.48A10.83,10.83,0,0,0,12.71,14.79Z"/><path class="cls-3" d="M71.17,87.85l-1.17-6S68.82,68.6,62.6,70.67c0,0-8.62,3.46-6,17.18Z"/><rect class="cls-3" x="36.44" y="51.6" width="11.72" height="15.69"/><path class="cls-3" d="M15.77,74.08a15.89,15.89,0,0,1,8.38-6.42l12.29-4.55H48.16l12.27,4.55a15.9,15.9,0,0,1,8.39,6.42Z"/><path class="cls-4" d="M64.17,87.85l7.06-7.25a15.8,15.8,0,0,0-10.8-12.94l-9.08-3.37L44.59,68.6,33.52,64.19l-9.37,3.47A15.79,15.79,0,0,0,13.36,80.6l4.77,7.25Z"/><path class="cls-3" d="M26.29,87.85l.65-3.32s2-10.19-5.08-13.44c0,0-9.63-1.76-9.85,15.13l-.17,1.63Z"/><path class="cls-4" d="M28.27,87.85l.27-1.58a18.06,18.06,0,0,0-5.69-17.56,14.91,14.91,0,0,0-11.13,9.14l-3,10Z"/><path class="cls-4" d="M54,87.85H74.11L69,74.94s-3.53-7-11.24-4.39c0,0-7.27,5-4,16.16Z"/><path class="cls-3" d="M29.2,45.05a9.56,9.56,0,0,0,2.15,3.15c4.3,4.14,10.06,7,16.09,7C63.19,48.36,58.08,18,58.08,18,55.72,3.51,43.3,3.54,43.3,3.54c-9.38-.4-17.94,4-19.38,13.91-.55,3.78.18,7.85.37,11.63a30.48,30.48,0,0,0,1.37,8.21C26.57,40,28.07,42.44,29.2,45.05Z"/><path class="cls-5" d="M48.23,53.47c-6.1,1.38-12.36-3-17.63-6.1a9.53,9.53,0,0,0,.75.83c4.3,4.14,10.06,7,16.09,7A14.57,14.57,0,0,0,52,52,16.19,16.19,0,0,1,48.23,53.47Z"/><path class="cls-6" d="M58.88,32.36c.3-4.79-.13-8.62-3.09-12.44-2.77-3.57-7.1-4-7.92-9.18C47.16,6.29,41.42.12,47,.92c9.14,1.3,13.76,11.36,14,16.15.21,4.37.25,9.71-1.84,13.44Z"/><path class="cls-6" d="M35.39,22.6c-7.1,4.22-8.88,14.07-6.54,21.7-5.13-4.1-7.62-7.69-9.26-12.8-1.7-5.33-1.65-8.33-1.1-14C19.83,3.52,34.28-4,49.73,2.22c5.71,2.31,4.6,9.63.25,13.58C46,19.46,40,19.88,35.39,22.6Z"/><path class="cls-3" d="M29.39,32.93s-1.24-5.17-5.21-3c0,0-1.8.91-.5,4.46,0,0,1.88,5.1,5.71,3.23Z"/></g></g></svg>