<svg xmlns="http://www.w3.org/2000/svg" viewBox="0 0 92.69 99.42"><defs><style>.cls-1{fill:#c7e2f3;}.cls-2{fill:#5d5faa;}.cls-3{fill:#f8b78f;}.cls-4{fill:#825829;}.cls-5{fill:#e6ab86;}</style></defs><title>user10</title><g id="Layer_2" data-name="Layer 2"><g id="Capa_1" data-name="Capa 1"><path class="cls-1" d="M92.69,91.39c0,4.44-20.75,8-46.34,8S0,95.83,0,91.39s20.75-8,46.35-8S92.69,87,92.69,91.39Z"/><path class="cls-2" d="M11.7,91.84H34.41a113.35,113.35,0,0,0,3.24-14.52s.47-10.77-10.58-9.85c0,0-12.61-.24-14.72,14.43A74,74,0,0,1,11.7,91.84Z"/><rect class="cls-3" x="38.94" y="48.69" width="12.33" height="16.5"/><path class="cls-3" d="M73,72.33a16.68,16.68,0,0,0-8.81-6.75L51.27,60.8H38.94L26,65.58a16.72,16.72,0,0,0-8.82,6.75Z"/><path class="cls-2" d="M69.88,91.84l0-1.33,5.7-11.33a16.62,16.62,0,0,0-11.35-13.6l-9.86-3.65L43.09,65.75,35.59,62,26,65.58a16.61,16.61,0,0,0-11.35,13.6l4.61,12.66Z"/><path class="cls-2" d="M56.45,91.84H81c-3.2-10.42-6.28-17.62-7.48-19.79,0,0-5.85-9.06-14.34-1.92,0,0-10.43,7.08-3.67,20.28C55.5,90.41,55.84,90.89,56.45,91.84Z"/><path class="cls-4" d="M24.36,25.24a47.8,47.8,0,0,1-.58-8.35c0-2.51.46-6.3,3.58-6.62,4.33-.44,5.66,7,5.92,10.27.35,4.46-.76,9.28-1.62,13.64-.31,1.58-.28,4.73-2.05,5.49-1.52.66-1.26.9-2-.25C25.71,36.67,24.76,28.42,24.36,25.24Z"/><path class="cls-3" d="M26.7,46.39c1.71,6.7,4.72,8.54,4.72,8.54l4,.79c2.33-.3,6.34-1.24,6.34-1.24C51,51.34,54.09,51.53,56,46.73c.06-.15,6.42-24.94,6.42-24.94C63.59,8.89,50.1,6.21,48.06,5.88s-14.87-4-18.66,8.34A67.15,67.15,0,0,0,26.7,46.39Z"/><path class="cls-5" d="M53.05,48.9c-3.72,2.87-10,4.75-14.62,5.24C30.22,55,28.37,49,27,42.55c.12,1.47.29,3,.53,4.51,1.6,6.24,4.41,8,4.41,8l3.77.73c2.17-.28,5.91-1.16,5.91-1.16,8.61-2.93,11.47-2.75,13.25-7.22,0,0,.12-.46.31-1.2A8.63,8.63,0,0,1,53.05,48.9Z"/><path class="cls-4" d="M45.06,1.63c3.84-.51,8.3-1.49,12.09-.25,5,1.65,5,7.4,7.31,11.33,2.42,4.18,4,7.71,3.75,12.27-.17,3.52-1.54,1.79-2,5.4-.57,4-1.33,4.33-3.24,7.69L56,46.73c1.11-4.39.27-5.21,1.29-8.58a21.26,21.26,0,0,0-1-13.63c-1.6-3.68-2.71-3.6-6.11-4.5a50.52,50.52,0,0,0-12.68-1.64c-4.15-.06-8.66-.19-12-3-3.1-2.55-4.25-8.2-3.05-12.09A6.18,6.18,0,0,1,29.7.2C33,.92,36.3,1.88,39.67,2A34,34,0,0,0,45.06,1.63Z"/><path class="cls-3" d="M56.43,35.7s2.28-5,5.86-2c0,0,1.64,1.28-.38,4.6,0,0-2.91,4.78-6.41,2.14Z"/><path class="cls-4" d="M56.78,24.11s0,8.9-1.65,13.61l1.74.35s.91-6.1,4.05-6.18Z"/></g></g></svg>