<svg xmlns="http://www.w3.org/2000/svg" viewBox="0 0 92.69 97.93"><defs><style>.cls-1{fill:#c7e2f3;}.cls-2{fill:#75aed5;}.cls-3{fill:#f8b78f;}.cls-4{fill:#90c1e8;}.cls-5{fill:#e6ab86;}.cls-6{fill:#955025;}.cls-7{fill:#c2ddf4;}</style></defs><title>user9</title><g id="Layer_2" data-name="Layer 2"><g id="Capa_1" data-name="Capa 1"><path class="cls-1" d="M92.69,89.9c0,4.43-20.75,8-46.34,8S0,94.33,0,89.9s20.75-8,46.35-8S92.69,85.46,92.69,89.9Z"/><path class="cls-2" d="M26.91,89.9c-2.93-3.16-6.43-5.42-10.36-5.15,0,0-.19,1.64-.32,5.15Z"/><rect class="cls-3" x="40.81" y="54.55" width="12.33" height="16.5"/><path class="cls-3" d="M74.88,78.19a16.72,16.72,0,0,0-8.82-6.75L53.14,66.65H40.81L27.9,71.44a16.72,16.72,0,0,0-8.82,6.75Z"/><path class="cls-4" d="M75,89.9,77.41,85a16.61,16.61,0,0,0-11.35-13.6L53.14,66.65l-8.18,5-4.15-5L27.9,71.44A16.61,16.61,0,0,0,16.55,85l1.77,4.86Z"/><path class="cls-3" d="M31.63,54.73c2.56,6.41,5.79,7.85,5.79,7.85l4.11.26c2.26-.59,6.12-2.05,6.12-2.05,8.74-4.31,11.8-4.52,13.07-9.53,0-.15,3.12-25.56,3.12-25.56-.5-12.94-14.23-13.84-16.3-13.91S32.28,9.72,30.13,22.48A67.16,67.16,0,0,0,31.63,54.73Z"/><path class="cls-3" d="M31.74,51.5c1.74,3.34,4.93,7.23,9.14,7.18,3.13,0,6.8-1.38,9.69-2.59,3.1-1.3,7.07-2.51,9.76-4.51l.39-.31h0c0-.15,3.12-25.56,3.12-25.56-.5-12.94-14.23-13.84-16.3-13.91S32.28,9.72,30.13,22.48a67.07,67.07,0,0,0,.55,28.68A.76.76,0,0,1,31.74,51.5Z"/><path class="cls-5" d="M57.52,55c-5.09,2.39-8,4-11.92,5.39-6,2.08-9.17,2.45-14-5.74,0,0,0,.08,0,.12,2.56,6.41,5.79,7.85,5.79,7.85l4.11.26c2.26-.59,6.12-2.05,6.12-2.05,6.85-3.38,10.2-4.25,12-6.87C58.93,54.3,58.23,54.63,57.52,55Z"/><path class="cls-6" d="M60.72,51.26c9.47-11.53,8.78-27.78,8.78-27.78.93-21.94-25-18.81-25-18.81-9.22-.12-9-4.67-9-4.67a8.34,8.34,0,0,0-3.12,8.38c-1.61-.07-1.72-3-1.72-3-5.8,4.49-2.41,10.7-2.41,10.7C27.06,22.38,29,39,29,39s.53-16.63,5-20.19c0,0,4.49-2.11,7.66.53,0,0,15-5.8,17,9.41L60.49,42Z"/><path class="cls-3" d="M59.72,40.27S61.33,35,65.27,37.5c0,0,1.79,1,.22,4.61,0,0-2.27,5.12-6.09,3Z"/><path class="cls-6" d="M58.56,28.73s1.15,8.82.13,13.72l1.77.11s.11-6.17,3.21-6.65Z"/><path class="cls-2" d="M81,89.9c-.53-3.29-.94-5.38-1.11-5.86,0,0-1.28-10.36-12.54-8.54,0,0-8.84,2.79-7.24,14.4Z"/><polygon class="cls-7" points="44.97 71.61 40.68 64.9 33.95 68.46 39 76.57 44.97 71.61"/><polygon class="cls-7" points="44.97 71.61 53.14 64.01 59.9 68.26 50.97 77.07 44.97 71.61"/></g></g></svg>