<svg xmlns="http://www.w3.org/2000/svg" viewBox="0 0 82.79 93.52"><defs><style>.cls-1{fill:#c7e2f3;}.cls-2{fill:#9e6826;}.cls-3{fill:#f8b78f;}.cls-4{fill:#5d5faa;}.cls-5{fill:#e6ab86;}</style></defs><title>user2</title><g id="Layer_2" data-name="Layer 2"><g id="Capa_1" data-name="Capa 1"><path class="cls-1" d="M82.79,85.49c0,4.44-18.53,8-41.39,8S0,89.93,0,85.49s18.53-8,41.4-8S82.79,81.06,82.79,85.49Z"/><rect class="cls-2" x="33.56" y="17.51" width="31.43" height="67.98"/><path class="cls-3" d="M26.36,85.49C27.61,73.73,20,70.68,20,70.68,13,70.67,11.37,82,11.37,82l-.55,3.46Z"/><rect class="cls-3" x="35.23" y="51.6" width="11.72" height="15.69"/><path class="cls-3" d="M66.72,74.08a15.71,15.71,0,0,0-7.49-6.41L47,63.11H35.23L23,67.67a15.85,15.85,0,0,0-8.39,6.41Z"/><rect class="cls-3" x="22.74" y="71.61" width="33.11" height="13.88"/><path class="cls-4" d="M66.81,85.49a6.16,6.16,0,0,0,.81-5.11,13.2,13.2,0,0,0-8.39-12.71l-9.37-3.48c.46,17-14.63,14.41-14.63,14.41-13-.92-3.2-14.3-3.2-14.3l-7.52,2.79L18.76,81.44a22.3,22.3,0,0,0-1.59,4Z"/><path class="cls-3" d="M54.59,85.49H69l-.14-1.58c0-16.89-9.63-15.27-9.63-15.27C52.09,71.78,54,82,54,82Z"/><path class="cls-3" d="M54.19,45.05A9.59,9.59,0,0,1,52,48.2c-4.3,4.14-10.05,7-16.09,7C20.19,48.36,25.3,18,25.3,18,27.67,3.52,40.08,3.54,40.08,3.54c9.38-.4,17.94,4,19.38,13.91.55,3.78-.18,7.85-.37,11.63a30.42,30.42,0,0,1-1.37,8.21C56.82,40,55.32,42.44,54.19,45.05Z"/><path class="cls-5" d="M35.16,53.47c6.1,1.38,12.35-3,17.63-6.1a9.68,9.68,0,0,1-.76.83c-4.3,4.14-10.05,7-16.09,7a14.94,14.94,0,0,1-4.6-3.2A16.23,16.23,0,0,0,35.16,53.47Z"/><path class="cls-2" d="M24.5,32.36c-.3-4.79.13-8.62,3.1-12.44,2.77-3.57,3.45-4.36,4.27-9.52C32.58,6,42,.13,36.37.92c-9.13,1.3-13.75,11.36-14,16.15-.21,4.37-.24,9.71,1.85,13.45Z"/><path class="cls-2" d="M46.49,27.81c12.08,3.8,10.38,8.86,8,16.49,5.13-4.1,7.63-7.69,9.26-12.8,1.71-5.33,1.65-8.33,1.11-14C63.55,3.52,49.11-4,33.66,2.22c-5.72,2.31-4.51,11.94-1.42,16.49S38.14,25.19,46.49,27.81Z"/><path class="cls-3" d="M54,32.93s1.25-5.17,5.22-3c0,0,1.79.9.5,4.45,0,0-1.89,5.1-5.72,3.23Z"/></g></g></svg>