<svg xmlns="http://www.w3.org/2000/svg" viewBox="0 0 82.79 92.88"><defs><style>.cls-1{fill:#c7e2f3;}.cls-2{fill:#e98824;}.cls-3{fill:#f8b78f;}.cls-4{fill:#e6ab86;}.cls-5{fill:#006bb6;}</style></defs><title>user4</title><g id="Layer_2" data-name="Layer 2"><g id="Capa_1" data-name="Capa 1"><path class="cls-1" d="M82.79,84.85c0,4.43-18.53,8-41.39,8S0,89.28,0,84.85s18.53-8,41.4-8S82.79,80.41,82.79,84.85Z"/><path class="cls-2" d="M10.17,66.7c.73,6.32,5.4,11.32,5.94,18a1.09,1.09,0,0,1,0,.18h9.51c.42-6.54-3.44-10.7-3.92-17.45-.5-6.9,5.3-11.42,4-18.79S20.05,36.88,24.85,30c2.43-3.46,4.57-9.14,4.15-13.39-.38-3.85-2.61-5-5.23-4.76a13.45,13.45,0,0,0-7.69,4.27,17.74,17.74,0,0,0-4.44,10.5c-.64,6.73,3.72,12.43,3.22,19.65C14.36,53.32,9.32,59.33,10.17,66.7Z"/><path class="cls-3" d="M72.72,84.85c-.53-5.24-2.14-13.22-7-13.27,0,0-10.37-3.17-9.72,13.27Z"/><rect class="cls-3" x="37.04" y="51.42" width="11.72" height="15.69"/><path class="cls-3" d="M16.37,73.9a15.91,15.91,0,0,1,8.38-6.41L37,62.94H48.76L61,67.49a15.91,15.91,0,0,1,8.39,6.41Z"/><path class="cls-3" d="M29.72,45.44a22,22,0,0,0,9,8,22.58,22.58,0,0,0,4.52,1.63c1.11.27,3.6,1.06,4.69.58,15.75-6.88,10.64-37.21,10.64-37.21C56.16,4,43.74,4,43.74,4c-9.38-.41-17.93,4-19.38,13.9-.55,3.79.18,7.85.37,11.64a30.41,30.41,0,0,0,1.37,8.2A33.79,33.79,0,0,0,29.72,45.44Z"/><path class="cls-4" d="M45.93,54.49c-7-.49-12.63-5.92-17.32-10.9.35.63.72,1.25,1.11,1.85a22,22,0,0,0,9,8,22.58,22.58,0,0,0,4.52,1.63c1.11.27,3.6,1.06,4.69.58a15.07,15.07,0,0,0,6-4.79C51.75,52.4,48.64,54.69,45.93,54.49Z"/><path class="cls-2" d="M31.08,47.33C29.63,36.7,29.37,28.59,37.46,25c5.45-2.4,8-3.74,7.71-10.83-.33-7.51.47-10.87-5.33-12.4C31.06-.5,22.18,6.94,20.05,16.06,20.05,16.06,14,37.32,31.08,47.33Z"/><path class="cls-3" d="M31.08,34.44s-1.24-5.16-5.21-3c0,0-1.8.91-.5,4.45,0,0,1.88,5.11,5.71,3.24Z"/><path class="cls-5" d="M65.36,84.85c-5.46-12.48-6.63-18.22-6.63-18.22l-6.15-2.26c-.94,3.95-5.2,5.74-5.2,5.74a25.33,25.33,0,0,1-13.55-6L24.75,67.5A15.79,15.79,0,0,0,14,80.43l2.92,4.42Z"/><path class="cls-3" d="M28.71,84.85c0-15.75-9.23-13.33-9.23-13.33-4.85.08-6.39,8.09-6.89,13.33Z"/><path class="cls-2" d="M51.8,18.28A11.78,11.78,0,0,1,57.56,22c1.46,1.66,1.61,2.75,1.75,7.88.06,2.23,7-3.62,5.81-15.14A14.63,14.63,0,0,0,58.47,4.31c-2.55-1.64-10.72-7.12-23.38-2.5C30.54,3.47,41.74,15.18,51.8,18.28Z"/></g></g></svg>