<svg xmlns="http://www.w3.org/2000/svg" viewBox="0 0 82.79 91.27"><defs><style>.cls-1{fill:#c7e2f3;}.cls-2{fill:#a3765c;}.cls-3{fill:#c38c6e;}.cls-4{fill:#f8b78f;}.cls-5{fill:#e6ab86;}.cls-6{fill:#006bb6;}</style></defs><title>user7</title><g id="Layer_2" data-name="Layer 2"><g id="Capa_1" data-name="Capa 1"><path class="cls-1" d="M82.79,83.24c0,4.44-18.53,8-41.39,8S0,87.68,0,83.24s18.53-8,41.4-8S82.79,78.8,82.79,83.24Z"/><rect class="cls-2" x="41.04" y="37.38" width="20.99" height="39.14"/><path class="cls-3" d="M50.32,83.24,51.13.51C26.26-3.15,23.76,14,23.76,14L20.14,83.24Z"/><path class="cls-4" d="M30.79,83.24c1.5-16.4-9.23-14.55-9.23-14.55-5.17.27-6.27,9.39-6.49,14.55Z"/><rect class="cls-4" x="38.17" y="49.3" width="11.72" height="15.69"/><path class="cls-4" d="M68.58,71.78c-3.25-6-6.41-6.42-6.41-6.42L49.89,60.81H38.17L25.9,65.36a15.9,15.9,0,0,0-8.39,6.42Z"/><path class="cls-4" d="M57.21,43.31a22.06,22.06,0,0,1-9,8A23.22,23.22,0,0,1,43.74,53c-1.11.27-3.6,1-4.69.57C23.3,46.68,28.4,16.35,28.4,16.35,30.77,1.84,43.19,1.87,43.19,1.87c9.38-.41,17.94,4,19.38,13.91.55,3.78-.18,7.84-.37,11.63a30.55,30.55,0,0,1-1.37,8.21A33.72,33.72,0,0,1,57.21,43.31Z"/><path class="cls-5" d="M41,52.37c7-.5,12.63-5.93,17.32-10.91-.35.64-.72,1.25-1.11,1.85a22.06,22.06,0,0,1-9,8A23.22,23.22,0,0,1,43.74,53c-1.11.27-3.6,1-4.69.57a15,15,0,0,1-6-4.78C35.18,50.27,38.29,52.56,41,52.37Z"/><path class="cls-3" d="M55.85,45.21c1.45-10.64,1.7-18.75-6.38-22.3C44,20.51,30.14,19.64,30.14,10.6,30.14,3.46,37.21,2,43,.46c8.77-2.31,21.73,4.35,23.86,13.48C66.88,13.94,70.63,36.83,55.85,45.21Z"/><path class="cls-4" d="M55.85,32.31s1.24-5.16,5.21-3c0,0,1.8.91.5,4.46,0,0-1.88,5.1-5.71,3.23Z"/><path class="cls-6" d="M68,83.24l1.84-4.93c-2-11.76-7.38-13.08-7.38-13.08L53.1,62a25.28,25.28,0,0,1-13.55,6s-4.26-1.78-5.2-5.74L28.2,64.51S27,70.41,21.34,83.24Z"/><path class="cls-4" d="M71.08,83.24l-.14-.91c-.53-13.09-7.37-16.57-7.37-16.57-9.36.58-9.68,11-9,17.48Z"/><path class="cls-3" d="M56.87,35.36V83.24H70.23L69,28.77S70.56,8.45,57,2.7l-4.1,20.51S56.34,23.76,56.87,35.36Z"/></g></g></svg>