<svg xmlns="http://www.w3.org/2000/svg" viewBox="0 0 51.79 22.13"><defs><style>.cls-1{isolation:isolate;}.cls-2,.cls-4{fill:#a9afba;}.cls-3{fill:#7e8697;}.cls-4{opacity:0.55;mix-blend-mode:multiply;}.cls-5{fill:#69686d;}.cls-6{fill:#444248;}.cls-7{fill:#6e6e72;}.cls-8{fill:#c6cad1;}.cls-9{fill:#47464c;}.cls-10{fill:#66656a;}.cls-11{fill:#fea92c;}.cls-12{fill:#a7acb8;}</style></defs><title>warehouse</title><g class="cls-1"><g id="Layer_2" data-name="Layer 2"><g id="Layer_1-2" data-name="Layer 1"><polygon class="cls-2" points="51.79 22.13 19 22.13 19 6.54 34.7 0.3 51.79 8.1 51.79 22.13"/><polygon class="cls-2" points="15.69 0 0 9 0 22.13 31.93 22.13 34.7 0 15.69 0"/><polygon class="cls-3" points="17.08 0 15.69 0 0 9 0 22.13 17.61 22.13 17.61 7.09 17.08 0"/><path class="cls-4" d="M43.94,5.28c-1.51-.53-3-1.11-4.49-1.69-.76-.3-1.53-.55-2.28-.88s-1.29-.66-1.94-1l-.61-.3h0l-.06,0-.26-.1a5,5,0,0,0-1-.27l-.21,0-.2,0-.54,0c-.37,0-.74,0-1.11,0-.74,0-1.48.13-2.22.15s-1.72,0-2.58,0H21.07c-.88,0-1.75,0-2.62,0s-1.46-.06-2.18,0l-.48.05-.14,0-.24.07c-.16.05,7,.11,6.82.18l-.14.07-.18.11c-.68.44-1.33,1-2,1.37A27.91,27.91,0,0,1,15.4,5.25,22,22,0,0,1,13,6L0,9v2.59H17.61l17.09-6,17.09,4.91V8.1L46.51,6.17C45.65,5.87,44.79,5.59,43.94,5.28Z"/><path class="cls-5" d="M22.76,6.55c1-.33,2.07-.61,3.09-1q.91-.31,1.83-.66c.61-.22,1.24-.42,1.83-.69L30,4l.13-.06.07,0L31,3.47c.34-.19.69-.37,1-.54l.27-.12.05,0h0a8,8,0,0,1,2.13-1L34.7,0h-19L0,7.87V9.32H17.69A16.66,16.66,0,0,1,22.76,6.55Z"/><path class="cls-6" d="M0,7.87H0V9.32H17.69a17.47,17.47,0,0,1,2.14-1.45Z"/><rect class="cls-3" x="17.61" y="16.51" width="34.18" height="5.62"/><rect class="cls-4" x="17.61" y="16.51" width="34.18" height="1.29"/><rect class="cls-6" x="17.61" y="16.51" width="34.18" height="0.62"/><polygon class="cls-7" points="34.7 0 17.61 8 17.61 9.32 34.7 2.65 51.79 9.32 51.79 8 34.7 0"/><rect class="cls-8" x="23.31" y="10.91" width="8.07" height="11.22"/><rect class="cls-9" x="23.74" y="11.45" width="7.2" height="10.68"/><rect class="cls-10" x="24.1" y="11.94" width="6.48" height="10.19"/><rect class="cls-8" x="38.02" y="10.91" width="8.07" height="11.22"/><rect class="cls-9" x="38.45" y="11.45" width="7.2" height="10.68"/><rect class="cls-10" x="38.82" y="11.94" width="6.48" height="10.19"/><rect class="cls-9" x="24.51" y="13.85" width="5.67" height="0.61"/><rect class="cls-9" x="24.51" y="15.03" width="5.67" height="0.61"/><rect class="cls-9" x="24.51" y="16.21" width="5.67" height="0.61"/><rect class="cls-9" x="24.51" y="17.39" width="5.67" height="0.61"/><rect class="cls-9" x="24.51" y="18.57" width="5.67" height="0.61"/><rect class="cls-9" x="24.51" y="19.75" width="5.67" height="0.61"/><rect class="cls-9" x="24.51" y="20.93" width="5.67" height="0.61"/><rect class="cls-9" x="24.51" y="12.7" width="5.67" height="0.61"/><rect class="cls-9" x="39.22" y="13.85" width="5.67" height="0.61"/><rect class="cls-9" x="39.22" y="12.7" width="5.67" height="0.61"/><rect class="cls-9" x="39.22" y="15.03" width="5.67" height="0.61"/><rect class="cls-9" x="39.22" y="16.21" width="5.67" height="0.61"/><rect class="cls-9" x="39.22" y="17.39" width="5.67" height="0.61"/><rect class="cls-9" x="39.22" y="18.57" width="5.67" height="0.61"/><rect class="cls-9" x="39.22" y="19.75" width="5.67" height="0.61"/><rect class="cls-9" x="39.22" y="20.93" width="5.67" height="0.61"/><path class="cls-9" d="M35.72,8.07a1,1,0,1,1-1-1A1,1,0,0,1,35.72,8.07Z"/><path class="cls-11" d="M35.39,8.07a.69.69,0,1,1-1.38,0,.69.69,0,0,1,1.38,0Z"/><rect class="cls-12" x="17.9" y="18.24" width="0.37" height="3.56"/><rect class="cls-12" x="18.69" y="18.24" width="0.37" height="3.56"/><rect class="cls-12" x="19.48" y="18.24" width="0.37" height="3.56"/><rect class="cls-12" x="20.26" y="18.24" width="0.37" height="3.56"/><rect class="cls-12" x="21.05" y="18.24" width="0.37" height="3.56"/><rect class="cls-12" x="21.84" y="18.24" width="0.37" height="3.56"/><rect class="cls-12" x="22.63" y="18.24" width="0.37" height="3.56"/><rect class="cls-12" x="46.42" y="18.24" width="0.37" height="3.56"/><rect class="cls-12" x="47.2" y="18.24" width="0.37" height="3.56"/><rect class="cls-12" x="47.99" y="18.24" width="0.37" height="3.56"/><rect class="cls-12" x="48.78" y="18.24" width="0.37" height="3.56"/><rect class="cls-12" x="49.57" y="18.24" width="0.37" height="3.56"/><rect class="cls-12" x="50.36" y="18.24" width="0.37" height="3.56"/><rect class="cls-12" x="51.15" y="18.24" width="0.37" height="3.56"/><rect class="cls-12" x="31.76" y="18.24" width="0.37" height="3.56"/><rect class="cls-12" x="32.55" y="18.24" width="0.37" height="3.56"/><rect class="cls-12" x="33.34" y="18.24" width="0.37" height="3.56"/><rect class="cls-12" x="34.13" y="18.24" width="0.37" height="3.56"/><rect class="cls-12" x="34.91" y="18.24" width="0.37" height="3.56"/><rect class="cls-12" x="35.7" y="18.24" width="0.37" height="3.56"/><rect class="cls-12" x="36.49" y="18.24" width="0.37" height="3.56"/><rect class="cls-12" x="37.27" y="18.24" width="0.37" height="3.56"/></g></g></g></svg>